<?xml version="1.0" encoding="UTF-8" standalone="no"?>
<svg
   xmlns:dc="http://purl.org/dc/elements/1.1/"
   xmlns:cc="http://creativecommons.org/ns#"
   xmlns:rdf="http://www.w3.org/1999/02/22-rdf-syntax-ns#"
   xmlns:svg="http://www.w3.org/2000/svg"
   xmlns="http://www.w3.org/2000/svg"
   xmlns:sodipodi="http://sodipodi.sourceforge.net/DTD/sodipodi-0.dtd"
   xmlns:inkscape="http://www.inkscape.org/namespaces/inkscape"
   width="94.97184"
   height="88.705154"
   viewBox="0 0 94.97184 88.705154"
   version="1.1"
   id="SVGRoot"
   sodipodi:docname="15.svg"
   inkscape:version="1.0.1 (0767f8302a, 2020-10-17)">
  <defs
     id="defs42454" />
  <sodipodi:namedview
     id="base"
     pagecolor="#ffffff"
     bordercolor="#666666"
     borderopacity="1.0"
     inkscape:pageopacity="0.0"
     inkscape:pageshadow="2"
     inkscape:zoom="0.35"
     inkscape:cx="178.91449"
     inkscape:cy="264.35258"
     inkscape:document-units="px"
     inkscape:current-layer="layer1"
     inkscape:document-rotation="0"
     showgrid="false"
     inkscape:window-width="1366"
     inkscape:window-height="681"
     inkscape:window-x="0"
     inkscape:window-y="57"
     inkscape:window-maximized="0" />
  <metadata
     id="metadata42457">
    <rdf:RDF>
      <cc:Work
         rdf:about="">
        <dc:format>image/svg+xml</dc:format>
        <dc:type
           rdf:resource="http://purl.org/dc/dcmitype/StillImage" />
        <dc:title></dc:title>
      </cc:Work>
    </rdf:RDF>
  </metadata>
  <g
     inkscape:label="Layer 1"
     inkscape:groupmode="layer"
     id="layer1"
     transform="translate(-221.08551,-295.64742)">
    <g
       id="g21370"
       transform="matrix(1.3333333,0,0,-1.3333333,-222.45581,389.66875)">
      <path
         d="m 358.464,30.493 c 0,4.2519 3.445,7.6949 7.699,7.6968 l 13.274,-0.0019 v -3.077 h -13.274 c -2.55,-0.005 -4.614,-2.0679 -4.62,-4.6179 h -3.079"
         style="fill:#a8b2c7;fill-opacity:1;fill-rule:nonzero;stroke:none;stroke-width:0.1"
         id="path8755" />
      <path
         d="m 356.541,13.5871 c -0.202,0.0598 -0.769,0.2219 -1.63,0.0949 -0.766,-0.1129 -1.41,0.445 -1.628,1.243 -0.2,0.741 -0.185,1.7352 0.06,1.7898 0.281,0.0622 0.492,-0.8867 0.859,-1.0527 0.535,-0.2473 1.192,0.4031 1.192,0.4031 l 1.408,1.568 c 0,0 0.72,-0.5 0.852,-1.1461 0.082,-0.3922 0.827,-1.134 1.007,-1.1519 0.181,-0.0192 -2.12,-1.7481 -2.12,-1.7481"
         style="fill:#8190b1;fill-opacity:1;fill-rule:nonzero;stroke:none;stroke-width:0.1"
         id="path8757" />
      <path
         d="m 356.557,17.2379 c -0.192,0.4031 -2,0.457 -2.251,0.3191 0.565,-0.7031 1.848,-2.075 1.848,-2.075 l 0.403,1.7559"
         style="fill:#8190b1;fill-opacity:1;fill-rule:nonzero;stroke:none;stroke-width:0.1"
         id="path8759" />
      <path
         d="m 356.544,17.343 c -0.315,0.3031 -1.883,0.3289 -2.075,0.2621 0.266,-0.3289 0.806,-0.8492 1.165,-1.2403 0,0 -0.774,-0.941 -1.249,-0.7207 -0.324,0.1457 -0.76,1.1 -1.012,1.0801 -0.159,-0.0101 -0.211,-0.8543 -0.032,-1.514 0.195,-0.7063 0.878,-1.127 1.562,-1.0762 1.312,0.1019 1.903,-0.068 2.316,-0.3188 0,0 1.519,1.5778 1.359,1.595 -0.162,0.0179 -0.882,0.8418 -0.957,1.1929 -0.118,0.5688 -0.819,1.0301 -0.819,1.0301 l -0.258,-0.2902"
         style="fill:#b5c0d2;fill-opacity:1;fill-rule:nonzero;stroke:none;stroke-width:0.1"
         id="path8761" />
      <path
         d="m 357.703,14.132 c -0.315,0.141 -0.956,0.466 -0.956,0.466 l -0.44,0.7692 c 0.054,0.0848 0.509,0.493 0.879,0.9226 0.064,0.0801 0.343,-0.7027 0.439,-0.7628 0.1,-0.0622 0.914,-0.525 0.914,-0.525 l -0.836,-0.87"
         style="fill:#8190b1;fill-opacity:1;fill-rule:nonzero;stroke:none;stroke-width:0.1"
         id="path8763" />
      <path
         d="m 368.668,10.3051 c 0.247,-0.1149 0.354,-0.4051 0.243,-0.65119 -0.112,-0.2418 -0.402,-0.35196 -0.647,-0.24102 -0.248,0.11211 -0.352,0.39922 -0.242,0.64921 0.109,0.2438 0.401,0.3527 0.646,0.243 z m -12.329,3.3418 11.679,-5.68987 c 0.695,-0.31797 1.783,0.48086 2.097,1.17383 0.315,0.69297 0.024,1.64614 -0.668,1.95894 l -11.026,4.6411 -2.082,-2.084"
         style="fill:#731518;fill-opacity:1;fill-rule:nonzero;stroke:none;stroke-width:0.1"
         id="path8765" />
      <path
         d="m 368.668,10.3051 c 0.247,-0.1149 0.354,-0.4051 0.243,-0.65119 -0.112,-0.2418 -0.402,-0.35196 -0.647,-0.24102 -0.248,0.11211 -0.352,0.39922 -0.242,0.64921 0.109,0.2438 0.401,0.3527 0.646,0.243 z m -11.943,3.7359 11.444,-5.58709 c 0.433,-0.19805 1.216,0.48711 1.413,0.92031 0.197,0.43086 0.114,1.22378 -0.316,1.42188 l -10.935,4.7859 -1.606,-1.541"
         style="fill:#b11d23;fill-opacity:1;fill-rule:nonzero;stroke:none;stroke-width:0.1"
         id="path8767" />
      <path
         d="m 366.709,11.7988 c 0.52,1.0313 1.252,1.9114 1.814,2.3032 0,0 -2.276,2.432 -4.385,2.6539 -0.177,0.0211 -0.29,-0.5387 -1.603,-0.9168 -1.535,-0.1731 -2.865,-0.286 -2.749,-0.845 0.109,-0.5339 1.797,-0.3031 1.836,-0.7011 0,0 -0.228,-0.5438 -0.418,-0.7391 -0.285,-0.2918 -0.784,-0.8437 -1.092,-1.0598 -0.523,-0.3589 -0.925,-0.2961 -1.079,-0.4742 -0.246,-0.2847 0.356,-0.8519 0.524,-0.9238 0.579,-0.1051 1.077,-0.018 1.077,-0.018 l 0.588,-0.7941 c 0,0 1.632,-1.05587 2.009,-1.07502 0.372,-0.02304 2.145,0.40196 3.478,2.58982"
         style="fill:#5a80c9;fill-opacity:1;fill-rule:nonzero;stroke:none;stroke-width:0.1"
         id="path8769" />
      <path
         d="m 370.139,41.9742 c -1.457,-0.5844 -2.233,-14.7961 -2.233,-14.7961 0,0 -4.823,-10.4371 -4.823,-11.3109 1.348,-1.891 4.075,-5.132 5.485,-3.8492 0.325,0.2961 3.221,5.0558 6.254,11.7379 1.981,4.3671 2.324,9.7531 2.631,12.1871 0.449,3.6058 -1.327,6.1468 -3.362,6.5859 -2.034,0.4359 -3.952,-0.5547 -3.952,-0.5547"
         style="fill:#2b398a;fill-opacity:1;fill-rule:nonzero;stroke:none;stroke-width:0.1"
         id="path8771" />
      <path
         d="m 360.714,46.648 h -4.867 v 6.3579 h 4.867 V 46.648"
         style="fill:#b5c0d2;fill-opacity:1;fill-rule:nonzero;stroke:none;stroke-width:0.1"
         id="path8773" />
      <path
         d="m 360.045,41.1262 h -3.528 v 6.357 h 3.528 v -6.357"
         style="fill:#b5c0d2;fill-opacity:1;fill-rule:nonzero;stroke:none;stroke-width:0.1"
         id="path8775" />
      <path
         d="m 363.862,54.6422 c 0,-2.2863 -2.499,-4.1383 -5.581,-4.1383 -3.082,0 -5.58,1.852 -5.58,4.1383 0,2.2848 2.498,4.1379 5.58,4.1379 3.082,0 5.581,-1.8531 5.581,-4.1379"
         style="fill:#a8b2c7;fill-opacity:1;fill-rule:nonzero;stroke:none;stroke-width:0.1"
         id="path8777" />
      <path
         d="m 380.219,68.7641 c 2.526,-0.5469 2.407,-1.0961 -0.874,-1.0961 h -41.972 c -3.285,0 -3.607,0.5492 -1.284,1.0949 l 4.335,1.3793 c 0.932,0.218 2.912,0.3738 4.53,0.3738 h 26.512 c 1.619,0 3.658,-0.1558 4.672,-0.3738 l 4.081,-1.3781"
         style="fill:#b5c0d2;fill-opacity:1;fill-rule:nonzero;stroke:none;stroke-width:0.1"
         id="path8779" />
      <path
         d="m 376.945,68.3531 c 2.113,-0.4562 2.015,-0.9152 -0.732,-0.9152 h -35.737 c -2.744,0 -3.016,0.459 -1.074,0.9152 l 3.376,1.1508 c 0.78,0.1859 2.433,0.3141 3.789,0.3141 h 23.435 c 1.356,0 3.06,-0.1282 3.908,-0.3141 l 3.035,-1.1508"
         style="fill:#8190b1;fill-opacity:1;fill-rule:nonzero;stroke:none;stroke-width:0.1"
         id="path8781" />
      <path
         d="m 377.908,57.2281 c 0,-1.8359 -1.95,-3.3242 -4.355,-3.3242 h -30.547 c -2.407,0 -4.355,1.4883 -4.355,3.3242 v 7.9778 c 0,1.8371 1.948,3.323 4.355,3.323 h 30.547 c 2.405,0 4.355,-1.4859 4.355,-3.323 v -7.9778"
         style="fill:#8190b1;fill-opacity:1;fill-rule:nonzero;stroke:none;stroke-width:0.1"
         id="path8783" />
      <path
         d="m 383.905,64.9648 c 0,-0.441 -0.726,-0.7976 -1.624,-0.7976 h -47.999 c -0.898,0 -1.626,0.3566 -1.626,0.7976 v 2.5364 c 0,0.4379 0.728,0.7976 1.626,0.7976 h 47.999 c 0.898,0 1.624,-0.3597 1.624,-0.7976 v -2.5364"
         style="fill:#b5c0d2;fill-opacity:1;fill-rule:nonzero;stroke:none;stroke-width:0.1"
         id="path8785" />
      <path
         d="m 361.38,46.7582 c 0,-0.7391 -0.679,-1.3371 -1.517,-1.3371 h -3.165 c -0.837,0 -1.518,0.598 -1.518,1.3371 v 0.4477 c 0,0.7382 0.681,1.3371 1.518,1.3371 h 3.165 c 0.838,0 1.517,-0.5989 1.517,-1.3371 v -0.4477"
         style="fill:#a8b2c7;fill-opacity:1;fill-rule:nonzero;stroke:none;stroke-width:0.1"
         id="path8787" />
      <path
         d="m 361.045,40.9832 c 0,-0.6602 -0.605,-1.1941 -1.353,-1.1941 h -2.823 c -0.747,0 -1.355,0.5339 -1.355,1.1941 v 0.3969 c 0,0.6597 0.608,1.1949 1.355,1.1949 h 2.823 c 0.748,0 1.353,-0.5352 1.353,-1.1949 v -0.3969"
         style="fill:#a8b2c7;fill-opacity:1;fill-rule:nonzero;stroke:none;stroke-width:0.1"
         id="path8789" />
      <path
         d="m 362.129,39.2738 c 0,0.7391 -0.599,1.3391 -1.338,1.3391 h -5.021 c -0.739,0 -1.337,-0.6 -1.337,-1.3391 V 31.052 c 0,-0.2571 0.074,-0.4938 0.2,-0.6969 0.43,-1.202 1.892,-2.0949 3.648,-2.0949 1.751,0 3.213,0.8886 3.644,2.089 0.127,0.2039 0.204,0.4438 0.204,0.7028 v 8.2218"
         style="fill:#b5c0d2;fill-opacity:1;fill-rule:nonzero;stroke:none;stroke-width:0.1"
         id="path8791" />
      <path
         d="m 368.144,48.9711 c -1.752,0.348 -2.359,0.3098 -3.245,1.0301 -0.889,0.7207 -2.857,1.3609 -4.011,1.0418 -0.576,-0.159 -1.442,-0.875 -2.221,-1.6051 -1.208,-1.1309 -1.218,-1.6027 -0.82,-1.6578 0.71,-0.0981 1.395,0.534 1.866,0.5898 0.908,0.1051 1.42,-0.3168 1.85,-0.889 0.436,-0.568 -2.382,-1.3789 -2.081,-2.2469 0.194,-0.5621 2.102,0.1992 3.06,0.157 2.386,-0.1039 1.276,0.8801 3.454,-0.457 0.577,-0.3531 2.148,4.0371 2.148,4.0371"
         style="fill:#4053ad;fill-opacity:1;fill-rule:nonzero;stroke:none;stroke-width:0.1"
         id="path8793" />
      <path
         d="m 367.061,49.2859 c 1.025,0.1289 16.805,-1.9558 16.805,-1.9558 l -0.674,-8.5641 c 0,0 -17.287,4.2332 -17.415,4.6172 -0.127,0.3848 1.284,5.9027 1.284,5.9027"
         style="fill:#2b398a;fill-opacity:1;fill-rule:nonzero;stroke:none;stroke-width:0.1"
         id="path8795" />
      <path
         d="m 400.419,19.123 c 2.227,-1.075 3.525,-2.3589 3.267,-3.3851 -0.164,-0.6641 -1.203,-3.6231 -1.203,-3.6231 0,0 0.075,-1.4027 -0.836,-3.60777 -0.748,-1.81289 -3.55,-2.15703 -5.803,-1.42695 -0.638,0.20586 -1.205,1.24101 0.24,2.43711 1.597,1.31991 1.016,3.06091 0.867,4.18671 -0.335,2.4543 -1.772,3.0641 -1.772,3.0641 l 5.24,2.355"
         style="fill:#222326;fill-opacity:1;fill-rule:nonzero;stroke:none;stroke-width:0.1"
         id="path8797" />
      <path
         d="m 403.108,16.973 c -1.259,0.4622 -2.26,-0.721 -2.789,-4.6179 -0.282,-2.0801 -2.165,-4.61799 -4.492,-5.22815 -0.498,-0.13007 5.26,-1.18086 6.32,2.00391 1.063,3.18824 0.877,4.31794 1.444,5.36214 0.862,1.591 -0.483,2.48 -0.483,2.48"
         style="fill:#100f0d;fill-opacity:1;fill-rule:nonzero;stroke:none;stroke-width:0.1"
         id="path8799" />
      <path
         d="m 398.894,21.8762 3.053,-3.3153 -5.306,-5.0449 c 0,0 -8.63,5.9738 -9.028,6.636 -0.398,0.6621 11.281,1.7242 11.281,1.7242"
         style="fill:#2b398a;fill-opacity:1;fill-rule:nonzero;stroke:none;stroke-width:0.1"
         id="path8801" />
      <path
         d="m 390.185,16.298 c 2.223,-1.075 3.712,-2.4031 4.503,-4.5191 0.435,-1.1547 -1.394,-2.93593 -1.394,-2.93593 0,0 -1.219,-0.91797 -2.127,-3.12383 -0.751,-1.81406 -5.245,-1.99023 -7.534,-1.49101 -0.655,0.13984 -1.966,1.17695 -0.996,2.78671 0.719,1.19414 3.857,0.95625 3.948,2.08829 0.33,4.04807 -2.489,4.18087 -2.489,4.18087 l 6.089,3.014"
         style="fill:#100f0d;fill-opacity:1;fill-rule:nonzero;stroke:none;stroke-width:0.1"
         id="path8803" />
      <path
         d="m 386.658,27.7449 c -2.786,1.1922 -13.933,4.975 -15.924,2.1883 -1.992,-2.7891 -2.391,-7.1672 0.795,-9.157 3.183,-1.991 13.27,-12.14417 13.27,-12.14417 0,0 9.159,3.98277 9.159,5.17497 0,1.195 -3.917,5.3789 -3.917,5.3789 l -5.175,3.5801 1.792,4.9789"
         style="fill:#212554;fill-opacity:1;fill-rule:nonzero;stroke:none;stroke-width:0.1"
         id="path8805" />
      <path
         d="m 399.558,33.8211 c 1.331,-1.3262 4.644,-7.566 3.317,-10.7492 -1.327,-3.1867 -5.305,-6.3707 -12.209,-5.3098 -6.899,1.0649 -10.617,3.1867 -11.678,4.7777 -1.061,1.5922 1.327,5.8391 1.327,5.8391 l 19.243,5.4422"
         style="fill:#212554;fill-opacity:1;fill-rule:nonzero;stroke:none;stroke-width:0.1"
         id="path8807" />
      <path
         d="m 366.593,52.2699 c 0.837,-3.923 3.788,-7.682 5.401,-7.6109 1.606,0.0781 4.73,5.1461 4.599,8.2609 -0.136,3.1133 -2.405,5.7403 -5.409,5.143 -3.267,-0.6449 -5.228,-2.7481 -4.591,-5.793"
         style="fill:#e4b9a6;fill-opacity:1;fill-rule:nonzero;stroke:none;stroke-width:0.1"
         id="path8809" />
      <path
         d="m 365.871,54.0039 c -1.227,0.941 2.893,7.1621 7.62,6.316 4.72,-0.848 5.678,-4.5777 5.8,-6.982 0.118,-2.409 -0.27,-3.1297 0.419,-3.282 0.929,-0.2039 -5.879,-2.4258 -5.879,-2.4258 0,0 -2.526,1.7051 -2.517,2.2668 0.043,2.3051 -1.552,2.6261 -1.629,1.8363 -0.06,-0.623 -0.116,-1.0973 -0.116,-1.0973 l -0.467,-0.0269 c 0,0 -2.228,1.364 -2.674,1.791 -0.448,0.4191 -0.557,1.6039 -0.557,1.6039"
         style="fill:#2a1412;fill-opacity:1;fill-rule:nonzero;stroke:none;stroke-width:0.1"
         id="path8811" />
      <path
         d="m 382.007,51.3059 c 1.637,0.039 5.816,-0.9727 9.104,-3.9688 2.628,-2.3973 9.284,-12.341 11.764,-18.3609 -1.691,-1.391 -16.404,-8.284 -21.382,-1.0524 -1.961,2.8512 -4.105,4.6203 -4.105,4.6203 0,0 -0.449,7.3118 -7.762,8.5297 0,0 -0.449,1.2192 2.315,3.7821 1.101,1.0203 1.611,2.5273 2.6,3.2632 1.682,1.2559 3.486,3.0879 7.466,3.1868"
         style="fill:#212554;fill-opacity:1;fill-rule:nonzero;stroke:none;stroke-width:0.1"
         id="path8813" />
      <path
         d="m 403.286,29.5309 c 0.006,0.025 -4.94,10.4863 -12.145,17.8211 -3.114,3.175 -7.465,4.0109 -9.1,3.971 -1.79,-0.0441 -3.138,-0.4441 -4.232,-0.9761 2.779,-0.4949 15.377,-8.2989 22.396,-22.0848 0.915,-1.9402 2.109,-5.234 1.05,-7.607 -0.407,-0.918 4.241,4.114 2.031,8.8758"
         style="fill:#2b398a;fill-opacity:1;fill-rule:nonzero;stroke:none;stroke-width:0.1"
         id="path8815" />
      <path
         d="m 381.044,51.0172 -2.052,1.091 c 0,0 -6.286,-2.8863 -6.865,-5.3871 -0.127,-1.2191 0.642,-1.6039 0.642,-1.6039 0,0 5.131,4.4898 6.543,5.0027 1.41,0.5121 1.732,0.8973 1.732,0.8973"
         style="fill:#2b398a;fill-opacity:1;fill-rule:nonzero;stroke:none;stroke-width:0.1"
         id="path8817" />
    </g>
  </g>
</svg>
