<?xml version="1.0" encoding="UTF-8" standalone="no"?>
<svg
   xmlns:dc="http://purl.org/dc/elements/1.1/"
   xmlns:cc="http://creativecommons.org/ns#"
   xmlns:rdf="http://www.w3.org/1999/02/22-rdf-syntax-ns#"
   xmlns:svg="http://www.w3.org/2000/svg"
   xmlns="http://www.w3.org/2000/svg"
   xmlns:sodipodi="http://sodipodi.sourceforge.net/DTD/sodipodi-0.dtd"
   xmlns:inkscape="http://www.inkscape.org/namespaces/inkscape"
   width="99.436035"
   height="80.380363"
   viewBox="0 0 99.436035 80.380363"
   version="1.1"
   id="SVGRoot"
   sodipodi:docname="2.svg"
   inkscape:version="1.0.1 (0767f8302a, 2020-10-17)">
  <defs
     id="defs16142" />
  <sodipodi:namedview
     id="base"
     pagecolor="#ffffff"
     bordercolor="#666666"
     borderopacity="1.0"
     inkscape:pageopacity="0.0"
     inkscape:pageshadow="2"
     inkscape:zoom="0.35"
     inkscape:cx="369.09302"
     inkscape:cy="513.7951"
     inkscape:document-units="px"
     inkscape:current-layer="layer1"
     inkscape:document-rotation="0"
     showgrid="false"
     inkscape:window-width="1366"
     inkscape:window-height="681"
     inkscape:window-x="0"
     inkscape:window-y="57"
     inkscape:window-maximized="0" />
  <metadata
     id="metadata16145">
    <rdf:RDF>
      <cc:Work
         rdf:about="">
        <dc:format>image/svg+xml</dc:format>
        <dc:type
           rdf:resource="http://purl.org/dc/dcmitype/StillImage" />
        <dc:title></dc:title>
      </cc:Work>
    </rdf:RDF>
  </metadata>
  <g
     inkscape:label="Layer 1"
     inkscape:groupmode="layer"
     id="layer1"
     transform="translate(-30.906983,-46.204905)">
    <g
       id="g16804">
      <path
         d="m 130.34302,118.89103 c 0,3.92134 -14.33467,7.10134 -32.01333,7.10134 -17.68,0 -32.01334,-3.18 -32.01334,-7.10134 0,-3.92 14.33334,-7.09733 32.01334,-7.09733 17.67866,0 32.01333,3.17734 32.01333,7.09733"
         style="fill:#6a4542;fill-opacity:1;fill-rule:nonzero;stroke:none;stroke-width:0.133333"
         id="path6865" />
      <path
         d="m 128.31502,119.38169 c 0,3.57601 -13.42534,6.47735 -29.98533,6.47735 -16.55867,0 -29.984,-2.90134 -29.984,-6.47735 0,-3.57333 13.42533,-6.47199 29.984,-6.47199 16.55999,0 29.98533,2.89866 29.98533,6.47199"
         style="fill:#61201b;fill-opacity:1;fill-rule:nonzero;stroke:none;stroke-width:0.133333"
         id="path6867" />
      <path
         d="m 124.08835,122.69903 c -3.37867,-2.64934 -13.632,-4.57333 -25.75866,-4.57333 -12.12534,0 -22.37734,1.92399 -25.76,4.57333 5.23333,1.88933 14.80933,3.16001 25.76,3.16001 10.94799,0 20.52799,-1.268 25.75866,-3.16001"
         style="fill:#291313;fill-opacity:1;fill-rule:nonzero;stroke:none;stroke-width:0.133333"
         id="path6869" />
      <path
         d="m 79.82035,111.1417 c 0.64134,2.98134 -9.032,7.58534 -21.604,10.28267 -12.572,2.696 -23.281196,2.46533 -23.91973,-0.51733 -0.640133,-2.98267 9.03307,-7.58534 21.60373,-10.28267 12.57067,-2.69734 23.28267,-2.46533 23.92,0.51733"
         style="fill:#291313;fill-opacity:1;fill-rule:nonzero;stroke:none;stroke-width:0.133333"
         id="path6871" />
      <path
         d="m 79.18435,111.97503 c -4.9,4.88 -21.328,9.116 -34.31333,10.19466 -6.917067,0.57867 -12.0556,0.16934 -13.870666,-1.68133 -0.2136,0.716 1.004133,3.52267 1.2552,4.11467 0.510933,1.21466 4.442133,2.46133 12.428796,1.79733 12.98534,-1.08 28.40134,-4.276 35.50267,-9.976 1.28267,-1.03067 2.172,-1.83733 2.27067,-2.80267 -0.009,-0.384 -0.64134,-3.276 -1.27467,-3.90665 -0.23867,0.79732 -1.08533,1.34933 -1.99867,2.25999"
         style="fill:#291313;fill-opacity:1;fill-rule:nonzero;stroke:none;stroke-width:0.133333"
         id="path6873" />
      <path
         d="m 74.34835,112.31237 c -0.39066,0.24533 -1.412,0.53066 -2.26266,0.63067 -0.852,0.0947 -1.21734,-0.028 -0.82134,-0.27734 l 4.53867,-2.85066 c 0.736,0.13066 1.3,0.30666 1.67467,0.52933 z m -2.70266,1.696 -3.45334,2.172 c -1.40533,0.42667 -2.90533,0.83733 -4.47333,1.22933 l 4.86533,-3.05733 c 0.39334,-0.248 1.39467,-0.52667 2.24267,-0.62133 0.84933,-0.0973 1.22133,0.0293 0.81867,0.27733 z m -13.22934,4.60133 6.03467,-3.79466 c 0.39467,-0.24667 1.37467,-0.51867 2.20133,-0.612 0.832,-0.096 1.18934,0.028 0.79467,0.276 l -5.256,3.30399 c -1.23067,0.28666 -2.49333,0.56401 -3.77467,0.82667 z m -4.68266,0.85467 6.68133,-4.19733 c 0.38533,-0.24134 1.352,-0.51335 2.15867,-0.60267 0.81333,-0.0933 1.15733,0.0293 0.76933,0.276 l -6.25867,3.92933 c -1.112,0.21467 -2.23333,0.412 -3.35066,0.59467 z m -4.212,0.60533 6.94666,-4.36133 c 0.38267,-0.24 1.32934,-0.50533 2.11467,-0.596 0.79867,-0.0893 1.132,0.0333 0.74267,0.276 l -6.784,4.26267 c -1.01467,0.15866 -2.024,0.296 -3.02,0.41866 z m -2.19334,0.24934 c -0.55333,0.056 -1.08666,0.10533 -1.61066,0.148 l 6.888,-4.328 c 0.38,-0.236 1.30933,-0.49734 2.08133,-0.58667 0.776,-0.088 1.1,0.0347 0.72,0.276 l -6.96,4.37067 c -0.37467,0.0427 -0.748,0.084 -1.11867,0.12 z m -5.024,0.34133 6.532,-4.09733 c 0.36934,-0.23334 1.288,-0.49334 2.03867,-0.58 0.75867,-0.0853 1.072,0.0387 0.69467,0.27466 l -6.82267,4.28267 c -0.868,0.0613 -1.68133,0.0973 -2.44267,0.12 z m -2.99413,-0.0253 5.83013,-3.65733 c 0.36934,-0.232 1.26534,-0.488 2.004,-0.57334 0.74134,-0.0827 1.048,0.0387 0.67334,0.272 l -6.37467,4.00267 c -0.77867,0.007 -1.4912,-0.009 -2.1328,-0.044 z m -2.479733,-0.30933 4.693863,-2.944 c 0.368,-0.23067 1.248,-0.48 1.972,-0.564 0.72534,-0.0827 1.01734,0.0373 0.64667,0.27066 l -5.5672,3.49334 c -0.674533,-0.0587 -1.257333,-0.144 -1.745333,-0.256 z m -1.6292,-0.8 2.786533,-1.748 c 0.363467,-0.22934 1.2276,-0.47734 1.935333,-0.55467 0.711867,-0.0827 0.997197,0.0387 0.6292,0.26667 l -4.275466,2.68266 c -0.533867,-0.17466 -0.898,-0.39066 -1.0756,-0.64666 z m 5.246933,-3.29067 2.49213,-1.564 c 1.25334,-0.41733 2.61734,-0.82933 4.064,-1.22933 l -3.97466,2.496 c -0.364,0.22533 -1.236,0.47866 -1.95067,0.55866 -0.712,0.0827 -0.9928,-0.036 -0.6308,-0.26133 z m 11.4628,-4.02 -5.26133,3.30133 c -0.37067,0.232 -1.26134,0.48667 -1.98934,0.56934 -0.724,0.084 -1.01866,-0.0347 -0.65066,-0.264 l 4.39333,-2.75467 c 1.13067,-0.296 2.30533,-0.58 3.508,-0.852 z m 1.264,-0.28 c 1.06,-0.22933 2.144,-0.44667 3.236,-0.65067 l -6.06133,3.80534 c -0.37334,0.23333 -1.28134,0.49066 -2.02667,0.57733 -0.74133,0.0853 -1.04,-0.036 -0.66933,-0.26667 z m 7.46,-1.368 -6.50667,4.084 c -0.376,0.236 -1.3,0.49867 -2.064,0.58667 -0.756,0.0867 -1.06933,-0.0333 -0.692,-0.268 l 6.216,-3.90267 c 1.012,-0.17867 2.028,-0.34667 3.04667,-0.5 z m 2.85867,-0.39733 c 0.388,-0.0493 0.768,-0.096 1.14133,-0.13467 l -6.64,4.16933 c -0.38267,0.23734 -1.32533,0.50534 -2.10533,0.596 -0.77467,0.0893 -1.096,-0.0333 -0.71867,-0.27066 l 6.572,-4.128 c 0.58667,-0.0787 1.172,-0.15867 1.75067,-0.232 z m 2.19333,-0.25067 c 0.95333,-0.0973 1.86267,-0.17333 2.72533,-0.23333 l -6.468,4.06 c -0.38666,0.24266 -1.348,0.51466 -2.14533,0.604 -0.79333,0.0933 -1.12133,-0.028 -0.736,-0.27067 z m 6.228,-0.36667 -5.93333,3.728 c -0.38667,0.244 -1.364,0.51734 -2.17734,0.61067 -0.81066,0.092 -1.15333,-0.0293 -0.768,-0.272 l 6.36,-3.99333 c 0.90267,-0.0467 1.74,-0.0707 2.51867,-0.0733 z m 3.13067,0.14934 -4.92267,3.09866 c -0.4,0.248 -1.392,0.52534 -2.228,0.62 -0.82667,0.096 -1.18,-0.0267 -0.78933,-0.27066 l 5.71066,-3.588 c 0.83334,0.0187 1.58267,0.0653 2.22934,0.14 z m -9.84934,-0.98 c -12.62133,1.50266 -26.597063,5.63066 -32.025196,9.32 -5.435467,3.696 -0.826134,5.944 11.055866,4.95733 12.81067,-1.06533 28.98667,-5.42267 35.18933,-9.656 6.19734,-4.22667 -0.61333,-6.24133 -14.22,-4.62133"
         style="fill:#6a4542;fill-opacity:1;fill-rule:nonzero;stroke:none;stroke-width:0.133333"
         id="path6875" />
      <path
         d="m 79.36702,124.41104 -14.12,-74.474675 c -0.30667,-1.59466 -1.03867,-2.44533 -1.76267,-2.296 l -1.53066,0.0573 c -0.724,0.14934 -1.92267,0.74934 -1.61467,2.34534 l 14.62933,73.136005 c 0,0 2.34667,0.78933 2.82934,0.89466 0.48266,0.10667 1.56933,0.33734 1.56933,0.33734"
         style="fill:#b5c0d2;fill-opacity:1;fill-rule:nonzero;stroke:none;stroke-width:0.133333"
         id="path6877" />
      <path
         d="M 77.90702,124.1257 63.53769,50.125705 c -0.456,-1.996 -0.86134,-2.58 -1.584,-2.428 l -1.54,0.38133 c -0.724,0.148 -1.06,1.564 -0.752,3.16133 l 13.632,71.700005 c 0,0 1.22533,0.36667 1.63466,0.49333 0.75734,0.23334 2.97867,0.692 2.97867,0.692"
         style="fill:#8190b1;fill-opacity:1;fill-rule:nonzero;stroke:none;stroke-width:0.133333"
         id="path6879" />
      <path
         d="M 95.44569,125.62437 80.30302,48.203035 c -0.30933,-1.596 -1.19467,-2.11733 -1.87333,-1.976 l -1.50667,0.15067 c -0.68133,0.14133 -1.65867,0.42666 -1.35067,2.02266 l 15.96534,77.165325 c 0,0 2.34666,0.13334 2.796,0.128 0.45066,-0.004 1.112,-0.0693 1.112,-0.0693"
         style="fill:#b5c0d2;fill-opacity:1;fill-rule:nonzero;stroke:none;stroke-width:0.133333"
         id="path6881" />
      <path
         d="M 94.04035,125.74036 79.00302,48.915035 c -0.30933,-1.59467 -1.10933,-2.77333 -1.78667,-2.63333 l -1.228,0.256 c -0.67733,0.14 -0.97733,1.54933 -0.66933,3.14533 l 14.90667,75.822655 c 0,0 2.24266,0.25334 3.81466,0.23467"
         style="fill:#8190b1;fill-opacity:1;fill-rule:nonzero;stroke:none;stroke-width:0.133333"
         id="path6883" />
      <path
         d="m 80.43902,60.689705 c 0.18267,0.932 -0.37067,1.832 -1.23867,2.012 l -11.224,2.22533 c -0.868,0.18 -0.792,-0.496 -0.97866,-1.424 -0.18267,-0.932 -0.716,-1.604 0.152,-1.784 l 11.37733,-2.38533 c 0.86667,-0.17867 1.72133,0.42666 1.912,1.356"
         style="fill:#b5c0d2;fill-opacity:1;fill-rule:nonzero;stroke:none;stroke-width:0.133333"
         id="path6885" />
      <path
         d="m 84.89769,80.397695 c 0.24533,0.916 -0.29467,1.864 -1.208,2.112 l -11.496,3.07334 c -0.912,0.25066 -1.18934,-0.392 -1.436,-1.30934 -0.24534,-0.916 -0.304,-1.65066 0.61066,-1.9 l 11.42934,-3.18266 c 0.91333,-0.25067 1.85466,0.29066 2.1,1.20666"
         style="fill:#b5c0d2;fill-opacity:1;fill-rule:nonzero;stroke:none;stroke-width:0.133333"
         id="path6887" />
      <path
         d="m 87.74569,94.796365 c 0.29333,0.904 -0.196,1.87733 -1.09467,2.172 l -12.01733,3.832005 c -0.89734,0.29599 -0.50934,-0.52268 -0.804,-1.425335 -0.29334,-0.904 0.196,-1.87734 1.09733,-2.172 l 10.656,-3.50667 c 0.9,-0.296 1.868,0.196 2.16267,1.1"
         style="fill:#b5c0d2;fill-opacity:1;fill-rule:nonzero;stroke:none;stroke-width:0.133333"
         id="path6889" />
      <path
         d="m 90.53102,110.4457 c 0.29467,0.90267 -0.236,1.88799 -1.184,2.19999 l -11.81733,3.68134 c -0.94934,0.31333 -0.556,-0.18667 -0.852,-1.08934 l -0.0827,-0.23333 c -0.292,-0.904 -0.50934,-1.61867 0.44,-1.93067 l 11.27333,-3.20533 c 0.94934,-0.31067 1.928,-0.32667 2.22267,0.57733"
         style="fill:#b5c0d2;fill-opacity:1;fill-rule:nonzero;stroke:none;stroke-width:0.133333"
         id="path6891" />
      <path
         d="m 101.04035,96.145695 c -2.94133,-2.52 -8.392,-11.632 -10.796,-16.00266 -2.58266,-4.69334 -7.72666,-15.336 -7.72666,-15.336 l -6.28,5.98666 c 0,0 10.68,30.790665 14.084,35.367995 5.57333,7.49467 13.468,-7.663995 10.71866,-10.015995"
         style="fill:#212554;fill-opacity:1;fill-rule:nonzero;stroke:none;stroke-width:0.133333"
         id="path6893" />
      <path
         d="m 94.69769,100.38169 c -2.188,-3.979995 -4.38667,-6.317325 -4.38667,-6.317325 l 6.828,-5.704 c 0,0 3.26,5.972 4.824,7.09733 0.89067,0.64267 -7.26533,4.923995 -7.26533,4.923995"
         style="fill:#d1a18a;fill-opacity:1;fill-rule:nonzero;stroke:none;stroke-width:0.133333"
         id="path6895" />
      <path
         d="m 90.16435,125.25504 c -1.252,-7.65467 -2.72533,-19.152 -0.13066,-25.569345 0.60266,-1.49466 10.59333,-7.37866 10.59333,-7.37866 3.23067,6.14666 5.12,6.64266 7.26133,21.950665 0.61867,4.80266 1.82,8.39999 3.03067,11.03199 0,0 -5.672,0.43201 -6.59067,0.45067 -0.92,0.0187 -14.164,-0.48532 -14.164,-0.48532"
         style="fill:#2b398a;fill-opacity:1;fill-rule:nonzero;stroke:none;stroke-width:0.133333"
         id="path6897" />
      <path
         d="m 89.54035,125.5457 -2.6,-17.88 -0.472,-5.94533 c 0,0 6.77734,2.93732 12.868,-0.47467 0.088,1.92667 2.128,13.10933 5.168,24.43734 0,0 -4.768,0.30666 -7.844,0.19466 -3.97733,-0.14266 -7.12,-0.332 -7.12,-0.332"
         style="fill:#212554;fill-opacity:1;fill-rule:nonzero;stroke:none;stroke-width:0.133333"
         id="path6899" />
      <path
         d="m 103.04435,84.453695 c 0.48,-1.336 -0.324,-2.65333 -0.7,-3.63066 -1.29866,-4.53067 -8.404,-6.29734 -11.57333,-3.79867 -1.80933,1.43333 -2.344,3.82533 -3.392,6.69733 -0.48133,0.45467 -1.45067,2.01867 -2.23733,2.58267 -0.38134,0.516 0.47066,0.944 1.14133,1.49867 -0.37333,1.98 -0.36,3.556 0.316,4.33066 0.66,0.76534 4.57067,2.14267 4.848,2.28667 0,0 7.03333,2.87733 11.59733,-9.96667"
         style="fill:#d1a18a;fill-opacity:1;fill-rule:nonzero;stroke:none;stroke-width:0.133333"
         id="path6901" />
      <path
         d="m 102.78569,79.349695 c -0.26134,-1.584 -1.66934,-1.73866 -4.864,-2.95466 -3.09867,-1.17067 -2.388,-2.156 -5.32134,-0.76667 -1.496,0.71333 -2.436,3.108 -2.436,3.108 0,0 1.284,0.21867 1.93734,0.70933 0.64933,0.49467 -0.10134,0.084 0.28533,1.88534 0.32533,1.52133 0.148,2.508 0.148,2.508 0,0 3.55333,4.03733 3.16533,5.128 -0.156,0.44133 -1.372,2.704 -0.61866,4.19733 0.44533,0.88267 3.664,1.12267 3.96133,1.696 0,0 0.608,-2.15333 3.13333,-6.204 2.712,-4.35067 0.668,-8.93733 0.60934,-9.30667"
         style="fill:#2a1412;fill-opacity:1;fill-rule:nonzero;stroke:none;stroke-width:0.133333"
         id="path6903" />
      <path
         d="m 94.44035,86.215035 c 0.65467,-0.27467 1.6,-0.84534 2.01067,-0.064 0.608,1.13733 0.23733,3.26933 -1.26667,3.72666 -1.50266,0.46 -0.744,-3.66266 -0.744,-3.66266"
         style="fill:#d1a18a;fill-opacity:1;fill-rule:nonzero;stroke:none;stroke-width:0.133333"
         id="path6905" />
      <path
         d="m 103.02835,87.201695 c 0.88134,1.18134 1.05867,2.7 0.21467,2.604 -0.844,-0.0933 -3.652,-2.08133 -6.02133,-3.59066 -2.368,-1.51067 -9.016,-3.89334 -10.04134,-4.08667 -1.02133,-0.19333 -1.75333,-0.66267 -2.324,-1.49867 -0.57066,-0.83733 -2.048,-3.44133 -0.69333,-3.58133 1.352,-0.14133 4.06533,0.23733 5.60533,0.528 1.53734,0.28933 10.67734,6.33067 11.45334,7.46933 0.78133,1.14534 1.80666,2.156 1.80666,2.156"
         style="fill:#f46e16;fill-opacity:1;fill-rule:nonzero;stroke:none;stroke-width:0.133333"
         id="path6907" />
      <path
         d="m 103.75769,89.213695 c -0.0867,0.0707 -0.204,0.108 -0.35334,0.092 -0.844,-0.092 -3.65466,-2.08133 -6.02,-3.592 -2.37066,-1.50933 -9.01733,-3.89066 -10.04,-4.08666 -1.02666,-0.192 -1.756,-0.66 -2.32666,-1.49867 -0.412,-0.604 -1.28534,-2.116 -1.24267,-2.972 -0.65733,0.58267 0.552,2.69333 1.056,3.43333 0.56933,0.83734 1.3,1.30667 2.32533,1.5 1.024,0.19467 7.672,2.57734 10.03734,4.08667 2.36933,1.50667 5.17733,3.49867 6.02266,3.59333 0.344,0.036 0.516,-0.192 0.54134,-0.556"
         style="fill:#d93e21;fill-opacity:1;fill-rule:nonzero;stroke:none;stroke-width:0.133333"
         id="path6909" />
      <path
         d="m 102.89635,88.481695 c 0.368,-0.668 1.50667,-3.44533 1.652,-4.17733 0.59334,-3.01867 -1.08533,-6.048 -3.93333,-8.22 -3.84933,-2.936 -9.10533,-2.51733 -11.74,0.93467 -0.2,0.26 -0.96667,1.356 -1.124,1.636 0.31733,1.12133 1.91067,2.64533 2.94667,3.11866 1.68666,0.77334 4.43733,1.66667 6.16533,2.71467 2.26267,1.36933 3.772,2.01067 6.03333,3.99333"
         style="fill:#d93e21;fill-opacity:1;fill-rule:nonzero;stroke:none;stroke-width:0.133333"
         id="path6911" />
      <path
         d="m 102.02302,78.692365 c 0.94,0.71733 1.748,1.528 2.39467,2.404 -0.56534,-1.884 -1.91334,-3.644 -3.75334,-5.048 -3.84666,-2.936 -9.104,-2.51867 -11.73866,0.93467 -0.2,0.26533 -0.96667,1.35866 -1.124,1.63866 0.19866,0.69467 0.792,1.416 1.53733,2.07734 0.28933,-0.43334 0.70533,-1.02 0.84533,-1.204 2.63467,-3.45334 7.98667,-3.73867 11.83867,-0.80267"
         style="fill:#f46e16;fill-opacity:1;fill-rule:nonzero;stroke:none;stroke-width:0.133333"
         id="path6913" />
      <path
         d="m 82.92835,66.177695 c -0.86133,-1.17333 -1.28933,-1.10666 -1.428,-2.58133 -0.14533,-1.48 -1.23733,-4.15333 -2.58266,-4.92933 -0.672,-0.388 -2.08134,-0.55867 -3.46267,-0.41067 -2.23867,0.236 -2.65867,1.74267 -2.464,2.22934 0.11733,0.29333 1.148,-0.0493 1.76133,-0.11734 0.856,-0.0947 1.656,1.78267 1.52534,2.7 -0.13467,0.91867 -1.87734,0.0587 -2.64134,0.82134 -0.544,0.54266 2.996,1.46 3.08,2.69866 0.0773,1.24267 0.54,3.13067 0.656,3.34533 0.42267,0.77334 5.556,-3.756 5.556,-3.756"
         style="fill:#d93e21;fill-opacity:1;fill-rule:nonzero;stroke:none;stroke-width:0.133333"
         id="path6915" />
      <path
         d="m 74.08835,87.225695 c -1.684,-2.152 -3.99866,-3.98133 -5.972,-4.592 -1.972,-0.612 -2.508,-0.15066 -3.28533,0.0947 -0.77733,0.24667 -0.69467,1.24534 0.18,1.132 0.89333,-0.11733 2.05733,0.24667 2.05733,0.24667 0,0 -1.49866,-0.128 -2.56533,0.10533 -0.508,0.10934 -0.848,1.41334 0.83733,1.35867 0.364,0.12267 0.908,0.11733 1.18534,0.41067 -0.61067,-0.44 -3.13334,-0.81734 -2.472,0.35866 0.21733,0.38134 0.6,0.79867 0.94666,0.95734 0.72934,0.33866 1.21334,0.76533 1.21334,0.76533 0,0 -2.04534,-1.66133 -1.78934,-0.52533 0.08,0.356 0.82534,1.544 1.308,1.888 0.41067,0.28933 0.48134,0.39866 1.212,0.70933 0.40934,0.172 3.41734,1.28 3.516,1.39067 0.72267,0.824 1.51467,2.46666 1.51467,2.46666 0,0 4.71333,-4.95066 3.49467,-5.33866 -0.84534,-0.27067 -1.38134,-1.428 -1.38134,-1.428"
         style="fill:#f46e16;fill-opacity:1;fill-rule:nonzero;stroke:none;stroke-width:0.133333"
         id="path6917" />
      <path
         d="m 98.46035,107.72436 c -3.52133,1.204 -13.204,-1.72667 -16.432,-3.98933 -4.93866,-3.45734 -12.244,-9.315995 -12.244,-9.315995 l 4.02934,-7.89734 c 0,0 9.512,6.15467 12.20533,7.58934 1.796,0.95733 8.19467,1.492 11.78267,2.18666 5.54933,1.076 7.32,9.153345 0.65866,11.426675"
         style="fill:#2b398a;fill-opacity:1;fill-rule:nonzero;stroke:none;stroke-width:0.133333"
         id="path6919" />
    </g>
  </g>
</svg>
