<?xml version="1.0" encoding="UTF-8" standalone="no"?>
<svg
   xmlns:dc="http://purl.org/dc/elements/1.1/"
   xmlns:cc="http://creativecommons.org/ns#"
   xmlns:rdf="http://www.w3.org/1999/02/22-rdf-syntax-ns#"
   xmlns:svg="http://www.w3.org/2000/svg"
   xmlns="http://www.w3.org/2000/svg"
   xmlns:xlink="http://www.w3.org/1999/xlink"
   xmlns:sodipodi="http://sodipodi.sourceforge.net/DTD/sodipodi-0.dtd"
   xmlns:inkscape="http://www.inkscape.org/namespaces/inkscape"
   width="55.162666"
   height="136.17874"
   viewBox="0 0 55.162666 136.17874"
   version="1.1"
   id="SVGRoot"
   sodipodi:docname="5.svg"
   inkscape:version="1.0.1 (0767f8302a, 2020-10-17)">
  <defs
     id="defs21500">
    <clipPath
       clipPathUnits="userSpaceOnUse"
       id="clipPath6657">
      <path
         d="m 3908.88,4000.86 -5.94,36.63 7.62,1.06 c -3.89,-2.35 -6,-5.79 -5.19,-9.16 l 4.87,-27.75 -1.36,-0.78 m 58.79,33.57 -0.77,4.08 4.08,-2.19 -3.31,-1.89"
         id="path6655" />
    </clipPath>
    <linearGradient
       x1="0"
       y1="0"
       x2="1"
       y2="0"
       gradientUnits="userSpaceOnUse"
       gradientTransform="matrix(-9.00143,35.611,35.611,9.00143,3941.88,4010.87)"
       spreadMethod="pad"
       id="linearGradient6665">
      <stop
         style="stop-opacity:1;stop-color:#212554"
         offset="0"
         id="stop6659" />
      <stop
         style="stop-opacity:1;stop-color:#16182b"
         offset="0.67033"
         id="stop6661" />
      <stop
         style="stop-opacity:1;stop-color:#16182b"
         offset="1"
         id="stop6663" />
    </linearGradient>
    <clipPath
       clipPathUnits="userSpaceOnUse"
       id="clipPath6675">
      <path
         d="m 3910.24,4001.64 -4.87,27.75 c -0.81,3.37 1.3,6.81 5.19,9.16 l 44.67,6.23 11.67,-6.27 0.77,-4.08 -57.43,-32.79"
         id="path6673" />
    </clipPath>
    <linearGradient
       x1="0"
       y1="0"
       x2="1"
       y2="0"
       gradientUnits="userSpaceOnUse"
       gradientTransform="matrix(-9.00143,35.611,35.611,9.00143,3941.88,4010.87)"
       spreadMethod="pad"
       id="linearGradient6683">
      <stop
         style="stop-opacity:1;stop-color:#2b398a"
         offset="0"
         id="stop6677" />
      <stop
         style="stop-opacity:1;stop-color:#1b2244"
         offset="0.67033"
         id="stop6679" />
      <stop
         style="stop-opacity:1;stop-color:#1b2244"
         offset="1"
         id="stop6681" />
    </linearGradient>
    <clipPath
       clipPathUnits="userSpaceOnUse"
       id="clipPath6701">
      <path
         d="M 0,0 H 4163 V 4307 H 0 Z"
         id="path6699" />
    </clipPath>
    <clipPath
       clipPathUnits="userSpaceOnUse"
       id="clipPath6707">
      <path
         d="m 3997.71,4188.96 c 0,-4.05 -0.99,-21.96 -0.99,-36.36 0,-5.22 0.99,-5.67 7.47,-10.53 6.57,-4.86 61.74,-234.18 56.88,-239.85 -4.86,-5.67 -1.17,-13.59 -1.98,-20.16 -0.81,-6.48 2.79,-97.65 2.79,-104.94 0,-7.29 79.65,12.96 96.75,114.57 17.01,101.52 -9,290.79 -101.61,302.94 -92.61,12.24 -59.31,-5.67 -59.31,-5.67"
         id="path6705" />
    </clipPath>
    <clipPath
       clipPathUnits="userSpaceOnUse"
       id="clipPath6733">
      <path
         d="m 3936.54,4161.87 c -1.96,0 -6.13,4.37 -10.66,10.42 0.51,0.29 1,0.57 1.44,0.81 2.91,-4.37 6.37,-7.95 10.16,-10.85 -0.08,-0.04 -0.17,-0.08 -0.25,-0.11 -0.18,-0.18 -0.42,-0.27 -0.69,-0.27"
         id="path6731" />
    </clipPath>
    <linearGradient
       x1="0"
       y1="0"
       x2="1"
       y2="0"
       gradientUnits="userSpaceOnUse"
       gradientTransform="matrix(56.1701,122.872,122.872,-56.1701,3928.29,4188.29)"
       spreadMethod="pad"
       id="linearGradient6741">
      <stop
         style="stop-opacity:1;stop-color:#d1a18a"
         offset="0"
         id="stop6735" />
      <stop
         style="stop-opacity:1;stop-color:#ab7c63"
         offset="0.642857"
         id="stop6737" />
      <stop
         style="stop-opacity:1;stop-color:#ab7c63"
         offset="1"
         id="stop6739" />
    </linearGradient>
    <clipPath
       clipPathUnits="userSpaceOnUse"
       id="clipPath6751">
      <path
         d="m 3904.57,4234.27 -0.43,2.83 c 0.28,-0.97 0.6,-1.9 0.96,-2.81 -0.18,-0.01 -0.36,-0.02 -0.53,-0.02 m 102.61,4.85 c -0.43,4.74 -1.08,8.76 -1.96,12.15 4.75,-1.49 7.24,-3.18 6.35,-4.98 -0.96,-1.91 -2.46,-4.35 -4.39,-7.17 m -103.93,3.93 -1.66,11.07 c 1.28,0.74 3.22,1.38 5.67,1.9 -1.04,-1.69 -1.92,-3.44 -2.61,-5.23 -1.03,-2.64 -1.43,-5.24 -1.4,-7.74"
         id="path6749" />
    </clipPath>
    <linearGradient
       x1="0"
       y1="0"
       x2="1"
       y2="0"
       gradientUnits="userSpaceOnUse"
       gradientTransform="matrix(56.1701,122.872,122.872,-56.1701,3928.29,4188.29)"
       spreadMethod="pad"
       id="linearGradient6759">
      <stop
         style="stop-opacity:1;stop-color:#ffffff"
         offset="0"
         id="stop6753" />
      <stop
         style="stop-opacity:1;stop-color:#d3c6b7"
         offset="0.642857"
         id="stop6755" />
      <stop
         style="stop-opacity:1;stop-color:#d3c6b7"
         offset="1"
         id="stop6757" />
    </linearGradient>
    <clipPath
       clipPathUnits="userSpaceOnUse"
       id="clipPath6769">
      <path
         d="m 3925.88,4172.29 c -6.51,8.69 -13.77,20.84 -16.28,28.46 l -5.03,33.52 c 0.17,0 0.35,0.01 0.53,0.02 3.08,-7.7 8.91,-13.02 8.91,-13.02 l 0.04,-0.06 c -4.65,-1.99 -5.62,-6.72 -1.21,-17.04 2.97,-6.84 1.98,-10.8 7.02,-12.78 1.53,-7.26 4.13,-13.29 7.46,-18.29 -0.44,-0.24 -0.93,-0.52 -1.44,-0.81"
         id="path6767" />
    </clipPath>
    <linearGradient
       x1="0"
       y1="0"
       x2="1"
       y2="0"
       gradientUnits="userSpaceOnUse"
       gradientTransform="matrix(56.1701,122.872,122.872,-56.1701,3928.29,4188.29)"
       spreadMethod="pad"
       id="linearGradient6777">
      <stop
         style="stop-opacity:1;stop-color:#291413"
         offset="0"
         id="stop6771" />
      <stop
         style="stop-opacity:1;stop-color:#241312"
         offset="0.642857"
         id="stop6773" />
      <stop
         style="stop-opacity:1;stop-color:#241312"
         offset="1"
         id="stop6775" />
    </linearGradient>
    <clipPath
       clipPathUnits="userSpaceOnUse"
       id="clipPath6787">
      <path
         d="m 3937.48,4162.25 c -3.79,2.9 -7.25,6.48 -10.16,10.85 -3.33,5 -5.93,11.03 -7.46,18.29 -5.04,1.98 -4.05,5.94 -7.02,12.78 -4.41,10.32 -3.44,15.05 1.21,17.04 l 7.52,-11.73 5.58,0.18 c 0,0 -3.06,25.29 -0.72,30.51 2.19,4.96 7.6,16.92 24.53,16.92 1.19,0 2.43,-0.05 3.73,-0.18 2.29,-0.21 4.64,-0.32 6.96,-0.32 2.2,0 4.38,0.1 6.47,0.3 15.29,-1.18 29.27,-3.15 37.1,-5.62 0.88,-3.39 1.53,-7.41 1.96,-12.15 -15.9,-23.21 -60.83,-72.75 -69.7,-76.87"
         id="path6785" />
    </clipPath>
    <linearGradient
       x1="0"
       y1="0"
       x2="1"
       y2="0"
       gradientUnits="userSpaceOnUse"
       gradientTransform="matrix(56.1701,122.872,122.872,-56.1701,3928.29,4188.29)"
       spreadMethod="pad"
       id="linearGradient6795">
      <stop
         style="stop-opacity:1;stop-color:#e4b9a6"
         offset="0"
         id="stop6789" />
      <stop
         style="stop-opacity:1;stop-color:#bb8f76"
         offset="0.642857"
         id="stop6791" />
      <stop
         style="stop-opacity:1;stop-color:#bb8f76"
         offset="1"
         id="stop6793" />
    </linearGradient>
    <clipPath
       clipPathUnits="userSpaceOnUse"
       id="clipPath6805">
      <path
         d="m 3921.57,4209.48 -7.52,11.73 -0.04,0.06 c 0,0 -5.83,5.32 -8.91,13.02 -0.36,0.91 -0.68,1.84 -0.96,2.81 l -0.89,5.95 c -0.03,2.5 0.37,5.1 1.4,7.74 0.69,1.79 1.57,3.54 2.61,5.23 6.79,1.46 17.57,2.11 29.69,2.11 9.98,0 20.87,-0.44 31.17,-1.24 -2.09,-0.2 -4.27,-0.3 -6.47,-0.3 -2.32,0 -4.67,0.11 -6.96,0.32 -1.3,0.13 -2.54,0.18 -3.73,0.18 -16.93,0 -22.34,-11.96 -24.53,-16.92 -2.34,-5.22 0.72,-30.51 0.72,-30.51 l -5.58,-0.18"
         id="path6803" />
    </clipPath>
    <linearGradient
       inkscape:collect="always"
       xlink:href="#linearGradient6777"
       id="linearGradient22314"
       gradientUnits="userSpaceOnUse"
       gradientTransform="matrix(56.1701,122.872,122.872,-56.1701,3928.29,4188.29)"
       x1="0"
       y1="0"
       x2="1"
       y2="0"
       spreadMethod="pad" />
    <linearGradient
       inkscape:collect="always"
       xlink:href="#linearGradient6777"
       id="linearGradient22316"
       gradientUnits="userSpaceOnUse"
       gradientTransform="matrix(56.1701,122.872,122.872,-56.1701,3928.29,4188.29)"
       x1="0"
       y1="0"
       x2="1"
       y2="0"
       spreadMethod="pad" />
  </defs>
  <sodipodi:namedview
     id="base"
     pagecolor="#ffffff"
     bordercolor="#666666"
     borderopacity="1.0"
     inkscape:pageopacity="0.0"
     inkscape:pageshadow="2"
     inkscape:zoom="0.35"
     inkscape:cx="307.58134"
     inkscape:cy="322.37509"
     inkscape:document-units="px"
     inkscape:current-layer="layer1"
     inkscape:document-rotation="0"
     showgrid="false"
     inkscape:window-width="1366"
     inkscape:window-height="681"
     inkscape:window-x="0"
     inkscape:window-y="57"
     inkscape:window-maximized="0" />
  <metadata
     id="metadata21503">
    <rdf:RDF>
      <cc:Work
         rdf:about="">
        <dc:format>image/svg+xml</dc:format>
        <dc:type
           rdf:resource="http://purl.org/dc/dcmitype/StillImage" />
        <dc:title></dc:title>
      </cc:Work>
    </rdf:RDF>
  </metadata>
  <g
     inkscape:label="Layer 1"
     inkscape:groupmode="layer"
     id="layer1"
     transform="translate(-92.418662,-237.62491)">
    <g
       id="g18759"
       transform="matrix(1.3333333,0,0,-1.3333333,-406.83669,811.93316)">
      <path
         d="m 379.98,396.513 c 0,0.891 0.045,1.782 0.126,2.691 0.999,10.737 7.542,19.332 15.651,19.44 0.324,0 0.657,-0.018 0.981,-0.054 l -0.225,-2.421 c -0.252,0.018 -0.504,0.036 -0.756,0.036 -6.138,0.099 -12.33,-7.236 -13.221,-17.226 -0.081,-0.828 -0.117,-1.656 -0.117,-2.466 0,-9.288 4.851,-16.506 10.773,-16.956 l -0.225,-2.43 c -7.83,0.801 -12.978,9.387 -12.987,19.386"
         style="fill:#87c8ef;fill-opacity:1;fill-rule:nonzero;stroke:none;stroke-width:0.1"
         id="path6627" />
      <path
         d="m 382.752,398.034 c 0,0.522 0.027,1.053 0.054,1.575 0.279,4.806 1.584,8.982 3.69,12.015 2.097,3.033 5.094,4.941 8.577,4.941 0.189,0 0.378,-0.009 0.567,-0.018 h 0.009 l -0.117,-1.881 c -0.162,0.018 -0.315,0.018 -0.459,0.018 -2.772,-0.009 -5.166,-1.458 -7.038,-4.131 -1.854,-2.655 -3.096,-6.516 -3.357,-11.052 -0.027,-0.495 -0.045,-0.981 -0.045,-1.467 -0.009,-8.649 4.554,-15.372 9.945,-15.615 l -0.108,-1.872 c -6.957,0.486 -11.7,8.298 -11.718,17.487"
         style="fill:#6b9eda;fill-opacity:1;fill-rule:nonzero;stroke:none;stroke-width:0.1"
         id="path6629" />
      <path
         d="m 391.527,414.909 c 0.18,0.729 -0.153,0.846 0.882,1.215 1.035,0.369 6.885,0.882 7.857,-1.161 0.981,-2.034 -0.423,-2.25 -1.431,-2.466 -0.999,-0.216 -4.32,-0.36 -5.634,0.738 -1.305,1.089 -1.674,1.674 -1.674,1.674"
         style="fill:#212554;fill-opacity:1;fill-rule:nonzero;stroke:none;stroke-width:0.1"
         id="path6631" />
      <path
         d="m 406.152,411.3 c 0.96,-1.282 2.299,-2.204 5.186,-7.336 0,0 1.758,3.695 1.758,2.626 3.953,-2.137 2.669,-6.694 1.827,-7.86 -1.096,-1.525 -4.284,-3.14 -5.725,-2.498 -2.596,1.155 -4.863,5.684 -5.364,7.311 -0.959,3.125 2.318,7.757 2.318,7.757"
         style="fill:#212554;fill-opacity:1;fill-rule:nonzero;stroke:none;stroke-width:0.1"
         id="path6633" />
      <path
         d="m 384.335,398.369 c 0,0.417 0.012,0.835 0.04,1.252 0.504,8.629 6.115,15.595 13.101,15.643 0.202,0 0.401,-0.006 0.598,-0.019 l -0.113,-1.874 c -0.166,0.011 -0.328,0.017 -0.485,0.017 -5.592,0.051 -10.767,-5.924 -11.227,-13.877 -0.024,-0.385 -0.037,-0.765 -0.037,-1.142 0.003,-7.663 4.527,-13.713 10.05,-13.994 l -0.111,-1.872 c -6.901,0.452 -11.818,7.545 -11.816,15.866"
         style="fill:#6b9eda;fill-opacity:1;fill-rule:nonzero;stroke:none;stroke-width:0.1"
         id="path6635" />
      <path
         d="m 392.301,418.248 c 0.162,-1.305 0.324,-2.943 0,-4.005 -0.324,-1.053 -1.143,-1.863 -1.143,-1.863 0,0 4.311,-3.15 5.859,-3.474 1.539,-0.324 4.356,2.817 4.446,3.474 0.081,0.648 -1.692,0.99 -1.773,1.89 -0.081,0.891 0.189,3.654 0.189,3.654 l -7.578,0.324"
         style="fill:#d1a18a;fill-opacity:1;fill-rule:nonzero;stroke:none;stroke-width:0.1"
         id="path6637" />
      <path
         d="m 397.214,334.748 c 0.034,1.009 0.605,2.463 0.41,7.674 -0.022,0.632 5.236,0.073 5.236,0.073 0.488,-1.34 0.023,-6.198 5.199,-7.676 1.705,-0.487 2.315,-3.55 -1.306,-3.477 -4.126,0.076 -4.808,2.281 -5.769,1.08 -0.438,-0.548 -2.761,-0.239 -2.761,-0.239 0,0 -1.07,0.743 -1.009,2.565"
         style="fill:#201b1a;fill-opacity:1;fill-rule:nonzero;stroke:none;stroke-width:0.1"
         id="path6639" />
      <path
         d="m 404.032,390.396 c 1.11,-2.917 1.198,-3.551 1.198,-8.409 0,-4.858 -0.792,-20.187 -1.455,-23.786 -0.421,-2.281 0.043,-4.774 0,-6.607 -0.147,-6.208 2.06,-15.363 0.218,-15.1 -4.49,0.641 -7.578,-3.545 -7.712,-2.407 -0.814,6.904 -0.747,14.392 0.163,23.803 0.233,2.42 0.933,18.122 0.933,20.064 0,1.944 -0.997,11.753 -0.997,11.753 l 7.652,0.689"
         style="fill:#212554;fill-opacity:1;fill-rule:nonzero;stroke:none;stroke-width:0.1"
         id="path6641" />
      <path
         d="m 386.413,336.461 c -1.003,-2.083 -0.89,-5.422 -0.288,-5.541 0.599,-0.12 1.798,-0.256 2.52,-1.219 0.721,-0.961 3.37,-1.569 5.333,-0.649 1.428,0.672 1.322,2.323 0.841,2.923 -0.481,0.603 -2.847,1.209 -3.169,3.331 -0.185,1.242 -5.237,1.155 -5.237,1.155"
         style="fill:#100f0d;fill-opacity:1;fill-rule:nonzero;stroke:none;stroke-width:0.1"
         id="path6643" />
      <path
         d="m 405.665,392.454 c -0.065,1.294 -0.236,6.629 0.486,9.992 0.721,3.365 0.059,8.713 0.059,8.713 -0.244,0.406 -4.345,2.325 -5.787,3.046 0,0 0.571,-1.97 -1.543,-3.595 -1.027,-0.789 0.464,-5.078 1.425,-13.727 0.257,-2.311 0.528,-7.446 1.133,-11.577 1.023,-13.278 2.242,-20.485 1.786,-23.372 -0.179,-1.153 0.367,-3.233 -1.257,-8.188 -0.64,-1.951 -0.28,-8.553 -0.244,-10.073 0.097,-4.039 -1.789,-3.879 -2.031,-5.32 0.163,-0.569 1.869,0.284 2.762,0.284 -1.199,-1.2 -2.274,-1.706 -3.614,-2.235 -0.316,-0.123 0.029,-0.117 0.731,-0.486 1.466,0.63 3.076,-0.131 5.158,0.445 0.669,0.187 -0.047,11.105 0.1,17.313 0.044,1.832 0.542,4.294 0.962,6.578 0.664,3.596 0.481,19.653 -0.126,32.202"
         style="fill:#2b398a;fill-opacity:1;fill-rule:nonzero;stroke:none;stroke-width:0.1"
         id="path6645" />
      <path
         d="m 400.995,396.558 c -0.243,4.563 -1.872,14.211 -1.872,14.211 l -4.914,1.611 -2.475,2.124 c -1.917,-1.206 -6.687,-1.764 -8.127,-4.644 3.843,-5.526 4.869,-16.452 4.635,-17.892 -0.135,-0.792 -0.612,-4.626 -1.224,-9.018 -0.972,-6.093 -0.657,-16.506 -0.972,-21.564 -0.207,-3.366 0.225,-9.468 -0.972,-15.237 -1.206,-5.76 -0.792,-12.879 -0.369,-13.608 3.042,0.126 1.116,1.062 7.515,1.791 1.737,0.198 1.71,12.537 2.196,14.463 0.477,1.917 0.81,6.048 1.296,8.928 0.477,2.889 1.467,10.35 1.953,18.279 l 4.347,3.456 c 0.351,0.261 -0.783,12.537 -1.017,17.1"
         style="fill:#212554;fill-opacity:1;fill-rule:nonzero;stroke:none;stroke-width:0.1"
         id="path6647" />
      <path
         d="m 397.368,400.23 c 0.126,-0.522 0.081,-0.963 -0.765,-1.089 l -4.086,-0.954 c -0.846,-0.135 -1.143,0.171 -1.269,0.702 l -0.711,4.05 c -0.126,0.522 0.45,1.062 1.305,1.188 l 3.078,0.477 c 0.846,0.126 1.638,-0.198 1.764,-0.72 l 0.684,-3.654"
         style="fill:#2b398a;fill-opacity:1;fill-rule:nonzero;stroke:none;stroke-width:0.1"
         id="path6649" />
      <g
         id="g6651"
         transform="scale(0.1)">
        <g
           id="g6653"
           clip-path="url(#clipPath6657)">
          <path
             d="m 3908.88,4000.86 -5.94,36.63 7.62,1.06 c -3.89,-2.35 -6,-5.79 -5.19,-9.16 l 4.87,-27.75 -1.36,-0.78 m 58.79,33.57 -0.77,4.08 4.08,-2.19 -3.31,-1.89"
             style="fill:url(#linearGradient6665);fill-opacity:1;fill-rule:nonzero;stroke:none"
             id="path6667" />
        </g>
      </g>
      <g
         id="g6669"
         transform="scale(0.1)">
        <g
           id="g6671"
           clip-path="url(#clipPath6675)">
          <path
             d="m 3910.24,4001.64 -4.87,27.75 c -0.81,3.37 1.3,6.81 5.19,9.16 l 44.67,6.23 11.67,-6.27 0.77,-4.08 -57.43,-32.79"
             style="fill:url(#linearGradient6683);fill-opacity:1;fill-rule:nonzero;stroke:none"
             id="path6685" />
        </g>
      </g>
      <path
         d="m 389.864,404.4 c -0.124,-0.66 0.129,-2.109 0.439,-2.084 0.312,0.026 3.184,0.847 3.455,0.381 0.697,0.893 2.788,1.132 3.339,0.937 0,0 -0.416,1.591 -0.873,1.876 -0.457,0.287 -6.36,-1.11 -6.36,-1.11"
         style="fill:#2b398a;fill-opacity:1;fill-rule:nonzero;stroke:none;stroke-width:0.1"
         id="path6687" />
      <path
         d="m 406.38,400.784 c 0.015,-0.536 -0.415,-0.987 -0.957,-1.006 l -2.004,-0.171 c -0.544,-0.019 -0.945,0.179 -0.962,0.718 l -0.124,4.093 c -0.015,0.537 0.416,0.988 0.958,1.006 l 1.968,0.068 c 0.545,0.018 0.997,-0.4 1.013,-0.939 l 0.108,-3.769"
         style="fill:#212554;fill-opacity:1;fill-rule:nonzero;stroke:none;stroke-width:0.1"
         id="path6689" />
      <path
         d="m 402.096,405.954 c -0.159,-0.638 -0.278,-1.929 -0.082,-1.942 0.196,-0.016 2.184,0.244 2.294,-0.249 0.542,0.791 1.872,0.755 2.192,0.489 0,0 -0.064,1.625 -0.311,1.969 -0.252,0.342 -4.093,-0.267 -4.093,-0.267"
         style="fill:#212554;fill-opacity:1;fill-rule:nonzero;stroke:none;stroke-width:0.1"
         id="path6691" />
      <path
         d="m 391.85,415.896 -2.248,-3.832 4.429,-0.237 -0.535,-1.762 5.909,-0.556 c 0,0 -3.851,2.861 -5.322,3.8 -1.471,0.943 -2.233,2.587 -2.233,2.587"
         style="fill:#2b398a;fill-opacity:1;fill-rule:nonzero;stroke:none;stroke-width:0.1"
         id="path6693" />
      <g
         id="g6695"
         transform="scale(0.1)">
        <g
           id="g6697"
           clip-path="url(#clipPath6701)">
          <g
             id="g6703"
             clip-path="url(#clipPath6707)">
            <path
               d="m 4024.88,3797.99 c 59.08,4.51 107.65,76.68 107.6,169.6 0,8.09 -0.37,16.33 -1.12,24.65 -8.93,99.89 -70.83,173.21 -132.25,172.19 -2.49,0 -5.02,-0.1 -7.53,-0.33 l -2.26,24.25 c 3.27,0.32 6.53,0.46 9.79,0.46 81.06,-0.99 146.54,-87.01 156.52,-194.36 0.83,-9.06 1.2,-18.03 1.2,-26.86 -0.04,-100 -51.54,-185.87 -129.73,-193.88 l -2.22,24.28"
               style="fill:#b1e3f8;fill-opacity:1;fill-rule:nonzero;stroke:none"
               id="path6709" />
            <path
               d="m 3991.7,4150.03 h 0.02 V 4150 Z m 19.2,-327.69 c 53.4,2.29 98.97,69.27 98.88,155.59 0,4.83 -0.15,9.7 -0.42,14.59 -5.2,90.64 -58.75,158.56 -113.49,157.63 -1.37,0 -2.76,-0.06 -4.15,-0.12 l -1.24,19.86 c 1.82,0.11 3.61,0.17 5.39,0.17 71.57,-0.95 127.48,-79.77 133.38,-176.39 0.3,-5.29 0.44,-10.53 0.44,-15.74 -0.09,-92.03 -47.67,-170.48 -117.59,-175.48 l -1.2,19.89"
               style="fill:#87c8ef;fill-opacity:1;fill-rule:nonzero;stroke:none"
               id="path6711" />
            <path
               d="m 3978.67,4143.88 v -0.02 z m 15.46,-297.69 c 55.31,2.8 100.34,63.67 100.38,140.74 0,3.53 -0.08,7.09 -0.28,10.68 -3.35,61.9 -18.77,96.78 -39.07,116.85 -20.3,20.07 -46.96,26.94 -76.49,29.42 l 1.55,18.71 c 31.2,-2.59 63.21,-10.18 88.12,-34.8 24.91,-24.64 41.21,-64.81 44.62,-129.2 0.21,-3.89 0.32,-7.79 0.32,-11.66 0.04,-83.54 -48.85,-154.92 -118.04,-159.49 l -1.11,18.75"
               style="fill:#6b9eda;fill-opacity:1;fill-rule:nonzero;stroke:none"
               id="path6713" />
          </g>
        </g>
      </g>
      <path
         d="m 414.412,407.213 c -1.049,0.714 -1.725,0.548 -2.499,0.442 -0.769,-0.108 -3.123,-1.165 -2.049,-1.679 0.872,-0.069 1.522,0.34 2.127,0.259 0.6,-0.082 0.648,0.083 0.648,0.083 0,0 -3.02,-0.363 -2.796,-1.139 0.227,-0.78 3.222,0.035 3.222,0.035 0,0 -2.39,-0.571 -2.2,-1.159 0.189,-0.59 2.83,-0.091 2.83,-0.091 0,0 -2.11,-0.202 -1.708,-0.673 0.402,-0.473 2.112,-0.52 2.698,-0.352 2.333,0.676 -0.273,4.274 -0.273,4.274"
         style="fill:#f46e16;fill-opacity:1;fill-rule:nonzero;stroke:none;stroke-width:0.1"
         id="path6715" />
      <path
         d="m 413.769,407.514 c -0.857,0.601 -1.139,1.135 -1.633,1.49 -0.407,0.294 -0.508,-0.056 -0.41,-0.508 0.182,-0.865 0.568,-1.209 1.196,-1.522 0.625,-0.311 0.847,0.54 0.847,0.54"
         style="fill:#f46e16;fill-opacity:1;fill-rule:nonzero;stroke:none;stroke-width:0.1"
         id="path6717" />
      <path
         d="m 399.692,415.728 2.68,-2.254 -0.744,-0.915 1.232,-0.426 -3.957,-2.732 c 0,0 0.789,2.307 1.155,3.77 0.368,1.477 -0.366,2.557 -0.366,2.557"
         style="fill:#212554;fill-opacity:1;fill-rule:nonzero;stroke:none;stroke-width:0.1"
         id="path6719" />
      <path
         d="m 390.123,423.405 c -0.207,-0.702 -0.486,-2.439 1.035,-4.878 0.477,-0.747 0.585,-1.854 0.405,-1.917 -0.189,-0.063 1.395,0.828 1.395,0.828 0,0 -0.576,5.328 -0.909,5.724 -0.342,0.396 -1.926,0.243 -1.926,0.243"
         style="fill:#291313;fill-opacity:1;fill-rule:nonzero;stroke:none;stroke-width:0.1"
         id="path6721" />
      <path
         d="m 400.725,423.828 c -0.207,2.475 -0.972,3.015 -2.655,3.195 -0.594,0.216 -1.386,0.279 -2.457,0.162 -3.609,-0.387 -4.257,-2.592 -3.987,-4.995 -0.648,-0.144 -0.846,-0.594 -0.342,-1.773 0.297,-0.684 0.198,-1.08 0.702,-1.278 0.774,-3.672 4.284,-4.212 6.057,-3.987 1.071,0.18 1.458,0.864 1.935,1.467 0.594,0.765 0.657,1.629 0.783,3.339 0.018,1.863 0.027,3.159 -0.036,3.87"
         style="fill:#e4b9a6;fill-opacity:1;fill-rule:nonzero;stroke:none;stroke-width:0.1"
         id="path6723" />
      <path
         d="m 398.376,426.285 c -0.369,-0.54 -1.719,-0.702 -2.907,-0.594 -1.989,0.189 -2.592,-1.143 -2.826,-1.674 -0.234,-0.522 0.072,-3.051 0.072,-3.051 l -0.558,-0.018 -0.756,1.179 c 0,0 -1.539,1.404 -0.936,2.952 0.45,1.17 1.701,2.151 3.078,2.691 0.639,0.243 3.186,1.341 3.843,0.459 0.315,-0.414 0.99,-1.944 0.99,-1.944"
         style="fill:#291313;fill-opacity:1;fill-rule:nonzero;stroke:none;stroke-width:0.1"
         id="path6725" />
      <g
         id="g6727"
         transform="scale(0.1)">
        <g
           id="g6729"
           clip-path="url(#clipPath6733)">
          <path
             d="m 3936.54,4161.87 c -1.96,0 -6.13,4.37 -10.66,10.42 0.51,0.29 1,0.57 1.44,0.81 2.91,-4.37 6.37,-7.95 10.16,-10.85 -0.08,-0.04 -0.17,-0.08 -0.25,-0.11 -0.18,-0.18 -0.42,-0.27 -0.69,-0.27"
             style="fill:url(#linearGradient6741);fill-opacity:1;fill-rule:nonzero;stroke:none"
             id="path6743" />
        </g>
      </g>
      <g
         id="g6745"
         transform="scale(0.1)">
        <g
           id="g6747"
           clip-path="url(#clipPath6751)">
          <path
             d="m 3904.57,4234.27 -0.43,2.83 c 0.28,-0.97 0.6,-1.9 0.96,-2.81 -0.18,-0.01 -0.36,-0.02 -0.53,-0.02 m 102.61,4.85 c -0.43,4.74 -1.08,8.76 -1.96,12.15 4.75,-1.49 7.24,-3.18 6.35,-4.98 -0.96,-1.91 -2.46,-4.35 -4.39,-7.17 m -103.93,3.93 -1.66,11.07 c 1.28,0.74 3.22,1.38 5.67,1.9 -1.04,-1.69 -1.92,-3.44 -2.61,-5.23 -1.03,-2.64 -1.43,-5.24 -1.4,-7.74"
             style="fill:url(#linearGradient6759);fill-opacity:1;fill-rule:nonzero;stroke:none"
             id="path6761" />
        </g>
      </g>
      <g
         id="g6763"
         transform="scale(0.1)">
        <g
           id="g6765"
           clip-path="url(#clipPath6769)">
          <path
             d="m 3925.88,4172.29 c -6.51,8.69 -13.77,20.84 -16.28,28.46 l -5.03,33.52 c 0.17,0 0.35,0.01 0.53,0.02 3.08,-7.7 8.91,-13.02 8.91,-13.02 l 0.04,-0.06 c -4.65,-1.99 -5.62,-6.72 -1.21,-17.04 2.97,-6.84 1.98,-10.8 7.02,-12.78 1.53,-7.26 4.13,-13.29 7.46,-18.29 -0.44,-0.24 -0.93,-0.52 -1.44,-0.81"
             style="fill:url(#linearGradient22314);fill-opacity:1;fill-rule:nonzero;stroke:none"
             id="path6779" />
        </g>
      </g>
      <g
         id="g6781"
         transform="scale(0.1)">
        <g
           id="g6783"
           clip-path="url(#clipPath6787)">
          <path
             d="m 3937.48,4162.25 c -3.79,2.9 -7.25,6.48 -10.16,10.85 -3.33,5 -5.93,11.03 -7.46,18.29 -5.04,1.98 -4.05,5.94 -7.02,12.78 -4.41,10.32 -3.44,15.05 1.21,17.04 l 7.52,-11.73 5.58,0.18 c 0,0 -3.06,25.29 -0.72,30.51 2.19,4.96 7.6,16.92 24.53,16.92 1.19,0 2.43,-0.05 3.73,-0.18 2.29,-0.21 4.64,-0.32 6.96,-0.32 2.2,0 4.38,0.1 6.47,0.3 15.29,-1.18 29.27,-3.15 37.1,-5.62 0.88,-3.39 1.53,-7.41 1.96,-12.15 -15.9,-23.21 -60.83,-72.75 -69.7,-76.87"
             style="fill:url(#linearGradient6795);fill-opacity:1;fill-rule:nonzero;stroke:none"
             id="path6797" />
        </g>
      </g>
      <g
         id="g6799"
         transform="scale(0.1)">
        <g
           id="g6801"
           clip-path="url(#clipPath6805)">
          <path
             d="m 3921.57,4209.48 -7.52,11.73 -0.04,0.06 c 0,0 -5.83,5.32 -8.91,13.02 -0.36,0.91 -0.68,1.84 -0.96,2.81 l -0.89,5.95 c -0.03,2.5 0.37,5.1 1.4,7.74 0.69,1.79 1.57,3.54 2.61,5.23 6.79,1.46 17.57,2.11 29.69,2.11 9.98,0 20.87,-0.44 31.17,-1.24 -2.09,-0.2 -4.27,-0.3 -6.47,-0.3 -2.32,0 -4.67,0.11 -6.96,0.32 -1.3,0.13 -2.54,0.18 -3.73,0.18 -16.93,0 -22.34,-11.96 -24.53,-16.92 -2.34,-5.22 0.72,-30.51 0.72,-30.51 l -5.58,-0.18"
             style="fill:url(#linearGradient22316);fill-opacity:1;fill-rule:nonzero;stroke:none"
             id="path6815" />
        </g>
      </g>
      <path
         d="m 389.014,422.201 c 0.815,0.008 4.462,0.616 5.923,0.794 1.46,0.178 8.082,0.569 7.823,1.628 -0.171,0.687 -1.629,0.368 -3.421,0.652 -1.791,0.286 -9.717,-1.018 -11.205,-2.353 -0.856,-0.768 0.88,-0.721 0.88,-0.721"
         style="fill:#5a80c9;fill-opacity:1;fill-rule:nonzero;stroke:none;stroke-width:0.1"
         id="path6817" />
      <path
         d="m 400.927,424.967 c 0.004,-0.308 -1.329,-0.363 -4.905,-0.695 -3.574,-0.334 -6.825,-1.326 -6.835,-1.115 -0.192,4.555 1.649,7.136 5.221,7.469 3.576,0.331 6.476,-1.729 6.519,-5.659"
         style="fill:#4053ad;fill-opacity:1;fill-rule:nonzero;stroke:none;stroke-width:0.1"
         id="path6819" />
      <path
         d="m 401.456,424.933 c -0.157,3.248 -3.168,6.103 -6.743,5.772 -0.061,-0.007 -0.961,-0.046 -1.666,-0.328 0.529,-0.261 0.766,-0.618 0.946,-0.873 0.998,-1.41 1.427,-3.672 1.201,-5.379 3.254,0.238 6.277,0.514 6.262,0.808"
         style="fill:#5a80c9;fill-opacity:1;fill-rule:nonzero;stroke:none;stroke-width:0.1"
         id="path6821" />
      <path
         d="m 399.306,424.748 c -0.203,1.846 -1.271,4.942 -2.656,5.333 0.645,0.251 1.14,-0.414 1.719,-1.302 0.577,-0.887 1.827,-3.736 1.584,-3.904 -0.242,-0.164 -0.647,-0.127 -0.647,-0.127"
         style="fill:#4053ad;fill-opacity:1;fill-rule:nonzero;stroke:none;stroke-width:0.1"
         id="path6823" />
      <path
         d="m 398.23,376.736 c 0,0 -1.429,-2.777 -1.908,-6.62 -2.56,-10.724 -1.423,-11.739 -3.128,-17.101 -0.483,-1.516 -1.064,-8.622 -2.153,-14.022 -0.731,-2.591 -2.937,-3.347 -2.437,-3.595 0.51,-0.256 1.247,0.098 1.873,0.303 l -0.011,-0.043 c -1.067,-0.487 -3.982,-1.75 -3.69,-2.26 0.298,-0.522 1.857,0.352 3.336,0.441 2.635,0.37 3.646,-0.46 3.67,-0.056 0.671,11.88 1.792,21.356 2.269,24.238 0.214,1.256 2.358,15.524 2.179,18.715"
         style="fill:#2b398a;fill-opacity:1;fill-rule:nonzero;stroke:none;stroke-width:0.1"
         id="path6825" />
      <path
         d="m 386.262,379.034 0.011,-0.005 0.008,-0.005 c 0.041,-0.04 0.057,-0.19 0.218,-0.207 0.098,-0.008 0.114,-0.006 0.114,-0.006 0,0 0.037,-0.1 0.155,-0.169 0.091,-0.054 0.184,-0.018 0.193,-0.014 l 0.006,-0.002 0.131,-0.158 c 0.116,-0.063 0.173,-0.011 0.227,-0.107 l 0.037,0.034 2.802,-1.629 c 0.236,-0.139 0.553,-0.032 0.708,0.235 l 0.025,0.04 c 0.155,0.268 0.092,0.596 -0.147,0.733 l -2.798,1.631 0.012,0.055 c -0.11,0.001 -0.091,0.073 -0.207,0.144 l -0.205,0.036 c 0,0 -0.01,0.11 -0.105,0.164 -0.119,0.069 -0.228,0.053 -0.228,0.053 l -0.06,0.096 c -0.093,0.131 -0.232,0.071 -0.288,0.088 -0.054,0.016 -0.026,0.095 -0.134,0.156 -0.107,0.064 -0.16,0.021 -0.195,0.043 -0.036,0.021 -0.113,0.165 -0.225,0.167 l -0.093,-0.011 c -0.17,0.044 -0.212,-0.195 -0.351,-0.432 l -0.021,-0.04 c -0.143,-0.241 -0.33,-0.395 -0.197,-0.524 l 0.034,-0.075 c 0.055,-0.096 0.22,-0.093 0.256,-0.114 0.035,-0.02 0.025,-0.086 0.131,-0.148 0.093,-0.054 0.147,-0.014 0.186,-0.029"
         style="fill:#b5c0d2;fill-opacity:1;fill-rule:nonzero;stroke:none;stroke-width:0.1"
         id="path6827" />
      <path
         d="m 386.048,379.483 0.309,0.533 2.357,-1.37 c 0.126,-0.074 0.16,-0.247 0.078,-0.39 l -0.013,-0.02 c -0.083,-0.142 -0.25,-0.198 -0.375,-0.125 l -2.356,1.372"
         style="fill:#8190b1;fill-opacity:1;fill-rule:nonzero;stroke:none;stroke-width:0.1"
         id="path6829" />
      <path
         d="m 386.496,380.58 c 0.009,-0.494 0.24,-1.322 0.254,-1.648 0.015,-0.323 -0.014,-2.223 -0.236,-2.287 -0.223,-0.063 -0.619,0.449 -0.704,0.982 -0.086,0.533 -0.293,1.542 -0.362,1.95 -0.072,0.409 1.048,1.003 1.048,1.003"
         style="fill:#d93e21;fill-opacity:1;fill-rule:nonzero;stroke:none;stroke-width:0.1"
         id="path6831" />
      <path
         d="m 390.613,372.908 c 0.104,0.058 1.845,2.431 1.619,2.945 -0.227,0.513 -1.962,1.26 -1.962,1.26 l -0.221,-0.586 1.371,-0.798 c 0,0 0.173,-0.083 0.123,-0.347 l -0.031,0.02 -0.097,-0.35 -0.014,-0.015 -0.068,0.02 -0.105,-0.322 -0.004,-0.009 -0.074,0.034 -0.085,-0.305 -0.007,-0.012 -0.059,0.056 -0.092,-0.316 -0.013,-0.022 -0.06,0.056 -0.117,-0.355 -0.016,-0.03 -0.061,0.053 -0.092,-0.313 -0.005,-0.008 -0.08,0.038 -0.049,-0.255 -10e-4,-0.006 c 0,0 0.094,-0.491 0.2,-0.433"
         style="fill:#201e1d;fill-opacity:1;fill-rule:nonzero;stroke:none;stroke-width:0.1"
         id="path6833" />
      <path
         d="m 391.406,374.067 -0.589,-1.055 c 0.431,-0.136 0.789,0.079 1.332,0.527 l 0.866,0.833 c 1.039,0.967 0.609,1.743 0.058,2.065 l -2.673,1.554 c -0.527,0.306 -1.195,0.149 -1.532,-0.347 l 2.762,-1.609 c 0.552,-0.32 0.719,-0.784 -0.224,-1.968"
         style="fill:#8190b1;fill-opacity:1;fill-rule:nonzero;stroke:none;stroke-width:0.1"
         id="path6835" />
      <path
         d="m 389.161,374.397 c 0.136,-0.112 0.333,-0.339 0.198,-0.652 l 0.294,0.364 0.034,-0.019 c 0.294,-0.172 0.734,0.031 0.979,0.453 0.245,0.42 0.203,0.902 -0.09,1.074 l -7.005,4.075 c -1.53,1.121 -3.429,2.365 -4.983,3.268 -1.557,0.908 -2.457,1.29 -3.009,1.38 -0.147,0.081 -0.333,0.071 -0.508,-0.015 -0.23,-0.073 -0.346,-0.246 -0.459,-0.441 -0.114,-0.194 -0.206,-0.381 -0.157,-0.618 0.013,-0.194 0.093,-0.359 0.238,-0.448 0.35,-0.436 1.128,-1.029 2.686,-1.935 1.554,-0.904 3.574,-1.939 5.303,-2.718 l 6.479,-3.768"
         style="fill:#b11d23;fill-opacity:1;fill-rule:nonzero;stroke:none;stroke-width:0.1"
         id="path6837" />
      <path
         d="m 387.328,375.984 c 0.194,-0.113 1.307,0.163 1.113,0.276 l -4.954,2.882 c -1.025,0.701 -4.261,2.647 -5.282,3.24 -1.022,0.596 -2.059,1.135 -2.401,1.231 -0.098,0.053 -0.207,0.064 -0.306,0.037 -0.132,-0.017 -0.186,-0.095 -0.238,-0.182 -0.052,-0.087 -0.092,-0.173 -0.039,-0.296 0.024,-0.1 0.087,-0.19 0.182,-0.249 0.251,-0.248 1.233,-0.884 2.258,-1.479 1.019,-0.594 4.31,-2.446 5.424,-2.992 l 4.243,-2.468"
         style="fill:#731518;fill-opacity:1;fill-rule:nonzero;stroke:none;stroke-width:0.1"
         id="path6839" />
      <path
         d="m 390.297,373.473 1.162,1.995 c 0.092,0.157 0.071,0.341 -0.049,0.409 l -1.032,0.601 c -0.12,0.069 -0.265,0.035 -0.331,-0.076 l -0.816,-1.404 c -0.064,-0.111 -0.022,-0.256 0.097,-0.325 l 0.331,-0.194 -0.274,-0.475 c -0.093,-0.157 -0.072,-0.34 0.047,-0.409 l 0.486,-0.283 c 0.119,-0.069 0.288,0.003 0.379,0.161"
         style="fill:#731518;fill-opacity:1;fill-rule:nonzero;stroke:none;stroke-width:0.1"
         id="path6841" />
      <path
         d="m 387.062,374.898 0.722,0.582 0.889,-0.517 c 0.316,-0.184 0.729,-0.061 0.923,0.275 l 1.491,2.562 c 0.195,0.335 0.1,0.755 -0.217,0.938 l -1.959,1.141 c -0.313,0.184 -0.727,0.059 -0.921,-0.276 l -2.282,-3.917 c -0.091,-0.157 -0.011,-0.314 0.146,-0.406 l 0.784,-0.456 c 0.158,-0.091 0.261,-0.083 0.424,0.074"
         style="fill:#731518;fill-opacity:1;fill-rule:nonzero;stroke:none;stroke-width:0.1"
         id="path6843" />
      <path
         d="m 389.917,373.528 c -0.146,0.085 -0.251,0.169 -0.161,0.323 l 1.106,1.901 c 0.089,0.153 0.226,0.123 0.37,0.039 l 0.032,-0.02 c 0.143,-0.083 0.238,-0.187 0.148,-0.341 l -1.104,-1.9 c -0.091,-0.155 -0.217,-0.104 -0.359,-0.022 l -0.032,0.02"
         style="fill:#b11d23;fill-opacity:1;fill-rule:nonzero;stroke:none;stroke-width:0.1"
         id="path6845" />
      <path
         d="m 390.517,372.925 c 0.379,-0.179 0.843,-0.029 1.07,0.358 l 0.962,1.656 c 0.24,0.409 0.282,1.121 -0.315,1.206 -0.442,0.062 -0.656,0.032 -0.726,-0.047 0,0 -0.056,-0.119 0.2,-0.204 0.373,-0.121 0.281,-0.449 0.111,-0.78 l -0.096,0.041 -0.078,-0.351 -0.012,-0.021 -0.103,0.04 -0.077,-0.349 v -10e-4 l -0.111,0.056 -0.051,-0.332 -0.004,-0.009 -0.095,0.08 -0.061,-0.346 -0.006,-0.015 -0.097,0.079 -0.086,-0.391 -0.01,-0.017 -0.099,0.076 -0.061,-0.342 -0.118,0.061 -0.013,-0.287 -0.124,-0.161"
         style="fill:#b5c0d2;fill-opacity:1;fill-rule:nonzero;stroke:none;stroke-width:0.1"
         id="path6847" />
      <path
         d="m 387.111,375.042 0.719,0.581 0.89,-0.518 c 0.316,-0.183 0.728,-0.06 0.924,0.275 l 1.491,2.563 c 0.195,0.335 0.099,0.755 -0.218,0.939 l -1.957,1.14 c -0.315,0.183 -0.728,0.06 -0.923,-0.276 l -2.28,-3.917 c -0.093,-0.156 -0.038,-0.359 0.118,-0.451 l 0.785,-0.456 c 0.156,-0.091 0.295,-0.027 0.451,0.12"
         style="fill:#b11d23;fill-opacity:1;fill-rule:nonzero;stroke:none;stroke-width:0.1"
         id="path6849" />
      <path
         d="m 389.254,375.941 c 0.144,-0.084 0.193,-0.27 0.109,-0.414 -0.085,-0.145 -0.268,-0.193 -0.412,-0.109 -0.145,0.084 -0.193,0.268 -0.11,0.412 0.083,0.145 0.268,0.194 0.413,0.111"
         style="fill:#731518;fill-opacity:1;fill-rule:nonzero;stroke:none;stroke-width:0.1"
         id="path6851" />
      <path
         d="m 388.117,377.205 c -0.211,0.124 -0.271,0.414 -0.132,0.649 l 0.664,1.142 c 0.135,0.234 0.418,0.327 0.629,0.204 l 0.571,-0.333 c 0.212,-0.122 0.272,-0.414 0.134,-0.649 l -0.664,-1.141 c -0.136,-0.236 -0.42,-0.327 -0.628,-0.205 l -0.574,0.333"
         style="fill:#731518;fill-opacity:1;fill-rule:nonzero;stroke:none;stroke-width:0.1"
         id="path6853" />
      <path
         d="m 388.073,377.978 0.594,1.022 0.343,-0.2 -0.593,-1.023 -0.344,0.201"
         style="fill:#b5c0d2;fill-opacity:1;fill-rule:nonzero;stroke:none;stroke-width:0.1"
         id="path6855" />
      <path
         d="m 388.203,378.205 0.332,0.568 0.344,-0.2 -0.331,-0.569 -0.345,0.201"
         style="fill:#8190b1;fill-opacity:1;fill-rule:nonzero;stroke:none;stroke-width:0.1"
         id="path6857" />
      <path
         d="m 388.561,377.317 c -0.235,0.138 -0.315,0.441 -0.179,0.678 l 0.416,0.712 c 0.136,0.235 0.44,0.316 0.675,0.179 l 0.143,-0.085 c 0.235,-0.137 0.316,-0.438 0.179,-0.676 l -0.415,-0.712 c -0.137,-0.237 -0.441,-0.317 -0.677,-0.179 l -0.142,0.083"
         style="fill:#b5c0d2;fill-opacity:1;fill-rule:nonzero;stroke:none;stroke-width:0.1"
         id="path6859" />
      <path
         d="m 382.469,384.291 c -0.404,-1.625 -1.46,-3.818 -1.623,-4.55 -0.163,-0.731 -0.142,-1.249 0.264,-1.818 0.406,-0.568 1.675,-1.43 2.375,-1.644 0.521,-0.159 2.111,-0.266 2.042,0.305 -0.121,1.004 -0.292,1.045 -0.212,1.37 0.081,0.325 0.227,1.032 0.486,0.813 0.261,-0.22 0.731,0.934 0.731,1.503 0,0.568 -0.649,1.99 -0.973,2.964 -0.326,0.975 -3.09,1.057 -3.09,1.057"
         style="fill:#d93e21;fill-opacity:1;fill-rule:nonzero;stroke:none;stroke-width:0.1"
         id="path6861" />
      <path
         d="m 385.386,411.157 c -1.249,0.61 -3.045,-2.194 -3.897,-7.677 0,0 -0.439,-4.566 -0.807,-9.076 0.245,-3.958 -1.226,-12.559 -0.364,-13.16 2.33,0.038 4.255,-0.9 6.7,-0.365 0.163,3.899 0.196,9.814 0.245,11.819 0.033,1.454 0.311,2.679 0.687,7.938 0.242,7.15 -1.768,10.132 -2.564,10.521"
         style="fill:#2b398a;fill-opacity:1;fill-rule:nonzero;stroke:none;stroke-width:0.1"
         id="path6863" />
    </g>
  </g>
</svg>
