<?xml version="1.0" encoding="UTF-8" standalone="no"?>
<svg
   xmlns:dc="http://purl.org/dc/elements/1.1/"
   xmlns:cc="http://creativecommons.org/ns#"
   xmlns:rdf="http://www.w3.org/1999/02/22-rdf-syntax-ns#"
   xmlns:svg="http://www.w3.org/2000/svg"
   xmlns="http://www.w3.org/2000/svg"
   xmlns:sodipodi="http://sodipodi.sourceforge.net/DTD/sodipodi-0.dtd"
   xmlns:inkscape="http://www.inkscape.org/namespaces/inkscape"
   width="57.09063mm"
   height="61.277126mm"
   viewBox="0 0 57.09063 61.277126"
   version="1.1"
   id="svg8"
   inkscape:version="1.0.1 (0767f8302a, 2020-10-17)"
   sodipodi:docname="intern.svg">
  <defs
     id="defs2" />
  <sodipodi:namedview
     id="base"
     pagecolor="#ffffff"
     bordercolor="#666666"
     borderopacity="1.0"
     inkscape:pageopacity="0.0"
     inkscape:pageshadow="2"
     inkscape:zoom="0.35"
     inkscape:cx="282.17352"
     inkscape:cy="38.656453"
     inkscape:document-units="mm"
     inkscape:current-layer="layer1"
     inkscape:document-rotation="0"
     showgrid="false"
     inkscape:window-width="1366"
     inkscape:window-height="685"
     inkscape:window-x="0"
     inkscape:window-y="57"
     inkscape:window-maximized="1" />
  <metadata
     id="metadata5">
    <rdf:RDF>
      <cc:Work
         rdf:about="">
        <dc:format>image/svg+xml</dc:format>
        <dc:type
           rdf:resource="http://purl.org/dc/dcmitype/StillImage" />
        <dc:title></dc:title>
      </cc:Work>
    </rdf:RDF>
  </metadata>
  <g
     inkscape:label="Layer 1"
     inkscape:groupmode="layer"
     id="layer1"
     transform="translate(-31.174923,-137.93881)">
    <g
       id="g11776"
       transform="matrix(0.35277777,0,0,-0.35277777,15.207037,214.76685)">
      <path
         d="m 77.8883,129.118 31.9247,-18.431 31.725,18.316 -31.925,18.432 z m 31.9257,-18.811 -32.5835,18.812 32.3805,18.695 32.585,-18.812 -32.382,-18.695"
         style="fill:#c7edff;fill-opacity:1;fill-rule:nonzero;stroke:none;stroke-width:0.1"
         id="path6303" />
      <path
         d="m 110.106,110.517 31.925,-18.4311 31.725,18.3161 -31.925,18.432 -31.725,-18.317 m 31.927,-18.8111 -32.585,18.8131 32.381,18.695 32.585,-18.814 -32.381,-18.6941"
         style="fill:#c7edff;fill-opacity:1;fill-rule:nonzero;stroke:none;stroke-width:0.1"
         id="path6305" />
      <path
         d="M 142.324,91.916 174.249,73.484 205.974,91.8012 174.049,110.232 142.324,91.916 M 174.25,73.1051 141.666,91.9172 174.047,110.612 206.631,91.8 174.25,73.1051"
         style="fill:#c7edff;fill-opacity:1;fill-rule:nonzero;stroke:none;stroke-width:0.1"
         id="path6307" />
      <path
         d="M 45.9215,110.662 77.8457,92.2301 109.571,110.547 77.6465,128.979 Z M 77.8477,91.8512 45.2633,110.663 77.6441,129.358 110.229,110.546 77.8477,91.8512"
         style="fill:#c7edff;fill-opacity:1;fill-rule:nonzero;stroke:none;stroke-width:0.1"
         id="path6309" />
      <path
         d="M 78.1391,92.0609 110.063,73.6289 141.789,91.9461 109.864,110.377 78.1391,92.0609 M 110.065,73.25 77.4816,92.0629 109.862,110.757 142.446,91.9441 110.065,73.25"
         style="fill:#c7edff;fill-opacity:1;fill-rule:nonzero;stroke:none;stroke-width:0.1"
         id="path6311" />
      <path
         d="m 110.357,73.4602 31.924,-18.4321 31.725,18.3168 -31.924,18.4313 -31.725,-18.316 M 142.284,54.648 109.699,73.4609 142.08,92.1559 174.665,73.3441 142.284,54.648"
         style="fill:#c7edff;fill-opacity:1;fill-rule:nonzero;stroke:none;stroke-width:0.1"
         id="path6313" />
      <path
         d="M 46.1719,73.6039 78.0969,55.173 109.822,73.4891 77.8977,91.9211 Z M 78.0984,54.793 45.5141,73.6051 77.8949,92.3012 110.479,73.4879 78.0984,54.793"
         style="fill:#c7edff;fill-opacity:1;fill-rule:nonzero;stroke:none;stroke-width:0.1"
         id="path6317" />
      <path
         d="m 109.964,147.637 31.924,-18.432 31.725,18.316 -31.924,18.432 z m 31.926,-18.812 -32.584,18.813 32.381,18.695 32.584,-18.812 -32.381,-18.696"
         style="fill:#c7edff;fill-opacity:1;fill-rule:nonzero;stroke:none;stroke-width:0.1"
         id="path6321" />
      <path
         d="m 142.182,129.036 31.924,-18.432 31.726,18.317 -31.925,18.432 -31.725,-18.317 m 31.926,-18.811 -32.584,18.812 32.381,18.695 32.584,-18.812 -32.381,-18.695"
         style="fill:#c7edff;fill-opacity:1;fill-rule:nonzero;stroke:none;stroke-width:0.1"
         id="path6323" />
      <path
         d="m 144.465,62.5941 c -9.229,0 -18.87,3.375 -27.002,8.07 -2.167,1.2507 -4.057,2.4449 -5.641,3.6 l 30.21,17.441 23.595,-13.6219 c 1.464,-3.8941 0.458,-8.0121 -5.742,-11.5922 -4.738,-2.7359 -10.009,-3.8969 -15.42,-3.8969 m -32.964,11.9071 c -7.528,5.6168 -7.705,10.3468 2.813,16.4187 5.813,3.3563 12.379,5.0031 18.955,5.0031 0.504,0 1.007,-0.0101 1.511,-0.0289 l 6.887,-3.9761 -30.166,-17.4168 m 53.868,4.209 -22.923,13.2347 3.363,1.941 c 3.521,-1.175 6.897,-2.8539 9.997,-5.0257 3.684,-2.5813 7.817,-6.2293 9.563,-10.15 m -23.289,13.4457 -6.396,3.6929 c 3.269,-0.2 6.518,-0.8058 9.657,-1.8097 l -3.261,-1.8832 v 0"
         style="fill:#c9d6e2;fill-opacity:1;fill-rule:nonzero;stroke:none;stroke-width:0.1"
         id="path6327" />
      <path
         d="m 141.667,91.918 -6.887,3.9761 c 0.061,-0.0031 0.123,-0.005 0.184,-0.0082 l 6.788,-3.9187 -0.085,-0.0492 m 0.779,0.0269 -0.036,0.0211 3.353,1.9352 c 0.016,-0.0051 0.03,-0.0102 0.046,-0.0153 l -3.363,-1.941"
         style="fill:#9dc7e2;fill-opacity:1;fill-rule:nonzero;stroke:none;stroke-width:0.1"
         id="path6329" />
      <path
         d="m 165.627,78.0832 -23.595,13.6219 0.087,0.05 23.459,-13.5442 c 0.017,-0.0429 0.033,-0.0847 0.049,-0.1277 m -23.217,13.8828 -0.33,0.1899 3.261,1.8832 c 0.14,-0.045 0.282,-0.0911 0.422,-0.1379 L 142.41,91.966"
         style="fill:#9dc7e2;fill-opacity:1;fill-rule:nonzero;stroke:none;stroke-width:0.1"
         id="path6331" />
      <path
         d="m 111.822,74.2641 c -0.01,0.0078 -0.021,0.016 -0.031,0.0238 l 30.291,17.4883 0.037,-0.0211 -0.087,-0.05 -30.21,-17.441 m 29.93,17.7031 -6.788,3.9187 c 0.241,-0.0097 0.479,-0.023 0.72,-0.0371 l 6.396,-3.6929 -0.328,-0.1887"
         style="fill:#9dc7e2;fill-opacity:1;fill-rule:nonzero;stroke:none;stroke-width:0.1"
         id="path6333" />
      <path
         d="m 111.791,74.2879 c -0.098,0.0711 -0.195,0.1422 -0.29,0.2133 l 30.166,17.4168 0.085,0.0492 0.328,0.1887 0.33,-0.1899 0.036,-0.0211 22.923,-13.2347 c 0.074,-0.1661 0.144,-0.3321 0.209,-0.4993 l -23.459,13.5442 -0.037,0.0211 -30.291,-17.4883"
         style="fill:#9dc7e2;fill-opacity:1;fill-rule:nonzero;stroke:none;stroke-width:0.1"
         id="path6335" />
      <path
         d="m 178.637,105.276 c -3.719,0 -7.441,0.415 -10.941,1.246 l 6.39,3.689 8.303,-4.793 c -1.245,-0.095 -2.498,-0.142 -3.752,-0.142 m 4.365,0.192 -8.566,4.946 30.499,17.609 c 4.265,-5.987 2.216,-13.103 -6.165,-17.941 -4.44,-2.564 -9.99,-4.101 -15.768,-4.614 m -15.822,1.18 c -3.232,0.81 -6.262,1.979 -8.908,3.506 -6.591,3.806 -9.329,8.991 -8.205,13.925 l 23.653,-13.656 -6.54,-3.775 m 6.889,3.978 -23.914,13.807 c 0.888,3.336 3.55,6.539 7.991,9.103 5.551,3.205 12.834,4.806 20.132,4.806 5.694,0 11.398,-0.975 16.297,-2.922 l 7.459,-4.306 c 1.061,-0.89 1.956,-1.827 2.684,-2.794 l -30.649,-17.694 m 25.255,22.431 -1.384,0.799 c 0.238,-0.129 0.472,-0.26 0.703,-0.393 0.232,-0.134 0.459,-0.269 0.681,-0.406"
         style="fill:#c9d6e2;fill-opacity:1;fill-rule:nonzero;stroke:none;stroke-width:0.1"
         id="path6337" />
      <path
         d="m 167.696,106.522 c -0.018,0.004 -0.034,0.008 -0.052,0.012 l 6.405,3.698 0.037,-0.021 -6.39,-3.689 m 6.024,3.901 -23.653,13.656 c 0.002,0.007 0.004,0.015 0.006,0.023 l 23.669,-13.666 -0.022,-0.013"
         style="fill:#9dc7e2;fill-opacity:1;fill-rule:nonzero;stroke:none;stroke-width:0.1"
         id="path6339" />
      <path
         d="m 182.389,105.418 -8.303,4.793 -0.037,0.021 -6.405,-3.698 c -0.155,0.037 -0.31,0.075 -0.464,0.114 l 6.54,3.775 0.022,0.013 0.366,-0.211 8.322,-4.804 c -0.014,-0.001 -0.028,-0.002 -0.041,-0.003"
         style="fill:#9dc7e2;fill-opacity:1;fill-rule:nonzero;stroke:none;stroke-width:0.1"
         id="path6341" />
      <path
         d="m 174.108,110.225 -0.366,0.211 -23.669,13.666 c 0.025,0.11 0.052,0.22 0.082,0.331 l 23.914,-13.807 -0.327,-0.189 0.367,-0.212 h -0.001 m 0.328,0.189 -0.036,0.021 30.514,17.617 c 0.007,-0.01 0.014,-0.02 0.021,-0.029 l -30.499,-17.609 m 27.598,20.7 -7.459,4.306 c 1.172,-0.466 2.297,-0.987 3.365,-1.564 l 1.384,-0.799 c 1,-0.617 1.902,-1.267 2.71,-1.943"
         style="fill:#9dc7e2;fill-opacity:1;fill-rule:nonzero;stroke:none;stroke-width:0.1"
         id="path6343" />
      <path
         d="m 182.43,105.421 -8.321,4.804 -0.367,0.212 0.327,0.189 30.649,17.694 c 0.066,-0.089 0.132,-0.179 0.196,-0.268 l -30.514,-17.617 0.036,-0.021 8.566,-4.946 c -0.19,-0.017 -0.382,-0.033 -0.572,-0.047"
         style="fill:#9dc7e2;fill-opacity:1;fill-rule:nonzero;stroke:none;stroke-width:0.1"
         id="path6345" />
      <path
         d="M 81.7195,159.651 140.203,193.506 107.04,212.929 48.557,179.074 81.7195,159.651"
         style="fill:#ffa875;fill-opacity:1;fill-rule:nonzero;stroke:none;stroke-width:0.1"
         id="path6347" />
      <path
         d="m 99.891,175.329 -0.8883,-0.519 -2.9789,-1.723 -3.2496,-1.874 -5.5355,-3.195 c -3.0867,-1.777 -7.7559,-1.972 -10.4317,-0.434 l -7.539,4.354 -2.8278,1.636 -2.2855,1.322 -1.6465,0.943 c -2.6644,1.549 -2.3398,4.246 0.7477,6.022 l 3.1843,1.842 2.8278,1.636 1.1808,0.682 1.3434,0.769 0.7254,0.423 3.3906,1.961 c 0.5957,0.346 1.2563,0.628 1.9496,0.855 2.8492,0.921 6.2723,0.813 8.4277,-0.401 l 0.0543,-0.032 2.2532,-1.3 4.1812,-2.416 3.2496,-1.874 4.6152,-2.664 c 2.675,-1.538 2.34,-4.236 -0.748,-6.013"
         style="fill:#96c7ed;fill-opacity:1;fill-rule:nonzero;stroke:none;stroke-width:0.1"
         id="path6349" />
      <path
         d="m 77.8578,190.029 v -8.817 c 0,0 -4.3437,-3.976 -5.1019,-3.976 -0.4551,0 -0.368,5.459 -0.2383,9.977 l 3.3906,1.961 c 0.5957,0.346 1.2563,0.628 1.9496,0.855"
         style="fill:#aedff7;fill-opacity:1;fill-rule:nonzero;stroke:none;stroke-width:0.1"
         id="path6351" />
      <path
         d="m 69.268,185.339 v -13.401 l -2.8278,1.636 v 10.129 l 2.8278,1.636"
         style="fill:#aedff7;fill-opacity:1;fill-rule:nonzero;stroke:none;stroke-width:0.1"
         id="path6353" />
      <path
         d="m 71.7922,186.79 v -11.536 h -1.3434 v 10.767 l 1.3434,0.769"
         style="fill:#e3f7ff;fill-opacity:1;fill-rule:nonzero;stroke:none;stroke-width:0.1"
         id="path6355" />
      <path
         d="m 88.593,188.296 v -11.06 h -2.3075 v 12.392 l 0.0543,-0.032 2.2532,-1.3"
         style="fill:#e3f7ff;fill-opacity:1;fill-rule:nonzero;stroke:none;stroke-width:0.1"
         id="path6357" />
      <path
         d="m 96.0238,184.006 v -10.919 l -3.2496,-1.874 v 14.667 l 3.2496,-1.874"
         style="fill:#e3f7ff;fill-opacity:1;fill-rule:nonzero;stroke:none;stroke-width:0.1"
         id="path6359" />
      <path
         d="m 98.9984,174.809 -11.7636,-6.79 c -3.0856,-1.781 -7.7524,-1.973 -10.4243,-0.432 l -12.6589,7.309 11.7609,6.79 c 3.0859,1.781 7.7531,1.975 10.4242,0.431 l 12.6617,-7.308"
         style="fill:#aedff7;fill-opacity:1;fill-rule:nonzero;stroke:none;stroke-width:0.1"
         id="path6361" />
      <path
         d="m 126.895,190.915 -0.894,-0.516 -11.763,-6.79 c -3.086,-1.781 -7.753,-1.973 -10.425,-0.431 l -12.6587,7.308 -1.641,0.949 c -2.6715,1.544 -2.3375,4.237 0.7484,6.018 l 12.6543,7.307 c 3.085,1.78 7.752,1.975 10.424,0.43 l 14.303,-8.255 c 2.671,-1.542 2.335,-4.239 -0.748,-6.02"
         style="fill:#96c7ed;fill-opacity:1;fill-rule:nonzero;stroke:none;stroke-width:0.1"
         id="path6363" />
      <path
         d="m 104.831,205.621 v -8.818 c 0,0 -4.344,-3.975 -5.1021,-3.975 -0.4551,0 -0.3684,5.459 -0.2383,9.977 l 3.3904,1.96 c 0.596,0.346 1.257,0.629 1.95,0.856"
         style="fill:#aedff7;fill-opacity:1;fill-rule:nonzero;stroke:none;stroke-width:0.1"
         id="path6365" />
      <path
         d="M 96.2406,200.931 V 187.53 l -2.8269,1.636 v 10.129 l 2.8269,1.636"
         style="fill:#aedff7;fill-opacity:1;fill-rule:nonzero;stroke:none;stroke-width:0.1"
         id="path6367" />
      <path
         d="m 98.7645,202.382 v -11.536 h -1.343 v 10.767 l 1.343,0.769"
         style="fill:#e3f7ff;fill-opacity:1;fill-rule:nonzero;stroke:none;stroke-width:0.1"
         id="path6369" />
      <path
         d="m 115.566,203.888 v -11.06 h -2.307 v 12.392 l 0.054,-0.033 2.253,-1.299"
         style="fill:#e3f7ff;fill-opacity:1;fill-rule:nonzero;stroke:none;stroke-width:0.1"
         id="path6371" />
      <path
         d="m 122.997,199.598 v -10.919 l -3.25,-1.874 v 14.667 l 3.25,-1.874"
         style="fill:#e3f7ff;fill-opacity:1;fill-rule:nonzero;stroke:none;stroke-width:0.1"
         id="path6373" />
      <path
         d="m 126.001,190.399 -11.763,-6.79 c -3.086,-1.781 -7.753,-1.973 -10.425,-0.431 l -12.6587,7.308 11.7617,6.79 c 3.085,1.781 7.752,1.976 10.424,0.432 l 12.661,-7.309"
         style="fill:#aedff7;fill-opacity:1;fill-rule:nonzero;stroke:none;stroke-width:0.1"
         id="path6375" />
      <path
         d="m 78.5438,172.682 c -1.7778,-1.028 -4.6692,-1.022 -6.4583,0.01 -1.789,1.034 -1.798,2.704 -0.0203,3.73 1.7782,1.026 4.6692,1.02 6.4582,-0.012 1.7891,-1.033 1.7985,-2.702 0.0204,-3.728"
         style="fill:#2b83c6;fill-opacity:1;fill-rule:nonzero;stroke:none;stroke-width:0.1"
         id="path6377" />
      <path
         d="m 77.9391,173.03 c -1.4457,-0.835 -3.7973,-0.83 -5.2528,0.01 -1.4543,0.84 -1.4617,2.197 -0.016,3.032 1.4457,0.835 3.7977,0.83 5.252,-0.01 1.455,-0.839 1.4625,-2.197 0.0168,-3.032"
         style="fill:#bbebff;fill-opacity:1;fill-rule:nonzero;stroke:none;stroke-width:0.1"
         id="path6379" />
      <path
         d="m 77.0969,172.755 c -0.9836,-0.387 -2.4055,-0.462 -3.5735,0.007 -1.0605,0.425 -0.9945,1.495 -0.0113,2.062 0.984,0.569 2.5836,0.566 3.5734,-0.006 0.9899,-0.572 1.0684,-1.648 0.0114,-2.063"
         style="fill:#c7edff;fill-opacity:1;fill-rule:nonzero;stroke:none;stroke-width:0.1"
         id="path6381" />
      <path
         d="m 75.6703,174.077 0.8641,0.739 0.548,-0.317 -1.3172,-0.477 -0.0949,0.055"
         style="fill:#2275b4;fill-opacity:1;fill-rule:nonzero;stroke:none;stroke-width:0.1"
         id="path6383" />
      <path
         d="m 75.9176,173.843 1.5187,0.166 0.0028,-0.447 -1.5211,0.204 -4e-4,0.077"
         style="fill:#2275b4;fill-opacity:1;fill-rule:nonzero;stroke:none;stroke-width:0.1"
         id="path6385" />
      <path
         d="m 75.8051,173.576 1.2851,-0.503 -0.5453,-0.314 -0.8336,0.763 0.0938,0.054"
         style="fill:#2275b4;fill-opacity:1;fill-rule:nonzero;stroke:none;stroke-width:0.1"
         id="path6387" />
      <path
         d="m 75.4,173.436 0.2977,-0.878 -0.7731,0.001 0.3422,0.877 H 75.4"
         style="fill:#2275b4;fill-opacity:1;fill-rule:nonzero;stroke:none;stroke-width:0.1"
         id="path6389" />
      <path
         d="m 74.9387,173.502 -0.8633,-0.739 -0.5488,0.317 1.3172,0.477 0.0949,-0.055"
         style="fill:#2275b4;fill-opacity:1;fill-rule:nonzero;stroke:none;stroke-width:0.1"
         id="path6391" />
      <path
         d="m 74.6914,173.737 -1.5191,-0.167 -0.0024,0.447 1.5211,-0.204 4e-4,-0.076"
         style="fill:#2275b4;fill-opacity:1;fill-rule:nonzero;stroke:none;stroke-width:0.1"
         id="path6393" />
      <path
         d="m 74.8035,174.003 -1.2844,0.503 0.545,0.314 0.8339,-0.763 -0.0945,-0.054"
         style="fill:#2275b4;fill-opacity:1;fill-rule:nonzero;stroke:none;stroke-width:0.1"
         id="path6395" />
      <path
         d="m 75.2094,174.144 -0.2985,0.878 0.7739,-0.001 -0.3418,-0.877 h -0.1336"
         style="fill:#2275b4;fill-opacity:1;fill-rule:nonzero;stroke:none;stroke-width:0.1"
         id="path6397" />
      <path
         d="m 105.816,187.852 c -1.778,-1.027 -4.67,-1.022 -6.4582,0.011 -1.789,1.033 -1.798,2.702 -0.0203,3.729 1.7775,1.026 4.6695,1.02 6.4585,-0.012 1.789,-1.033 1.798,-2.702 0.02,-3.728"
         style="fill:#2b83c6;fill-opacity:1;fill-rule:nonzero;stroke:none;stroke-width:0.1"
         id="path6399" />
      <path
         d="m 105.211,188.2 c -1.446,-0.834 -3.797,-0.83 -5.252,0.01 -1.4551,0.84 -1.4625,2.197 -0.0164,3.032 1.4454,0.835 3.7974,0.831 5.2524,-0.01 1.454,-0.839 1.462,-2.197 0.016,-3.032"
         style="fill:#bbebff;fill-opacity:1;fill-rule:nonzero;stroke:none;stroke-width:0.1"
         id="path6401" />
      <path
         d="m 104.369,187.925 c -0.984,-0.387 -2.405,-0.462 -3.573,0.007 -1.0612,0.424 -0.9952,1.495 -0.011,2.062 0.983,0.568 2.583,0.566 3.573,-0.006 0.99,-0.572 1.068,-1.647 0.011,-2.063"
         style="fill:#c7edff;fill-opacity:1;fill-rule:nonzero;stroke:none;stroke-width:0.1"
         id="path6403" />
      <path
         d="m 102.943,189.247 0.863,0.739 0.549,-0.316 -1.317,-0.478 -0.095,0.055"
         style="fill:#2275b4;fill-opacity:1;fill-rule:nonzero;stroke:none;stroke-width:0.1"
         id="path6405" />
      <path
         d="m 103.19,189.013 1.519,0.166 0.002,-0.447 -1.521,0.204 v 0.077"
         style="fill:#2275b4;fill-opacity:1;fill-rule:nonzero;stroke:none;stroke-width:0.1"
         id="path6407" />
      <path
         d="m 103.078,188.746 1.284,-0.503 -0.545,-0.314 -0.834,0.763 0.095,0.054"
         style="fill:#2275b4;fill-opacity:1;fill-rule:nonzero;stroke:none;stroke-width:0.1"
         id="path6409" />
      <path
         d="m 102.672,188.605 0.298,-0.877 -0.773,0.001 0.342,0.876 h 0.133"
         style="fill:#2275b4;fill-opacity:1;fill-rule:nonzero;stroke:none;stroke-width:0.1"
         id="path6411" />
      <path
         d="m 102.21,188.672 -0.863,-0.738 -0.548,0.316 1.317,0.477 0.094,-0.055"
         style="fill:#2275b4;fill-opacity:1;fill-rule:nonzero;stroke:none;stroke-width:0.1"
         id="path6413" />
      <path
         d="m 101.964,188.907 -1.519,-0.167 -0.003,0.447 1.521,-0.203 0.001,-0.077"
         style="fill:#2275b4;fill-opacity:1;fill-rule:nonzero;stroke:none;stroke-width:0.1"
         id="path6415" />
      <path
         d="m 102.076,189.173 -1.285,0.503 0.545,0.314 0.834,-0.762 -0.094,-0.055"
         style="fill:#2275b4;fill-opacity:1;fill-rule:nonzero;stroke:none;stroke-width:0.1"
         id="path6417" />
      <path
         d="m 102.481,189.313 -0.297,0.879 0.773,-0.002 -0.342,-0.877 h -0.134"
         style="fill:#2275b4;fill-opacity:1;fill-rule:nonzero;stroke:none;stroke-width:0.1"
         id="path6419" />
      <path
         d="M 81.7195,93.4219 48.557,112.844 v 66.23 L 81.7195,159.651 V 93.4219"
         style="fill:#ff813b;fill-opacity:1;fill-rule:nonzero;stroke:none;stroke-width:0.1"
         id="path6421" />
      <path
         d="m 82.343,152.754 -33.786,19.814 v 6.47 l 33.786,-19.814 v -6.47"
         style="fill:#fc9a5d;fill-opacity:1;fill-rule:nonzero;stroke:none;stroke-width:0.1"
         id="path6423" />
      <path
         d="m 81.7195,93.4219 58.4835,33.8541 v 66.23 L 81.7195,159.651 V 93.4219"
         style="fill:#f46c0a;fill-opacity:1;fill-rule:nonzero;stroke:none;stroke-width:0.1"
         id="path6425" />
      <path
         d="M 108.891,172.999 V 111.53 L 83.8262,97.0238 v 61.4612 l 25.0648,14.514"
         style="fill:#96c7ed;fill-opacity:1;fill-rule:nonzero;stroke:none;stroke-width:0.1"
         id="path6427" />
      <path
         d="M 108.891,111.601 V 111.53 L 83.8262,97.0238 v 29.0512 l 25.0648,-14.474"
         style="fill:#c7edff;fill-opacity:1;fill-rule:nonzero;stroke:none;stroke-width:0.1"
         id="path6429" />
      <path
         d="m 97.1926,150.581 0.0648,0.034 -0.0648,-0.034"
         style="fill:#bbebff;fill-opacity:1;fill-rule:nonzero;stroke:none;stroke-width:0.1"
         id="path6431" />
      <path
         d="m 97.9469,146.596 0.3465,-0.593 1.1539,0.674 0.0722,0.046 c 0.1172,0.102 0.1371,0.125 0.1563,0.148 l 0.0586,0.082 0.0664,0.121 0.0422,0.106 c 0.0422,0.134 0.0633,0.244 0.0734,0.362 l 0.0059,0.09 0.0015,0.094 -1.9769,-1.13"
         style="fill:#bbebff;fill-opacity:1;fill-rule:nonzero;stroke:none;stroke-width:0.1"
         id="path6433" />
      <path
         d="m 97.1563,147.949 0.482,-0.825 2.1883,1.279 c -0.0809,0.303 -0.2094,0.606 -0.3731,0.888 l -2.2972,-1.342"
         style="fill:#96c7ed;fill-opacity:1;fill-rule:nonzero;stroke:none;stroke-width:0.1"
         id="path6435" />
      <path
         d="m 97.3395,150.649 0.0687,0.02 -0.0687,-0.02"
         style="fill:#bbebff;fill-opacity:1;fill-rule:nonzero;stroke:none;stroke-width:0.1"
         id="path6437" />
      <path
         d="m 97.4238,150.673 0.0742,0.013 -0.0742,-0.013"
         style="fill:#bbebff;fill-opacity:1;fill-rule:nonzero;stroke:none;stroke-width:0.1"
         id="path6439" />
      <path
         d="m 96.191,149.601 0.3664,-0.627 2.1324,1.246 c -0.1183,0.1 -0.2425,0.188 -0.3699,0.261 -0.1222,0.07 -0.2414,0.122 -0.3551,0.157 l -1.7738,-1.037"
         style="fill:#c7edff;fill-opacity:1;fill-rule:nonzero;stroke:none;stroke-width:0.1"
         id="path6441" />
      <path
         d="m 97.6383,147.124 0.3086,-0.528 1.9765,1.155 c -0.0035,0.212 -0.0371,0.432 -0.0968,0.652 l -2.1883,-1.279"
         style="fill:#aedff7;fill-opacity:1;fill-rule:nonzero;stroke:none;stroke-width:0.1"
         id="path6443" />
      <path
         d="m 96.5574,148.974 0.5989,-1.025 2.2972,1.342 c -0.207,0.357 -0.4695,0.681 -0.7637,0.929 l -2.1324,-1.246"
         style="fill:#aedff7;fill-opacity:1;fill-rule:nonzero;stroke:none;stroke-width:0.1"
         id="path6445" />
      <path
         d="m 96.191,149.601 1.7735,1.037 c -0.0915,0.026 -0.1407,0.036 -0.1895,0.044 -0.1996,0.01 -0.2223,0.009 -0.2437,0.007 l -0.1075,-0.016 -0.0843,-0.024 -0.0739,-0.03 -0.073,-0.038 -1.1735,-0.685 0.1719,-0.295"
         style="fill:#aedff7;fill-opacity:1;fill-rule:nonzero;stroke:none;stroke-width:0.1"
         id="path6447" />
      <path
         d="m 98.7602,147.034 c -0.0051,1.014 -0.7274,2.244 -1.6137,2.75 -0.886,0.505 -1.5996,0.093 -1.5938,-0.921 0.0047,-1.012 0.7278,-2.244 1.6133,-2.749 0.886,-0.505 1.5996,-0.093 1.5942,0.92"
         style="fill:#96c7ed;fill-opacity:1;fill-rule:nonzero;stroke:none;stroke-width:0.1"
         id="path6449" />
      <path
         d="m 98.7602,147.034 c -0.0051,1.014 -0.7282,2.244 -1.6137,2.75 -0.886,0.505 -1.5996,0.093 -1.5938,-0.921 0.0047,-1.012 0.7278,-2.244 1.6133,-2.749 0.886,-0.505 1.5996,-0.093 1.5942,0.92"
         style="fill:#26466c;fill-opacity:1;fill-rule:nonzero;stroke:none;stroke-width:0.1"
         id="path6451" />
      <path
         d="m 86.8891,158.429 v -12.205 c 0,-0.866 0.2101,-1.635 0.5988,-2.251 0.2789,-0.444 0.6492,-0.806 1.1004,-1.067 0.4902,-0.283 1.0387,-0.423 1.6113,-0.423 0.4098,0 0.8324,0.072 1.2559,0.215 0.2933,0.1 0.5879,0.233 0.8785,0.401 l 5.6152,3.194 c 0.1778,0.051 0.3199,0.172 0.4106,0.353 0.0718,0.143 0.1121,0.324 0.1125,0.538 -0.002,0.434 -0.1539,0.899 -0.3977,1.31 -0.0574,0.097 -0.1199,0.192 -0.1875,0.281 -0.0695,0.094 -0.1445,0.183 -0.223,0.266 -0.1586,0.167 -0.3328,0.31 -0.5157,0.413 -0.1898,0.108 -0.3703,0.166 -0.5324,0.176 -0.2316,0.015 -0.4281,-0.066 -0.5652,-0.229 l -4.1703,-2.359 c -0.6008,-0.347 -1.35,0.086 -1.35,0.778 v 10.609 h -3.6414"
         style="fill:#1e5f99;fill-opacity:1;fill-rule:nonzero;stroke:none;stroke-width:0.1"
         id="path6453" />
      <path
         d="m 90.4781,146.651 c -0.0097,-1.021 1.091,-1.671 1.9809,-1.167 l 0.7969,0.453 3.9671,2.084 0.6641,0.754 c -0.0695,0.094 -0.1445,0.183 -0.223,0.266 -0.1586,0.167 -0.3328,0.31 -0.5157,0.413 -0.1898,0.108 -0.3703,0.166 -0.5324,0.176 l -0.2836,-0.066 -0.2816,-0.163 -4.1703,-2.359 c -0.6008,-0.347 -1.35,0.086 -1.35,0.778 v 4.479 l -0.0524,-5.648"
         style="fill:#2b83c6;fill-opacity:1;fill-rule:nonzero;stroke:none;stroke-width:0.1"
         id="path6455" />
      <path
         d="m 86.8891,158.429 v -12.205 c 0,-1.485 0.6191,-2.694 1.6992,-3.318 0.4902,-0.282 1.0387,-0.424 1.6113,-0.424 0.4098,0 0.832,0.073 1.2559,0.216 -3.861,-0.279 -2.9168,1.652 -2.9168,1.652 v 14.079 h -1.6496"
         style="fill:#194d7e;fill-opacity:1;fill-rule:nonzero;stroke:none;stroke-width:0.1"
         id="path6457" />
      <path
         d="m 88.5883,142.906 c 0.4902,-0.283 1.0387,-0.423 1.6113,-0.423 0.4098,0 0.8324,0.072 1.2559,0.215 0.2933,0.1 0.5879,0.233 0.8785,0.401 l 5.6152,3.194 0.2035,0.118 0.2071,0.235 c 0.0718,0.143 0.1121,0.324 0.1125,0.538 l -7.0168,-4.015 c 0,0 -1.3356,-0.525 -2.8672,-0.263"
         style="fill:#26466c;fill-opacity:1;fill-rule:nonzero;stroke:none;stroke-width:0.1"
         id="path6459" />
      <path
         d="m 92.9402,145.942 0.1633,-0.044 0.1524,0.039 4.8187,2.557 c -0.0574,0.097 -0.1199,0.192 -0.1875,0.281 -0.0695,0.094 -0.1445,0.183 -0.223,0.266 l -4.7215,-2.532 c -0.2196,-0.124 -0.2207,-0.441 -0.0024,-0.567"
         style="fill:#ffffff;fill-opacity:1;fill-rule:nonzero;stroke:none;stroke-width:0.1"
         id="path6461" />
      <path
         d="m 86.8891,158.429 v -12.205 c 0,-0.865 0.2093,-1.635 0.5988,-2.251 -0.2684,4.506 -0.2395,10.159 -0.2207,14.456 h -0.3781"
         style="fill:#26466c;fill-opacity:1;fill-rule:nonzero;stroke:none;stroke-width:0.1"
         id="path6463" />
      <path
         d="m 90.1555,157.833 v -11.777 c 0,-0.769 0.682,-1.358 1.4422,-1.245 l 0.8726,0.127 -0.9699,-0.371 c -0.8141,-0.312 -1.6883,0.288 -1.6883,1.161 v 11.981 l 0.3434,0.124"
         style="fill:#ffffff;fill-opacity:1;fill-rule:nonzero;stroke:none;stroke-width:0.1"
         id="path6465" />
      <path
         d="m 108.891,172.999 v -2.571 c -1.454,-3.963 -3.478,-9.043 -4.534,-9.801 -1.109,-0.805 -12.3636,-7.401 -20.5308,-12.177 v 10.035 l 25.0648,14.514"
         style="fill:#2b83c6;fill-opacity:1;fill-rule:nonzero;stroke:none;stroke-width:0.1"
         id="path6467" />
      <path
         d="m 111.503,110.428 h -1.084 V 176.5 h 1.084 v -66.072"
         style="fill:#f44d22;fill-opacity:1;fill-rule:nonzero;stroke:none;stroke-width:0.1"
         id="path6469" />
      <path
         d="m 81.7195,153.182 58.4835,33.854 v 6.47 L 81.7195,159.651 v -6.469"
         style="fill:#ff813b;fill-opacity:1;fill-rule:nonzero;stroke:none;stroke-width:0.1"
         id="path6471" />
      <path
         d="m 86.2813,204.69 c 0,-0.19 -0.0649,-0.325 -0.1708,-0.392 l -2.1402,-1.228 -0.4953,0.721 -0.4855,0.729 2.1902,1.267 c 0.1133,0.09 0.2859,0.09 0.4769,-0.02 0.3457,-0.2 0.6247,-0.68 0.6247,-1.077"
         style="fill:#c7edff;fill-opacity:1;fill-rule:nonzero;stroke:none;stroke-width:0.1"
         id="path6473" />
      <path
         d="m 84.0984,203.431 c 0,-0.396 -0.2793,-0.555 -0.6234,-0.356 -0.3441,0.199 -0.6234,0.681 -0.6234,1.075 0,0.396 0.2793,0.555 0.6234,0.356 0.3441,-0.198 0.6234,-0.68 0.6234,-1.075"
         style="fill:#96c7ed;fill-opacity:1;fill-rule:nonzero;stroke:none;stroke-width:0.1"
         id="path6475" />
      <path
         d="m 83.8469,203.26 c 0,-0.192 -0.0653,-0.326 -0.1711,-0.393 l -2.1403,-1.227 -0.4949,0.719 -0.4863,0.73 2.1906,1.266 c 0.1137,0.09 0.2864,0.09 0.4774,-0.019 0.3453,-0.2 0.6246,-0.681 0.6246,-1.076"
         style="fill:#c7edff;fill-opacity:1;fill-rule:nonzero;stroke:none;stroke-width:0.1"
         id="path6477" />
      <path
         d="m 81.6641,202 c 0,-0.396 -0.2793,-0.555 -0.6235,-0.356 -0.3441,0.199 -0.6234,0.68 -0.6234,1.076 0,0.394 0.2793,0.553 0.6234,0.355 0.3442,-0.199 0.6235,-0.68 0.6235,-1.075"
         style="fill:#96c7ed;fill-opacity:1;fill-rule:nonzero;stroke:none;stroke-width:0.1"
         id="path6479" />
      <path
         d="m 81.7895,194.679 c -0.7293,-0.421 -1.9161,-0.419 -2.6504,0.005 -0.7336,0.423 -0.7375,1.428 -0.0082,1.849 0.7296,0.422 1.916,0.42 2.6504,-0.004 0.7339,-0.425 0.7378,-1.429 0.0082,-1.85"
         style="fill:#bbebff;fill-opacity:1;fill-rule:nonzero;stroke:none;stroke-width:0.1"
         id="path6481" />
      <path
         d="m 81.7895,194.999 c -0.7293,-0.422 -1.9161,-0.419 -2.6504,0.005 -0.7336,0.424 -0.7375,1.108 -0.0082,1.529 0.7296,0.422 1.916,0.42 2.6504,-0.004 0.7339,-0.425 0.7378,-1.109 0.0082,-1.53"
         style="fill:#c7edff;fill-opacity:1;fill-rule:nonzero;stroke:none;stroke-width:0.1"
         id="path6483" />
      <path
         d="m 92.4086,205.898 v -1.501 c 0.0191,-0.18 -0.0887,-0.366 -0.3258,-0.501 -0.284,-0.165 -0.6805,-0.221 -1.0461,-0.172 -0.2,0.026 -0.3875,0.085 -0.5422,0.173 -0.2558,0.148 -0.3636,0.348 -0.3211,0.54 v 2.751 c 0,2.701 -1.6796,5.67 -4.0304,7.029 -2.9719,1.715 -4.5012,1.213 -4.5012,-2.102 l 0.0023,-16.149 c 0.0278,-0.188 -0.08,-0.377 -0.3218,-0.516 -0.3282,-0.19 -0.8067,-0.237 -1.2125,-0.14 -0.1364,0.03 -0.2653,0.079 -0.3754,0.142 -0.2418,0.139 -0.352,0.326 -0.3285,0.51 v 17.443 c 0,3.336 2.7961,5.553 6.5027,3.706 5.3766,-2.678 6.5,-7.098 6.5,-11.213"
         style="fill:#96c7ed;fill-opacity:1;fill-rule:nonzero;stroke:none;stroke-width:0.1"
         id="path6485" />
      <path
         d="m 91.0367,203.724 c -0.2,0.026 -0.3875,0.085 -0.5422,0.173 -0.2558,0.148 -0.3636,0.348 -0.3211,0.54 v 2.751 c 0,2.701 -1.6796,5.67 -4.0304,7.029 -1.2364,0.713 -2.2235,1.044 -2.9532,0.945 -1.0277,-0.136 -1.548,-1.111 -1.548,-3.047 l 0.0023,-16.149 c 0.0278,-0.188 -0.08,-0.377 -0.3218,-0.516 -0.3539,-0.192 -0.8184,-0.234 -1.2125,-0.14 0,5.296 0.0422,18.077 0.4129,19.005 0.4691,1.173 0.9382,2.112 2.4632,1.995 1.5243,-0.118 4.8301,-1.938 5.9227,-3.637 0.941,-1.461 1.7715,-1.785 2.0644,-7.499 0.0286,-0.552 0.0497,-1.032 0.0637,-1.45"
         style="fill:#bbebff;fill-opacity:1;fill-rule:nonzero;stroke:none;stroke-width:0.1"
         id="path6487" />
      <path
         d="m 81.6418,212.115 0.0023,-16.149 c 0.0278,-0.188 -0.08,-0.377 -0.3218,-0.516 -0.1172,4.068 -0.3707,16.485 -0.1782,17.847 0.2934,2.086 2.0457,1.865 2.0457,1.865 -1.0277,-0.136 -1.548,-1.111 -1.548,-3.047"
         style="fill:#aedff7;fill-opacity:1;fill-rule:nonzero;stroke:none;stroke-width:0.1"
         id="path6489" />
      <path
         d="m 88.85,214.081 c 0,0 1.402,-0.54 2.1867,-2.522 0.7613,-1.923 0.6164,-4.125 0.6164,-4.125 0,0 -0.5879,2.866 -1.2894,4.399 -0.7012,1.533 -1.5137,2.248 -1.5137,2.248"
         style="fill:#ffffff;fill-opacity:1;fill-rule:nonzero;stroke:none;stroke-width:0.1"
         id="path6491" />
      <path
         d="m 85.027,210.259 v -4.825 l -0.0645,-0.093 h -0.323 l -0.052,0.056 -0.0121,4.862 h 0.4516"
         style="fill:#96c7ed;fill-opacity:1;fill-rule:nonzero;stroke:none;stroke-width:0.1"
         id="path6493" />
      <path
         d="m 84.9613,210.167 -0.3195,0.001 -0.0012,0.185 0.3199,-0.001 8e-4,-0.185"
         style="fill:#c7edff;fill-opacity:1;fill-rule:nonzero;stroke:none;stroke-width:0.1"
         id="path6495" />
      <path
         d="m 151.5,83.1469 c 0,0 -1.033,-0.0938 -0.751,-1.9707 0.281,-1.8782 1.126,-5.5391 1.501,-5.7282 0.376,-0.1871 4.226,-5.0691 4.601,-5.8199 0.376,-0.7511 2.441,-2.816 3.849,-1.784 1.408,1.0329 3.193,2.9098 2.911,5.07 -0.282,2.1589 -3.662,4.5058 -4.037,5.0691 -0.376,0.5637 -4.355,4.8508 -5.106,5.4137 -0.751,0.564 -2.968,-0.25 -2.968,-0.25"
         style="fill:#2275b4;fill-opacity:1;fill-rule:nonzero;stroke:none;stroke-width:0.1"
         id="path6497" />
      <path
         d="m 154.504,76.1988 c 0.094,0.2821 -3.919,5.8192 -2.241,7.1821 1.677,1.3621 4.907,-2.6989 4.907,-2.6989 0,0 2.704,-2.88 3.907,-4.1058 1.203,-1.225 2.842,-2.9114 2.564,-4.225 -0.279,-1.316 -0.124,-4.416 -2.377,-4.7903 -2.254,-0.3738 -3.623,1.4102 -3.502,2.9121 0.122,1.502 -3.258,5.7258 -3.258,5.7258"
         style="fill:#bbebff;fill-opacity:1;fill-rule:nonzero;stroke:none;stroke-width:0.1"
         id="path6499" />
      <path
         d="m 125.494,97.793 c -0.564,-0.5641 -2.254,-2.9098 -1.972,-4.4121 0.282,-1.5028 1.22,-3.9438 2.816,-4.6938 1.597,-0.7512 15.585,-5.634 17.745,-8.9191 2.159,-3.2871 7.77,-3.475 7.77,-3.475 l -1.153,6.3851 c 0,0 -2.205,6.384 -8.026,10.0457 -5.82,3.6614 -17.18,5.0692 -17.18,5.0692"
         style="fill:#26466c;fill-opacity:1;fill-rule:nonzero;stroke:none;stroke-width:0.1"
         id="path6501" />
      <path
         d="m 116.574,84.273 c 0,0 -3.192,-0.2808 -3.849,0 -0.657,0.2829 -2.871,1.85 -3.567,0.5641 -1.104,-2.0359 0.657,-4.6012 1.877,-5.2582 1.221,-0.657 5.821,-1.3141 7.605,-1.8769 1.784,-0.5629 4.6,-2.1598 5.633,-1.127 1.033,1.032 1.033,0.657 1.033,2.9102 0,2.2539 -2.348,3.6117 -2.348,3.6117 l -6.384,1.1761"
         style="fill:#bbebff;fill-opacity:1;fill-rule:nonzero;stroke:none;stroke-width:0.1"
         id="path6503" />
      <path
         d="m 116.574,84.8371 c 0,0 -3.192,-0.2812 -3.849,0 -0.657,0.282 -3.463,1.459 -3.567,0 -0.105,-1.459 0.657,-4.0371 1.877,-4.6941 1.221,-0.6578 5.821,-1.3149 7.605,-1.8782 1.784,-0.5628 4.6,-2.1597 5.633,-1.1257 1.033,1.032 1.033,0.657 1.033,2.9101 0,2.2528 -2.348,3.611 -2.348,3.611 l -6.384,1.1769"
         style="fill:#2275b4;fill-opacity:1;fill-rule:nonzero;stroke:none;stroke-width:0.1"
         id="path6505" />
      <path
         d="m 107.468,114.223 c 0,0 -1.408,-2.441 -0.845,-4.601 0.563,-2.159 8.168,-21.406 8.074,-22.579 -0.094,-1.1731 0.657,-2.059 1.69,-3.4469 1.032,-1.3879 4.882,-2.984 6.571,-2.4199 1.69,0.5629 1.69,1.6886 1.69,1.6886 0,0 -3.473,14.6473 -4.412,16.9934 -0.939,2.3478 -8.731,20.0918 -12.768,14.3648"
         style="fill:#26466c;fill-opacity:1;fill-rule:nonzero;stroke:none;stroke-width:0.1"
         id="path6507" />
      <path
         d="m 108.219,111.219 c 0,0 3.661,-7.698 6.384,-8.919 2.723,-1.221 10.891,-4.6949 11.36,-6.1961 0.47,-1.5027 9.735,-7.366 13.613,-5.634 3.879,1.7321 5.652,1.1461 6.196,7.3231 0.846,9.576 -20.654,14.552 -23.283,16.618 -2.629,2.066 -11.088,4.48 -13.341,2.32 -2.253,-2.16 -0.929,-5.512 -0.929,-5.512"
         style="fill:#194d7e;fill-opacity:1;fill-rule:nonzero;stroke:none;stroke-width:0.1"
         id="path6509" />
      <path
         d="m 134.976,107.182 c 0.281,0 8.262,0.844 9.858,3.38 1.596,2.535 2.159,3.754 2.159,3.754 0,0 6.662,-11.453 3.707,-15.7719 -2.956,-4.3179 -6.817,-6.1121 -6.817,-6.1121 l -8.907,14.75"
         style="fill:#194d7e;fill-opacity:1;fill-rule:nonzero;stroke:none;stroke-width:0.1"
         id="path6511" />
      <path
         d="m 130.282,138.258 c 0,0 -6.291,-3.005 -6.103,-15.21 0.071,-4.604 2.635,-10.552 2.635,-10.552 0,0 0.37,-2.685 3.468,-4.563 3.098,-1.878 7.792,-2.911 11.266,-0.939 3.473,1.972 5.874,6.55 5.874,6.55 0,0 1.261,1.055 1.355,2.557 0.094,1.502 -0.751,11.078 -0.845,12.674 -0.094,1.596 0.657,4.882 0.188,7.041 -0.47,2.16 -0.658,6.854 -3.099,7.887 -2.44,1.032 -6.196,0.469 -6.196,0.469 0,0 -0.094,-2.441 -3.098,-4.412 -3.004,-1.972 -5.445,-1.502 -5.445,-1.502"
         style="fill:#1e5f99;fill-opacity:1;fill-rule:nonzero;stroke:none;stroke-width:0.1"
         id="path6513" />
      <path
         d="m 102.68,133.25 c 0,0 0.281,-1.001 0.938,-1.564 0.657,-0.564 4.56,-4.949 5.191,-6.559 0.63,-1.609 3.729,-4.332 4.48,-4.238 0.751,0.093 1.361,4.238 1.361,4.238 0,0 2.206,0.773 -0.704,2.915 -2.911,2.142 -7.511,5.803 -7.886,6.46 -0.376,0.657 -0.939,3.943 -0.939,3.943 l -1.69,2.723 c 0,0 -1.221,0.938 -1.503,1.502 -0.281,0.563 -0.938,0.47 -0.845,-0.751 0.094,-1.221 0.69,-1.565 0.69,-1.565 l 0.437,-2.378 -3.4737,1.22 -2.2535,2.442 c 0,0 -0.2812,1.188 -0.5941,1.564 -0.3129,0.375 -0.6883,0.406 -0.6574,-0.125 0.0316,-0.532 0.0316,-2.159 0.0316,-2.159 0,0 -0.0664,-0.064 -0.0332,-0.595 0.0332,-0.532 0.4398,-1.002 0.4398,-1.002 0,0 -0.2816,-0.187 -0.0625,-0.688 0.2188,-0.501 0.4067,-0.845 0.4067,-0.845 0,0 0.125,-1.189 0.3441,-1.753 0.2192,-0.562 0.7598,-0.875 0.7598,-0.875 l 5.5624,-1.91"
         style="fill:#e2ab91;fill-opacity:1;fill-rule:nonzero;stroke:none;stroke-width:0.1"
         id="path6515" />
      <path
         d="m 116.48,126.616 c 0,0 -3.004,-3.662 -1.314,-6.291 1.69,-2.629 10.797,1.784 13.05,4.131 2.253,2.348 3.38,4.788 2.253,8.356 -1.126,3.568 -1.795,4.852 -4.036,2.723 -2.242,-2.13 -9.953,-8.919 -9.953,-8.919"
         style="fill:#2275b4;fill-opacity:1;fill-rule:nonzero;stroke:none;stroke-width:0.1"
         id="path6517" />
      <path
         d="m 116.26,124.608 0.22,2.008 c 0,0 -1.001,2.131 -2.347,0 -1.344,-2.132 -2.816,-5.469 -1.408,-7.1 1.408,-1.631 3.755,-0.277 3.755,-0.277 l -0.22,5.369"
         style="fill:#2b83c6;fill-opacity:1;fill-rule:nonzero;stroke:none;stroke-width:0.1"
         id="path6519" />
      <path
         d="m 128.205,147.224 c 0.152,-0.376 1.107,-7.37 1.107,-7.37 0,0 4.678,-0.892 6.18,0.469 1.502,1.362 2.347,4.365 2.347,4.365 0,0 -0.938,0.638 -0.985,1.282 -0.047,0.643 0.046,3.272 0.046,3.272 l -8.695,-2.018"
         style="fill:#efbea3;fill-opacity:1;fill-rule:nonzero;stroke:none;stroke-width:0.1"
         id="path6521" />
      <path
         d="m 129.312,139.854 -1.107,-3.296 c 0,0 3.36,0.417 5.237,0.918 1.878,0.5 4.001,0 5.13,2.378 1.129,2.377 1.129,4.471 1.129,4.471 l -2.03,1.172 c 0,0 -0.536,-2.264 -2.695,-3.641 -2.16,-1.377 -5.664,-2.002 -5.664,-2.002"
         style="fill:#2b83c6;fill-opacity:1;fill-rule:nonzero;stroke:none;stroke-width:0.1"
         id="path6523" />
      <path
         d="m 123.967,153.144 -0.052,3.166 c 0,0 -0.311,1.661 1.038,2.336 1.349,0.674 1.817,2.647 3.27,2.699 1.453,0.051 3.477,-0.987 4.1,-0.727 0.623,0.259 3.322,0.622 4.412,-0.883 1.09,-1.505 1.453,-1.918 1.713,-2.49 0.259,-0.572 2.491,-2.232 2.387,-3.427 -0.104,-1.193 -1.609,-3.529 -1.246,-4.671 0.364,-1.141 -0.467,-2.439 -1.141,-2.699 -0.675,-0.26 -1.921,-1.868 -1.921,-1.868 0,0 -0.623,0 -1.972,-0.311 -1.349,-0.312 -2.232,-1.247 -3.218,-1.039 -0.986,0.208 -2.19,0.566 -2.157,0.637 0.033,0.07 -0.905,0.713 -1.113,0.92 -0.208,0.208 -0.934,0.935 -0.934,1.401 0,0.468 -0.016,1.87 -0.813,2.336 -0.796,0.467 -0.693,0.779 -0.796,1.454 -0.104,0.674 -1.557,3.166 -1.557,3.166"
         style="fill:#194d7e;fill-opacity:1;fill-rule:nonzero;stroke:none;stroke-width:0.1"
         id="path6525" />
      <path
         d="m 123.915,156.31 c 0,0 -0.684,-3.633 -0.576,-4.205 0.109,-0.57 1.043,-0.726 0.576,-1.504 -0.467,-0.779 -0.363,-1.973 0.13,-2.751 0.493,-0.779 1.012,-3.685 1.219,-4.204 0.208,-0.519 1.751,-0.945 2.77,-0.732 1.019,0.213 1.552,0.775 1.552,0.775 l -1.415,1.514 c 0,0 0.675,1.09 0.467,2.18 -0.207,1.09 -0.863,1.826 -1.34,1.743 -0.477,-0.082 -0.706,-0.215 -0.706,-0.215 0,0 -1.276,0.496 -1.12,2.416 0.155,1.921 -0.83,2.648 -1.038,3.27 -0.208,0.623 -0.519,1.713 -0.519,1.713"
         style="fill:#e2ab91;fill-opacity:1;fill-rule:nonzero;stroke:none;stroke-width:0.1"
         id="path6527" />
      <path
         d="M 90.991,87.3961 V 63.634 L 117.463,48.35 v 23.7609 l -7.382,4.2629 v -4.0289 l -11.4345,6.6012 v 4.0301 l -7.6555,4.4199"
         style="fill:#f46c0a;fill-opacity:1;fill-rule:nonzero;stroke:none;stroke-width:0.1"
         id="path6529" />
      <path
         d="m 83.6078,82.8648 v -9.7257 c 0,-0.5172 0.1086,-1.0282 0.3184,-1.4981 l 0.398,-0.8949 0.0824,-5.509 C 83.8906,64.6219 83.6078,63.8449 83.6078,63.041 V 59.1039 L 109.47,44.1719 c 0.271,-0.1559 1.551,-0.1219 1.551,0.191 l -0.941,23.2191 -7.383,4.2621 v -4.03 L 91.2633,74.416 v 4.0289 l -7.6555,4.4199"
         style="fill:#ff813b;fill-opacity:1;fill-rule:nonzero;stroke:none;stroke-width:0.1"
         id="path6531" />
      <path
         d="m 108.207,73.9961 v 1.5598 l -2.296,-1.3258 v -1.559 l 2.296,1.325"
         style="fill:#f46c0a;fill-opacity:1;fill-rule:nonzero;stroke:none;stroke-width:0.1"
         id="path6533" />
      <path
         d="m 93.9313,79.7121 v 1.6418 l 11.9797,-7.1238 v -1.559 l -11.9797,7.041"
         style="fill:#fc9a5d;fill-opacity:1;fill-rule:nonzero;stroke:none;stroke-width:0.1"
         id="path6535" />
      <path
         d="M 108.207,75.5559 96.1078,82.541 c 0,0 -0.8211,-0.3 -1.0773,-0.4371 -0.2934,-0.157 -1.0992,-0.75 -1.0992,-0.75 l 11.9797,-7.1238 2.296,1.3258"
         style="fill:#ffa875;fill-opacity:1;fill-rule:nonzero;stroke:none;stroke-width:0.1"
         id="path6537" />
      <path
         d="m 106.416,74.968 c 0.845,0.498 3.665,1.4058 3.665,1.4058 l 7.382,-4.2629 -7.383,-4.5289 -7.383,4.2621 c 0,0 2.673,2.5079 3.719,3.1239"
         style="fill:#ffa875;fill-opacity:1;fill-rule:nonzero;stroke:none;stroke-width:0.1"
         id="path6539" />
      <path
         d="m 116.834,47.7191 -6.108,-3.5269 c -0.287,-0.1652 -0.646,0.0418 -0.646,0.3726 V 67.582 l 2.431,2.27 2.521,1.4171 2.431,0.5758 V 48.8102 c 0,-0.4512 -0.239,-0.8661 -0.629,-1.0911"
         style="fill:#f46c0a;fill-opacity:1;fill-rule:nonzero;stroke:none;stroke-width:0.1"
         id="path6541" />
      <path
         d="m 115.383,71.8449 -1.26,-26.0418 h -0.312 v 25.352 l 1.26,0.6898 h 0.312"
         style="fill:#f46c0a;fill-opacity:1;fill-rule:nonzero;stroke:none;stroke-width:0.1"
         id="path6543" />
      <path
         d="M 113.772,70.8512 112.511,44.809 h -0.312 v 25.3531 l 1.261,0.6891 h 0.312"
         style="fill:#f46c0a;fill-opacity:1;fill-rule:nonzero;stroke:none;stroke-width:0.1"
         id="path6545" />
      <path
         d="m 115.383,46.5301 -1.26,-0.727 v 25.352 l 1.26,0.6898 V 46.5301"
         style="fill:#fc9a5d;fill-opacity:1;fill-rule:nonzero;stroke:none;stroke-width:0.1"
         id="path6547" />
      <path
         d="m 113.772,45.5371 -1.261,-0.7281 v 25.3531 l 1.261,0.6891 V 45.5371"
         style="fill:#fc9a5d;fill-opacity:1;fill-rule:nonzero;stroke:none;stroke-width:0.1"
         id="path6549" />
      <path
         d="M 90.3215,72.3691 103.15,64.9629 c 0.179,-0.1039 0.323,0.0062 0.323,0.2441 0,0.2371 -0.144,0.5141 -0.323,0.616 l -12.8285,7.4071 c -0.1785,0.1031 -0.3231,-0.0063 -0.3231,-0.2442 0,-0.2379 0.1446,-0.5129 0.3231,-0.6168"
         style="fill:#ffa875;fill-opacity:1;fill-rule:nonzero;stroke:none;stroke-width:0.1"
         id="path6551" />
      <path
         d="M 90.3215,70.9879 103.15,63.582 c 0.179,-0.1031 0.323,0.0059 0.323,0.243 0,0.2379 -0.144,0.5148 -0.323,0.6172 l -12.8285,7.4066 c -0.1785,0.1032 -0.3231,-0.0058 -0.3231,-0.2437 0,-0.2379 0.1446,-0.5141 0.3231,-0.6172"
         style="fill:#ffa875;fill-opacity:1;fill-rule:nonzero;stroke:none;stroke-width:0.1"
         id="path6553" />
      <path
         d="M 90.3215,69.607 103.15,62.2 c 0.179,-0.102 0.323,0.007 0.323,0.2441 0,0.2391 -0.144,0.5141 -0.323,0.618 L 90.3215,70.468 c -0.1785,0.1031 -0.3231,-0.0059 -0.3231,-0.2442 0,-0.2379 0.1446,-0.5136 0.3231,-0.6168"
         style="fill:#ffa875;fill-opacity:1;fill-rule:nonzero;stroke:none;stroke-width:0.1"
         id="path6555" />
      <path
         d="M 90.3215,68.2262 103.15,60.8191 c 0.179,-0.1031 0.323,0.0059 0.323,0.2438 0,0.2383 -0.144,0.5141 -0.323,0.6172 l -12.8285,7.407 c -0.1785,0.102 -0.3231,-0.007 -0.3231,-0.2441 0,-0.2379 0.1446,-0.5141 0.3231,-0.6168"
         style="fill:#ffa875;fill-opacity:1;fill-rule:nonzero;stroke:none;stroke-width:0.1"
         id="path6557" />
      <path
         d="M 90.3215,59.9379 103.15,52.532 c 0.179,-0.1031 0.323,0.0059 0.323,0.2442 0,0.2379 -0.144,0.5136 -0.323,0.6168 L 90.3215,60.8 c -0.1785,0.102 -0.3231,-0.007 -0.3231,-0.2441 0,-0.2387 0.1446,-0.5137 0.3231,-0.618"
         style="fill:#ffa875;fill-opacity:1;fill-rule:nonzero;stroke:none;stroke-width:0.1"
         id="path6559" />
      <path
         d="M 90.3215,58.5582 103.15,51.15 c 0.179,-0.102 0.323,0.007 0.323,0.2449 0,0.2383 -0.144,0.5141 -0.323,0.6172 L 90.3215,59.418 c -0.1785,0.1031 -0.3231,-0.0059 -0.3231,-0.243 0,-0.2379 0.1446,-0.5148 0.3231,-0.6168"
         style="fill:#ffa875;fill-opacity:1;fill-rule:nonzero;stroke:none;stroke-width:0.1"
         id="path6561" />
      <path
         d="M 90.3215,57.177 103.15,49.7699 c 0.179,-0.1027 0.323,0.0063 0.323,0.2442 0,0.2371 -0.144,0.5129 -0.323,0.6168 l -12.8285,7.4062 c -0.1785,0.1039 -0.3231,-0.0062 -0.3231,-0.2441 0,-0.2371 0.1446,-0.5141 0.3231,-0.616"
         style="fill:#ffa875;fill-opacity:1;fill-rule:nonzero;stroke:none;stroke-width:0.1"
         id="path6563" />
      <path
         d="M 90.3215,55.7949 103.15,48.3891 c 0.179,-0.1039 0.323,0.0058 0.323,0.2441 0,0.2367 -0.144,0.5129 -0.323,0.6156 l -12.8285,7.4071 c -0.1785,0.1031 -0.3231,-0.0071 -0.3231,-0.2438 0,-0.2379 0.1446,-0.5141 0.3231,-0.6172"
         style="fill:#ffa875;fill-opacity:1;fill-rule:nonzero;stroke:none;stroke-width:0.1"
         id="path6565" />
      <path
         d="m 90.4297,72.5262 12.8283,-7.4063 c 0.179,-0.1027 0.323,0.0063 0.323,0.2442 0,0.2379 -0.144,0.514 -0.323,0.616 l -12.8283,7.4078 c -0.1785,0.1019 -0.3227,-0.0059 -0.3227,-0.2438 0,-0.2382 0.1442,-0.514 0.3227,-0.6179"
         style="fill:#f46c0a;fill-opacity:1;fill-rule:nonzero;stroke:none;stroke-width:0.1"
         id="path6567" />
      <path
         d="m 90.4297,71.1461 12.8283,-7.407 c 0.179,-0.1032 0.323,0.0058 0.323,0.2429 0,0.2391 -0.144,0.5149 -0.323,0.618 L 90.4297,72.007 C 90.2512,72.109 90.107,72 90.107,71.7629 c 0,-0.2391 0.1442,-0.5149 0.3227,-0.6168"
         style="fill:#f46c0a;fill-opacity:1;fill-rule:nonzero;stroke:none;stroke-width:0.1"
         id="path6569" />
      <path
         d="M 90.4297,69.7648 103.258,62.357 c 0.179,-0.1019 0.323,0.0071 0.323,0.245 0,0.2378 -0.144,0.5128 -0.323,0.6171 L 90.4297,70.625 c -0.1785,0.1039 -0.3227,-0.0059 -0.3227,-0.2441 0,-0.2368 0.1442,-0.5137 0.3227,-0.6161"
         style="fill:#f46c0a;fill-opacity:1;fill-rule:nonzero;stroke:none;stroke-width:0.1"
         id="path6571" />
      <path
         d="M 90.4297,68.3832 103.258,60.977 c 0.179,-0.1032 0.323,0.005 0.323,0.2441 0,0.2371 -0.144,0.5129 -0.323,0.6168 L 90.4297,69.2441 C 90.2512,69.3469 90.107,69.2371 90.107,69 c 0,-0.2371 0.1442,-0.5141 0.3227,-0.6168"
         style="fill:#f46c0a;fill-opacity:1;fill-rule:nonzero;stroke:none;stroke-width:0.1"
         id="path6573" />
      <path
         d="m 90.4297,60.0961 12.8283,-7.407 c 0.179,-0.1032 0.323,0.0058 0.323,0.2449 0,0.2371 -0.144,0.5129 -0.323,0.616 l -12.8283,7.407 c -0.1785,0.1032 -0.3227,-0.007 -0.3227,-0.2441 0,-0.2367 0.1442,-0.5141 0.3227,-0.6168"
         style="fill:#f46c0a;fill-opacity:1;fill-rule:nonzero;stroke:none;stroke-width:0.1"
         id="path6575" />
      <path
         d="M 90.4297,58.7148 103.258,51.309 c 0.179,-0.1039 0.323,0.0051 0.323,0.243 0,0.2378 -0.144,0.514 -0.323,0.6171 l -12.8283,7.4071 c -0.1785,0.1027 -0.3227,-0.0071 -0.3227,-0.2442 0,-0.2379 0.1442,-0.5148 0.3227,-0.6172"
         style="fill:#f46c0a;fill-opacity:1;fill-rule:nonzero;stroke:none;stroke-width:0.1"
         id="path6577" />
      <path
         d="m 90.4297,57.334 12.8283,-7.407 c 0.179,-0.1032 0.323,0.007 0.323,0.2441 0,0.2379 -0.144,0.5141 -0.323,0.6168 L 90.4297,58.1941 C 90.2512,58.298 90.107,58.1879 90.107,57.95 c 0,-0.2371 0.1442,-0.5129 0.3227,-0.616"
         style="fill:#f46c0a;fill-opacity:1;fill-rule:nonzero;stroke:none;stroke-width:0.1"
         id="path6579" />
      <path
         d="m 90.4297,55.952 12.8283,-7.4059 c 0.179,-0.1039 0.323,0.0059 0.323,0.2437 0,0.2372 -0.144,0.5141 -0.323,0.6161 l -12.8283,7.407 C 90.2512,56.916 90.107,56.807 90.107,56.5691 c 0,-0.2371 0.1442,-0.5132 0.3227,-0.6171"
         style="fill:#f46c0a;fill-opacity:1;fill-rule:nonzero;stroke:none;stroke-width:0.1"
         id="path6581" />
      <path
         d="M 84.4066,65.2371 110.08,50.4148 v 5.4614 l -25.7558,14.8699 0.0824,-5.509"
         style="fill:#f46c0a;fill-opacity:1;fill-rule:nonzero;stroke:none;stroke-width:0.1"
         id="path6583" />
      <path
         d="m 109.612,50.7941 0.469,-1.482 v 7.8367 l -0.636,-0.9066 0.167,-5.4481"
         style="fill:#f46c0a;fill-opacity:1;fill-rule:nonzero;stroke:none;stroke-width:0.1"
         id="path6585" />
      <path
         d="m 87.3262,85.9891 c 0.8457,0.498 3.6656,1.407 3.6656,1.407 l 7.382,-4.2629 c 0,0 -2.4566,-0.516 -3.3433,-1.0293 -1.87,-1.0828 -4.0399,-3.5 -4.0399,-3.5 l -7.382,4.2609 c 0,0 2.6719,2.5082 3.7176,3.1243"
         style="fill:#ffa875;fill-opacity:1;fill-rule:nonzero;stroke:none;stroke-width:0.1"
         id="path6587" />
      <path
         d="m 156.172,124.766 c 0,0 -1.514,-6.34 0.946,-6.908 2.46,-0.567 3.974,2.745 6.434,3.786 2.46,1.04 16.404,9.09 16.404,9.09 0,0 4.092,5.669 2.046,7.467 -2.046,1.797 -5.298,1.324 -8.61,0 -3.311,-1.325 -17.22,-13.435 -17.22,-13.435"
         style="fill:#1e5f99;fill-opacity:1;fill-rule:nonzero;stroke:none;stroke-width:0.1"
         id="path6589" />
      <path
         d="m 197.614,139.998 c 0,0 2.649,1.22 3.69,-0.62 1.04,-1.84 1.04,-6.286 1.04,-6.286 l -0.662,-1.703 c 0,0 0.757,-5.677 0.189,-6.908 -0.567,-1.229 -2.554,-3.125 -4.257,-3.36 -1.703,-0.235 -3.785,0.523 -2.744,2.225 1.041,1.703 2.271,4.826 1.797,8.232 -0.473,3.405 -0.781,7.423 0.947,8.42"
         style="fill:#96c7ed;fill-opacity:1;fill-rule:nonzero;stroke:none;stroke-width:0.1"
         id="path6591" />
      <path
         d="m 183.989,121.927 c 0.946,0.851 11.791,17.999 13.719,17.451 1.929,-0.548 1.929,-4.867 1.929,-6.855 0,-1.986 -3.055,-9.839 -5.046,-12.205 -1.992,-2.365 -7.29,-11.732 -10.602,-12.584 -3.311,-0.851 -3.122,-1.797 -5.299,-0.851 -2.175,0.946 -2.175,6.623 -2.175,8.8 0,2.175 7.474,6.244 7.474,6.244"
         style="fill:#1e5f99;fill-opacity:1;fill-rule:nonzero;stroke:none;stroke-width:0.1"
         id="path6593" />
      <path
         d="m 162.07,165.892 c 0,0 -1.672,-1.83 -2.365,-3.249 -0.694,-1.419 -3.217,-7.506 -3.596,-8.168 -0.379,-0.663 -0.158,-2.271 -0.379,-3.753 -0.22,-1.483 -0.378,-2.24 0,-2.965 0.379,-0.726 1.23,-2.019 1.767,-2.113 0.536,-0.095 1.23,-0.221 1.577,-0.158 0.347,0.063 0.858,0.359 0.858,0.359 0,0 0.56,0.323 1.02,0.589 0.461,0.265 0.995,0.409 0.804,0.629 -0.191,0.221 -0.695,0.347 -0.853,0.378 -0.158,0.032 -1.104,1.388 -1.104,1.388 l 0.284,2.019 v 2.618 c 0,0 4.73,4.131 6.119,6.559 1.387,2.429 1.513,3.627 1.513,3.627 0,0 -5.023,2.961 -5.645,2.24"
         style="fill:#e2ab91;fill-opacity:1;fill-rule:nonzero;stroke:none;stroke-width:0.1"
         id="path6595" />
      <path
         d="m 170.932,183.332 c 0,0 -2.46,0.852 -3.311,-1.703 -0.852,-2.555 -1.23,-8.468 -2.271,-9.343 -1.041,-0.875 -2.744,-5.89 -2.744,-5.89 0,0 0.378,-2.158 2.365,-2.862 1.987,-0.703 3.406,0.2 3.501,0.349 0.095,0.147 2.839,2.918 3.974,5.412 1.136,2.494 3.028,12.618 -1.514,14.037"
         style="fill:#194d7e;fill-opacity:1;fill-rule:nonzero;stroke:none;stroke-width:0.1"
         id="path6597" />
      <path
         d="m 165.192,165.497 c 0,0 -1.139,0.692 -1.451,1.908 -0.311,1.216 -0.127,1.672 -0.127,1.672 0,0 -1.323,-0.694 -1.67,-1.608 -0.347,-0.915 -0.221,-2.208 0.441,-3.091 0.662,-0.884 2.114,-2.492 3.722,-2.429 1.608,0.064 2.838,0.966 3.437,1.934 0.6,0.968 0.589,1.905 0.589,1.905 0,0 -2.383,-1.767 -4.941,-0.291"
         style="fill:#2275b4;fill-opacity:1;fill-rule:nonzero;stroke:none;stroke-width:0.1"
         id="path6599" />
      <path
         d="m 177.246,153.056 c -1.296,-1.031 -16.197,-12.6 -19.749,-19.964 -3.622,-7.509 -5.204,-11.638 -3.69,-13.153 1.514,-1.513 2.644,-2.683 4.731,-0.567 2.087,2.116 8.136,9.106 11.354,11.365 3.216,2.26 10.565,6.502 10.565,6.502 0,0 -4.321,-20.705 -4.794,-23.07 -0.473,-2.366 -0.676,-6.408 1.608,-7.097 2.285,-0.688 3.89,-1.23 5.304,0 1.414,1.231 5.009,13.152 6.807,16.368 1.798,3.217 6.245,12.411 6.812,15.951 0.568,3.541 0,11.488 0,11.488 l -18.948,2.177"
         style="fill:#2275b4;fill-opacity:1;fill-rule:nonzero;stroke:none;stroke-width:0.1"
         id="path6601" />
      <path
         d="m 170.932,175.857 c 0,0 -1.798,-9.555 0,-11.827 1.798,-2.27 3.909,-5.013 3.909,-5.013 0,0 -1.106,-2.745 0,-4.164 1.106,-1.419 1.426,-2.27 6.186,-4.352 4.76,-2.082 5.611,-5.109 9.964,-3.88 4.352,1.231 5.456,2.934 5.456,2.934 0,0 0.346,3.973 0,4.73 -0.347,0.757 -1.199,4.258 -1.199,4.732 0,0.472 1.618,11.069 -0.657,12.867 -2.276,1.798 -11.359,9.272 -14.008,9.462 -2.649,0.188 -8.326,0.567 -9.651,-5.489"
         style="fill:#1e5f99;fill-opacity:1;fill-rule:nonzero;stroke:none;stroke-width:0.1"
         id="path6603" />
      <path
         d="m 173.487,177.183 c 0,0 -0.946,-4.051 0,-6.511 l 2.097,-5.175 c 0,0 3.168,2.104 4.659,3.075 4.03,2.627 4.016,7.38 3.124,8.611 -0.892,1.229 -8.34,4.848 -9.88,0"
         style="fill:#ffffff;fill-opacity:1;fill-rule:nonzero;stroke:none;stroke-width:0.1"
         id="path6605" />
      <path
         d="m 172.446,176.709 c 0,0 2.554,-5.204 4.069,-5.866 1.513,-0.662 4.446,0.695 5.298,2.476 0.852,1.782 0.762,3.864 0.762,3.864 l -1.235,2.932 -8.894,-3.406"
         style="fill:#e2ab91;fill-opacity:1;fill-rule:nonzero;stroke:none;stroke-width:0.1"
         id="path6607" />
      <path
         d="m 170.932,171.127 h 1.514 l -1.514,2.129 c 0,0 -0.426,2.886 1.514,4.541 1.94,1.656 2.351,1.227 2.351,1.227 0,0 -1.31,-5.651 -1.215,-7.235 0.094,-1.584 2.002,-6.292 2.002,-6.292 l -4.652,5.63"
         style="fill:#2b83c6;fill-opacity:1;fill-rule:nonzero;stroke:none;stroke-width:0.1"
         id="path6609" />
      <path
         d="m 175.584,165.497 c 0.189,0 7.35,1.372 7.783,1.372 0.433,0 -1.649,1.514 -1.649,1.514 h 3.501 c 0,0 3.092,7.451 1.428,9.615 -1.665,2.165 -6.206,3.631 -7.058,3.631 -0.851,0 -2.129,-1.573 0.237,-2.555 2.366,-0.982 3.779,-3.737 3.264,-5.723 -0.515,-1.988 -7.506,-7.854 -7.506,-7.854"
         style="fill:#2b83c6;fill-opacity:1;fill-rule:nonzero;stroke:none;stroke-width:0.1"
         id="path6611" />
      <path
         d="m 174.841,166.396 c 0,0 -0.55,-4.068 -0.219,-5.346 0.331,-1.277 1.277,-2.223 1.277,-2.223 l 1.613,-0.757 c 0,0 -1.043,1.844 -1.498,2.507 -0.899,1.312 -0.43,4.92 -0.43,4.92 l -0.743,0.899"
         style="fill:#2b83c6;fill-opacity:1;fill-rule:nonzero;stroke:none;stroke-width:0.1"
         id="path6613" />
      <path
         d="m 178.17,157.313 c 0,0 -0.331,-0.804 0,-1.466 0.331,-0.662 0.331,-0.757 0.331,-1.041 0,-0.285 -0.527,-0.807 -0.478,-1.839 0.049,-1.031 0.478,-1.28 0.478,-1.28 l 1.393,-0.675 c 0,0 -0.893,1.901 -0.446,2.422 0.446,0.52 0.703,0.662 0.446,1.182 -0.257,0.521 -0.73,0.71 -0.494,1.041 0.237,0.331 0.237,0.852 0.237,0.852 0,0 -1.088,0.804 -1.467,0.804"
         style="fill:#2b83c6;fill-opacity:1;fill-rule:nonzero;stroke:none;stroke-width:0.1"
         id="path6615" />
      <path
         d="m 172.777,184.657 -1.041,3.5 c 0,0 -0.094,3.218 3.312,4.116 3.406,0.899 7.806,0.378 9.509,-1.797 1.703,-2.176 1.372,-6.86 0.615,-8.09 -0.757,-1.23 -2.514,-2.824 -2.886,-2.748 -0.371,0.075 -2.479,-0.283 -2.894,-0.355 -0.415,-0.073 -6.615,5.374 -6.615,5.374"
         style="fill:#26466c;fill-opacity:1;fill-rule:nonzero;stroke:none;stroke-width:0.1"
         id="path6617" />
      <path
         d="m 171.736,188.157 c 0,0 -0.662,-4.682 -0.804,-4.825 -0.142,-0.142 -0.794,-2.743 -0.799,-3.406 -0.005,-0.662 0.421,-2.981 0.373,-3.784 -0.047,-0.805 -0.094,-1.704 0.899,-2.035 0.994,-0.331 0.719,-0.756 2.323,-0.544 1.604,0.213 4.537,1.396 5.672,2.105 1.136,0.71 1.325,1.846 1.325,1.846 0,0 -0.283,-0.369 0.636,0 0.919,0.368 2.634,1.542 2.489,2.355 -0.145,0.814 -0.098,1.348 -0.996,0.963 -0.899,-0.386 -1.845,-0.907 -1.845,-0.907 0,0 -1.305,2.178 -2.001,2.603 -0.696,0.426 -2.595,3.075 -2.994,3.595 -0.398,0.521 -4.278,2.034 -4.278,2.034"
         style="fill:#ffd1b6;fill-opacity:1;fill-rule:nonzero;stroke:none;stroke-width:0.1"
         id="path6619" />
      <path
         d="m 172.476,187.764 c 0,0 -5.929,-3.549 -5.704,-4.377 0.226,-0.827 5.87,-3.185 7.224,-2.909 1.354,0.276 7.976,3.605 7.976,3.605 0,0 -4.334,0.635 -6.923,1.787 -1.456,0.649 -2.573,1.894 -2.573,1.894"
         style="fill:#2b83c6;fill-opacity:1;fill-rule:nonzero;stroke:none;stroke-width:0.1"
         id="path6621" />
      <path
         d="m 171.169,186.954 c 0,0 -0.836,4.946 3.151,6.902 3.988,1.956 6.73,0.904 6.73,0.904 0,0 4.971,-1.355 5.686,-6.698 0.529,-3.952 -1.231,-5.516 -1.231,-5.516 0,0 -3.644,0.342 -7.619,0.975 -6.801,1.084 -6.717,3.433 -6.717,3.433"
         style="fill:#2275b4;fill-opacity:1;fill-rule:nonzero;stroke:none;stroke-width:0.1"
         id="path6623" />
      <path
         d="m 190.202,168.036 c 0,0 1.208,4.011 4.389,2.636 3.18,-1.374 0.632,-21.76 -0.074,-23.977 -0.644,-2.019 -3.526,-3.558 -4.03,-2.927 -0.505,0.63 -3.853,3.586 -3.348,6.733 0.504,3.147 1.928,8.073 1.928,8.83 0,0.758 -0.316,6.42 1.135,8.705"
         style="fill:#2275b4;fill-opacity:1;fill-rule:nonzero;stroke:none;stroke-width:0.1"
         id="path6625" />
      <path
         d="m 185.456,149.602 c 0,0 0.982,3.202 2.265,3.801 1.283,0.598 5.23,0.045 6.629,-1.625 1.398,-1.671 2.317,-3.866 0.472,-6.309 -1.844,-2.443 -1.521,-4.004 -4.166,-2.727 -2.646,1.278 -6.003,4.871 -5.2,6.86"
         style="fill:#2b83c6;fill-opacity:1;fill-rule:nonzero;stroke:none;stroke-width:0.1"
         id="path6627" />
      <path
         d="m 157.425,149.731 1.485,-0.086 c 0.134,-0.008 0.303,0.121 0.408,0.311 0.138,0.25 0.112,0.507 -0.054,0.544 l -0.962,0.215 -0.877,-0.984"
         style="fill:#26466c;fill-opacity:1;fill-rule:nonzero;stroke:none;stroke-width:0.1"
         id="path6629" />
      <path
         d="m 157.258,149.73 c 0,0 0.439,0.155 0.439,-0.204 0,-0.357 0,-0.574 0,-0.574 l -0.439,0.011 v -0.919 l -0.483,-0.156 -0.27,-0.847 -0.246,0.303 -0.514,-0.856 -0.169,0.281 1.682,2.961"
         style="fill:#96c7ed;fill-opacity:1;fill-rule:nonzero;stroke:none;stroke-width:0.1"
         id="path6631" />
      <path
         d="m 158.073,151.441 c -0.802,-0.613 -1.596,-1.002 -2.444,-1.348 -0.75,-0.308 -1.5,-1.097 -1.951,-2.056 -0.352,-0.747 -0.568,-1.516 -0.625,-2.223 l -0.006,-0.075 c -0.057,-0.705 -0.549,-1.503 -1.138,-1.843 -0.304,-0.174 -0.594,-0.205 -0.808,-0.082 l -0.348,0.199 c -0.113,0.063 -0.304,-0.156 -0.284,-0.325 0.166,-1.378 1.523,-2.205 2.819,-1.457 l 0.946,1.052 c 1.125,0.65 2.025,2.239 1.986,3.506 -0.033,1.074 0.615,2.415 1.546,3.195 l 2.075,1.581 c -0.111,0.323 -0.71,0.449 -0.99,0.504 l -0.778,-0.628"
         style="fill:#ffa875;fill-opacity:1;fill-rule:nonzero;stroke:none;stroke-width:0.1"
         id="path6633" />
      <path
         d="m 161.888,154.677 c -0.763,-0.16 -2.669,-2.283 -3.66,-3.112 0.299,0.058 0.322,0.061 0.434,-0.26 l 2.936,1.891 1.296,0.684 c 0.064,0.074 -0.202,0.966 -1.006,0.797"
         style="fill:#194d7e;fill-opacity:1;fill-rule:nonzero;stroke:none;stroke-width:0.1"
         id="path6635" />
      <path
         d="m 158.479,148.059 c -0.585,-0.397 -0.74,-1.018 -1.758,-1.643 -0.304,-0.186 -1.411,0.076 -1.78,-0.86 -0.236,-0.597 -0.418,-1.589 1.19,-0.956 1.465,0.577 1.729,1.685 2.47,2.285 0.06,0.441 0.119,0.909 0.163,1.345 -0.099,-0.053 -0.195,-0.11 -0.285,-0.171"
         style="fill:#f46c0a;fill-opacity:1;fill-rule:nonzero;stroke:none;stroke-width:0.1"
         id="path6637" />
      <path
         d="m 162.547,150.076 c -0.306,-0.029 -0.928,-0.802 -1.059,-0.964 -0.12,-0.148 -1.631,-0.287 -2.724,-0.882 -0.044,-0.436 -0.103,-0.904 -0.163,-1.345 l 0.231,0.16 c 0.492,0.284 3.37,1.078 4.163,2.409 0.248,0.416 -0.141,0.65 -0.448,0.622"
         style="fill:#194d7e;fill-opacity:1;fill-rule:nonzero;stroke:none;stroke-width:0.1"
         id="path6639" />
      <path
         d="m 155.745,145.216 c -0.093,-0.054 -0.169,-0.011 -0.169,0.096 0,0.107 0.076,0.237 0.169,0.291 0.093,0.053 0.168,0.01 0.168,-0.096 0,-0.108 -0.075,-0.237 -0.168,-0.291"
         style="fill:#26466c;fill-opacity:1;fill-rule:nonzero;stroke:none;stroke-width:0.1"
         id="path6641" />
      <path
         d="m 158.228,147.036 -0.135,-0.232 -0.135,0.077 0.135,0.231 0.135,-0.076"
         style="fill:#26466c;fill-opacity:1;fill-rule:nonzero;stroke:none;stroke-width:0.1"
         id="path6643" />
      <path
         d="m 156.775,147.765 c 0,0 0.776,0.288 0.776,-0.48 0,-0.767 -0.694,-1.685 -0.776,-1.473 -0.082,0.21 -0.416,-0.18 -0.249,0.087 0.167,0.267 0.194,1.357 0.111,1.497 -0.084,0.138 0.138,0.369 0.138,0.369"
         style="fill:#194d7e;fill-opacity:1;fill-rule:nonzero;stroke:none;stroke-width:0.1"
         id="path6645" />
      <path
         d="m 156.932,147.663 c 0,0 0.775,0.287 0.775,-0.48 0,-0.768 -0.693,-1.685 -0.775,-1.474 -0.082,0.212 -0.416,-0.179 -0.249,0.089 0.167,0.266 0.194,1.356 0.11,1.495 -0.084,0.14 0.139,0.37 0.139,0.37"
         style="fill:#26466c;fill-opacity:1;fill-rule:nonzero;stroke:none;stroke-width:0.1"
         id="path6647" />
      <path
         d="m 158.803,149.924 -1.066,-3.039 0.153,-0.137 1.423,3.277 c 0,0 -0.07,0.704 -0.51,-0.101"
         style="fill:#194d7e;fill-opacity:1;fill-rule:nonzero;stroke:none;stroke-width:0.1"
         id="path6649" />
      <path
         d="m 158.956,149.787 -1.066,-3.039 0.395,0.325 1.026,2.727 c 0,0 0.085,0.793 -0.355,-0.013"
         style="fill:#26466c;fill-opacity:1;fill-rule:nonzero;stroke:none;stroke-width:0.1"
         id="path6651" />
      <path
         d="m 157.86,149.47 1.484,-0.086 c 0.135,-0.008 0.303,0.12 0.408,0.31 0.317,0.382 -0.24,0.723 -0.407,0.76 h -0.609 l -0.876,-0.984"
         style="fill:#26466c;fill-opacity:1;fill-rule:nonzero;stroke:none;stroke-width:0.1"
         id="path6653" />
      <path
         d="m 157.487,149.577 c 0,0 0.439,0.153 0.439,-0.204 0,-0.358 0,-0.574 0,-0.574 l -0.439,0.011 v -0.92 l -0.482,-0.157 -0.27,-0.845 -0.247,0.302 -0.514,-0.855 -0.168,0.28 1.681,2.962"
         style="fill:#96c7ed;fill-opacity:1;fill-rule:nonzero;stroke:none;stroke-width:0.1"
         id="path6655" />
      <path
         d="m 158.508,151.181 c -0.802,-0.615 -1.597,-1.002 -2.445,-1.35 -0.75,-0.307 -1.499,-1.096 -1.951,-2.056 -0.352,-0.746 -0.568,-1.514 -0.625,-2.221 l -0.006,-0.076 c -0.056,-0.706 -0.549,-1.502 -1.138,-1.842 -0.303,-0.176 -0.593,-0.205 -0.808,-0.083 l -0.347,0.198 c -0.113,0.064 -0.305,-0.154 -0.285,-0.324 0.167,-1.379 1.262,-1.851 2.557,-1.103 l 1.209,0.698 c 1.124,0.649 2.025,2.239 1.986,3.506 -0.033,1.075 0.615,2.415 1.545,3.195 l 0.842,0.705 c -0.112,0.322 -0.249,0.622 -0.38,0.877 l -0.154,-0.124"
         style="fill:#f46c0a;fill-opacity:1;fill-rule:nonzero;stroke:none;stroke-width:0.1"
         id="path6657" />
      <path
         d="m 162.322,154.416 c -0.762,-0.16 -2.668,-2.283 -3.66,-3.111 0.131,-0.255 0.268,-0.555 0.38,-0.877 l 2.991,2.507 0.9,0.21 c 0.065,0.074 0.193,1.44 -0.611,1.271"
         style="fill:#26466c;fill-opacity:1;fill-rule:nonzero;stroke:none;stroke-width:0.1"
         id="path6659" />
      <path
         d="m 158.913,147.798 c -0.584,-0.398 -0.74,-1.018 -1.758,-1.643 -0.303,-0.185 -1.41,0.076 -1.78,-0.86 -0.235,-0.597 -0.418,-1.59 1.19,-0.956 1.466,0.576 1.729,1.685 2.471,2.285 0.06,0.441 0.118,0.909 0.162,1.346 -0.098,-0.054 -0.194,-0.111 -0.285,-0.172"
         style="fill:#fc9a5d;fill-opacity:1;fill-rule:nonzero;stroke:none;stroke-width:0.1"
         id="path6661" />
      <path
         d="m 162.982,149.814 c -0.306,-0.029 -0.929,-0.8 -1.06,-0.962 -0.12,-0.15 -1.63,-0.288 -2.724,-0.882 -0.044,-0.437 -0.102,-0.905 -0.162,-1.346 l 0.231,0.16 c 0.492,0.284 2.058,0.561 3.248,1.248 0.42,0.242 0.773,1.812 0.467,1.782"
         style="fill:#26466c;fill-opacity:1;fill-rule:nonzero;stroke:none;stroke-width:0.1"
         id="path6663" />
      <path
         d="m 156.179,144.955 c -0.093,-0.054 -0.168,-0.011 -0.168,0.096 0,0.107 0.075,0.237 0.168,0.291 0.093,0.054 0.169,0.011 0.169,-0.096 0,-0.107 -0.076,-0.237 -0.169,-0.291"
         style="fill:#26466c;fill-opacity:1;fill-rule:nonzero;stroke:none;stroke-width:0.1"
         id="path6665" />
      <path
         d="m 158.662,146.774 -0.135,-0.231 -0.134,0.076 0.134,0.233 0.135,-0.078"
         style="fill:#26466c;fill-opacity:1;fill-rule:nonzero;stroke:none;stroke-width:0.1"
         id="path6667" />
      <path
         d="m 155.543,147.771 c 0,-0.362 -0.255,-0.803 -0.571,-0.986 -0.316,-0.182 -0.572,-0.036 -0.572,0.326 0,0.363 0.256,0.804 0.572,0.986 0.316,0.182 0.571,0.037 0.571,-0.326"
         style="fill:#26466c;fill-opacity:1;fill-rule:nonzero;stroke:none;stroke-width:0.1"
         id="path6669" />
      <path
         d="m 156.637,150.266 c -0.104,0.142 -0.527,-0.119 -0.789,-0.225 -0.75,-0.308 -1.499,-1.097 -1.951,-2.056 -0.352,-0.747 -0.568,-1.515 -0.625,-2.221 l -0.006,-0.077 c -0.057,-0.705 -0.549,-1.502 -1.138,-1.842 -0.303,-0.175 -0.533,-0.124 -0.748,-0.141 0,0 1.341,-0.517 1.934,1.685 0.211,0.783 0.144,1.75 1.019,3.059 0,0 0.546,0.751 1.041,1.075 0.249,0.163 1.334,0.644 1.263,0.743"
         style="fill:#fc9a5d;fill-opacity:1;fill-rule:nonzero;stroke:none;stroke-width:0.1"
         id="path6671" />
      <path
         d="m 154.414,148.557 -0.082,-0.109 -0.096,-0.149 c -0.151,-0.239 -0.27,-0.467 -0.365,-0.685 l -0.24,-0.267 -2.943,-3.281 -0.149,0.056 c 0,0 -0.032,1.9 1.769,3.088 0.738,0.486 1.335,0.867 1.783,1.146 0.118,0.075 0.226,0.141 0.323,0.201"
         style="fill:#c7edff;fill-opacity:1;fill-rule:nonzero;stroke:none;stroke-width:0.1"
         id="path6673" />
      <path
         d="m 154.236,148.299 c -0.151,-0.239 -0.27,-0.467 -0.365,-0.685 -0.349,-0.792 -0.388,-1.442 -0.504,-2 l -0.118,-0.068 -2.561,-1.48 c 0,0 -0.033,1.901 1.768,3.088 0.598,0.396 1.104,0.72 1.513,0.978 0.094,0.058 0.183,0.115 0.267,0.167"
         style="fill:#96c7ed;fill-opacity:1;fill-rule:nonzero;stroke:none;stroke-width:0.1"
         id="path6675" />
      <path
         d="m 169.216,166.615 c -0.024,-0.337 0.181,-0.762 0.458,-0.951 l 2.894,-1.965 c 0.057,-0.039 -0.166,-1.174 -0.388,-2.23 -0.266,-1.265 -0.45,-2.599 -0.552,-3.99 l 0.595,0.288 c 0.102,1.391 0.286,2.725 0.552,3.99 0.222,1.056 0.445,2.191 0.388,2.23 l -1.141,0.775 0.011,-0.151 c 0.064,-0.1 0.133,-0.214 0.199,-0.333 l 0.68,-0.462 -0.099,-0.873 -0.018,-0.154 -0.035,-0.308 -0.239,-0.103 0.054,0.396 0.015,0.113 0.03,0.223 0.036,0.263 0.044,0.328 -0.265,0.18 -0.215,0.145 -1.597,1.085 -0.47,0.32 c -0.943,0.64 -0.778,1.383 -0.778,1.383 l 0.289,0.141 c -0.043,-0.548 -0.105,-0.861 0.666,-1.385 l 0.311,-0.211 0.023,0.325 -0.394,0.268 c -0.278,0.189 -0.483,0.614 -0.458,0.951 l 0.071,1.767 -1.072,-0.507 -0.061,-0.035 0.539,0.254 -0.073,-1.767"
         style="fill:#c7edff;fill-opacity:1;fill-rule:nonzero;stroke:none;stroke-width:0.1"
         id="path6677" />
      <path
         d="m 171.004,148.944 c -0.022,-0.3 -0.142,-0.505 -0.318,-0.59 -0.101,-0.05 -0.219,-0.06 -0.348,-0.03 0.247,-0.166 0.767,0.231 0.943,0.317 0.177,0.087 0.297,0.291 0.319,0.59 l 0.623,8.536 -0.595,-0.288 -0.624,-8.535"
         style="fill:#ffa875;fill-opacity:1;fill-rule:nonzero;stroke:none;stroke-width:0.1"
         id="path6679" />
      <path
         d="m 170.5,159.943 c 0.056,0.764 -0.21,1.693 -0.708,2.469 l -0.943,1.474 c -0.575,0.895 -0.882,1.968 -0.818,2.851 0.026,0.351 0.109,0.655 0.241,0.897 0.121,0.22 0.283,0.386 0.478,0.494 l -0.534,-0.252 c -0.224,-0.106 -0.406,-0.288 -0.538,-0.53 -0.133,-0.242 -0.216,-0.546 -0.241,-0.897 -0.065,-0.883 0.242,-1.955 0.816,-2.851 l 0.944,-1.474 c 0.498,-0.775 0.764,-1.704 0.708,-2.469 l -0.07,-0.959 0.547,-0.371 0.118,1.618"
         style="fill:#96c7ed;fill-opacity:1;fill-rule:nonzero;stroke:none;stroke-width:0.1"
         id="path6681" />
      <path
         d="m 170.338,148.324 c -0.495,0.335 -0.574,1.543 -0.53,2.145 l 0.574,7.856 -0.547,0.371 -0.622,-8.515 c -0.045,-0.603 0.325,-1.387 0.822,-1.72 0.105,-0.07 0.207,-0.115 0.303,-0.137"
         style="fill:#fc9a5d;fill-opacity:1;fill-rule:nonzero;stroke:none;stroke-width:0.1"
         id="path6683" />
      <path
         d="m 170.984,163.051 0.117,-0.1 0.169,-0.24 c 0.057,-0.115 0.087,-0.236 0.079,-0.342 l -0.028,-0.389 -0.021,-0.291 -0.029,-0.152 -0.067,-0.082 c -0.091,-0.046 -0.181,-0.039 -0.281,0.015 l -0.052,0.032 -0.704,0.477 -0.168,0.158 c -0.128,0.157 -0.209,0.36 -0.197,0.523 l 0.031,0.417 0.022,0.307 c 0.014,0.195 0.156,0.27 0.333,0.196 l 0.093,-0.052 z m -2.712,4.583 c -0.132,-0.242 -0.215,-0.546 -0.241,-0.897 -0.064,-0.883 0.243,-1.956 0.818,-2.851 l 0.943,-1.474 c 0.498,-0.776 0.764,-1.705 0.708,-2.469 l -0.118,-1.618 1.246,-0.846 c 0.102,1.391 0.286,2.725 0.552,3.99 0.222,1.056 0.445,2.191 0.388,2.23 l -2.894,1.965 c -0.277,0.189 -0.482,0.614 -0.458,0.951 l 0.073,1.767 -0.539,-0.254 c -0.195,-0.108 -0.357,-0.274 -0.478,-0.494"
         style="fill:#96c7ed;fill-opacity:1;fill-rule:nonzero;stroke:none;stroke-width:0.1"
         id="path6685" />
      <path
         d="m 170.686,148.354 c 0.176,0.085 0.296,0.29 0.318,0.59 l 0.624,8.535 -1.246,0.846 -0.574,-7.856 c -0.044,-0.602 0.035,-1.81 0.53,-2.145 0.129,-0.03 0.247,-0.02 0.348,0.03"
         style="fill:#fc9a5d;fill-opacity:1;fill-rule:nonzero;stroke:none;stroke-width:0.1"
         id="path6687" />
      <path
         d="m 171.72,165.648 c -0.146,0.488 -0.374,0.974 -0.669,1.41 l -0.259,0.382 -0.128,-1.756 1.219,-0.829 c -0.028,0.26 -0.083,0.527 -0.163,0.793"
         style="fill:#96c7ed;fill-opacity:1;fill-rule:nonzero;stroke:none;stroke-width:0.1"
         id="path6689" />
      <path
         d="m 170.623,165.111 1.597,-1.085 c -0.073,0.144 -0.154,0.288 -0.232,0.418 l -0.084,0.134 c -0.003,0.092 -0.01,0.185 -0.021,0.277 l -1.219,0.829 -0.023,-0.325 -0.018,-0.248"
         style="fill:#96c7ed;fill-opacity:1;fill-rule:nonzero;stroke:none;stroke-width:0.1"
         id="path6691" />
      <path
         d="m 170.33,165.57 c -0.771,0.524 -0.709,0.837 -0.666,1.385 l -0.289,-0.141 c 0,0 -0.165,-0.743 0.778,-1.383 l 0.47,-0.32 0.018,0.248 -0.311,0.211"
         style="fill:#2275b4;fill-opacity:1;fill-rule:nonzero;stroke:none;stroke-width:0.1"
         id="path6693" />
      <path
         d="m 171.72,165.648 c 0.08,-0.266 0.135,-0.533 0.163,-0.793 l 0.139,-0.093 c -0.022,0.298 -0.08,0.608 -0.173,0.919 -0.146,0.487 -0.374,0.973 -0.669,1.409 l -0.259,0.384 -0.129,-0.034 0.259,-0.382 c 0.295,-0.436 0.523,-0.922 0.669,-1.41"
         style="fill:#c7edff;fill-opacity:1;fill-rule:nonzero;stroke:none;stroke-width:0.1"
         id="path6695" />
      <path
         d="m 171.904,164.578 0.084,-0.134 c 0.078,-0.13 0.159,-0.274 0.232,-0.418 l 0.215,-0.145 c -0.06,0.131 -0.13,0.267 -0.203,0.397 -0.066,0.119 -0.135,0.233 -0.199,0.333 l -0.011,0.151 -0.139,0.093 c 0.011,-0.092 0.018,-0.185 0.021,-0.277"
         style="fill:#c7edff;fill-opacity:1;fill-rule:nonzero;stroke:none;stroke-width:0.1"
         id="path6697" />
      <path
         d="m 172.62,163.11 c 0.049,-0.129 0.08,-0.236 0.075,-0.298 l -0.018,-0.049 0.118,0.026 0.018,0.154 c -0.025,0.109 -0.087,0.264 -0.157,0.43 l -0.036,-0.263"
         style="fill:#c7edff;fill-opacity:1;fill-rule:nonzero;stroke:none;stroke-width:0.1"
         id="path6699" />
      <path
         d="m 172.7,163.701 -0.044,-0.328 c 0.07,-0.166 0.132,-0.321 0.157,-0.43 l 0.099,0.873 -0.68,0.462 c 0.073,-0.13 0.143,-0.266 0.203,-0.397 l 0.265,-0.18"
         style="fill:#2275b4;fill-opacity:1;fill-rule:nonzero;stroke:none;stroke-width:0.1"
         id="path6701" />
      <path
         d="m 172.677,162.763 -0.102,0.011 -0.054,-0.396 0.239,0.103 0.035,0.308 -0.118,-0.026"
         style="fill:#2275b4;fill-opacity:1;fill-rule:nonzero;stroke:none;stroke-width:0.1"
         id="path6703" />
      <path
         d="m 172.695,162.812 c 0.005,0.062 -0.026,0.169 -0.075,0.298 l -0.03,-0.223 -0.015,-0.113 0.102,-0.011 0.018,0.049"
         style="fill:#96c7ed;fill-opacity:1;fill-rule:nonzero;stroke:none;stroke-width:0.1"
         id="path6705" />
      <path
         d="m 172.677,162.763 -0.102,0.011 0.102,-0.011"
         style="fill:#96c7ed;fill-opacity:1;fill-rule:nonzero;stroke:none;stroke-width:0.1"
         id="path6707" />
      <path
         d="m 170.497,163.226 0.185,-0.126 0.193,-0.131 0.159,-0.139 c 0.113,-0.143 0.176,-0.303 0.167,-0.433 l -0.043,-0.585 -0.064,-0.146 -0.14,-0.031 -0.138,0.059 -0.046,0.032 -0.336,0.229 -0.041,0.026 -0.147,0.101 c -0.184,0.135 -0.308,0.372 -0.295,0.551 l 0.024,0.332 0.018,0.252 0.069,0.15 c 0.097,0.04 0.166,0.03 0.241,-0.013 z m -0.642,0.158 -0.022,-0.306 -0.031,-0.418 c -0.012,-0.163 0.069,-0.366 0.197,-0.523 l 0.158,-0.151 0.714,-0.484 0.052,-0.032 c 0.1,-0.054 0.19,-0.061 0.257,-0.029 l 0.091,0.096 0.025,0.109 0.025,0.334 0.028,0.389 c 0.008,0.106 -0.022,0.227 -0.079,0.342 l -0.164,0.235 -0.11,0.096 -0.715,0.486 -0.093,0.052 c -0.177,0.074 -0.319,-0.001 -0.333,-0.196"
         style="fill:#c7edff;fill-opacity:1;fill-rule:nonzero;stroke:none;stroke-width:0.1"
         id="path6709" />
      <path
         d="m 169.993,163.218 0.069,0.149 -0.069,-0.149"
         style="fill:#2275b4;fill-opacity:1;fill-rule:nonzero;stroke:none;stroke-width:0.1"
         id="path6711" />
      <path
         d="m 170.246,162.082 0.147,-0.101 -0.147,0.101"
         style="fill:#96c7ed;fill-opacity:1;fill-rule:nonzero;stroke:none;stroke-width:0.1"
         id="path6713" />
      <path
         d="m 170.373,162.03 -0.105,0.208 -0.021,0.056 c -0.051,0.14 -0.083,0.293 -0.083,0.441 l 0.001,0.052 c 0.013,0.218 0.073,0.415 0.138,0.567 l -0.198,0.036 -0.112,-0.173 -0.018,-0.252 -0.024,-0.332 c -0.013,-0.179 0.111,-0.416 0.278,-0.539 l 0.163,-0.112 -0.019,0.048"
         style="fill:#96c7ed;fill-opacity:1;fill-rule:nonzero;stroke:none;stroke-width:0.1"
         id="path6715" />
      <path
         d="m 170.165,162.787 -0.001,-0.052 c 0,-0.148 0.032,-0.301 0.083,-0.441 l 0.021,-0.056 0.105,-0.208 -0.023,0.063 c -0.05,0.15 -0.079,0.319 -0.069,0.483 0.013,0.239 0.115,0.469 0.219,0.643 l -0.163,0.115 c -0.099,-0.132 -0.159,-0.329 -0.172,-0.547"
         style="fill:#c7edff;fill-opacity:1;fill-rule:nonzero;stroke:none;stroke-width:0.1"
         id="path6717" />
      <path
         d="m 170.566,162.897 -0.055,-0.757 c -0.014,-0.1 -0.04,-0.152 -0.077,-0.185 l 0.336,-0.229 -0.019,0.047 -0.105,0.208 -0.021,0.056 c -0.051,0.14 -0.083,0.293 -0.083,0.442 l 0.001,0.051 c 0.013,0.218 0.074,0.416 0.139,0.57 l -0.18,0.122 c 0.046,-0.113 0.072,-0.225 0.064,-0.325"
         style="fill:#96c7ed;fill-opacity:1;fill-rule:nonzero;stroke:none;stroke-width:0.1"
         id="path6719" />
      <path
         d="m 170.415,161.967 -0.042,0.063 0.019,-0.048 z"
         style="fill:#96c7ed;fill-opacity:1;fill-rule:nonzero;stroke:none;stroke-width:0.1"
         id="path6721" />
      <path
         d="m 170.507,162.106 0.059,0.789 c 0.008,0.102 -0.018,0.214 -0.066,0.324 -0.104,-0.174 -0.206,-0.404 -0.219,-0.642 -0.01,-0.165 0.019,-0.334 0.069,-0.484 l 0.023,-0.063 0.042,-0.063 0.092,0.139"
         style="fill:#96c7ed;fill-opacity:1;fill-rule:nonzero;stroke:none;stroke-width:0.1"
         id="path6723" />
      <path
         d="m 170.542,162.479 c 0,-0.149 0.032,-0.302 0.083,-0.442 l 0.021,-0.056 0.105,-0.208 -0.022,0.063 c -0.051,0.15 -0.08,0.319 -0.07,0.483 l 0.012,0.107 -0.008,0.129 0.039,0.532 c -0.085,-0.141 -0.146,-0.339 -0.159,-0.557 l -0.001,-0.051"
         style="fill:#c7edff;fill-opacity:1;fill-rule:nonzero;stroke:none;stroke-width:0.1"
         id="path6725" />
      <path
         d="m 170.668,162.439 c 0.035,0.187 0.122,0.374 0.21,0.523 l -0.176,0.125 -0.039,-0.532 0.005,-0.116"
         style="fill:#c7edff;fill-opacity:1;fill-rule:nonzero;stroke:none;stroke-width:0.1"
         id="path6727" />
      <path
         d="m 171.003,161.78 -0.045,0.149 -0.061,0.058 -0.008,-0.104 c -0.014,-0.1 -0.04,-0.151 -0.077,-0.185 l 0.142,-0.063 0.105,0.01 -0.035,0.08 -0.021,0.055"
         style="fill:#96c7ed;fill-opacity:1;fill-rule:nonzero;stroke:none;stroke-width:0.1"
         id="path6729" />
      <path
         d="m 170.944,162.641 -0.047,-0.654 0.057,-0.055 c -0.02,0.093 -0.034,0.192 -0.034,0.29 l 0.001,0.052 c 0.012,0.204 0.066,0.39 0.127,0.539 l -0.129,0.125 c 0.007,-0.085 0.033,-0.198 0.025,-0.297"
         style="fill:#96c7ed;fill-opacity:1;fill-rule:nonzero;stroke:none;stroke-width:0.1"
         id="path6731" />
      <path
         d="m 170.751,161.773 0.019,-0.047 -0.019,0.047"
         style="fill:#96c7ed;fill-opacity:1;fill-rule:nonzero;stroke:none;stroke-width:0.1"
         id="path6733" />
      <path
         d="m 170.886,161.85 -0.074,-0.152 0.074,0.152"
         style="fill:#96c7ed;fill-opacity:1;fill-rule:nonzero;stroke:none;stroke-width:0.1"
         id="path6735" />
      <path
         d="m 170.886,161.85 0.011,0.137 -0.087,0.111 -0.121,0.25 -0.018,0.078 -0.012,-0.106 c -0.01,-0.165 0.019,-0.334 0.07,-0.484 l 0.022,-0.063 0.042,-0.063 0.093,0.14"
         style="fill:#96c7ed;fill-opacity:1;fill-rule:nonzero;stroke:none;stroke-width:0.1"
         id="path6737" />
      <path
         d="m 170.689,162.348 0.121,-0.25 0.087,-0.111 0.047,0.651 c 0.008,0.102 -0.018,0.215 -0.066,0.324 -0.088,-0.149 -0.175,-0.336 -0.207,-0.536 l 0.018,-0.078 v 0"
         style="fill:#96c7ed;fill-opacity:1;fill-rule:nonzero;stroke:none;stroke-width:0.1"
         id="path6739" />
      <path
         d="m 170.982,161.908 0.021,-0.128 0.021,-0.055 0.035,-0.08 0.096,0.142 -0.127,0.087 -0.046,0.034"
         style="fill:#c7edff;fill-opacity:1;fill-rule:nonzero;stroke:none;stroke-width:0.1"
         id="path6741" />
      <path
         d="m 170.92,162.222 c 0,-0.098 0.014,-0.197 0.038,-0.293 l 0.07,-0.055 0.127,-0.087 0.046,0.608 c 0.009,0.132 -0.054,0.292 -0.153,0.418 -0.061,-0.149 -0.115,-0.335 -0.127,-0.539 l -0.001,-0.052"
         style="fill:#c7edff;fill-opacity:1;fill-rule:nonzero;stroke:none;stroke-width:0.1"
         id="path6743" />
      <path
         d="m 176.014,155.231 c 0,0 6.871,-3.967 9.268,-4.219 2.397,-0.252 4.691,-1.444 5.843,-2.355 1.153,-0.912 0.97,-3.205 0.086,-4.471 -0.883,-1.266 -3.837,-0.378 -5.421,0 -1.583,0.378 -11.988,7.829 -11.988,7.829 0,0 -2.271,0.189 -2.87,0.662 -0.599,0.473 -1.789,1.167 -1.789,1.167 0,0 -1.712,1.639 -1.901,1.955 -0.189,0.315 -0.41,0.946 -0.189,1.136 0.221,0.189 -0.662,0.977 -0.221,1.419 0.442,0.441 0.726,0 0.726,0 0,0 -1.104,0.82 -0.284,1.292 0.82,0.474 1.256,0.222 1.256,0.222 0,0 -0.873,0.694 -0.436,0.978 0.436,0.283 2.039,0.283 2.039,0.283 l 2.302,-1.019 0.261,1.252 c 0,0 3.318,-1.519 3.692,-4.049 0.154,-1.042 -0.374,-2.082 -0.374,-2.082"
         style="fill:#ffd1b6;fill-opacity:1;fill-rule:nonzero;stroke:none;stroke-width:0.1"
         id="path6745" />
      <path
         d="m 157.425,154.931 c 0,0 -0.506,-1.437 -0.253,-1.615 0.253,-0.178 0.565,-1.68 0.565,-1.68 l -0.186,-0.624 c 0,0 0.649,-1.017 0.649,-1.289 0,-0.273 0.068,-0.972 0.401,-0.948 0.334,0.024 0.717,0.611 0.717,1.181 0,0.569 -0.461,1.726 -0.139,2.036 0.321,0.312 0.851,2.366 0.669,2.439 -0.182,0.071 -1.661,1.864 -2.423,0.5"
         style="fill:#efbea3;fill-opacity:1;fill-rule:nonzero;stroke:none;stroke-width:0.1"
         id="path6747" />
    </g>
  </g>
</svg>
