<?xml version="1.0" encoding="UTF-8" standalone="no"?>
<svg
   xmlns:dc="http://purl.org/dc/elements/1.1/"
   xmlns:cc="http://creativecommons.org/ns#"
   xmlns:rdf="http://www.w3.org/1999/02/22-rdf-syntax-ns#"
   xmlns:svg="http://www.w3.org/2000/svg"
   xmlns="http://www.w3.org/2000/svg"
   xmlns:sodipodi="http://sodipodi.sourceforge.net/DTD/sodipodi-0.dtd"
   xmlns:inkscape="http://www.inkscape.org/namespaces/inkscape"
   width="126.03413"
   height="127.44562"
   viewBox="0 0 126.03413 127.44562"
   version="1.1"
   id="SVGRoot"
   sodipodi:docname="11.svg"
   inkscape:version="1.0.1 (0767f8302a, 2020-10-17)">
  <defs
     id="defs34089">
    <clipPath
       clipPathUnits="userSpaceOnUse"
       id="clipPath11345">
      <path
         d="m 2530.98,1013.31 -89.64,0.36 v 0 h 90.06 l -0.42,-0.36"
         id="path11343" />
    </clipPath>
    <linearGradient
       x1="0"
       y1="0"
       x2="1"
       y2="0"
       gradientUnits="userSpaceOnUse"
       gradientTransform="matrix(236.005,185.818,185.818,-236.005,2455.8,1122.46)"
       spreadMethod="pad"
       id="linearGradient11353">
      <stop
         style="stop-opacity:1;stop-color:#ffffff"
         offset="0"
         id="stop11347" />
      <stop
         style="stop-opacity:1;stop-color:#5c5e5f"
         offset="0.950549"
         id="stop11349" />
      <stop
         style="stop-opacity:1;stop-color:#5c5e5f"
         offset="1"
         id="stop11351" />
    </linearGradient>
    <clipPath
       clipPathUnits="userSpaceOnUse"
       id="clipPath11363">
      <path
         d="m 2531.4,1013.67 h -90.06 c -2.52,0 -4.5,1.8 -4.5,3.96 v 245.43 l 72.85,67.51 c -17.34,-22.25 -27.67,-50.24 -27.67,-80.65 0,-72.54 58.77,-131.31 131.31,-131.31 18.95,0 36.96,4.02 53.23,11.24 L 2531.4,1013.67"
         id="path11361" />
    </clipPath>
    <linearGradient
       x1="0"
       y1="0"
       x2="1"
       y2="0"
       gradientUnits="userSpaceOnUse"
       gradientTransform="matrix(236.005,185.818,185.818,-236.005,2455.8,1122.46)"
       spreadMethod="pad"
       id="linearGradient11371">
      <stop
         style="stop-opacity:1;stop-color:#b5c0d2"
         offset="0"
         id="stop11365" />
      <stop
         style="stop-opacity:1;stop-color:#40454e"
         offset="0.950549"
         id="stop11367" />
      <stop
         style="stop-opacity:1;stop-color:#40454e"
         offset="1"
         id="stop11369" />
    </linearGradient>
  </defs>
  <sodipodi:namedview
     id="base"
     pagecolor="#ffffff"
     bordercolor="#666666"
     borderopacity="1.0"
     inkscape:pageopacity="0.0"
     inkscape:pageshadow="2"
     inkscape:zoom="0.35"
     inkscape:cx="283.01707"
     inkscape:cy="252.29424"
     inkscape:document-units="px"
     inkscape:current-layer="layer1"
     inkscape:document-rotation="0"
     showgrid="false"
     inkscape:window-width="1366"
     inkscape:window-height="681"
     inkscape:window-x="0"
     inkscape:window-y="57"
     inkscape:window-maximized="0" />
  <metadata
     id="metadata34092">
    <rdf:RDF>
      <cc:Work
         rdf:about="">
        <dc:format>image/svg+xml</dc:format>
        <dc:type
           rdf:resource="http://purl.org/dc/dcmitype/StillImage" />
        <dc:title></dc:title>
      </cc:Work>
    </rdf:RDF>
  </metadata>
  <g
     inkscape:label="Layer 1"
     inkscape:groupmode="layer"
     id="layer1"
     transform="translate(-116.98293,-307.70576)">
    <g
       id="g20121"
       transform="matrix(1.3333333,0,0,-1.3333333,-156.3958,567.75325)">
      <path
         d="m 247.034,165.423 c 1.144,-0.823 1.532,-0.61 2.357,-0.683 0.826,-0.072 1.189,-0.04 1.889,-0.371 0.701,-0.329 3.235,-1.687 2.888,-1.987 -0.346,-0.299 -0.751,-0.318 -1.309,-0.136 -0.554,0.184 -1.215,0.576 -1.215,0.576 0,0 2.074,-1.108 2.016,-1.409 -0.058,-0.302 -3.494,-2.161 -4.187,-2.179 -0.691,-0.017 -1.804,0.576 -2.457,0.971 -0.659,0.395 -1.594,0.948 -1.974,1.107 -0.377,0.16 1.992,4.111 1.992,4.111"
         style="fill:#d93e21;fill-opacity:1;fill-rule:nonzero;stroke:none;stroke-width:0.1"
         id="path11295" />
      <path
         d="m 240.25,169.527 c 0,0 -2.033,3.499 -4.005,7.533 -0.987,3.139 -2.339,4.773 -3.152,5.147 0,0 -2.394,-5.617 -2.14,-7.748 0.446,-3.767 5.329,-10.642 6.187,-10.912 0.213,-0.068 7.655,-4.424 7.655,-4.424 0,0 3.43,5.178 3.528,5.738 -0.815,0.371 -8.073,4.666 -8.073,4.666"
         style="fill:#2b398a;fill-opacity:1;fill-rule:nonzero;stroke:none;stroke-width:0.1"
         id="path11297" />
      <path
         d="m 217.225,106.638 c -0.367,-1.736 -0.501,-4.266 0.294,-4.426 2.885,-0.568 2.182,0.672 4.322,-0.425 1.608,-0.832 5.79,-0.945 6.405,-0.441 0.539,0.439 0.97,2.511 -1.368,2.839 -2.336,0.331 -3.616,2.356 -4.381,3.616 -0.764,1.261 -2.279,1.679 -2.279,1.679 l -2.456,-0.42 -0.537,-2.422"
         style="fill:#100f0d;fill-opacity:1;fill-rule:nonzero;stroke:none;stroke-width:0.1"
         id="path11299" />
      <path
         d="m 219.737,105.024 c 1.396,4.868 4.402,26.995 6.743,45.115 l -5.741,-4.752 c -0.743,-7.769 -2.985,-17.087 -3.959,-23.756 -1.136,-7.807 -0.955,-12.617 -0.854,-16.539 0,0 2.095,-0.887 3.811,-0.068"
         style="fill:#212554;fill-opacity:1;fill-rule:nonzero;stroke:none;stroke-width:0.1"
         id="path11301" />
      <path
         d="m 206.241,108.223 5.951,0.241 c 0,0 0.122,-4.309 4.005,-5.669 1.296,-0.451 1.461,-2.3 -0.236,-2.9919 -1.693,-0.691 -5.433,-0.3941 -6.954,1.1609 -1.522,1.555 -1.64,0.252 -2.819,0.957 -1.178,0.707 -0.412,3.363 -0.284,4.992 l 0.337,1.31"
         style="fill:#100f0d;fill-opacity:1;fill-rule:nonzero;stroke:none;stroke-width:0.1"
         id="path11303" />
      <path
         d="m 217.421,125.117 c 0.718,1.472 3.628,10.135 4.293,12.599 3.709,13.752 5.804,12.993 6.559,20.047 0.274,2.519 0.009,9.637 -0.181,11.482 -0.041,0.387 -2.667,-3.465 -3.946,-3.319 l -5.051,-24.267 c -2.818,-12.941 -8.574,-30.015 -8.274,-38.356 0.956,-0.107 2.521,-0.253 3.716,-0.089 0,0 1.278,18.603 2.884,21.903"
         style="fill:#2b398a;fill-opacity:1;fill-rule:nonzero;stroke:none;stroke-width:0.1"
         id="path11305" />
      <path
         d="m 228.921,183.348 -0.566,1.921 c 0,0 -7.073,-2.236 -9.093,-8.022 -1.747,-5.007 -4.549,-13.532 -5.409,-18.038 -1.103,-2.095 -2.575,-5.38 -2.543,-9.415 0.038,-4.838 -2.071,-17.953 -3.467,-22.419 -4.638,-14.799 -2.134,-23.537 -2.134,-23.537 0,0 0.689,-0.95 5.243,-0.325 0,0 3.699,17.822 4.092,20.528 0.134,0.929 6.737,27.282 9.002,32.032 1.092,2.285 2.798,7.912 2.611,9.762 -0.019,0.208 1.002,14.048 1.256,14.145 1.344,0.536 1.008,3.368 1.008,3.368"
         style="fill:#212554;fill-opacity:1;fill-rule:nonzero;stroke:none;stroke-width:0.1"
         id="path11307" />
      <path
         d="m 233.194,178.734 c 0,0 -1.144,1.411 -2.748,3.11 -1.604,1.698 -1.006,1.572 -1.006,1.572 l -3.678,-2.331 c 0,0 4.037,-13.456 0.895,-12.917 0,0 -0.847,-9.197 -2.192,-16.103 -0.056,-0.285 -1.759,-21.252 -2.381,-25.336 -1.882,-12.376 -2.96,-22.331 -2.96,-22.331 0,0 1.768,0.033 5.725,0.748 -0.741,1.832 -0.103,13.358 0.567,19.031 0.236,2.018 1.033,4.917 1.067,5.351 0.407,4.722 2.519,20.838 3.214,22.688 7.534,20.089 3.853,25.008 3.497,26.518"
         style="fill:#2b398a;fill-opacity:1;fill-rule:nonzero;stroke:none;stroke-width:0.1"
         id="path11309" />
      <path
         d="m 252.252,160.974 c -0.405,0 -0.837,-0.063 -1.296,-0.207 -5.967,-1.854 -11.646,-5.49 -16.137,-13.122 -1.638,-2.799 -2.475,-5.751 -2.475,-8.586 0.018,-5.247 2.79,-10.152 8.856,-13.32 4.725,-2.448 9.72,-3.591 14.013,-4.338 1.656,-0.288 3.186,-0.513 4.581,-0.738 1.215,4.419 1.593,9.711 1.593,14.319 0.009,5.364 -0.522,9.873 -0.756,10.98 -0.918,4.383 -2.061,8.244 -3.501,10.926 -1.44,2.709 -3.051,4.086 -4.86,4.086 h -0.018 m 10.125,-55.098 0.315,0.621 c 0.486,1.035 2.232,0.558 4.149,0.09 2.079,-0.513 4.365,-1.017 5.463,0.369 0.747,0.954 1.098,1.935 1.107,2.961 0.027,2.403 -0.81,5.499 -7.731,7.866 -0.756,0.378 -3.195,0.774 -4.761,1.053 -1.575,-4.86 -4.41,-8.847 -9.225,-9.495 -2.214,-0.297 -4.194,-0.405 -5.976,-0.405 -4.923,0 -8.361,0.819 -11.286,0.81 -2.547,-0.009 -4.707,-0.54 -7.542,-2.754 -0.351,-0.279 -0.855,-0.216 -1.134,0.135 -0.279,0.351 -0.216,0.855 0.135,1.134 3.042,2.412 5.742,3.114 8.541,3.096 3.222,0 6.543,-0.81 11.286,-0.81 1.719,0 3.618,0.108 5.769,0.387 3.843,0.513 6.291,3.663 7.821,8.172 -1.314,0.216 -2.799,0.432 -4.374,0.702 -4.356,0.756 -9.522,1.935 -14.472,4.5 -6.516,3.366 -9.747,8.91 -9.729,14.751 0,3.159 0.918,6.381 2.691,9.405 4.662,7.974 10.782,11.916 17.055,13.842 0.603,0.189 1.197,0.288 1.773,0.288 2.727,-0.018 4.77,-2.043 6.309,-4.941 1.548,-2.934 2.718,-6.903 3.645,-11.358 0.288,-1.332 0.792,-5.823 0.792,-11.313 0,-4.644 -0.369,-9.972 -1.611,-14.589 1.521,-0.27 4.014,-0.693 4.995,-1.152 6.993,-2.754 8.613,-5.913 8.64,-9.324 0,-1.413 -0.513,-2.772 -1.449,-3.951 -1.071,-1.35 -3.267,-0.702 -5.274,-0.045 -1.845,0.594 -3.519,1.197 -3.978,0.225 0,0 -1.953,-0.369 -1.944,-0.27"
         style="fill:#222326;fill-opacity:1;fill-rule:nonzero;stroke:none;stroke-width:0.1"
         id="path11311" />
      <path
         d="m 229.639,162.303 c 1.928,-1.482 6.594,-6.233 7.333,-6.381 0.74,-0.148 2.373,-2.075 2.669,-2.521 0.295,-0.445 0.89,-1.532 0.594,-2.125 -0.299,-0.595 -0.404,-1.541 -0.988,-1.435 -0.407,0.076 -0.201,1.484 -0.201,1.484 0,0 0.079,-0.965 -0.775,-1.186 -0.341,-0.089 -1.249,-0.525 -1.249,-0.525 0,0 0.003,-0.616 -1.196,-0.06 -0.628,0.289 -2.007,2.431 -2.451,3.171 -0.443,0.742 -4.425,3.608 -6.054,4.943 -1.629,1.334 2.318,4.635 2.318,4.635"
         style="fill:#f46e16;fill-opacity:1;fill-rule:nonzero;stroke:none;stroke-width:0.1"
         id="path11313" />
      <path
         d="m 227.196,180.748 c 0.891,-0.896 1.385,-2.4 1.413,-5.381 0.031,-2.984 0.65,-7.019 1.01,-8.185 0.475,-1.545 7.67,-11.258 7.67,-11.258 l -5.316,-4.372 c 0,0 -6.867,6.558 -8.677,13.117 0,0 -4.077,13.21 -0.112,16.199 2.391,1.8 4.012,-0.12 4.012,-0.12"
         style="fill:#212554;fill-opacity:1;fill-rule:nonzero;stroke:none;stroke-width:0.1"
         id="path11315" />
      <path
         d="m 249.184,159.211 c 0.537,-0.088 1.438,-0.161 1.519,0.163 0.079,0.325 -0.226,1.124 -0.813,1.658 -0.583,0.537 -0.979,0.861 -1.276,0.472 -0.299,-0.393 0.628,-1.268 0.679,-1.431 0.05,-0.165 -0.109,-0.862 -0.109,-0.862"
         style="fill:#f46e16;fill-opacity:1;fill-rule:nonzero;stroke:none;stroke-width:0.1"
         id="path11317" />
      <path
         d="m 250.446,159.235 c 0.57,-0.302 1.133,-0.022 1.224,0.156 0.096,0.178 0.237,1.101 -0.194,1.533 -0.433,0.435 -1.062,0.898 -1.332,0.903 -0.271,0.005 -0.508,-0.159 -0.347,-0.494 0.166,-0.339 0.575,-1.374 0.575,-1.374 l 0.074,-0.724"
         style="fill:#f46e16;fill-opacity:1;fill-rule:nonzero;stroke:none;stroke-width:0.1"
         id="path11319" />
      <path
         d="m 251.62,159.618 c -0.505,-0.155 0.771,-0.182 0.97,0.199 0.203,0.381 0.021,1.101 -0.084,1.307 -0.099,0.206 -0.891,0.854 -1.143,1 -0.3,0.174 -0.73,-0.056 -0.566,-0.325 0.165,-0.268 0.736,-1.255 0.736,-1.255 l 0.087,-0.926"
         style="fill:#f46e16;fill-opacity:1;fill-rule:nonzero;stroke:none;stroke-width:0.1"
         id="path11321" />
      <path
         d="m 252.478,160.265 c 0.337,-0.111 0.491,-0.266 0.747,-0.067 0.257,0.197 0.429,0.926 0.066,1.212 -0.371,0.283 -1.025,0.753 -1.3,0.747 -0.279,-0.006 -0.299,-0.329 -0.172,-0.611 0.126,-0.279 0.659,-1.281 0.659,-1.281"
         style="fill:#f46e16;fill-opacity:1;fill-rule:nonzero;stroke:none;stroke-width:0.1"
         id="path11323" />
      <path
         d="m 233.494,181.664 c 0.598,-1.077 1.376,-3.826 1.376,-3.826 l -1.018,0.178 0.179,-0.778 -0.959,-2.433 c 0,0 0.661,3.63 -0.057,5.186 -0.428,0.926 0.479,1.673 0.479,1.673"
         style="fill:#212554;fill-opacity:1;fill-rule:nonzero;stroke:none;stroke-width:0.1"
         id="path11325" />
      <path
         d="m 233.015,189.437 c -0.418,-1.177 -0.835,-2.152 -3.945,-4.305 -1.558,-1.079 -0.459,-2.22 -0.459,-2.22 l 3.986,-4.119 c 0,0 1.471,2.213 3.825,2.333 1.432,0.074 -3.407,8.311 -3.407,8.311"
         style="fill:#d1a18a;fill-opacity:1;fill-rule:nonzero;stroke:none;stroke-width:0.1"
         id="path11327" />
      <path
         d="m 234.781,189.885 c 1.813,2.983 5.084,4.658 7.557,2.4 2.704,-2.459 2.704,-3.689 0.767,-6.602 -0.398,-0.603 -1.499,-1.206 -1.979,-1.799 -0.383,-1.077 -0.677,-2.335 -0.92,-2.401 -0.169,-0.048 -0.543,0.095 -0.882,0.251 -1.436,-1.404 -2.571,-1.789 -3.43,-1.218 -0.952,0.631 -3.249,2.77 -3.237,4.979 0.004,1.207 1.153,2.798 2.124,4.39"
         style="fill:#d1a18a;fill-opacity:1;fill-rule:nonzero;stroke:none;stroke-width:0.1"
         id="path11329" />
      <path
         d="m 245.413,188.519 c -0.281,-1.688 -0.974,-2.108 -1.802,-2.084 -1.967,0.059 -2.017,1.664 -2.751,1.571 -0.685,-0.082 -1.582,0.537 -2.08,0.501 -0.497,-0.036 -1.581,-0.396 -1.581,-0.396 l -1.135,0.149 -0.689,0.719 -1.109,-1.459 -4.062,-1.192 c 0,0 1.385,2.059 1.797,4.035 0.281,1.355 0.796,1.826 1.241,2.455 0.557,0.796 0.704,0.61 1.284,1.314 0.635,0.766 2.436,1.031 3.092,0.848 0.647,-0.185 1.056,-0.271 1.251,-0.581 0.196,-0.316 0.607,0.305 1.533,0.005 0.929,-0.297 0.986,-0.159 2.149,-0.865 1.164,-0.705 1.781,-2.305 2.408,-3.346 0.415,-0.686 0.454,-1.674 0.454,-1.674"
         style="fill:#2a1412;fill-opacity:1;fill-rule:nonzero;stroke:none;stroke-width:0.1"
         id="path11331" />
      <path
         d="m 236.473,188.998 c 0.101,0.841 -0.723,1.389 -1.279,1.013 -0.56,-0.387 -1.608,-2.427 -0.789,-3.287 0.816,-0.848 2.068,2.274 2.068,2.274"
         style="fill:#d1a18a;fill-opacity:1;fill-rule:nonzero;stroke:none;stroke-width:0.1"
         id="path11333" />
      <path
         d="m 231.861,176.508 1.211,-1.703 c 0,0 -0.706,3.72 -1.673,6.321 -0.333,0.9 -1.074,5.68 -1.074,5.68 l -2.692,-1.494 0.459,-4.317 2.054,-0.646 -0.479,-1.137 c 0,0 1.298,-1.402 2.194,-2.704"
         style="fill:#212554;fill-opacity:1;fill-rule:nonzero;stroke:none;stroke-width:0.1"
         id="path11335" />
      <path
         d="m 279.207,101.763 c 0,-0.216 -0.207,-0.396 -0.459,-0.396 h -34.83 c -0.252,0 -0.45,0.18 -0.45,0.396 v 50.139 c 0,0.225 0.198,0.405 0.45,0.405 h 34.83 c 0.252,0 0.459,-0.18 0.459,-0.405 v -50.139"
         style="fill:#b5c0d2;fill-opacity:1;fill-rule:nonzero;stroke:none;stroke-width:0.1"
         id="path11337" />
      <g
         id="g11339"
         transform="scale(0.1)">
        <g
           id="g11341"
           clip-path="url(#clipPath11345)">
          <path
             d="m 2530.98,1013.31 -89.64,0.36 v 0 h 90.06 l -0.42,-0.36"
             style="fill:url(#linearGradient11353);fill-opacity:1;fill-rule:nonzero;stroke:none"
             id="path11355" />
        </g>
      </g>
      <g
         id="g11357"
         transform="scale(0.1)">
        <g
           id="g11359"
           clip-path="url(#clipPath11363)">
          <path
             d="m 2531.4,1013.67 h -90.06 c -2.52,0 -4.5,1.8 -4.5,3.96 v 245.43 l 72.85,67.51 c -17.34,-22.25 -27.67,-50.24 -27.67,-80.65 0,-72.54 58.77,-131.31 131.31,-131.31 18.95,0 36.96,4.02 53.23,11.24 L 2531.4,1013.67"
             style="fill:url(#linearGradient11371);fill-opacity:1;fill-rule:nonzero;stroke:none"
             id="path11373" />
        </g>
      </g>
      <path
         d="m 248.202,124.992 c 0,7.254 5.877,13.131 13.131,13.131 7.254,0 13.131,-5.877 13.131,-13.131 0,-7.254 -5.877,-13.131 -13.131,-13.131 -7.254,0 -13.131,5.877 -13.131,13.131"
         style="fill:#515e70;fill-opacity:1;fill-rule:nonzero;stroke:none;stroke-width:0.1"
         id="path11375" />
      <path
         d="m 249.057,124.992 c 0,6.777 5.499,12.276 12.276,12.276 6.777,0 12.276,-5.499 12.276,-12.276 0,-6.777 -5.499,-12.276 -12.276,-12.276 -6.777,0 -12.276,5.499 -12.276,12.276"
         style="fill:#d9e2eb;fill-opacity:1;fill-rule:nonzero;stroke:none;stroke-width:0.1"
         id="path11377" />
      <path
         d="m 261.333,115.389 c -5.301,0 -9.594,4.302 -9.594,9.603 0,5.301 4.293,9.603 9.594,9.603 5.301,0 9.603,-4.302 9.603,-9.603 0,-5.301 -4.302,-9.603 -9.603,-9.603 m 0,17.883 c -4.572,0 -8.28,-3.708 -8.28,-8.28 0,-4.572 3.708,-8.28 8.28,-8.28 4.572,0 8.28,3.708 8.28,8.28 0,4.572 -3.708,8.28 -8.28,8.28"
         style="fill:#b5c3d4;fill-opacity:1;fill-rule:nonzero;stroke:none;stroke-width:0.1"
         id="path11379" />
      <path
         d="m 261.333,116.712 c -4.572,0 -8.28,3.708 -8.28,8.28 0,4.572 3.708,8.28 8.28,8.28 4.572,0 8.28,-3.708 8.28,-8.28 0,-4.572 -3.708,-8.28 -8.28,-8.28 m -0.054,15.597 c -3.537,0 -6.399,-2.862 -6.399,-6.408 0,-3.537 2.862,-6.399 6.399,-6.399 3.537,0 6.408,2.862 6.408,6.399 0,3.546 -2.871,6.408 -6.408,6.408"
         style="fill:#484f5a;fill-opacity:1;fill-rule:nonzero;stroke:none;stroke-width:0.1"
         id="path11381" />
      <path
         d="m 261.279,119.502 c -3.537,0 -6.399,2.862 -6.399,6.399 0,3.546 2.862,6.408 6.399,6.408 3.537,0 6.408,-2.862 6.408,-6.408 0,-3.537 -2.871,-6.399 -6.408,-6.399"
         style="fill:#2e3035;fill-opacity:1;fill-rule:nonzero;stroke:none;stroke-width:0.1"
         id="path11383" />
      <path
         d="m 261.45,144.009 c -1.575,0 -2.853,1.278 -2.853,2.853 0,1.575 1.278,2.853 2.853,2.853 1.575,0 2.853,-1.278 2.853,-2.853 0,-1.575 -1.278,-2.853 -2.853,-2.853"
         style="fill:#656f7c;fill-opacity:1;fill-rule:nonzero;stroke:none;stroke-width:0.1"
         id="path11385" />
      <path
         d="m 259.292,146.863 c 0,1.192 0.965,2.159 2.158,2.159 1.194,0 2.16,-0.967 2.16,-2.159 0,-1.193 -0.966,-2.159 -2.16,-2.159 -1.193,0 -2.158,0.966 -2.158,2.159"
         style="fill:#b5c0d2;fill-opacity:1;fill-rule:nonzero;stroke:none;stroke-width:0.1"
         id="path11387" />
      <path
         d="m 259.827,146.863 c 0,0.896 0.727,1.624 1.623,1.624 0.897,0 1.625,-0.728 1.625,-1.624 0,-0.899 -0.728,-1.625 -1.625,-1.625 -0.896,0 -1.623,0.726 -1.623,1.625"
         style="fill:#d9e2eb;fill-opacity:1;fill-rule:nonzero;stroke:none;stroke-width:0.1"
         id="path11389" />
      <path
         d="m 262.29,147.727 c -0.068,-0.113 -0.218,-0.146 -0.332,-0.078 -0.114,0.068 -0.15,0.216 -0.079,0.331 l 0.447,0.729 c 0.069,0.113 0.217,0.151 0.331,0.082 0.114,-0.07 0.15,-0.218 0.079,-0.332 l -0.446,-0.732"
         style="fill:#d9e2eb;fill-opacity:1;fill-rule:nonzero;stroke:none;stroke-width:0.1"
         id="path11391" />
      <path
         d="m 270.828,148.356 h -4.086 c -0.162,0 -0.297,0.072 -0.297,0.162 v 0.909 c 0,0.09 0.135,0.162 0.297,0.162 h 4.086 c 0.162,0 0.297,-0.072 0.297,-0.162 v -0.909 c 0,-0.09 -0.135,-0.162 -0.297,-0.162"
         style="fill:#484f59;fill-opacity:1;fill-rule:nonzero;stroke:none;stroke-width:0.1"
         id="path11393" />
      <path
         d="m 266.348,143.865 c 0,0.572 0.464,1.035 1.034,1.035 0.574,0 1.037,-0.463 1.037,-1.035 0,-0.572 -0.463,-1.036 -1.037,-1.036 -0.57,0 -1.034,0.464 -1.034,1.036"
         style="fill:#8190b1;fill-opacity:1;fill-rule:nonzero;stroke:none;stroke-width:0.1"
         id="path11395" />
      <path
         d="m 266.5,143.865 c 0,0.486 0.396,0.884 0.882,0.884 0.489,0 0.885,-0.398 0.885,-0.884 0,-0.486 -0.396,-0.882 -0.885,-0.882 -0.486,0 -0.882,0.396 -0.882,0.882"
         style="fill:#b5c0d2;fill-opacity:1;fill-rule:nonzero;stroke:none;stroke-width:0.1"
         id="path11397" />
      <path
         d="m 266.721,143.865 c 0,0.366 0.297,0.663 0.661,0.663 0.368,0 0.664,-0.297 0.664,-0.663 0,-0.367 -0.296,-0.664 -0.664,-0.664 -0.364,0 -0.661,0.297 -0.661,0.664"
         style="fill:#d9e2eb;fill-opacity:1;fill-rule:nonzero;stroke:none;stroke-width:0.1"
         id="path11399" />
      <path
         d="m 269.007,143.865 c 0,0.572 0.464,1.035 1.035,1.035 0.573,0 1.037,-0.463 1.037,-1.035 0,-0.572 -0.464,-1.036 -1.037,-1.036 -0.571,0 -1.035,0.464 -1.035,1.036"
         style="fill:#8190b1;fill-opacity:1;fill-rule:nonzero;stroke:none;stroke-width:0.1"
         id="path11401" />
      <path
         d="m 269.161,143.865 c 0,0.486 0.395,0.884 0.881,0.884 0.488,0 0.882,-0.398 0.882,-0.884 0,-0.486 -0.394,-0.882 -0.882,-0.882 -0.486,0 -0.881,0.396 -0.881,0.882"
         style="fill:#b5c0d2;fill-opacity:1;fill-rule:nonzero;stroke:none;stroke-width:0.1"
         id="path11403" />
      <path
         d="m 269.378,143.865 c 0,0.366 0.297,0.663 0.664,0.663 0.367,0 0.665,-0.297 0.665,-0.663 0,-0.367 -0.298,-0.664 -0.665,-0.664 -0.367,0 -0.664,0.297 -0.664,0.664"
         style="fill:#d9e2eb;fill-opacity:1;fill-rule:nonzero;stroke:none;stroke-width:0.1"
         id="path11405" />
      <path
         d="m 271.666,143.865 c 0,0.572 0.463,1.035 1.036,1.035 0.572,0 1.035,-0.463 1.035,-1.035 0,-0.572 -0.463,-1.036 -1.035,-1.036 -0.573,0 -1.036,0.464 -1.036,1.036"
         style="fill:#8190b1;fill-opacity:1;fill-rule:nonzero;stroke:none;stroke-width:0.1"
         id="path11407" />
      <path
         d="m 271.818,143.865 c 0,0.486 0.394,0.884 0.884,0.884 0.488,0 0.882,-0.398 0.882,-0.884 0,-0.486 -0.394,-0.882 -0.882,-0.882 -0.49,0 -0.884,0.396 -0.884,0.882"
         style="fill:#b5c0d2;fill-opacity:1;fill-rule:nonzero;stroke:none;stroke-width:0.1"
         id="path11409" />
      <path
         d="m 272.04,143.865 c 0,0.366 0.295,0.663 0.662,0.663 0.368,0 0.664,-0.297 0.664,-0.663 0,-0.367 -0.296,-0.664 -0.664,-0.664 -0.367,0 -0.662,0.297 -0.662,0.664"
         style="fill:#d9e2eb;fill-opacity:1;fill-rule:nonzero;stroke:none;stroke-width:0.1"
         id="path11411" />
      <path
         d="m 274.327,143.865 c 0,0.572 0.462,1.035 1.034,1.035 0.573,0 1.035,-0.463 1.035,-1.035 0,-0.572 -0.462,-1.036 -1.035,-1.036 -0.572,0 -1.034,0.464 -1.034,1.036"
         style="fill:#8190b1;fill-opacity:1;fill-rule:nonzero;stroke:none;stroke-width:0.1"
         id="path11413" />
      <path
         d="m 274.479,143.865 c 0,0.486 0.395,0.884 0.882,0.884 0.487,0 0.884,-0.398 0.884,-0.884 0,-0.486 -0.397,-0.882 -0.884,-0.882 -0.487,0 -0.882,0.396 -0.882,0.882"
         style="fill:#b5c0d2;fill-opacity:1;fill-rule:nonzero;stroke:none;stroke-width:0.1"
         id="path11415" />
      <path
         d="m 274.697,143.865 c 0,0.366 0.296,0.663 0.664,0.663 0.363,0 0.662,-0.297 0.662,-0.663 0,-0.367 -0.299,-0.664 -0.662,-0.664 -0.368,0 -0.664,0.297 -0.664,0.664"
         style="fill:#d9e2eb;fill-opacity:1;fill-rule:nonzero;stroke:none;stroke-width:0.1"
         id="path11417" />
      <path
         d="m 275.616,149.211 h -0.495 c -0.099,0 -0.18,0.081 -0.18,0.189 0,0.099 0.081,0.189 0.18,0.189 h 0.495 c 0.099,0 0.18,-0.09 0.18,-0.189 0,-0.108 -0.081,-0.189 -0.18,-0.189"
         style="fill:#484f59;fill-opacity:1;fill-rule:nonzero;stroke:none;stroke-width:0.1"
         id="path11419" />
      <path
         d="m 275.616,148.419 h -0.495 c -0.099,0 -0.18,0.09 -0.18,0.189 0,0.108 0.081,0.198 0.18,0.198 h 0.495 c 0.099,0 0.18,-0.09 0.18,-0.198 0,-0.099 -0.081,-0.189 -0.18,-0.189"
         style="fill:#484f59;fill-opacity:1;fill-rule:nonzero;stroke:none;stroke-width:0.1"
         id="path11421" />
      <path
         d="m 275.616,147.636 h -0.495 c -0.099,0 -0.18,0.081 -0.18,0.189 0,0.108 0.081,0.189 0.18,0.189 h 0.495 c 0.099,0 0.18,-0.081 0.18,-0.189 0,-0.108 -0.081,-0.189 -0.18,-0.189"
         style="fill:#484f59;fill-opacity:1;fill-rule:nonzero;stroke:none;stroke-width:0.1"
         id="path11423" />
      <path
         d="m 275.616,146.853 h -0.495 c -0.099,0 -0.18,0.081 -0.18,0.189 0,0.108 0.081,0.189 0.18,0.189 h 0.495 c 0.099,0 0.18,-0.081 0.18,-0.189 0,-0.108 -0.081,-0.189 -0.18,-0.189"
         style="fill:#484f59;fill-opacity:1;fill-rule:nonzero;stroke:none;stroke-width:0.1"
         id="path11425" />
      <path
         d="m 275.616,146.061 h -0.495 c -0.099,0 -0.18,0.09 -0.18,0.198 0,0.099 0.081,0.189 0.18,0.189 h 0.495 c 0.099,0 0.18,-0.09 0.18,-0.189 0,-0.108 -0.081,-0.198 -0.18,-0.198"
         style="fill:#484f59;fill-opacity:1;fill-rule:nonzero;stroke:none;stroke-width:0.1"
         id="path11427" />
      <path
         d="m 269.892,147.168 h -3.213 l -0.126,0.09 0.126,0.09 h 3.213 l 0.126,-0.09 -0.126,-0.09"
         style="fill:#757f8e;fill-opacity:1;fill-rule:nonzero;stroke:none;stroke-width:0.1"
         id="path11429" />
      <path
         d="m 269.892,146.619 h -3.213 l -0.126,0.09 0.126,0.09 h 3.213 l 0.126,-0.09 -0.126,-0.09"
         style="fill:#757f8e;fill-opacity:1;fill-rule:nonzero;stroke:none;stroke-width:0.1"
         id="path11431" />
      <path
         d="m 269.892,146.061 h -3.213 l -0.126,0.09 0.126,0.09 h 3.213 l 0.126,-0.09 -0.126,-0.09"
         style="fill:#757f8e;fill-opacity:1;fill-rule:nonzero;stroke:none;stroke-width:0.1"
         id="path11433" />
      <path
         d="m 254.664,143.829 h -7.884 c -0.189,0 -0.342,0.153 -0.342,0.342 v 1.8 c 0.216,0 8.568,0 8.568,0 v -1.8 c 0,-0.189 -0.153,-0.342 -0.342,-0.342"
         style="fill:#8d9db6;fill-opacity:1;fill-rule:nonzero;stroke:none;stroke-width:0.1"
         id="path11435" />
      <path
         d="m 256.419,142.632 h -11.403 c -0.27,0 -0.477,0.216 -0.477,0.468 v 6.921 c 0,0.261 0.207,0.468 0.477,0.468 h 11.403 c 0.27,0 0.477,-0.207 0.477,-0.468 V 143.1 c 0,-0.252 -0.207,-0.468 -0.477,-0.468 m -11.403,7.605 c -0.126,0 -0.216,-0.099 -0.216,-0.216 V 143.1 c 0,-0.117 0.09,-0.216 0.216,-0.216 h 11.403 c 0.126,0 0.216,0.099 0.216,0.216 v 6.921 c 0,0.117 -0.09,0.216 -0.216,0.216 h -11.403"
         style="fill:#97a6bf;fill-opacity:1;fill-rule:nonzero;stroke:none;stroke-width:0.1"
         id="path11437" />
      <path
         d="m 298.388,118.204 h -14.797 l 2.052,-15.979 -0.009,-0.014 c 0,-0.51 2.398,-0.922 5.357,-0.922 2.959,0 5.356,0.412 5.356,0.922 l -0.012,0.015 2.053,15.978"
         style="fill:#22635a;fill-opacity:1;fill-rule:nonzero;stroke:none;stroke-width:0.1"
         id="path11439" />
      <path
         d="m 296.347,102.211 -0.012,0.015 2.053,15.978 h -8.025 v -16.905 c 0.208,-0.004 0.413,-0.01 0.628,-0.01 2.959,0 5.356,0.412 5.356,0.922"
         style="fill:#2f8a7e;fill-opacity:1;fill-rule:nonzero;stroke:none;stroke-width:0.1"
         id="path11441" />
      <path
         d="m 298.43,118.161 c 0,-0.332 -3.331,-0.599 -7.439,-0.599 -4.109,0 -7.441,0.267 -7.441,0.599 0,0.33 3.332,0.597 7.441,0.597 4.108,0 7.439,-0.267 7.439,-0.597"
         style="fill:#8190b1;fill-opacity:1;fill-rule:nonzero;stroke:none;stroke-width:0.1"
         id="path11443" />
      <path
         d="m 282.26,115.998 0.002,0.098 0.03,0.337 1.955,-0.05 v -0.002 l -0.019,-0.716 -1.23,0.032 c 0.105,-1.359 0.844,-6.065 8.119,-6.372 l -0.03,-0.717 c -8.471,0.31 -8.848,6.632 -8.827,7.39"
         style="fill:#8190b1;fill-opacity:1;fill-rule:nonzero;stroke:none;stroke-width:0.1"
         id="path11445" />
      <path
         d="m 290.706,109.326 c 7.298,0.307 8.014,5.051 8.117,6.386 l -1.123,0.016 h 0.002 l 0.007,0.719 1.85,-0.026 v -0.355 -0.069 c 0.02,-0.76 -0.36,-7.079 -8.825,-7.39 l -0.028,0.719"
         style="fill:#b5c0d2;fill-opacity:1;fill-rule:nonzero;stroke:none;stroke-width:0.1"
         id="path11447" />
    </g>
  </g>
</svg>
