<?xml version="1.0" encoding="UTF-8" standalone="no"?>
<svg
   xmlns:dc="http://purl.org/dc/elements/1.1/"
   xmlns:cc="http://creativecommons.org/ns#"
   xmlns:rdf="http://www.w3.org/1999/02/22-rdf-syntax-ns#"
   xmlns:svg="http://www.w3.org/2000/svg"
   xmlns="http://www.w3.org/2000/svg"
   xmlns:sodipodi="http://sodipodi.sourceforge.net/DTD/sodipodi-0.dtd"
   xmlns:inkscape="http://www.inkscape.org/namespaces/inkscape"
   width="204.20354"
   height="116.83887"
   viewBox="0 0 204.20354 116.83887"
   version="1.1"
   id="SVGRoot"
   sodipodi:docname="13.svg"
   inkscape:version="1.0.1 (0767f8302a, 2020-10-17)">
  <defs
     id="defs38904" />
  <sodipodi:namedview
     id="base"
     pagecolor="#ffffff"
     bordercolor="#666666"
     borderopacity="1.0"
     inkscape:pageopacity="0.0"
     inkscape:pageshadow="2"
     inkscape:zoom="0.35"
     inkscape:cx="416.38748"
     inkscape:cy="315.5623"
     inkscape:document-units="px"
     inkscape:current-layer="layer1"
     inkscape:document-rotation="0"
     showgrid="false"
     inkscape:window-width="1366"
     inkscape:window-height="681"
     inkscape:window-x="0"
     inkscape:window-y="57"
     inkscape:window-maximized="0" />
  <metadata
     id="metadata38907">
    <rdf:RDF>
      <cc:Work
         rdf:about="">
        <dc:format>image/svg+xml</dc:format>
        <dc:type
           rdf:resource="http://purl.org/dc/dcmitype/StillImage" />
        <dc:title></dc:title>
      </cc:Work>
    </rdf:RDF>
  </metadata>
  <g
     inkscape:label="Layer 1"
     inkscape:groupmode="layer"
     id="layer1"
     transform="translate(16.38748,-244.4377)">
    <g
       id="g21080"
       transform="matrix(1.3333333,0,0,-1.3333333,-33.955746,366.80887)">
      <path
         d="m 58.0051,67.3289 c 9.3418,-1.6469 37.566,-3.843 43.0649,-9.891 5.499,-6.0481 69.066,-41.157 65.079,-42.75 C 163.395,13.5898 112.491,4.14922 112.491,4.14922 L 13.293,4.69805 V 55.5301 l 44.7121,11.7988"
         style="fill:#61201b;fill-opacity:1;fill-rule:nonzero;stroke:none;stroke-width:0.1"
         id="path11559" />
      <path
         d="m 85.4348,72.2211 c -0.9821,2.9109 -4.1223,6.141 -5.1825,5.873 C 78.3832,77.618 77.2699,69.7898 76.4961,65.3379 75.0129,63.423 71.834,60.3 71.4,59.4332 c -0.4785,-0.957 4.8652,-4.9062 6.7801,-3.5902 1.7316,1.191 3.3137,3.7929 4.1461,5.9031 0.1801,-0.009 0.3187,0.5578 0.3187,0.5578 0,0 3.7746,7.0082 2.7899,9.9172"
         style="fill:#2b398a;fill-opacity:1;fill-rule:nonzero;stroke:none;stroke-width:0.1"
         id="path11561" />
      <path
         d="M 58.6352,49.941 V 32.4 L 13.1762,18.675 v 19.6199 l 45.459,11.6461"
         style="fill:#291313;fill-opacity:1;fill-rule:nonzero;stroke:none;stroke-width:0.1"
         id="path11563" />
      <path
         d="M 109.692,6.34492 V 6.50703 6.34492"
         style="fill:#5b1d1a;fill-opacity:1;fill-rule:nonzero;stroke:none;stroke-width:0.1"
         id="path11565" />
      <path
         d="M 13.293,34.7672 58.8961,44.127 V 88.3352 L 13.293,85.8332 v -51.066"
         style="fill:#e4b9a6;fill-opacity:1;fill-rule:nonzero;stroke:none;stroke-width:0.1"
         id="path11567" />
      <path
         d="m 29.6281,42.8762 v 2.8617 l -2.7902,-0.5938 v 3.0957 L 18.5672,46.584 v 3.357 l 10.3047,1.9172 3.0062,0.5578 v 3.0238 l 5.9129,1.0262 v 2.5738 l -4.1398,-0.675 -5.0403,-0.8187 v -2.943 l -10.323,-1.809 v 3.0778 L 13.4281,55.0801 V 58.5 l 5.1207,0.7648 V 62.1 L 13.293,61.3711 v 0.3687 l 9.5129,1.2961 v 2.5922 L 13.293,64.4309 v 0.3601 l 10.0082,1.2512 9.7379,1.2148 v -3.0058 l 5.175,0.7109 0.6121,0.0809 v 2.9429 l 4.3558,0.5403 v 2.7449 L 38.8262,70.7762 29.5648,69.732 v 2.8621 L 26.766,72.3148 v 3.2403 l 1.8899,0.1621 v 3.0687 l 9.3152,0.702 8.6309,0.648 8.1902,0.6211 V 77.8859 L 51.6148,77.598 v -2.466 l 3.9063,0.3961 v -2.7269 l 3.375,0.3777 V 70.191 l -3.168,-0.3961 v -2.25 l 3.168,0.4321 V 67.6711 L 55.359,67.1852 54.9988,67.1309 v -2.4207 l 3.7891,0.5668 V 62.4512 L 51.084,61.2 46.6199,60.4801 v -2.736 L 41.157,56.7898 v -2.6457 l 5.5078,1.0258 3.1051,0.5762 v 2.7988 l 7.9563,1.386 v -2.8348 l -2.8801,-0.5402 v -2.736 l -3.177,-0.6301 v -2.4656 l 3.9059,0.8188 v -2.8621 l -7.9469,-1.7821 -8.559,-1.9078 -9.441,-2.1148 m 9.009,4.7699 L 35.2352,46.9262 34.3441,46.7371 30.375,45.9 30.0961,45.8371 v -2.5109 l 8.541,1.8988 v 2.4211 m 8.5859,1.818 -1.2871,-0.27 -2.691,-0.5671 -3.9328,-0.8372 v -2.4117 l 7.9109,1.7551 v 2.3309 m -13.1308,0.0269 -6.7774,-1.35 v -2.5469 l 5.2563,1.1071 1.5211,0.3238 v 2.466 m -5.6883,1.9352 -9.3238,-1.7461 V 47.052 l 9.3238,1.8449 v 2.5293 m 14.607,-0.1442 -8.2168,-1.6468 v -2.4661 l 4.275,0.9 3.9418,0.8278 v 2.3851 m 4.8422,-1.6828 V 47.268 l 7.3438,1.6379 v 2.25 l -7.3348,-1.5567 h -0.009 m 3.4289,3.3387 -7.623,-1.5297 V 49.041 l 3.789,0.7922 3.834,0.8098 v 2.2949 M 37.791,53.1898 29.1871,51.5699 V 49.05 l 8.6039,1.7012 v 2.4386 m 8.6488,1.6204 -7.9648,-1.4942 v -2.4301 l 7.9648,1.575 v 2.3493 m 8.0282,1.5027 -7.4071,-1.3859 v -2.3399 l 7.4071,1.4668 v 2.259 m -13.743,0.3332 -8.3789,-1.4672 -0.009,-2.484 8.3879,1.5481 v 2.4031 M 28.143,57.402 18.8012,55.8809 v -2.6368 l 9.3418,1.62 v 2.5379 m -4.491,2.2769 -9.693,-1.4668 v -2.682 l 9.693,1.566 v 2.5828 M 57.366,59.5621 50.157,58.302 v -2.3129 l 7.209,1.341 v 2.232 M 46.2148,60.3449 38.232,59.0398 v -2.4207 l 7.9828,1.377 v 2.3488 m -12.8609,0.7922 -4.4461,-0.666 -0.0539,-0.009 -2.7269,-0.4141 -1.7098,-0.2609 v -2.5652 l 8.9367,1.4402 v 2.475 m 9.018,1.359 -3.9598,-0.5941 -4.3019,-0.6481 v -2.475 l 8.2617,1.332 v 2.3852 M 28.377,63.2609 19.0531,61.9742 v -2.6371 l 4.8778,0.7289 4.4461,0.666 v 2.5289 m 22.3109,0.495 -3.852,-0.5848 -3.807,-0.5762 -0.009,-2.3758 7.668,1.2329 v 2.3039 m -21.7801,-0.225 -0.0539,-0.009 v -2.718 l 0.0539,0.009 v 2.718 m 9.0633,1.0711 -8.5859,-1.1969 v -2.5199 l 3.8878,0.5757 0.3782,0.0629 4.3199,0.6481 v 2.4301 m 20.457,0.3152 -6.6871,-1.0082 -0.45,-0.0629 v -2.2949 l 7.1371,1.1519 v 2.2141 M 46.602,65.7988 38.6551,64.6922 v -2.4211 l 3.9508,0.5848 3.9961,0.6031 v 2.3398 m -14.0219,1.0711 -9,-1.1429 v -2.5829 l 9,1.2329 v 2.4929 m 22.041,0.0449 -7.3891,-1.0257 v -2.3403 l 2.25,0.3332 1.4219,0.216 3.7172,0.5579 v 2.2589 m -7.452,1.7911 -7.9203,-0.9989 v -2.4211 l 7.9203,1.0801 v 2.3399 m 7.9829,1.0082 -7.3622,-0.927 v -2.3312 l 7.3622,1.0082 v 2.25 M 51.2281,72 43.6051,71.1359 v -2.3757 l 7.623,0.9449 V 72 m 7.5508,0.8641 -7.1098,-0.8102 V 69.759 l 7.1098,0.891 v 2.2141 m -24.3629,0.225 -4.3832,-0.45 v -2.511 l 8.55,0.9539 v 2.4211 l -1.9168,-0.189 -2.1781,-0.225 H 34.416 M 47.1691,74.3762 43.182,73.9711 39.2488,73.575 v -2.4211 l 7.9203,0.882 v 2.3403 m 7.9829,0.8008 -4.284,-0.4321 -3.0782,-0.3058 v -2.3309 l 7.3622,0.8188 v 2.25 M 34.0379,75.852 27.252,75.2492 v -2.5383 l 6.7859,0.675 v 2.4661 m 8.9191,0.8011 -8.2261,-0.7383 v -2.466 l 4.2839,0.4321 1.7731,0.1711 2.1691,0.225 v 2.3761 m 8.2711,0.7379 -7.623,-0.684 -0.009,-2.3672 3.9777,0.3961 3.6543,0.3602 v 2.2949 m -13.5,1.7461 -8.6043,-0.657 v -2.5289 l 8.6043,0.7558 v 2.4301 m 8.6578,0.666 -7.9738,-0.6121 v -2.4301 l 7.9738,0.702 v 2.3402 m 8.0282,0.6117 -7.3981,-0.5668 v -2.3398 l 7.3981,0.6477 v 2.2589"
         style="fill:#cd856b;fill-opacity:1;fill-rule:nonzero;stroke:none;stroke-width:0.1"
         id="path11569" />
      <path
         d="m 13.293,71.127 v 0.3601 l 6.507,0.6481 v 2.5468 l -6.507,-0.5851 v 3.5371 l 10.2242,0.7742 V 75.2039 L 20.2949,74.916 V 71.8289 L 13.293,71.127 m 9.7379,6.8941 -9.477,-0.7289 V 74.682 l 9.477,0.8192 v 2.5199"
         style="fill:#cd856b;fill-opacity:1;fill-rule:nonzero;stroke:none;stroke-width:0.1"
         id="path11571" />
      <path
         d="m 46.4262,53.6559 c 0,1.4839 -0.8887,2.5453 -2.3356,2.3703 L 36.166,54.5559 C 34.8801,54.402 35.2273,53.4461 35.2273,52.0801 V 39.725 l 11.1989,2.1211 v 11.8098"
         style="fill:#61201b;fill-opacity:1;fill-rule:nonzero;stroke:none;stroke-width:0.1"
         id="path11573" />
      <path
         d="m 74.1645,37.4352 c 0,-0.6793 -2.954,-1.2282 -6.5981,-1.2282 -3.6434,0 -6.5992,0.5489 -6.5992,1.2282 0,0.6796 2.9558,1.2296 6.5992,1.2296 3.6441,0 6.5981,-0.55 6.5981,-1.2296"
         style="fill:#b5c0d2;fill-opacity:1;fill-rule:nonzero;stroke:none;stroke-width:0.1"
         id="path11575" />
      <path
         d="m 73.6813,37.1672 c 0,-0.568 -2.7387,-1.0274 -6.1149,-1.0274 -3.3769,0 -6.1148,0.4594 -6.1148,1.0274 0,0.5668 2.7379,1.0277 6.1148,1.0277 3.3762,0 6.1149,-0.4609 6.1149,-1.0277"
         style="fill:#8190b1;fill-opacity:1;fill-rule:nonzero;stroke:none;stroke-width:0.1"
         id="path11577" />
      <path
         d="m 72.9707,46.793 c -0.568,3.182 -3.3441,5.5992 -6.6887,5.5992 h -1.2761 l -0.0368,0.0027 H 35.184 V 42.0512 h 25.0164 c 0.6957,-0.0832 2.0293,-0.016 2.0269,-1.318 V 11.3691 h 0.0063 c 0.0469,-0.3 2.4422,-1.3671 5.3926,-1.3671 2.9504,0 5.3457,1.0671 5.3929,1.3671 h 0.0047 v 33.3598 c 0.0348,0.282 -0.0531,2.0641 -0.0531,2.0641"
         style="fill:#b5c0d2;fill-opacity:1;fill-rule:nonzero;stroke:none;stroke-width:0.1"
         id="path11579" />
      <path
         d="M 67.3891,10.8141 V 39.782 c 0.0355,0.2828 -0.0516,2.0649 -0.0516,2.0649 -0.0578,4.6019 -3.3453,5.5992 -6.6887,5.5992 H 59.3723 L 59.3355,47.45 H 35.184 v -5.3988 h 25.0164 c 0.6957,-0.0832 2.0293,-0.016 2.0269,-1.318 V 11.418 l -0.0207,-0.041 c 0,-0.2969 2.3278,-1.3641 5.2309,-1.375 l -0.0484,0.8121"
         style="fill:#8190b1;fill-opacity:1;fill-rule:nonzero;stroke:none;stroke-width:0.1"
         id="path11581" />
      <path
         d="m 67.5664,36.023 c -3.4394,0 -6.2266,0.029 -6.2266,0.5668 v -5.9839 h 0.0059 c 0.0613,-0.9379 2.8207,-1.695 6.2207,-1.695 3.3992,0 6.1582,0.7571 6.2195,1.695 h 0.0079 v 6.3961 c 0,-0.5379 -2.7883,-0.979 -6.2274,-0.979"
         style="fill:#8190b1;fill-opacity:1;fill-rule:nonzero;stroke:none;stroke-width:0.1"
         id="path11583" />
      <path
         d="m 73.7859,30.6059 h 0.0079 v 4.9082 H 71.1047 V 29.218 c 1.591,0.307 2.6437,0.8129 2.6812,1.3879"
         style="fill:#b5c0d2;fill-opacity:1;fill-rule:nonzero;stroke:none;stroke-width:0.1"
         id="path11585" />
      <path
         d="m 74.1664,34.9379 v 2.607 c 0,-0.589 -2.9648,-1.3238 -6.609,-1.3238 -3.6441,0 -6.6429,0.7508 -6.5902,1.3141 v -2.5973 c 0.2754,-0.7039 3.4976,-1.4988 6.5656,-1.4988 3.0688,0 6.0203,0.8828 6.6336,1.4988"
         style="fill:#b5c0d2;fill-opacity:1;fill-rule:nonzero;stroke:none;stroke-width:0.1"
         id="path11587" />
      <path
         d="m 60.9672,36.8359 v -1.9418 c 0.2746,-0.7043 3.4969,-1.5 6.5656,-1.5 0.9676,0 1.9242,0.0891 2.8,0.2301 v 2.2219 C 69.468,35.752 68.5023,35.691 67.4809,35.691 c -3.2895,0 -6.0477,0.6121 -6.5137,1.1449"
         style="fill:#8190b1;fill-opacity:1;fill-rule:nonzero;stroke:none;stroke-width:0.1"
         id="path11589" />
      <path
         d="m 75.4199,49.6641 c 0,-0.3969 1.7262,-0.7192 3.8555,-0.7192 2.1305,0 3.8562,0.3223 3.8562,0.7192 0,0.3961 -1.7257,0.7168 -3.8562,0.7168 -2.1293,0 -3.8555,-0.3207 -3.8555,-0.7168"
         style="fill:#b5c0d2;fill-opacity:1;fill-rule:nonzero;stroke:none;stroke-width:0.1"
         id="path11591" />
      <path
         d="m 75.7031,49.507 c 0,-0.3332 1.5996,-0.6019 3.5723,-0.6019 1.9734,0 3.5738,0.2687 3.5738,0.6019 0,0.3301 -1.6004,0.6 -3.5738,0.6 -1.9727,0 -3.5723,-0.2699 -3.5723,-0.6"
         style="fill:#8190b1;fill-opacity:1;fill-rule:nonzero;stroke:none;stroke-width:0.1"
         id="path11593" />
      <path
         d="m 76.1172,55.1301 c 0.3332,1.8609 1.9551,3.273 3.9094,3.273 h 0.7461 l 0.0207,0.0028 H 92.4555 V 52.3621 H 83.5797 C 83.1742,52.3129 82.3945,52.3512 82.3953,51.591 V 11.4238 h -0.0035 c -0.027,-0.1718 -1.4277,-0.7957 -3.1512,-0.7957 -1.725,0 -3.1234,0.6239 -3.1508,0.7957 h -0.0031 v 42.5 c -0.0199,0.1672 0.0305,1.2063 0.0305,1.2063"
         style="fill:#b5c0d2;fill-opacity:1;fill-rule:nonzero;stroke:none;stroke-width:0.1"
         id="path11595" />
      <path
         d="m 79.3785,11.1012 v 39.934 c -0.0199,0.1668 0.0309,1.2058 0.0309,1.2058 0.0336,2.6879 1.9539,3.2711 3.9086,3.2711 h 0.7461 l 0.0211,0.0027 h 8.3703 V 52.3621 H 83.5797 C 83.1742,52.3129 82.3945,52.3512 82.3953,51.591 V 11.457 l 0.0129,-0.0269 c 0,-0.1731 -1.3602,-0.7961 -3.0566,-0.802 l 0.0269,0.4731"
         style="fill:#8190b1;fill-opacity:1;fill-rule:nonzero;stroke:none;stroke-width:0.1"
         id="path11597" />
      <path
         d="m 75.6379,49.4109 v -3.7398 h 0.0027 c 0.0367,-0.5469 1.6481,-0.9891 3.6348,-0.9891 1.9867,0 3.5996,0.4422 3.6363,0.9891 h 0.0028 v 3.4988 c 0,-0.314 -1.629,-0.3328 -3.6391,-0.3328 -2.0086,0 -3.6375,0.259 -3.6375,0.5738"
         style="fill:#8190b1;fill-opacity:1;fill-rule:nonzero;stroke:none;stroke-width:0.1"
         id="path11599" />
      <path
         d="m 75.6406,45.6711 h -0.0027 v 2.8711 h 1.5695 v -3.6793 c -0.9297,0.1793 -1.5457,0.4742 -1.5668,0.8082"
         style="fill:#b5c0d2;fill-opacity:1;fill-rule:nonzero;stroke:none;stroke-width:0.1"
         id="path11601" />
      <path
         d="m 79.2969,47.3289 c 1.7914,0 3.6734,0.4641 3.8347,0.875 v 1.5172 c 0.0309,-0.3289 -1.7218,-0.7652 -3.8523,-0.7652 -2.1273,0 -3.8605,0.4261 -3.8605,0.7722 v -1.5242 c 0.3585,-0.3609 2.0828,-0.875 3.8781,-0.875"
         style="fill:#b5c0d2;fill-opacity:1;fill-rule:nonzero;stroke:none;stroke-width:0.1"
         id="path11603" />
      <path
         d="m 83.1316,49.3129 v -1.1348 c -0.1613,-0.4109 -2.0433,-0.8769 -3.8347,-0.8769 -0.5664,0 -1.1254,0.0519 -1.6367,0.134 v 1.3 c 0.5043,-0.0571 1.0683,-0.0911 1.6664,-0.0911 1.9214,0 3.532,0.3579 3.805,0.6688"
         style="fill:#8190b1;fill-opacity:1;fill-rule:nonzero;stroke:none;stroke-width:0.1"
         id="path11605" />
      <path
         d="m 106.519,17.5871 c 0.581,-3.5762 0.932,-5.382 -0.989,-5.682 -1.716,-0.2699 -2.172,0.691 -3.203,0.1828 -2.6438,-1.291 -3.6915,-1.1008 -4.5395,-1.1008 -3.3797,0 -3.3488,2.3348 -0.8957,3.0981 2.4535,0.7699 4.3562,3.6339 4.3562,3.6339 l 5.271,-0.132"
         style="fill:#100f0d;fill-opacity:1;fill-rule:nonzero;stroke:none;stroke-width:0.1"
         id="path11607" />
      <path
         d="m 108.108,14.793 c 0,0 -0.468,18.7699 -1.101,23.1832 0.079,1.2179 0.083,2.1726 -0.014,2.7207 -0.357,1.959 -0.141,7.2672 -0.531,12.382 -0.157,2.2481 -0.412,4.3762 -0.849,6.0633 l -0.065,0.0547 c -0.491,1.8902 -1.192,3.4601 -2.208,4.398 -4.3123,3.9832 -11.1697,0.6391 -11.1697,0.6391 1.3285,-1.9918 3.827,-6.1828 3.827,-8.1711 0,-1.993 1.6187,-22.1859 2.6156,-23.1848 0.9961,-0.9961 0.2328,-17.5429 0.2328,-17.5429 l 9.2623,-0.5422"
         style="fill:#212554;fill-opacity:1;fill-rule:nonzero;stroke:none;stroke-width:0.1"
         id="path11609" />
      <path
         d="m 117.293,17.4051 c 1.041,-2.7149 1.405,-5.7379 -0.562,-6.316 -1.767,-0.5153 -1.856,0.3828 -2.871,-0.2911 -2.594,-1.71714 -3.939,-1.39409 -4.824,-1.51011 -3.55,-0.46172 -3.834,1.99301 -1.366,3.13011 2.468,1.1402 3.757,4.266 3.757,4.266 l 5.866,0.7211"
         style="fill:#100f0d;fill-opacity:1;fill-rule:nonzero;stroke:none;stroke-width:0.1"
         id="path11611" />
      <path
         d="m 81.7594,87.593 c 0.9769,-0.7508 0.5844,-3.609 2.5008,-4.295 1.7609,-0.621 1.8699,0.3059 1.8699,0.3059 l -1.3059,-7.5 c 0,0 -1.5191,-0.3289 -1.8801,0.257 -0.2386,0.3813 -3.948,2.2723 -4.6035,2.9731 -0.3965,0.4219 3.4188,8.259 3.4188,8.259"
         style="fill:#d1a18a;fill-opacity:1;fill-rule:nonzero;stroke:none;stroke-width:0.1"
         id="path11613" />
      <path
         d="m 79.7125,78.5199 c -0.6777,-2.157 -0.3398,-1.9418 -0.5859,-3.3269 -0.2496,-1.3782 3.0175,-6.1879 6.6527,-9.391 1.1254,-0.9891 3.4332,-2.0918 6.1801,-4.3719 1.1789,-0.9781 3.7652,-5.8262 4.7222,-7.1012 0.6293,-0.8379 2.0758,6.6801 2.0758,6.6801 0,0 -1.9371,0.4281 -5.1265,4.3582 -3.5387,4.3637 -9.3965,12.2898 -11.5543,11.459 -1.2504,-0.4821 -2.3641,1.6937 -2.3641,1.6937"
         style="fill:#212554;fill-opacity:1;fill-rule:nonzero;stroke:none;stroke-width:0.1"
         id="path11615" />
      <path
         d="m 115.652,36.2422 c 0,0 -5.017,16.875 -4.934,18.3269 0.263,4.3258 1.456,11.7008 -3.263,14.8321 -2.233,3.134 -4.346,6.4609 -7.6409,9.6957 -0.4758,0.4672 -4.8286,3.832 -7.4789,4.8613 -2.1457,0.8316 -3.5485,0.1188 -7.6774,0.0797 0,0 0.5449,-4.3399 -3.0332,-7.2559 -0.4043,-0.3308 2.2762,-5.375 4.4539,-6.4308 2.8625,-4.534 16.9345,-13.2571 17.5185,-15.6832 0.87,-3.6071 1.895,-20.4 2.888,-20.4 0.999,0 3.344,-19.9348 3.344,-19.9348 0,0 8.464,-0.8352 8.479,-0.1312 0.302,16.3 -2.656,22.0402 -2.656,22.0402"
         style="fill:#212554;fill-opacity:1;fill-rule:nonzero;stroke:none;stroke-width:0.1"
         id="path11617" />
      <path
         d="m 71.2543,84.773 c 0.0176,1.8219 1.525,3.92 3.7336,5.0571 3.1687,1.625 6.3898,-0.5289 7.5652,-4.0602 1.1199,-3.3558 -0.6968,-7.7097 -2.3437,-8.7519 0.0054,0 -1.1074,-0.9918 -3.1031,0.3011 -0.5618,0.3629 -2.2727,2.086 -3.2758,3.118 -0.8422,0.8668 -2.8742,4.002 -2.5762,4.3359"
         style="fill:#d1a18a;fill-opacity:1;fill-rule:nonzero;stroke:none;stroke-width:0.1"
         id="path11619" />
      <path
         d="m 73.9723,86.8371 c 0.5371,-0.7391 1.9379,-0.6109 3.1293,-0.607 1.1918,-0.0051 2.7207,-0.6949 2.9507,-0.9571 0.2207,-0.271 0.1465,1.227 1.077,1.1168 0.6777,-0.0808 1.4066,-1.9539 1.077,-2.2726 -0.3747,-0.3621 1.8343,-1.5961 1.8343,-1.5961 0,0 0.7,3.1801 -2.0543,6.484 -2.7597,3.3051 -7.0074,2.4781 -8.1539,1.4449 -1.6644,-1.5012 0.1399,-3.6129 0.1399,-3.6129"
         style="fill:#211311;fill-opacity:1;fill-rule:nonzero;stroke:none;stroke-width:0.1"
         id="path11621" />
      <path
         d="M 82.6156,88.1121 C 80.1035,87.109 76.8605,85.984 76.8605,85.984 l -2.725,5.166 c 0,0 3.3098,1.1488 5.5547,0.3398 1.4606,-0.5207 2.9254,-3.3777 2.9254,-3.3777"
         style="fill:#100f0d;fill-opacity:1;fill-rule:nonzero;stroke:none;stroke-width:0.1"
         id="path11623" />
      <path
         d="M 77.5945,86.4121 71.65,82.5082 c 0,0 -2.3238,2.7617 -1.9297,4.4598 0.3895,1.7 3.8465,4.4371 4.666,4.2261 0.8996,-0.2382 3.2082,-4.782 3.2082,-4.782"
         style="fill:#222326;fill-opacity:1;fill-rule:nonzero;stroke:none;stroke-width:0.1"
         id="path11625" />
      <path
         d="m 78.5898,87.1059 c -0.4867,-0.3938 -1.1812,-3.9637 -1.7015,-4.252 -0.5192,-0.284 -6.0113,-3.9828 -6.3098,-3.5648 -0.3031,0.4191 1.191,3.38 1.191,3.38 l 6.8203,4.4368"
         style="fill:#100f0d;fill-opacity:1;fill-rule:nonzero;stroke:none;stroke-width:0.1"
         id="path11627" />
      <path
         d="m 88.0309,60.202 c 0,0 -3.8129,-2.42 -4.1868,-2.7961 -0.4211,-0.4289 -0.8304,-1.4508 -0.9027,-1.7129 -0.1637,-0.5989 -0.1277,-0.534 -0.2117,-1.3371 -0.0617,-0.5938 0.5277,-0.386 0.7488,0.1601 0.1903,0.4582 0.3899,1 0.3899,1 l 0.382,0.368 c 0,0 -0.5746,-1.536 -0.6383,-1.7051 -0.0625,-0.1687 -0.1492,-1.1141 -0.2129,-1.3539 -0.0883,-0.3391 0.5047,-0.675 0.75,-0.191 0.2477,0.482 0.5539,1.5289 0.6789,1.8672 0.1289,0.334 0.2157,0.3847 0.2157,0.3847 -0.3458,-0.9461 -0.7372,-2.1027 -0.6766,-2.45 0.0644,-0.3429 0.6641,-0.2718 0.8723,0.2891 0.2117,0.5621 0.823,1.4969 0.823,1.4969 l -0.7539,-1.4848 c 0,0 0.1723,-0.1769 0.4102,-0.0699 0.3773,0.168 0.9492,0.7219 1.4566,1.3219 0.7441,0.882 0.9625,1.1398 1.5297,1.8699 0.3531,0.4492 1.6633,0.7558 1.6844,0.8621 0.2996,1.3828 -0.8915,3.7629 -2.3586,3.4809"
         style="fill:#f46e16;fill-opacity:1;fill-rule:nonzero;stroke:none;stroke-width:0.1"
         id="path11629" />
      <path
         d="m 92.9332,82.043 c -2.7644,2.1672 -4.9129,1.0011 -5.1437,-0.4789 -0.5594,-3.5891 2.5113,-9.9301 3.6289,-12.5621 0.3546,-1.452 -6.1782,-9.7231 -4.6254,-9.8098 1.0761,-0.0602 4.6254,-4.3063 4.6254,-4.3063 0,0 7.4957,10.2891 6.8586,13.0813 -0.3192,3.3476 -2.9032,12.1629 -5.3438,14.0758"
         style="fill:#2b398a;fill-opacity:1;fill-rule:nonzero;stroke:none;stroke-width:0.1"
         id="path11631" />
      <path
         d="m 75.4672,53.691 c -1.4086,0 -2.5512,1.1442 -2.5512,2.5512 0,1.409 1.1426,2.5508 2.5512,2.5508 1.4082,0 2.5519,-1.1418 2.5519,-2.5508 0,-1.407 -1.1437,-2.5512 -2.5519,-2.5512 z m 0,5.9801 c -1.8934,0 -3.4289,-1.5359 -3.4289,-3.4289 0,-1.893 1.5355,-3.4281 3.4289,-3.4281 1.8937,0 3.4289,1.5351 3.4289,3.4281 0,1.893 -1.5352,3.4289 -3.4289,3.4289"
         style="fill:#b5c0d2;fill-opacity:1;fill-rule:nonzero;stroke:none;stroke-width:0.1"
         id="path11633" />
      <path
         d="m 75.7473,53.2121 h -0.5582 v 6.0598 h 0.5582 v -6.0598"
         style="fill:#b5c0d2;fill-opacity:1;fill-rule:nonzero;stroke:none;stroke-width:0.1"
         id="path11635" />
      <path
         d="m 78.4984,56.5211 v -0.5582 h -6.0609 v 0.5582 h 6.0609"
         style="fill:#b5c0d2;fill-opacity:1;fill-rule:nonzero;stroke:none;stroke-width:0.1"
         id="path11637" />
      <path
         d="m 77.8074,54.2969 -0.3937,-0.3938 -4.286,4.2848 0.395,0.3941 4.2847,-4.2851"
         style="fill:#b5c0d2;fill-opacity:1;fill-rule:nonzero;stroke:none;stroke-width:0.1"
         id="path11639" />
      <path
         d="m 77.4145,58.582 0.3929,-0.3929 -4.2859,-4.286 -0.3938,0.3938 4.2868,4.2851"
         style="fill:#b5c0d2;fill-opacity:1;fill-rule:nonzero;stroke:none;stroke-width:0.1"
         id="path11641" />
      <path
         d="m 75.0867,61.7922 c -0.6351,0.4988 -3.1527,0.4398 -3.9207,-0.5613 -0.5555,-0.7227 -0.6008,-1.8321 -0.6008,-1.8321 0,0 0.0321,-0.8468 0.2243,-1.2238 0.2875,-0.5648 0.7105,-1.452 1.3437,-1.4418 0.634,0.0039 -0.5164,1.1 -0.5195,1.6059 -0.0067,0.507 0.0894,0.5418 0.0894,0.5418 0,0 0.2559,-0.4129 0.5192,-1.2957 0,0 1.0863,-1.4762 1.9394,-1.468 0.2879,0.0039 -0.3101,0.5187 -0.8047,1.482 -0.514,1.0047 -0.4246,1.3219 -0.4246,1.3219 0,0 0.0035,-0.4539 0.3649,-1.2 0.3957,-0.8289 1.1761,-1.952 1.5656,-1.8813 0.4617,0.0852 0.0348,1.0352 -0.3379,1.8133 -0.2258,0.4629 -0.2207,0.934 -0.1969,1.0617 0.0297,0.1594 -0.0726,-2.1187 1.2891,-2.3918 0.6758,-0.1351 -0.5035,2.7481 -0.5055,3.3149 -0.0039,0.2363 0.5289,0.2281 0.5617,-0.1988 0.1211,-1.5012 0.3418,-1.5121 0.4774,-1.1332 0.3125,0.8812 0.6773,1.3351 0.491,1.83 -0.3563,0.9121 -1.5551,1.6563 -1.5551,1.6563"
         style="fill:#d93e21;fill-opacity:1;fill-rule:nonzero;stroke:none;stroke-width:0.1"
         id="path11643" />
      <path
         d="m 118.388,14.123 c 0.301,16.3 -2.656,22.0391 -2.656,22.0391 0,0 -3.115,19.6008 -3.338,21.0391 -0.838,5.3828 0.078,9.7277 -6.102,13.9957 -2.233,3.1351 -3.104,4.5863 -6.399,7.8222 -0.4746,0.4649 -4.8278,3.8301 -7.4789,4.8579 -2.1461,0.8332 -3.5485,0.3589 -7.6762,0.0832 0,0 0.1105,-0.9211 -0.1117,-2.193 1.1597,0.0207 6.6535,0.0519 7.9082,-1.359 1.2758,-1.4363 8.8156,-9.0703 9.8906,-10.9273 1.754,-3.0289 4.067,-5.8207 4.704,-9.1707 0.638,-3.35 3.907,-16.8262 4.705,-20.177 0.799,-3.348 1.995,-8.2152 2.633,-10.8461 0.346,-1.4301 -0.558,-3.032 0.08,-4.1473 0.638,-1.116 0.716,-3.5097 0.557,-4.7859 -0.161,-1.2758 -2.429,-3.8129 -1.675,-4.2269 2.472,-1.354 -0.548,-1.0329 -0.376,-2.1329 2.41,-0.1671 5.326,-0.2851 5.335,0.1289"
         style="fill:#2b398a;fill-opacity:1;fill-rule:nonzero;stroke:none;stroke-width:0.1"
         id="path11645" />
    </g>
  </g>
</svg>
