<?xml version="1.0" encoding="UTF-8" standalone="no"?>
<svg
   xmlns:dc="http://purl.org/dc/elements/1.1/"
   xmlns:cc="http://creativecommons.org/ns#"
   xmlns:rdf="http://www.w3.org/1999/02/22-rdf-syntax-ns#"
   xmlns:svg="http://www.w3.org/2000/svg"
   xmlns="http://www.w3.org/2000/svg"
   xmlns:sodipodi="http://sodipodi.sourceforge.net/DTD/sodipodi-0.dtd"
   xmlns:inkscape="http://www.inkscape.org/namespaces/inkscape"
   width="211.25209"
   height="130.94998"
   viewBox="0 0 211.25209 130.94998"
   version="1.1"
   id="SVGRoot"
   sodipodi:docname="7.svg"
   inkscape:version="1.0.1 (0767f8302a, 2020-10-17)">
  <defs
     id="defs23632" />
  <sodipodi:namedview
     id="base"
     pagecolor="#ffffff"
     bordercolor="#666666"
     borderopacity="1.0"
     inkscape:pageopacity="0.0"
     inkscape:pageshadow="2"
     inkscape:zoom="0.35"
     inkscape:cx="474.19748"
     inkscape:cy="222.61785"
     inkscape:document-units="px"
     inkscape:current-layer="layer1"
     inkscape:document-rotation="0"
     showgrid="false"
     inkscape:window-width="1366"
     inkscape:window-height="681"
     inkscape:window-x="0"
     inkscape:window-y="57"
     inkscape:window-maximized="0" />
  <metadata
     id="metadata23635">
    <rdf:RDF>
      <cc:Work
         rdf:about="">
        <dc:format>image/svg+xml</dc:format>
        <dc:type
           rdf:resource="http://purl.org/dc/dcmitype/StillImage" />
        <dc:title></dc:title>
      </cc:Work>
    </rdf:RDF>
  </metadata>
  <g
     inkscape:label="Layer 1"
     inkscape:groupmode="layer"
     id="layer1"
     transform="translate(74.197478,-337.38215)">
    <g
       id="g18999"
       transform="matrix(1.3333333,0,0,-1.3333333,-262.58414,754.91281)">
      <path
         d="m 188.537,291.95 c 0,0 0.704,0.344 1.587,0.424 0.65,0.06 0.904,0.518 0.32,0.667 -1.066,0.27 -1.659,0.063 -2.321,0.032 -0.221,-0.012 -1.31,-0.62 -1.766,-0.956 0.634,0.209 1.559,0.582 1.367,1.413 -0.157,0.685 -0.598,0.383 -0.719,0.028 -0.107,-0.312 -2.257,-1.94 -2.95,-2.944 -0.239,-0.184 -0.478,-0.362 -0.712,-0.527 0,0 -0.821,-0.421 -1.47,-0.524 -0.935,-0.148 1.961,-4.304 1.961,-4.304 0,0 0.763,1.115 1.386,1.637 0.085,0.072 2.638,1.015 2.958,1.095 0.519,0.132 0.461,0.141 0.864,0.343 0.393,0.196 1.703,1.136 1.803,1.386 0.313,0.804 -2.038,-0.498 -2.038,-0.498 0,0 0.717,0.565 1.288,0.73 0.273,0.078 1.081,0.493 1.282,0.747 0.617,0.789 -2.157,0.071 -2.653,-0.182 0.236,0.182 0.935,0.621 1.216,0.673 1.772,0.184 1.647,0.755 1.288,0.892 -0.754,0.29 -2.691,-0.132 -2.691,-0.132"
         style="fill:#d93e21;fill-opacity:1;fill-rule:nonzero;stroke:none;stroke-width:0.1"
         id="path6331" />
      <path
         d="m 163.47,289.772 c 1.628,1.671 9.434,-3.24 12.392,-2.816 1.633,0.233 6.576,3.583 7.815,4.083 1.238,0.503 0.915,-6.476 0.915,-6.476 0,0 -4.208,-2.552 -7.463,-3.944 -3.256,-1.392 -12.41,0.432 -13.941,1.901 -1.533,1.469 0.282,7.252 0.282,7.252"
         style="fill:#212554;fill-opacity:1;fill-rule:nonzero;stroke:none;stroke-width:0.1"
         id="path6333" />
      <path
         d="m 201.945,261.864 c 0,-0.812 -4.042,-1.469 -9.029,-1.469 -4.987,0 -9.03,0.657 -9.03,1.469 0,0.812 4.043,1.47 9.03,1.47 4.987,0 9.029,-0.658 9.029,-1.47"
         style="fill:#2f8a7e;fill-opacity:1;fill-rule:nonzero;stroke:none;stroke-width:0.1"
         id="path6335" />
      <path
         d="m 201.284,261.542 c 0,-0.677 -3.747,-1.227 -8.368,-1.227 -4.621,0 -8.367,0.55 -8.367,1.227 0,0.678 3.746,1.229 8.367,1.229 4.621,0 8.368,-0.551 8.368,-1.229"
         style="fill:#22635a;fill-opacity:1;fill-rule:nonzero;stroke:none;stroke-width:0.1"
         id="path6337" />
      <path
         d="m 145.304,253.653 v -0.005 h -2.112 v -0.016 c -1.057,-0.175 -1.902,-3.248 -1.902,-7.022 0,-3.775 0.845,-6.847 1.902,-7.023 v -0.016 h 2.112 v -0.001 h 98.432 v 14.083 h -98.432"
         style="fill:#2f8a7e;fill-opacity:1;fill-rule:nonzero;stroke:none;stroke-width:0.1"
         id="path6339" />
      <path
         d="m 145.304,247.035 v -0.001 c -1.667,0.015 -3.997,0.024 -4,-0.062 -0.119,-3.801 0.831,-7.209 1.888,-7.385 v -0.016 h 2.112 v -0.001 h 94.63 v 7.465 h -94.63"
         style="fill:#22635a;fill-opacity:1;fill-rule:nonzero;stroke:none;stroke-width:0.1"
         id="path6341" />
      <path
         d="m 232.752,256.939 v -0.024 c -1.569,-0.261 -2.816,-4.808 -2.816,-10.396 0,-5.589 1.247,-10.136 2.816,-10.396 v -0.025 h 8.731 v 20.841 h -8.731"
         style="fill:#2f8a7e;fill-opacity:1;fill-rule:nonzero;stroke:none;stroke-width:0.1"
         id="path6343" />
      <path
         d="m 232.752,236.123 v -0.025 h 8.731 v 14.034 h -11.362 c -0.118,-1.127 -0.185,-2.34 -0.185,-3.613 0,-5.589 1.247,-10.136 2.816,-10.396"
         style="fill:#22635a;fill-opacity:1;fill-rule:nonzero;stroke:none;stroke-width:0.1"
         id="path6345" />
      <path
         d="m 244.581,246.519 c 0,-5.756 -1.324,-10.421 -2.957,-10.421 -1.635,0 -2.958,4.665 -2.958,10.421 0,5.754 1.323,10.42 2.958,10.42 1.633,0 2.957,-4.666 2.957,-10.42"
         style="fill:#22635a;fill-opacity:1;fill-rule:nonzero;stroke:none;stroke-width:0.1"
         id="path6347" />
      <path
         d="m 243.736,246.519 c 0,-4.522 -0.883,-8.188 -1.972,-8.188 -1.09,0 -1.972,3.666 -1.972,8.188 0,4.521 0.882,8.187 1.972,8.187 1.089,0 1.972,-3.666 1.972,-8.187"
         style="fill:#222326;fill-opacity:1;fill-rule:nonzero;stroke:none;stroke-width:0.1"
         id="path6349" />
      <path
         d="m 199.781,250.695 h -13.73 v 62.453 h 13.73 v -62.453"
         style="fill:#2f8a7e;fill-opacity:1;fill-rule:nonzero;stroke:none;stroke-width:0.1"
         id="path6351" />
      <path
         d="m 191.422,258.722 h -5.371 v 54.426 h 5.371 v -54.426"
         style="fill:#22635a;fill-opacity:1;fill-rule:nonzero;stroke:none;stroke-width:0.1"
         id="path6353" />
      <path
         d="m 192.916,260.175 c -4.705,0 -8.519,0.036 -8.519,0.678 v -7.154 h 0.008 c 0.085,-1.123 3.859,-2.027 8.511,-2.027 4.652,0 8.427,0.904 8.511,2.027 h 0.009 v 7.647 c 0,-0.642 -3.813,-1.171 -8.52,-1.171"
         style="fill:#22635a;fill-opacity:1;fill-rule:nonzero;stroke:none;stroke-width:0.1"
         id="path6355" />
      <path
         d="m 201.427,253.699 h 0.009 v 5.868 h -3.678 v -7.527 c 2.177,0.366 3.618,0.971 3.669,1.659"
         style="fill:#2f8a7e;fill-opacity:1;fill-rule:nonzero;stroke:none;stroke-width:0.1"
         id="path6357" />
      <path
         d="m 201.947,258.878 v 3.118 c 0,-0.706 -4.055,-1.584 -9.042,-1.584 -4.987,0 -9.091,0.898 -9.019,1.571 v -3.105 c 0.377,-0.842 4.786,-1.793 8.984,-1.793 4.199,0 8.239,1.056 9.077,1.793"
         style="fill:#2f8a7e;fill-opacity:1;fill-rule:nonzero;stroke:none;stroke-width:0.1"
         id="path6359" />
      <path
         d="m 183.886,261.147 v -2.322 c 0.375,-0.842 4.785,-1.793 8.984,-1.793 1.325,0 2.634,0.106 3.832,0.274 v 2.657 c -1.183,-0.113 -2.505,-0.185 -3.903,-0.185 -4.501,0 -8.273,0.731 -8.913,1.369"
         style="fill:#22635a;fill-opacity:1;fill-rule:nonzero;stroke:none;stroke-width:0.1"
         id="path6361" />
      <path
         d="m 152.724,223.391 c -0.134,-1.289 -0.789,-5.008 -0.336,-6.767 0.155,-0.609 1.684,-0.291 2.645,-0.495 0.397,-0.086 1.797,0.01 2.505,-0.231 2.578,-0.881 6.614,-0.26 7.089,0.017 0.479,0.283 0.609,2.423 -0.791,3.375 -1.102,0.748 -4.535,1.045 -4.932,1.872 -0.395,0.826 -1.078,2.864 -1.078,2.864 l -5.102,-0.635"
         style="fill:#252222;fill-opacity:1;fill-rule:nonzero;stroke:none;stroke-width:0.1"
         id="path6363" />
      <path
         d="m 175.11,260.233 c 0,0 -1.97,-6.074 -4.667,-13.045 -0.741,-1.915 -4.107,-11.585 -5.287,-12.597 -1.183,-1.012 -3.71,-14.283 -3.71,-14.283 0,0 -9.728,-3.037 -10.404,-1.857 -0.676,1.18 3.148,18.67 6.355,21.539 2.359,9.783 7.422,21.592 9.278,23.449 1.855,1.853 8.435,-3.206 8.435,-3.206"
         style="fill:#212554;fill-opacity:1;fill-rule:nonzero;stroke:none;stroke-width:0.1"
         id="path6365" />
      <path
         d="m 172.69,247.524 c -2.699,-4.047 -5.509,-10.684 -6.522,-11.808 -1.012,-1.125 -1.012,-1.069 -1.689,-2.531 -0.672,-1.462 -3.033,-12.877 -3.033,-12.877 0,0 -2.249,-1.18 -4.331,-1.348 -1.314,-0.107 9.279,25.866 11.303,29.241 2.025,3.373 4.272,-0.677 4.272,-0.677"
         style="fill:#2b398a;fill-opacity:1;fill-rule:nonzero;stroke:none;stroke-width:0.1"
         id="path6367" />
      <path
         d="m 180.251,222.093 c 0,-1.296 -0.275,-5.063 0.356,-6.769 0.217,-0.592 1.707,-0.117 2.683,-0.22 0.402,-0.049 1.783,0.193 2.514,0.022 2.655,-0.611 6.606,0.415 7.052,0.739 0.446,0.33 0.361,2.473 -1.131,3.278 -1.172,0.632 -4.621,0.579 -5.099,1.361 -0.475,0.781 -1.359,2.739 -1.359,2.739 l -5.016,-1.15"
         style="fill:#252222;fill-opacity:1;fill-rule:nonzero;stroke:none;stroke-width:0.1"
         id="path6369" />
      <path
         d="m 174.58,270.465 c 1.575,-4.272 0.337,-5.397 1.124,-9.332 0,0 3.178,-20.807 4.864,-24.518 1.689,-3.71 6.074,-17.247 6.074,-17.247 0,0 -5.988,-3.967 -7.676,-3.967 -1.686,0 -6.999,19.992 -7.339,21.3 -2.361,9.108 -5.482,13.241 -7.844,18.641 -2.363,5.397 -3.081,7.739 -1.461,11.864 1.62,4.126 12.258,3.259 12.258,3.259"
         style="fill:#212554;fill-opacity:1;fill-rule:nonzero;stroke:none;stroke-width:0.1"
         id="path6371" />
      <path
         d="m 176.302,269.97 c 0,-2.192 -0.428,-6.56 -0.203,-7.967 0.225,-1.403 4.225,-18.059 4.384,-19.988 0.508,-6.076 7.171,-21.932 7.171,-21.932 0,0 -3.46,-2.698 -3.965,-2.193 -0.504,0.505 -5.229,18.22 -6.748,22.944 -1.517,4.724 -3.398,17.974 -4.386,20.075 -0.987,2.099 -1.012,6.184 -0.336,7.365 0.674,1.18 4.083,1.696 4.083,1.696"
         style="fill:#2b398a;fill-opacity:1;fill-rule:nonzero;stroke:none;stroke-width:0.1"
         id="path6373" />
      <path
         d="m 164.895,297.324 c -0.179,-1.051 -0.588,-2.021 -1.365,-3.611 -1.538,-3.151 -1.426,-3.704 -1.426,-3.704 l 6.397,-3.088 c 0,0 1.096,5.293 2.308,6.018 1.216,0.723 -5.914,4.385 -5.914,4.385"
         style="fill:#d1a18a;fill-opacity:1;fill-rule:nonzero;stroke:none;stroke-width:0.1"
         id="path6375" />
      <path
         d="m 174.639,296.375 c -0.268,0.539 -0.351,2.126 -0.474,2.508 l 0.006,0.038 c 0.567,0.956 0.986,2.62 0.331,4.256 -0.044,0.115 -0.552,0.065 -0.783,0.243 -1.547,2.589 -9.131,3.491 -10.022,-0.855 -1.679,-8.159 5.866,-9.905 7.666,-10.237 0.325,-0.058 1.023,0.068 1.394,1.642 0.393,0.64 0.625,1.071 0.849,1.653 0.533,0.087 0.95,0.311 1.009,0.611 l 0.024,0.141"
         style="fill:#d1a18a;fill-opacity:1;fill-rule:nonzero;stroke:none;stroke-width:0.1"
         id="path6377" />
      <path
         d="m 165.26,305.451 c 0.851,0.565 1.361,1.898 3.853,1.247 2.141,-0.557 4.682,-0.932 5.465,-2.804 0.733,-1.75 1.046,-2.328 1.046,-2.328 0,0 0.916,-0.446 -0.37,-0.716 -0.536,-0.111 -2.712,1.097 -3.546,0.258 -0.698,-0.702 -1.811,-1.108 -1.811,-1.108 0,0 -2.057,-0.778 -2.198,-1.47 -0.05,-0.232 -0.788,-1.821 -1.318,-2.284 -1.062,-0.922 -3.105,-1.171 -3.105,-1.171 0,0 0.303,1.564 -0.223,4.757 -0.621,3.777 0.962,4.793 2.207,5.619"
         style="fill:#2a1412;fill-opacity:1;fill-rule:nonzero;stroke:none;stroke-width:0.1"
         id="path6379" />
      <path
         d="m 169.115,299.195 c 0.117,1.872 -1.656,0.828 -1.656,0.277 0,-0.614 -0.434,-2.209 0.553,-2.654 0.974,-0.447 1.103,2.377 1.103,2.377"
         style="fill:#d1a18a;fill-opacity:1;fill-rule:nonzero;stroke:none;stroke-width:0.1"
         id="path6381" />
      <path
         d="m 173.467,284.702 c -1.197,2.182 -2.36,2.744 -3.238,3.732 -0.675,0.757 -1.83,1.334 -4.856,3.309 -1.557,1.019 -2.467,1.092 -2.467,1.092 -1.338,-2.006 -1.557,-2.684 -2.077,-4.172 -1.109,-3.168 -0.9,-5.981 0.669,-11.213 1.405,-4.681 -2.984,-9.456 1.289,-11.286 3.789,-1.627 9.498,-1.183 10.88,-0.824 0.909,0.11 2.356,1.076 2.475,1.461 0.929,3.023 0.232,11.855 -2.675,17.901"
         style="fill:#212554;fill-opacity:1;fill-rule:nonzero;stroke:none;stroke-width:0.1"
         id="path6383" />
      <path
         d="m 163.088,301.737 c -0.986,-0.437 -1.641,-1.338 -1.07,-1.581 0.57,-0.242 3.069,0.017 5.118,0.13 2.048,0.113 6.365,-0.513 7.086,-0.758 0.721,-0.244 1.354,-0.207 2.018,0.123 0.665,0.328 2.117,1.276 1.306,1.849 -0.685,0.483 -1.739,0.584 -3.043,0.835 -1.123,0.215 -8.59,0.575 -9.496,0.126 -0.905,-0.448 -1.919,-0.724 -1.919,-0.724"
         style="fill:#f46e16;fill-opacity:1;fill-rule:nonzero;stroke:none;stroke-width:0.1"
         id="path6385" />
      <path
         d="m 162.048,300.171 c 0.571,-0.242 3.07,0.018 5.119,0.131 2.048,0.111 6.364,-0.514 7.086,-0.759 0.722,-0.245 1.355,-0.207 2.017,0.121 0.585,0.293 1.692,1.02 1.484,1.627 -0.278,-0.56 -0.96,-1.028 -1.438,-1.263 -0.663,-0.33 -1.296,-0.368 -2.018,-0.125 -0.72,0.244 -5.037,0.872 -7.086,0.759 -2.046,-0.112 -4.548,-0.374 -5.119,-0.13 -0.101,0.043 -0.163,0.108 -0.192,0.187 -0.112,-0.241 -0.087,-0.45 0.147,-0.548"
         style="fill:#d93e21;fill-opacity:1;fill-rule:nonzero;stroke:none;stroke-width:0.1"
         id="path6387" />
      <path
         d="m 167.983,301.257 c 1.475,0.046 4.035,-0.162 5.382,-0.276 0.832,-0.069 1.903,0.128 2.505,0.727 0.002,0.235 -0.094,1.204 -0.128,1.443 -0.44,3.142 -3.635,5.29 -7.139,4.8 -2.59,-0.365 -4.744,-1.69 -5.447,-3.825 -0.17,-0.52 -0.442,-2.695 -0.444,-3.25 2.149,0.449 3.337,0.319 5.271,0.381"
         style="fill:#d93e21;fill-opacity:1;fill-rule:nonzero;stroke:none;stroke-width:0.1"
         id="path6389" />
      <path
         d="m 174.152,302.052 c 0.023,-0.167 0.116,-0.699 0.147,-1.081 0.71,0.156 1.177,0.404 1.554,0.777 -0.001,0.233 -0.096,1.204 -0.13,1.442 -0.442,3.142 -3.638,5.292 -7.14,4.801 -1.672,-0.237 -3.159,-0.872 -4.193,-1.868 0.72,0.323 1.985,0.721 2.842,0.844 3.502,0.489 6.479,-1.776 6.92,-4.915"
         style="fill:#f46e16;fill-opacity:1;fill-rule:nonzero;stroke:none;stroke-width:0.1"
         id="path6391" />
      <path
         d="m 163.61,294.278 -1.479,-1.901 c 0,0 2.958,-2.041 3.169,-2.533 1.55,0.138 2.676,-0.141 2.676,-0.141 l -0.141,-1.446 c 0,0 4.647,-1.582 5.28,-2.779 -0.774,1.759 -3.097,3.872 -4.295,4.717 -1.197,0.845 -5.21,4.083 -5.21,4.083"
         style="fill:#2b398a;fill-opacity:1;fill-rule:nonzero;stroke:none;stroke-width:0.1"
         id="path6393" />
      <path
         d="m 191.004,279.811 c 0,0 0.783,-0.03 1.599,-0.376 0.6,-0.255 1.04,0.029 0.596,0.437 -0.811,0.742 -1.432,0.839 -2.03,1.124 -0.201,0.095 -1.448,0.073 -2.008,-0.008 0.659,-0.113 1.649,-0.224 1.873,0.599 0.186,0.68 -0.347,0.62 -0.62,0.366 -0.243,-0.225 -2.907,-0.644 -3.993,-1.201 -0.298,-0.05 -0.591,-0.094 -0.876,-0.128 0,0 -0.923,0.016 -1.543,0.232 -0.894,0.312 -0.306,-4.72 -0.306,-4.72 0,0 1.2,0.622 1.994,0.788 0.111,0.023 2.808,-0.352 3.126,-0.432 0.52,-0.13 0.474,-0.094 0.924,-0.106 0.439,-0.012 2.037,0.196 2.245,0.369 0.656,0.562 -2.033,0.524 -2.033,0.524 0,0 0.9,0.16 1.481,0.035 0.276,-0.061 1.185,-0.077 1.482,0.052 0.917,0.405 -1.867,1.082 -2.424,1.094 0.293,0.048 1.118,0.105 1.39,0.019 1.648,-0.676 1.809,-0.114 1.556,0.177 -0.527,0.612 -2.433,1.155 -2.433,1.155"
         style="fill:#f46e16;fill-opacity:1;fill-rule:nonzero;stroke:none;stroke-width:0.1"
         id="path6395" />
      <path
         d="m 163.584,289.511 c 2.297,0.412 9.724,-4.802 11.077,-5.745 1.355,-0.942 9.736,-1.958 11.035,-2.271 1.3,-0.312 -0.641,-7.264 -0.641,-7.264 0,0 -8.597,1.037 -12.056,1.797 -3.458,0.759 -10.194,6.798 -10.587,8.884 -0.392,2.085 1.172,4.599 1.172,4.599"
         style="fill:#2b398a;fill-opacity:1;fill-rule:nonzero;stroke:none;stroke-width:0.1"
         id="path6397" />
      <path
         d="m 255.837,254.835 c -1.846,-0.06 -2.588,0.865 -3.217,1.269 -0.632,0.407 -1.56,0.947 -2.127,2.073 -0.187,0.37 -1.288,-1.004 -0.787,-1.183 0.497,-0.177 -0.267,-1.3 -0.267,-1.3 0,0 -1.734,-1.065 -1.86,-1.313 -0.125,-0.247 -0.23,-1.052 0.189,-1.516 0.681,-0.751 4.061,-1.06 4.747,-1.14 0.692,-0.082 2.134,-1.03 2.493,-1.127 0.361,-0.094 0.829,4.237 0.829,4.237"
         style="fill:#4053ad;fill-opacity:1;fill-rule:nonzero;stroke:none;stroke-width:0.1"
         id="path6399" />
      <path
         d="m 273.597,255.393 c -1.678,-1.155 -3.497,-1.337 -8.457,-1.247 -0.855,0.015 -11.32,1.502 -11.32,1.502 l -1.136,-5.856 c 0,0 8.888,-1.864 10.414,-1.913 2.444,-0.082 13.01,-2.091 13.01,-2.091 l -2.511,9.605"
         style="fill:#8190b1;fill-opacity:1;fill-rule:nonzero;stroke:none;stroke-width:0.1"
         id="path6401" />
      <path
         d="m 270.766,261.71 c 0.497,-0.908 2.127,-1.847 3.316,-2.543 2.923,-1.717 1.547,-3.266 1.547,-3.266 l -3.892,-3.944 c 0,0 -3.314,3.616 -4.651,3.897 -1.34,0.273 3.68,5.856 3.68,5.856"
         style="fill:#d1a18a;fill-opacity:1;fill-rule:nonzero;stroke:none;stroke-width:0.1"
         id="path6403" />
      <path
         d="m 262.155,257.762 c 0.076,0.576 -0.35,2.054 -0.359,2.444 l -0.019,0.032 c -0.819,0.695 -1.727,2.085 -1.645,3.789 0.004,0.118 0.484,0.231 0.638,0.468 0.599,2.855 7.247,6.075 9.437,2.382 4.111,-6.928 -1.808,-10.36 -3.348,-11.231 -0.28,-0.157 -1.386,-0.811 -2.222,0.511 -0.562,0.46 -0.91,0.782 -1.301,1.244 -0.513,-0.09 -0.965,-0.017 -1.114,0.24 l -0.067,0.121"
         style="fill:#d1a18a;fill-opacity:1;fill-rule:nonzero;stroke:none;stroke-width:0.1"
         id="path6405" />
      <path
         d="m 267.864,269.026 c -0.955,0.247 -1.843,1.305 -3.917,-0.079 -1.781,-1.186 -3.987,-2.33 -4.113,-4.289 -0.115,-1.834 -0.357,-3.022 -0.357,-3.022 0,0 -0.559,-0.136 0.702,0.026 0.525,0.065 2.135,1.859 3.161,1.354 0.86,-0.422 2.005,-0.442 2.005,-0.442 0,0 2.888,-0.833 3.236,-1.42 0.118,-0.197 1.227,-0.673 1.857,-0.928 1.265,-0.507 2.617,0.447 2.617,0.447 0,0 -0.499,0.301 -1.17,3.399 -0.612,2.826 -2.62,4.592 -4.021,4.954"
         style="fill:#2a1412;fill-opacity:1;fill-rule:nonzero;stroke:none;stroke-width:0.1"
         id="path6407" />
      <path
         d="m 266.513,261.861 c -0.988,1.521 0.956,1.473 1.216,0.93 0.254,-0.535 0.67,-1.394 0.336,-2.144 -0.426,-0.948 -1.552,1.214 -1.552,1.214"
         style="fill:#d1a18a;fill-opacity:1;fill-rule:nonzero;stroke:none;stroke-width:0.1"
         id="path6409" />
      <path
         d="m 274.192,220.73 c 0.337,-1.849 0.602,-3.83 -0.743,-3.83 -1.348,0 -1.948,0.468 -3.798,0.13 -1.85,-0.335 -7.231,-1.344 -7.231,0 0,1.348 0.827,1.887 1.796,2.016 2.338,0.311 4.229,3.949 5.098,3.704 1.178,-0.337 4.878,-2.02 4.878,-2.02"
         style="fill:#100f0d;fill-opacity:1;fill-rule:nonzero;stroke:none;stroke-width:0.1"
         id="path6411" />
      <path
         d="m 277.18,238.867 c -2.242,-0.226 -15.083,4.801 -16.241,2.577 -2.332,-4.475 0.11,-8.389 1.454,-11.977 1.346,-3.587 2.605,-9.763 3.029,-10.314 0.62,-0.808 8.874,1.344 9.255,2.057 1.025,1.921 -2.699,9.352 -4.257,11.108 -1.051,1.186 4.801,-1.77 6.372,-2.218 l 0.388,8.767"
         style="fill:#2b398a;fill-opacity:1;fill-rule:nonzero;stroke:none;stroke-width:0.1"
         id="path6413" />
      <path
         d="m 273.871,260.201 c 1.954,-1.056 9.294,-5.985 13.129,-18.718 0,0 -7.841,-7.812 -9.447,-7.812 -0.599,2.209 -8.818,12.233 -9.019,18.248 -0.096,2.805 5.337,8.282 5.337,8.282"
         style="fill:#8190b1;fill-opacity:1;fill-rule:nonzero;stroke:none;stroke-width:0.1"
         id="path6415" />
      <path
         d="m 293.129,226.741 c 1.515,1.346 2.356,2.356 4.039,2.188 1.684,-0.169 2.083,-1.132 2.083,-2.477 0,-1.346 0.546,-3.501 0.471,-5.086 -0.055,-1.139 -1.143,-3.603 -5.011,-3.1 -2.522,0.337 0.336,2.303 0.674,3.643 0.337,1.347 -2.256,4.832 -2.256,4.832"
         style="fill:#211e1e;fill-opacity:1;fill-rule:nonzero;stroke:none;stroke-width:0.1"
         id="path6417" />
      <path
         d="m 278.551,253.939 c 0.015,0.215 2.669,0.022 2.737,-0.099 6.453,-11.7 8.962,-17.792 6.938,-22.128 -1.681,-3.603 -5.132,-5.769 -5.475,-5.94 -0.206,-0.106 0.767,0.537 2.278,0.828 1.184,0.228 4.939,1.163 9.472,2.323 1.58,0.406 2.19,-6.816 0.582,-7.726 -3.963,-2.24 -14.302,-4.074 -16.217,-4.052 -3.175,0.032 -3.992,-1.563 -3.769,4.713 0.223,6.28 0.202,14.45 0.202,14.45 l -3.101,10.21 c 0,0 5.756,-0.821 6.353,7.421"
         style="fill:#212554;fill-opacity:1;fill-rule:nonzero;stroke:none;stroke-width:0.1"
         id="path6419" />
      <path
         d="m 294.909,219.162 c -7.904,-1.627 -14.367,-2.653 -17.55,-2.615 -3.173,0.032 -6.73,0.352 -5.867,5.521 1.319,7.933 3.505,12.151 3.505,12.151 l -5.527,12.147 c 0,0 4.56,0.47 7.146,1.935 0.691,-1.334 3.722,-9.623 4.153,-11.346 0.208,-0.84 -1.944,-5.245 -3.118,-7.974 -1.628,-3.775 -4.213,-7.508 -1.106,-8.018 4.718,-0.772 16.378,2.086 19.393,3.636 0.603,-0.688 -0.392,-5.305 -1.029,-5.437"
         style="fill:#2b398a;fill-opacity:1;fill-rule:nonzero;stroke:none;stroke-width:0.1"
         id="path6421" />
      <path
         d="m 282.391,249.569 c -0.391,1.822 -3.197,6.428 -5.671,7.692 -3.791,1.939 -5.84,-1.537 -6.231,-5.185 -0.391,-3.643 0.46,-4.937 0.46,-4.937 l 0.649,-0.324 c 0,0 -1.109,6.647 0.583,8.597 1.694,1.954 5.298,1.568 8.308,-5.985 0.958,-2.401 1.902,0.142 1.902,0.142"
         style="fill:#212554;fill-opacity:1;fill-rule:nonzero;stroke:none;stroke-width:0.1"
         id="path6423" />
      <path
         d="m 270.721,267.142 c 1,0.022 1.905,-0.477 1.522,-0.907 -0.385,-0.428 -2.588,-1.195 -4.352,-1.904 -1.765,-0.712 -5.694,-3.437 -6.205,-3.925 -0.513,-0.489 -1.059,-0.707 -1.744,-0.692 -0.687,0.015 -2.703,0.228 -2.247,1.029 0.454,0.802 1.732,2.148 2.498,2.88 0.766,0.734 7.694,3.394 8.631,3.375 0.936,-0.021 1.897,0.144 1.897,0.144"
         style="fill:#f46e16;fill-opacity:1;fill-rule:nonzero;stroke:none;stroke-width:0.1"
         id="path6425" />
      <path
         d="m 272.119,266.755 -0.088,-0.235 c -0.384,-0.43 -2.588,-1.191 -4.352,-1.904 -1.764,-0.71 -5.697,-3.435 -6.207,-3.925 -0.51,-0.487 -1.056,-0.706 -1.742,-0.692 -0.496,0.013 -1.675,0.126 -2.129,0.487 0.063,-0.59 1.703,-0.757 2.311,-0.772 0.684,-0.014 1.232,0.204 1.742,0.693 0.511,0.488 4.442,3.213 6.206,3.925 1.765,0.711 3.966,1.475 4.35,1.904 0.158,0.175 0.098,0.36 -0.091,0.519"
         style="fill:#d93e21;fill-opacity:1;fill-rule:nonzero;stroke:none;stroke-width:0.1"
         id="path6427" />
      <path
         d="m 271.377,266.565 c -0.223,0.466 -1.307,2.187 -1.654,2.557 -1.431,1.518 -3.762,1.785 -6.081,1.071 -3.136,-0.966 -4.973,-4.031 -4.108,-6.842 0.065,-0.214 0.368,-1.067 0.459,-1.263 0.744,-0.264 2.212,0.01 2.881,0.395 1.089,0.626 2.666,1.789 3.923,2.33 1.649,0.707 2.596,1.287 4.58,1.752"
         style="fill:#d93e21;fill-opacity:1;fill-rule:nonzero;stroke:none;stroke-width:0.1"
         id="path6429" />
      <path
         d="m 265.635,269.942 c 0.767,0.232 1.532,0.361 2.267,0.374 -1.261,0.427 -2.76,0.38 -4.257,-0.083 -3.137,-0.965 -4.975,-4.028 -4.109,-6.84 0.064,-0.214 0.367,-1.067 0.458,-1.263 0.462,-0.165 1.095,-0.124 1.752,0.027 -0.125,0.332 -0.285,0.791 -0.329,0.94 -0.868,2.813 1.084,5.878 4.218,6.845"
         style="fill:#f46e16;fill-opacity:1;fill-rule:nonzero;stroke:none;stroke-width:0.1"
         id="path6431" />
      <path
         d="m 246.716,266.814 4.112,-36.805 2.256,0.477 -4.234,36.027 -2.134,0.301"
         style="fill:#f46e16;fill-opacity:1;fill-rule:nonzero;stroke:none;stroke-width:0.1"
         id="path6433" />
      <path
         d="m 254.896,243.778 c -0.619,0.373 -3.395,1.352 -3.799,1.225 -0.406,-0.123 -0.29,-0.385 0.055,-0.935 0.347,-0.544 0.423,-0.397 0.423,-0.397 0,0 -1.161,0.09 -2.904,-0.26 -0.884,-0.175 -1.412,-0.99 0.02,-0.895 -0.691,-0.248 -1.189,-0.951 -0.072,-1.07 -0.591,-0.267 -0.715,-0.854 0.221,-0.966 -0.36,-0.112 -0.462,-0.509 0.038,-0.793 0.311,-0.176 1.395,-0.766 3.236,-0.501 2.264,0.326 2.412,1.212 3.996,1.477 l -1.214,3.115"
         style="fill:#5a80c9;fill-opacity:1;fill-rule:nonzero;stroke:none;stroke-width:0.1"
         id="path6435" />
      <path
         d="m 276.863,253.758 c -0.024,-1.445 -1.03,-3.057 -1.03,-3.057 -1.502,-2.201 -4.818,-4.572 -7.471,-6.424 -2.653,-1.85 -11.725,-5.371 -11.725,-5.371 l -2.64,5.4 c 0,0 8.457,3.4 10.562,5.281 2.101,1.88 5.745,5.713 7.05,6.79 3.152,2.601 5.282,-0.922 5.254,-2.619"
         style="fill:#b5c0d2;fill-opacity:1;fill-rule:nonzero;stroke:none;stroke-width:0.1"
         id="path6437" />
      <path
         d="m 247.711,253.079 c -0.481,0.564 -0.512,1.027 -0.281,1.25 0.233,0.22 1.068,0.212 1.737,-0.148 0.671,-0.358 0.699,-0.75 0.612,-0.959 -0.196,-0.473 -1.05,0.061 -1.202,0.042 -0.154,-0.019 -0.866,-0.185 -0.866,-0.185"
         style="fill:#5a80c9;fill-opacity:1;fill-rule:nonzero;stroke:none;stroke-width:0.1"
         id="path6439" />
      <path
         d="m 247.745,253.868 c -0.474,0.444 -0.504,1.268 -0.397,1.441 0.106,0.172 0.83,0.585 1.358,0.334 0.528,-0.245 1.156,-0.683 1.269,-0.952 0.114,-0.271 0.077,-0.583 -0.264,-0.567 -0.339,0.023 -1.347,-0.017 -1.347,-0.017 l -0.619,-0.239"
         style="fill:#5a80c9;fill-opacity:1;fill-rule:nonzero;stroke:none;stroke-width:0.1"
         id="path6441" />
      <path
         d="m 247.584,255.223 c 0.077,-0.579 -0.387,0.583 -0.16,0.95 0.229,0.37 0.821,0.62 1.029,0.602 0.211,-0.013 1.057,-0.531 1.275,-0.722 0.264,-0.226 0.247,-0.76 -0.038,-0.714 -0.281,0.049 -1.315,0.197 -1.315,0.197 l -0.791,-0.313"
         style="fill:#5a80c9;fill-opacity:1;fill-rule:nonzero;stroke:none;stroke-width:0.1"
         id="path6443" />
      <path
         d="m 247.749,256.382 c -0.398,0.362 -0.489,0.786 -0.431,1.132 0.059,0.344 0.541,0.627 0.921,0.383 0.38,-0.248 1.158,-0.914 1.265,-1.193 0.107,-0.285 -0.149,-0.445 -0.427,-0.44 -0.281,0.006 -1.328,0.118 -1.328,0.118"
         style="fill:#5a80c9;fill-opacity:1;fill-rule:nonzero;stroke:none;stroke-width:0.1"
         id="path6445" />
    </g>
  </g>
</svg>
