<?xml version="1.0" encoding="UTF-8" standalone="no"?>
<svg
   xmlns:dc="http://purl.org/dc/elements/1.1/"
   xmlns:cc="http://creativecommons.org/ns#"
   xmlns:rdf="http://www.w3.org/1999/02/22-rdf-syntax-ns#"
   xmlns:svg="http://www.w3.org/2000/svg"
   xmlns="http://www.w3.org/2000/svg"
   xmlns:sodipodi="http://sodipodi.sourceforge.net/DTD/sodipodi-0.dtd"
   xmlns:inkscape="http://www.inkscape.org/namespaces/inkscape"
   width="16.0px"
   height="16.0px"
   viewBox="0 0 16.0 16.0"
   version="1.1"
   id="SVGRoot"
   sodipodi:docname="connect.svg"
   inkscape:version="1.0.1 (0767f8302a, 2020-10-17)">
  <defs
     id="defs12244" />
  <sodipodi:namedview
     id="base"
     pagecolor="#ffffff"
     bordercolor="#666666"
     borderopacity="1.0"
     inkscape:pageopacity="0.0"
     inkscape:pageshadow="2"
     inkscape:zoom="5"
     inkscape:cx="50.2"
     inkscape:cy="38.8"
     inkscape:document-units="px"
     inkscape:current-layer="layer1"
     inkscape:document-rotation="0"
     showgrid="false"
     inkscape:window-width="1366"
     inkscape:window-height="681"
     inkscape:window-x="0"
     inkscape:window-y="57"
     inkscape:window-maximized="0">
    <inkscape:grid
       type="xygrid"
       id="grid12814" />
  </sodipodi:namedview>
  <metadata
     id="metadata12247">
    <rdf:RDF>
      <cc:Work
         rdf:about="">
        <dc:format>image/svg+xml</dc:format>
        <dc:type
           rdf:resource="http://purl.org/dc/dcmitype/StillImage" />
        <dc:title></dc:title>
      </cc:Work>
    </rdf:RDF>
  </metadata>
  <g
     inkscape:label="Layer 1"
     inkscape:groupmode="layer"
     id="layer1">
    <path
       d="m 2.272319,6.8179512 v 0 H 1.6724353 c -0.5270067,0 -0.95408589,1.1471252 -0.95408589,2.5697759 0,1.4232909 0.42707919,2.5772779 0.95408589,2.5772779 H 2.272319 c -0.5308255,0 -0.9585412,-1.153987 -0.9585412,-2.5772779 0,-1.4226507 0.4277157,-2.5697759 0.9585412,-2.5697759"
       style="fill:#000080;fill-opacity:1;fill-rule:nonzero;stroke:none;stroke-width:0.159533"
       id="path2639" />
    <path
       d="m 2.5794213,11.64324 c -0.1261824,0 -0.2251552,-0.138707 -0.2251552,-0.312394 0,-0.164329 0.098972,-0.303036 0.2251552,-0.303036 0.1198176,0 0.2237233,0.138707 0.2237233,0.303036 0,0.173687 -0.1039056,0.312394 -0.2237233,0.312394 z M 1.8882024,9.5951621 c -0.099449,0 -0.17726,-0.138705 -0.17726,-0.312392 0,-0.1730637 0.077809,-0.3123929 0.17726,-0.3123929 0.098814,0 0.1807608,0.1393292 0.1807608,0.3123929 0,0.173687 -0.081947,0.312392 -0.1807608,0.312392 z M 2.5794213,7.0884859 c 0.1198176,0 0.2237233,0.1374579 0.2237233,0.3124082 0,0.1736871 -0.1039056,0.3123937 -0.2237233,0.3123937 -0.1261824,0 -0.2251552,-0.1387066 -0.2251552,-0.3123937 0,-0.1749503 0.098972,-0.3124082 0.2251552,-0.3124082 z m 0.0471,3.7656371 C 2.3157589,10.637315 2.1728689,9.9687841 2.1728689,9.3877271 c 0,-0.5735552 0.14289,-1.2414625 0.4536521,-1.4663799 h 0.2673222 0.013047 0.3922317 C 3.1269545,7.2528149 2.837992,6.8179512 2.5133864,6.8179512 c -0.5301891,0 -0.9577455,1.1471252 -0.9577455,2.5697759 0,1.4232909 0.4275564,2.5772779 0.9577455,2.5772779 0.3246056,0 0.6135681,-0.443597 0.7857365,-1.110882 H 2.626521"
       style="fill:#000080;fill-opacity:1;fill-rule:nonzero;stroke:none;stroke-width:0.159533"
       id="path2641" />
    <path
       d="m 13.305088,6.8179512 v 0 h 0.596066 c 0.530188,0 0.957744,1.1471252 0.957744,2.5697759 0,1.4232909 -0.427556,2.5772779 -0.954087,2.5772779 h -0.599723 c 0.530825,0 0.957746,-1.153987 0.957746,-2.5772779 -10e-7,-1.4226507 -0.431376,-2.5697759 -0.957746,-2.5697759"
       style="fill:#000080;fill-opacity:1;fill-rule:nonzero;stroke:none;stroke-width:0.159533"
       id="path2643" />
    <path
       d="m 13.689842,9.5951621 c -0.09944,0 -0.182195,-0.138705 -0.182195,-0.312392 0,-0.1730637 0.08274,-0.3123929 0.182195,-0.3123929 0.09818,0 0.175826,0.1393292 0.175826,0.3123929 0,0.173687 -0.07766,0.312392 -0.175826,0.312392 z M 12.998623,11.64324 c -0.12491,0 -0.224362,-0.138707 -0.224362,-0.312394 0,-0.164329 0.09944,-0.303036 0.224362,-0.303036 0.124909,0 0.22436,0.138707 0.22436,0.303036 0,0.173687 -0.09944,0.312394 -0.22436,0.312394 z m 0,-3.9299522 c -0.12491,0 -0.224362,-0.1387066 -0.224362,-0.3123937 0,-0.1749503 0.09944,-0.3124082 0.224362,-0.3124082 0.124909,0 0.22436,0.1374579 0.22436,0.3124082 0,0.1736871 -0.09944,0.3123937 -0.22436,0.3123937 z m 0.0646,-0.8953366 c -0.323808,0 -0.612772,0.4348637 -0.785577,1.103396 h 0.388413 0.01751 0.267798 c 0.310763,0.2249174 0.448242,0.8928247 0.448242,1.4663799 0,0.581057 -0.137479,1.2495879 -0.448242,1.4663959 h -0.673719 c 0.172805,0.667285 0.461769,1.110882 0.785577,1.110882 0.530827,0 0.957906,-1.153987 0.957906,-2.5772779 0,-1.4226507 -0.42708,-2.5697759 -0.957906,-2.5697759"
       style="fill:#000080;fill-opacity:1;fill-rule:nonzero;stroke:none;stroke-width:0.159533"
       id="path2645" />
    <path
       d="m 7.6847987,11.322721 c -1.2257048,0 -2.2743076,-0.582303 -2.6975677,-1.3976679 0.5227104,0.5810579 1.4029642,0.9634269 2.3955567,0.9634269 1.606162,0 2.9052183,-0.9884099 2.9052183,-2.2130135 0,-0.286162 -0.07399,-0.5635585 -0.202718,-0.8059902 0.314581,0.3467648 0.504729,0.781006 0.504729,1.2402301 0,1.2233416 -1.2996941,2.2130146 -2.9052183,2.2130146 z M 10.33081,7.5995654 C 9.5719664,7.7913893 8.7073062,7.9038486 7.7887047,7.9038486 c -0.9193976,0 -1.782626,-0.1124629 -2.5422667,-0.3042832 -0.5096626,0.4429898 -0.8240844,1.0321707 -0.8240844,1.6757032 0,1.4132784 1.5059152,2.5679044 3.3663511,2.5679044 1.8559798,0 3.3663493,-1.154626 3.3663493,-2.5679044 0,-0.6435325 -0.314581,-1.2327134 -0.824244,-1.6757032"
       style="fill:#000080;fill-opacity:1;fill-rule:nonzero;stroke:none;stroke-width:0.159533"
       id="path2647" />
    <path
       d="M 4.4825011,10.559229 C 4.2365009,10.168717 4.0977481,9.7344931 4.0977481,9.2752686 c 0,-0.3736215 0.091494,-0.7291363 0.2549107,-1.0515251 H 2.9242352 2.9068911 c -0.2374076,0 -0.4320118,0.5223233 -0.4320118,1.1639836 0,0.6416769 0.1946042,1.1715019 0.4320118,1.1715019 l 0.017343,-0.0094 v 0.0094 h 1.5582664"
       style="fill:#000080;fill-opacity:1;fill-rule:nonzero;stroke:none;stroke-width:0.159533"
       id="path2649" />
    <path
       d="m 12.674813,8.2237435 h -1.450702 c 0.160235,0.3223888 0.251092,0.6779036 0.251092,1.0515251 0,0.4592245 -0.137957,0.8934484 -0.379819,1.2839604 h 1.579429 c 0.241704,0 0.435672,-0.529825 0.435672,-1.1715019 0,-0.6416603 -0.193968,-1.1639836 -0.435672,-1.1639836"
       style="fill:#000080;fill-opacity:1;fill-rule:nonzero;stroke:none;stroke-width:0.159533"
       id="path2651" />
    <path
       d="m 7.9608721,7.5570826 c -1.3935759,0 -2.8697357,-0.2611611 -3.4696194,-0.8165947 0.6905823,0.4429743 2.0065075,0.6510337 3.2583083,0.6510337 1.8044251,0 3.746806,-0.4342412 3.746806,-1.3889175 0,-0.2168093 -0.09897,-0.40737 -0.276074,-0.5729478 0.302169,0.1924489 0.488022,0.4436137 0.488022,0.7297601 0,0.9634418 -1.9423814,1.3976662 -3.7474429,1.3976662 z M 4.3483627,6.1075611 c 0,-0.1124629 0.2331113,-0.2948951 0.6818307,-0.4604717 l 1.6707639,0.3898714 -0.00871,0.070597 0.1336612,0.2592909 -0.694243,0.4779703 C 4.9662271,6.6542604 4.3483627,6.2887493 4.3483627,6.1075611 Z M 4.3178116,5.8201515 4.3054001,5.9594819 C 4.2444566,5.812666 4.2444566,5.7682974 4.2619602,5.7076934 4.309219,5.4902603 5.2806488,4.9435766 7.5076976,4.9435766 c 2.0251245,0 3.1992734,0.4342256 3.4018324,0.6691561 C 10.438375,5.3778022 9.3643139,5.1003889 7.7457421,5.1003889 c -2.2319818,0 -3.3408917,0.5042177 -3.4279305,0.7197626 z m 4.5667543,0.269911 C 8.8764507,5.9594819 8.7770045,5.812666 8.617881,5.6827092 l 0.5263691,-0.365511 c 1.3593649,0.1830596 2.0847949,0.5904284 2.0847949,0.7903629 0,0.094973 -0.185853,0.2517885 -0.540214,0.3986201 z M 7.3051377,6.5836601 c 0.1473448,0.036228 0.3107622,0.061228 0.483567,0.061228 0.3107621,0 0.5873128,-0.061228 0.7849404,-0.1636897 l 1.251959,0.294894 C 9.2954148,6.8960528 8.6127886,6.9747792 7.7887047,6.9747792 c -0.3537247,0 -0.6824678,-0.017502 -0.9846374,-0.042478 z M 8.1510218,5.4559036 7.7887047,5.4046686 c -0.3064659,0 -0.5780844,0.103082 -0.7769852,0.2424161 L 5.9538872,5.3952996 c 0.5002744,-0.094976 1.1138422,-0.156204 1.8348175,-0.156204 0.2286559,0 0.4444231,0.00936 0.646983,0.016878 z m -0.013044,0.1911858 c 0.2722557,0.094973 0.4624041,0.2949107 0.4624041,0.4429731 0,0.2080593 -0.3456093,0.3811382 -0.7682327,0.3811382 -0.2249971,0 -0.4275569,-0.051247 -0.5706065,-0.1293329 0.1249099,0.043726 0.2722557,0.068725 0.4320118,0.068725 0.4226245,0 0.768234,-0.1737027 0.768234,-0.3736371 0,-0.129333 -0.1292061,-0.2855214 -0.3238107,-0.3898702 z M 7.7887094,4.4756038 c -2.0201927,0 -4.191231,0.512327 -4.191231,1.6319573 0,1.1183827 2.1710383,1.6226004 4.191231,1.6226004 2.0200324,0 4.1918656,-0.5042177 4.1918656,-1.6226004 0,-1.1196303 -2.1718332,-1.6319573 -4.1918656,-1.6319573"
       style="fill:#000080;fill-opacity:1;fill-rule:nonzero;stroke:none;stroke-width:0.159533"
       id="path2653" />
  </g>
</svg>
