<?xml version="1.0" encoding="UTF-8" standalone="no"?>
<svg
   xmlns:dc="http://purl.org/dc/elements/1.1/"
   xmlns:cc="http://creativecommons.org/ns#"
   xmlns:rdf="http://www.w3.org/1999/02/22-rdf-syntax-ns#"
   xmlns:svg="http://www.w3.org/2000/svg"
   xmlns="http://www.w3.org/2000/svg"
   xmlns:sodipodi="http://sodipodi.sourceforge.net/DTD/sodipodi-0.dtd"
   xmlns:inkscape="http://www.inkscape.org/namespaces/inkscape"
   width="16.0px"
   height="16.0px"
   viewBox="0 0 16.0 16.0"
   version="1.1"
   id="SVGRoot"
   sodipodi:docname="heater.svg"
   inkscape:version="1.0.1 (0767f8302a, 2020-10-17)">
  <defs
     id="defs13522" />
  <sodipodi:namedview
     id="base"
     pagecolor="#ffffff"
     bordercolor="#666666"
     borderopacity="1.0"
     inkscape:pageopacity="0.0"
     inkscape:pageshadow="2"
     inkscape:zoom="5"
     inkscape:cx="-48.759855"
     inkscape:cy="38.8"
     inkscape:document-units="px"
     inkscape:current-layer="layer1"
     inkscape:document-rotation="0"
     showgrid="false"
     inkscape:window-width="1366"
     inkscape:window-height="681"
     inkscape:window-x="0"
     inkscape:window-y="57"
     inkscape:window-maximized="0">
    <inkscape:grid
       type="xygrid"
       id="grid14092" />
  </sodipodi:namedview>
  <metadata
     id="metadata13525">
    <rdf:RDF>
      <cc:Work
         rdf:about="">
        <dc:format>image/svg+xml</dc:format>
        <dc:type
           rdf:resource="http://purl.org/dc/dcmitype/StillImage" />
        <dc:title></dc:title>
      </cc:Work>
    </rdf:RDF>
  </metadata>
  <g
     inkscape:label="Layer 1"
     inkscape:groupmode="layer"
     id="layer1">
    <path
       d="M 6.1488423,6.4673102 H 9.8851579 V 7.6696079 H 6.1488423 V 6.4673102"
       style="fill:#000080;fill-opacity:1;fill-rule:nonzero;stroke:none;stroke-width:0.211434"
       id="path2671" />
    <path
       d="m 8.0236631,12.190429 c -0.6131958,0 -1.1028496,-0.440723 -1.1028496,-0.977305 0,-0.537375 0.4896538,-0.966499 1.1028496,-0.966499 0.6131958,0 1.1028478,0.429124 1.1028478,0.966499 0,0.536582 -0.489652,0.977305 -1.1028478,0.977305 z m 0,-2.073688 c -0.6863728,0 -1.2510109,0.494837 -1.2510109,1.096383 0,0.612352 0.5646381,1.105646 1.2510109,1.105646 0.6987938,0 1.2616248,-0.493294 1.2616248,-1.105646 0,-0.601546 -0.562831,-1.096383 -1.2616248,-1.096383"
       style="fill:#000080;fill-opacity:1;fill-rule:nonzero;stroke:none;stroke-width:0.211434"
       id="path2673" />
    <path
       d="m 11.355925,12.436284 c 0,0.365725 -1.6058281,0.666487 -3.5775402,0.666487 L 7.4712211,13.091931 C 9.2974839,13.070301 10.742729,12.780342 10.742729,12.43627 V 1.6874907 c 0,-0.3425472 -1.4452451,-0.6232185 -3.2715079,-0.6556804 h 0.3071637 c 1.9717121,0 3.5775402,0.2899747 3.5775402,0.6556804 z m -4.7289492,-1.22316 c 0,-0.665715 0.6247144,-1.2139169 1.3966873,-1.2139169 0.7719708,0 1.3955558,0.5482019 1.3955558,1.2139169 0,0.676523 -0.623585,1.22316 -1.3955558,1.22316 -0.7719729,0 -1.3966873,-0.546637 -1.3966873,-1.22316 z M 5.6212449,6.2956603 H 10.411851 V 7.8412578 H 5.6212449 Z M 8.0236631,0.78676602 c -2.0584408,0 -3.7257016,0.31075928 -3.7257016,0.68584568 V 12.652785 c 0,0.386589 1.6672608,0.697406 3.7257016,0.697406 2.0573109,0 3.7363169,-0.310817 3.7363169,-0.697406 V 1.4726117 c 0,-0.3750864 -1.679006,-0.68584568 -3.7363169,-0.68584568"
       style="fill:#000080;fill-opacity:1;fill-rule:nonzero;stroke:none;stroke-width:0.211434"
       id="path2675" />
    <path
       d="m 8.0844169,10.481674 -0.060761,0.141504 -0.048564,-0.141504 0.048564,-0.126792 0.060761,0.126792"
       style="fill:#000080;fill-opacity:1;fill-rule:nonzero;stroke:none;stroke-width:0.211434"
       id="path2677" />
    <path
       d="m 8.6472479,10.729092 -0.1587705,0.06419 0.073398,-0.127594 0.160582,-0.06572 -0.07521,0.129108"
       style="fill:#000080;fill-opacity:1;fill-rule:nonzero;stroke:none;stroke-width:0.211434"
       id="path2679" />
    <path
       d="m 9.0029689,11.203068 -0.15877,0.0518 -0.159685,-0.0518 0.159685,-0.04485 0.15877,0.04485"
       style="fill:#000080;fill-opacity:1;fill-rule:nonzero;stroke:none;stroke-width:0.211434"
       id="path2681" />
    <path
       d="m 8.243194,10.418275 -0.04765,0.03325 -0.037723,-0.05411 0.048327,-0.03325 0.037046,0.05411"
       style="fill:#000080;fill-opacity:1;fill-rule:nonzero;stroke:none;stroke-width:0.211434"
       id="path2683" />
    <path
       d="m 8.4152954,10.460811 -0.060761,0.02086 -0.02485,-0.05179 0.061879,-0.0232 0.023715,0.05414"
       style="fill:#000080;fill-opacity:1;fill-rule:nonzero;stroke:none;stroke-width:0.211434"
       id="path2685" />
    <path
       d="m 8.5618749,10.547409 -0.060083,0.01009 -0.013382,-0.06342 0.061878,-0.01232 0.01152,0.06574"
       style="fill:#000080;fill-opacity:1;fill-rule:nonzero;stroke:none;stroke-width:0.211434"
       id="path2687" />
    <path
       d="m 8.8062499,10.762345 -0.05917,-0.01158 0.01067,-0.05411 0.06166,0.01158 -0.01304,0.05411"
       style="fill:#000080;fill-opacity:1;fill-rule:nonzero;stroke:none;stroke-width:0.211434"
       id="path2689" />
    <path
       d="m 8.8918489,10.901514 -0.05917,-0.02086 0.02372,-0.05491 0.06008,0.02166 -0.02461,0.05411"
       style="fill:#000080;fill-opacity:1;fill-rule:nonzero;stroke:none;stroke-width:0.211434"
       id="path2691" />
    <path
       d="m 8.9428909,11.052301 -0.06166,-0.03325 0.03523,-0.05334 0.06166,0.03247 -0.03523,0.05414"
       style="fill:#000080;fill-opacity:1;fill-rule:nonzero;stroke:none;stroke-width:0.211434"
       id="path2693" />
    <path
       d="m 7.5577241,10.793283 -0.1472517,-0.06419 -0.073177,-0.139173 0.1454562,0.06418 0.074989,0.139188"
       style="fill:#000080;fill-opacity:1;fill-rule:nonzero;stroke:none;stroke-width:0.211434"
       id="path2695" />
    <path
       d="m 7.3610051,11.203068 -0.1578725,0.04252 -0.1614806,-0.04252 0.1614806,-0.05414 0.1578725,0.05414"
       style="fill:#000080;fill-opacity:1;fill-rule:nonzero;stroke:none;stroke-width:0.211434"
       id="path2697" />
    <path
       d="m 7.8886008,10.385813 -0.037944,0.05334 -0.048564,-0.03248 0.037944,-0.05179 0.048564,0.03094"
       style="fill:#000080;fill-opacity:1;fill-rule:nonzero;stroke:none;stroke-width:0.211434"
       id="path2699" />
    <path
       d="m 7.6927847,10.481674 -0.061879,-0.02086 0.023935,-0.05414 0.061658,0.0232 -0.023715,0.05179"
       style="fill:#000080;fill-opacity:1;fill-rule:nonzero;stroke:none;stroke-width:0.211434"
       id="path2701" />
    <path
       d="m 7.5446251,10.547409 -0.061879,-0.01084 0.013382,-0.05491 0.061658,0.01232 -0.013043,0.05337"
       style="fill:#000080;fill-opacity:1;fill-rule:nonzero;stroke:none;stroke-width:0.211434"
       id="path2703" />
    <path
       d="m 7.3002496,10.750747 -0.062793,0.01158 -0.010672,-0.06572 0.061878,-0.01009 0.011519,0.06418"
       style="fill:#000080;fill-opacity:1;fill-rule:nonzero;stroke:none;stroke-width:0.211434"
       id="path2705" />
    <path
       d="m 7.2137466,10.880652 -0.061879,0.02086 -0.023715,-0.06418 0.074989,-0.01158 0.010672,0.05491"
       style="fill:#000080;fill-opacity:1;fill-rule:nonzero;stroke:none;stroke-width:0.211434"
       id="path2707" />
    <path
       d="m 7.165189,11.019048 -0.061658,0.02166 -0.035454,-0.04253 0.060083,-0.03247 0.037046,0.05334"
       style="fill:#000080;fill-opacity:1;fill-rule:nonzero;stroke:none;stroke-width:0.211434"
       id="path2709" />
    <path
       d="m 7.9132201,11.137334 -0.1348353,0.02089 -0.02485,-0.513384 z"
       style="fill:#000080;fill-opacity:1;fill-rule:nonzero;stroke:none;stroke-width:0.211434"
       id="path2711" />
    <path
       d="m 8.0959355,12.049697 v -0.773175 c 0.2956451,0.01158 0.5761564,0.129108 0.7719734,0.323189 -0.145457,0.256702 -0.4410949,0.429124 -0.7719734,0.449986 z m -0.072279,-0.846629 c -0.368822,0 -0.7112173,0.149223 -0.9307482,0.386588 0.1587703,0.310818 0.5133685,0.525775 0.9307482,0.525775 0.4164752,0 0.7719714,-0.214957 0.9307464,-0.525775 -0.221564,-0.237365 -0.5522148,-0.386588 -0.9307464,-0.386588"
       style="fill:#000080;fill-opacity:1;fill-rule:nonzero;stroke:none;stroke-width:0.211434"
       id="path2713" />
    <path
       d="m 6.3067148,13.499414 h 0.6996971 v 1.06313 H 6.3067148 v -1.06313"
       style="fill:#000080;fill-opacity:1;fill-rule:nonzero;stroke:none;stroke-width:0.211434"
       id="path2715" />
    <path
       d="m 9.0266839,13.499414 h 0.699699 v 1.06313 h -0.699699 v -1.06313"
       style="fill:#000080;fill-opacity:1;fill-rule:nonzero;stroke:none;stroke-width:0.211434"
       id="path2717" />
  </g>
</svg>
