<?xml version="1.0" encoding="UTF-8" standalone="no"?>
<svg
   xmlns:dc="http://purl.org/dc/elements/1.1/"
   xmlns:cc="http://creativecommons.org/ns#"
   xmlns:rdf="http://www.w3.org/1999/02/22-rdf-syntax-ns#"
   xmlns:svg="http://www.w3.org/2000/svg"
   xmlns="http://www.w3.org/2000/svg"
   xmlns:sodipodi="http://sodipodi.sourceforge.net/DTD/sodipodi-0.dtd"
   xmlns:inkscape="http://www.inkscape.org/namespaces/inkscape"
   width="16.0px"
   height="16.0px"
   viewBox="0 0 16.0 16.0"
   version="1.1"
   id="SVGRoot"
   sodipodi:docname="leakage.svg"
   inkscape:version="1.0.1 (0767f8302a, 2020-10-17)">
  <defs
     id="defs11583" />
  <sodipodi:namedview
     id="base"
     pagecolor="#ffffff"
     bordercolor="#666666"
     borderopacity="1.0"
     inkscape:pageopacity="0.0"
     inkscape:pageshadow="2"
     inkscape:zoom="5"
     inkscape:cx="33.729412"
     inkscape:cy="38.8"
     inkscape:document-units="px"
     inkscape:current-layer="layer1"
     inkscape:document-rotation="0"
     showgrid="false"
     inkscape:window-width="1366"
     inkscape:window-height="681"
     inkscape:window-x="0"
     inkscape:window-y="57"
     inkscape:window-maximized="0">
    <inkscape:grid
       type="xygrid"
       id="grid12153" />
  </sodipodi:namedview>
  <metadata
     id="metadata11586">
    <rdf:RDF>
      <cc:Work
         rdf:about="">
        <dc:format>image/svg+xml</dc:format>
        <dc:type
           rdf:resource="http://purl.org/dc/dcmitype/StillImage" />
        <dc:title></dc:title>
      </cc:Work>
    </rdf:RDF>
  </metadata>
  <g
     inkscape:label="Layer 1"
     inkscape:groupmode="layer"
     id="layer1">
    <path
       d="m 4.0934107,3.3900719 h 0.022844 -0.022844"
       style="fill:#000080;fill-opacity:1;fill-rule:nonzero;stroke:none;stroke-width:0.176096"
       id="path2459" />
    <path
       d="m 7.9681873,12.823815 c 1.2152271,-0.906252 0,-1.801629 0,-3.6054281 0,0.9069751 0.8073223,1.8037991 0.8073223,2.6991761 0,0.906252 -0.8073223,0.906252 -0.8073223,0.906252 z m 0,-4.0476965 C 7.5602826,10.125362 6.7536131,11.022186 6.7536131,11.917563 c 0,1.803817 2.4298013,1.803817 2.4298013,0 0,-0.895377 -0.811232,-1.792201 -1.2152271,-3.1414445"
       style="fill:#000080;fill-opacity:1;fill-rule:nonzero;stroke:none;stroke-width:0.176096"
       id="path2615" />
    <path
       d="m 2.1720109,3.8917694 v 0 H 1.5422095 c -0.55344639,0 -1.00639544,1.3398163 -1.00639544,2.9812153 0,1.6515703 0.44837103,2.9913678 1.00639544,2.9913678 H 2.167433 c -0.5534467,0 -1.0018177,-1.3397975 -1.0018177,-2.9913678 0,-1.641399 0.448371,-2.9812153 1.0063956,-2.9812153"
       style="fill:#000080;fill-opacity:1;fill-rule:nonzero;stroke:none;stroke-width:0.176096"
       id="path2617" />
    <path
       d="M 2.5433589,8.5840021 C 2.2170384,8.3237163 2.067587,7.5472548 2.067587,6.8729847 c 0,-0.6648225 0.1494514,-1.4405782 0.4757719,-1.690694 l 0.27608,-0.01086 h 0.014348 0.4118307 C 3.0648233,4.3956717 2.7659196,3.8917832 2.4206695,3.8917832 c -0.5521433,0 -1.0057439,1.3398165 -1.0057439,2.9812154 0,1.6515703 0.4536006,2.9913676 1.0057439,2.9913676 0.3452501,0 0.6441538,-0.5038692 0.8249492,-1.2803503 H 2.5433589"
       style="fill:#000080;fill-opacity:1;fill-rule:nonzero;stroke:none;stroke-width:0.176096"
       id="path2619" />
    <path
       d="m 2.7248058,4.5674871 c 0,0.2015445 -0.1044231,0.3632206 -0.2316873,0.3632206 -0.1311899,0 -0.2356137,-0.1616761 -0.2356137,-0.3632206 0,-0.2008387 0.1044231,-0.3625162 0.2356137,-0.3625162 0.1272634,0 0.2316873,0.1616775 0.2316873,0.3625162"
       style="fill:#000080;fill-opacity:1;fill-rule:nonzero;stroke:none;stroke-width:0.176096"
       id="path2621" />
    <path
       d="m 2.7248058,9.1386333 c 0,0.1906687 -0.1044231,0.3624981 -0.2316873,0.3624981 -0.1311899,0 -0.2356137,-0.1718294 -0.2356137,-0.3624981 0,-0.2008388 0.1044231,-0.3625148 0.2356137,-0.3625148 0.1272634,0 0.2316873,0.161676 0.2316873,0.3625148"
       style="fill:#000080;fill-opacity:1;fill-rule:nonzero;stroke:none;stroke-width:0.176096"
       id="path2623" />
    <path
       d="m 1.9592368,6.7519177 c 0,0.2008193 -0.086797,0.3624967 -0.191221,0.3624967 -0.1031198,0 -0.1899178,-0.1616774 -0.1899178,-0.3624967 0,-0.1899449 0.086797,-0.3624981 0.1899178,-0.3624981 0.1044231,0 0.191221,0.1725532 0.191221,0.3624981"
       style="fill:#000080;fill-opacity:1;fill-rule:nonzero;stroke:none;stroke-width:0.176096"
       id="path2625" />
    <path
       d="m 13.756579,3.8917694 v 0 h 0.625206 c 0.558041,0 1.006312,1.3398163 1.006312,2.9812153 0,1.6515703 -0.448271,2.9913678 -1.006312,2.9913678 h -0.625206 c 0.552694,0 1.005643,-1.3397975 1.005643,-2.9913678 0,-1.641399 -0.452949,-2.9812153 -1.005643,-2.9812153"
       style="fill:#000080;fill-opacity:1;fill-rule:nonzero;stroke:none;stroke-width:0.176096"
       id="path2627" />
    <path
       d="m 13.384495,8.5840021 c 0.322462,-0.2602858 0.471161,-1.0367473 0.471161,-1.7110174 0,-0.6648225 -0.148699,-1.4405782 -0.471161,-1.690694 l -0.280692,-0.01086 h -0.0182 -0.40717 c 0.180778,-0.7757613 0.484193,-1.2796498 0.824197,-1.2796498 0.557373,0 1.006479,1.3398164 1.006479,2.9812153 0,1.6515704 -0.449106,2.9913681 -1.006479,2.9913681 -0.340004,0 -0.643419,-0.5038697 -0.824197,-1.2803507 h 0.706072"
       style="fill:#000080;fill-opacity:1;fill-rule:nonzero;stroke:none;stroke-width:0.176096"
       id="path2629" />
    <path
       d="m 13.198537,4.5674871 c 0,0.2015445 0.104422,0.3632206 0.23558,0.3632206 0.127313,0 0.235581,-0.1616761 0.235581,-0.3632206 0,-0.2008387 -0.108268,-0.3625162 -0.235581,-0.3625162 -0.131156,0 -0.23558,0.1616775 -0.23558,0.3625162"
       style="fill:#000080;fill-opacity:1;fill-rule:nonzero;stroke:none;stroke-width:0.176096"
       id="path2631" />
    <path
       d="m 13.198537,9.1386333 c 0,0.1906687 0.104422,0.3624981 0.23558,0.3624981 0.127313,0 0.235581,-0.1718294 0.235581,-0.3624981 0,-0.2008388 -0.108268,-0.3625148 -0.235581,-0.3625148 -0.131156,0 -0.23558,0.161676 -0.23558,0.3625148"
       style="fill:#000080;fill-opacity:1;fill-rule:nonzero;stroke:none;stroke-width:0.176096"
       id="path2633" />
    <path
       d="m 13.969269,6.7519177 c 0,0.2008193 0.08154,0.3624967 0.185958,0.3624967 0.103918,0 0.189968,-0.1616774 0.189968,-0.3624967 0,-0.1899449 -0.08605,-0.3624981 -0.189968,-0.3624981 -0.104422,0 -0.185958,0.1725532 -0.185958,0.3624981"
       style="fill:#000080;fill-opacity:1;fill-rule:nonzero;stroke:none;stroke-width:0.176096"
       id="path2635" />
    <path
       d="M 13.094781,5.5230344 H 2.8377177 c -0.2486629,0 -0.4529494,0.6053755 -0.4529494,1.3499503 0,0.7561938 0.2042865,1.3601202 0.4529494,1.3601202 h 0.013697 0.00527 4.3681932 L 7.0760536,7.6893509 8.2129702,7.1760525 7.6419137,6.2081622 l 1.3424905,1.1977009 -0.952213,0.3828018 0.5710741,0.44444 h 4.4915627 c 0.248612,0 0.45746,-0.6039264 0.45746,-1.3601202 0,-0.7445748 -0.208848,-1.3499503 -0.45746,-1.3499503"
       style="fill:#000080;fill-opacity:1;fill-rule:nonzero;stroke:none;stroke-width:0.176096"
       id="path2637" />
  </g>
</svg>
