<?xml version="1.0" encoding="UTF-8" standalone="no"?>
<svg
   xmlns:dc="http://purl.org/dc/elements/1.1/"
   xmlns:cc="http://creativecommons.org/ns#"
   xmlns:rdf="http://www.w3.org/1999/02/22-rdf-syntax-ns#"
   xmlns:svg="http://www.w3.org/2000/svg"
   xmlns="http://www.w3.org/2000/svg"
   xmlns:sodipodi="http://sodipodi.sourceforge.net/DTD/sodipodi-0.dtd"
   xmlns:inkscape="http://www.inkscape.org/namespaces/inkscape"
   width="16.0px"
   height="16.0px"
   viewBox="0 0 16.0 16.0"
   version="1.1"
   id="SVGRoot"
   sodipodi:docname="pipe.svg"
   inkscape:version="1.0.1 (0767f8302a, 2020-10-17)">
  <defs
     id="defs9004" />
  <sodipodi:namedview
     id="base"
     pagecolor="#ffffff"
     bordercolor="#666666"
     borderopacity="1.0"
     inkscape:pageopacity="0.0"
     inkscape:pageshadow="2"
     inkscape:zoom="5"
     inkscape:cx="50.2"
     inkscape:cy="38.8"
     inkscape:document-units="px"
     inkscape:current-layer="layer1"
     inkscape:document-rotation="0"
     showgrid="false"
     inkscape:window-width="1366"
     inkscape:window-height="681"
     inkscape:window-x="0"
     inkscape:window-y="57"
     inkscape:window-maximized="0">
    <inkscape:grid
       type="xygrid"
       id="grid9574" />
  </sodipodi:namedview>
  <metadata
     id="metadata9007">
    <rdf:RDF>
      <cc:Work
         rdf:about="">
        <dc:format>image/svg+xml</dc:format>
        <dc:type
           rdf:resource="http://purl.org/dc/dcmitype/StillImage" />
        <dc:title></dc:title>
      </cc:Work>
    </rdf:RDF>
  </metadata>
  <g
     inkscape:label="Layer 1"
     inkscape:groupmode="layer"
     id="layer1">
    <path
       d="m 1.2431109,12.596561 h 0.4053462 v 0.654627 H 1.2431109 v -0.654627"
       style="fill:#000080;fill-opacity:1;fill-rule:nonzero;stroke:none;stroke-width:0.191235"
       id="path2555" />
    <path
       d="M 1.305994,2.6647793 H 1.6484571 V 3.3180867 H 1.305994 V 2.6647793"
       style="fill:#000080;fill-opacity:1;fill-rule:nonzero;stroke:none;stroke-width:0.191235"
       id="path2557" />
    <path
       d="M 2.4743177,12.791705 C 2.4531179,12.48381 2.4015812,12.167055 2.2326189,11.901962 2.1424649,11.758291 2.0113834,11.614808 1.8333243,11.603683 v 0.860142 0.992122 0.788116 h 0.035612 l 0.1318379,-0.0626 0.3265581,-0.41838 C 2.4485594,13.476682 2.5008333,13.098839 2.4743184,12.7917"
       style="fill:#000080;fill-opacity:1;fill-rule:nonzero;stroke:none;stroke-width:0.191235"
       id="path2559" />
    <path
       d="M 2.4743177,2.8576605 C 2.4531179,2.55203 2.4015812,2.2390448 2.2326189,1.9739519 2.1424649,1.8302809 2.0113834,1.6866098 1.8333243,1.6719033 v 0.8603295 0.9919328 0.7858553 h 0.035612 L 2.000774,4.2608107 2.3273321,3.8299856 C 2.4485592,3.553768 2.5008331,3.1647998 2.4743182,2.8576605"
       style="fill:#000080;fill-opacity:1;fill-rule:nonzero;stroke:none;stroke-width:0.191235"
       id="path2561" />
    <path
       d="M 11.877041,13.220266 H 2.9637863 l 0.037125,-0.192881 h 8.6230647 c 1.304719,0 2.173756,-0.900866 2.173756,-2.037225 0,-0.603156 -0.253124,-1.1444674 -0.684111,-1.5126952 0.589457,0.3563495 0.941695,0.9809992 0.941695,1.7078392 0,1.135038 -0.868183,2.034962 -2.178275,2.034962 z m -0.0045,-3.2625779 c -3.415592,0 -3.415592,0 -7.4820313,0 -0.6114337,0 -1.1266605,-0.1842072 -1.5054919,-0.4802233 0.3424631,0.1928812 0.7629767,0.3071393 1.2463752,0.3071393 4.0679522,0 4.0679522,0 7.482011,0 0.400808,0 0.710705,0.1118117 0.922088,0.3056319 C 12.35591,10.009167 12.129379,9.9576938 11.872531,9.9576938 Z M 2.5273961,7.7075956 c 0,-0.6246482 0.500059,-1.1968818 1.1736192,-1.2483545 h 7.8237377 c 1.383508,0 2.293569,-0.9095397 2.293569,-2.0562682 0,-0.6025884 -0.263016,-1.1461628 -0.720578,-1.5232527 0.625729,0.3684159 0.994842,0.9906135 0.994842,1.7183965 0,1.1444659 -0.916092,2.0562681 -2.300376,2.0562681 H 3.9684909 c -0.799345,0 -1.2312256,0.5929741 -1.2782038,1.1046835 -0.026515,0.3056319 0.1416908,0.828654 0.3470213,1.0215352 C 2.6637722,8.5973381 2.5273961,8.1361582 2.5273961,7.7075956 Z M 11.724769,3.2775491 H 2.9107371 l 0.037125,-0.193823 h 8.5238119 c 0.389461,0 0.700096,0.1334896 0.905425,0.3580464 C 12.198284,3.349758 11.982364,3.2775491 11.72474,3.2775491 Z m 0.325801,5.8712822 c -3.5777264,0 -3.5777264,0 -7.8350846,0 -0.7993456,0 -1.2728897,-0.4911585 -1.2728897,-1.155401 0,-0.6651857 0.4735441,-1.1548368 1.2728897,-1.1548368 H 12.05057 c 1.384285,0 2.299601,-0.963463 2.299601,-2.1601567 0,-1.1961281 -0.915316,-2.146204 -2.299601,-2.146204 H 2.6637431 l 0.04242,0.3254277 c 0.015168,0.2062684 -0.00605,0.4396858 -0.053029,0.6665051 h 9.3974069 c 0.800102,0 1.278185,0.4898391 1.278185,1.1542712 0,0.6649976 -0.478083,1.1561561 -1.278185,1.1561561 H 4.2154563 c -1.3835075,0 -2.2987855,0.9619556 -2.2987855,2.1588374 0,1.1959386 0.915278,2.1482787 2.2987855,2.1482787 4.2573582,0 4.2573582,0 7.8350847,0 0.800102,0 1.278185,0.500774 1.278185,1.16596 0,0.654626 -0.478083,1.156156 -1.278185,1.156156 H 2.6425235 l 0.042439,0.32788 c 0.015148,0.204004 -0.00531,0.439685 -0.058345,0.664242 H 12.05054 c 1.384284,0 2.2996,-0.95234 2.2996,-2.148278 0,-1.206498 -0.915316,-2.1588377 -2.2996,-2.1588377"
       style="fill:#000080;fill-opacity:1;fill-rule:nonzero;stroke:none;stroke-width:0.191235"
       id="path2563" />
  </g>
</svg>
