<?xml version="1.0" encoding="UTF-8" standalone="no"?>
<svg
   xmlns:dc="http://purl.org/dc/elements/1.1/"
   xmlns:cc="http://creativecommons.org/ns#"
   xmlns:rdf="http://www.w3.org/1999/02/22-rdf-syntax-ns#"
   xmlns:svg="http://www.w3.org/2000/svg"
   xmlns="http://www.w3.org/2000/svg"
   xmlns:sodipodi="http://sodipodi.sourceforge.net/DTD/sodipodi-0.dtd"
   xmlns:inkscape="http://www.inkscape.org/namespaces/inkscape"
   width="16.0px"
   height="16.0px"
   viewBox="0 0 16.0 16.0"
   version="1.1"
   id="SVGRoot"
   sodipodi:docname="shower.svg"
   inkscape:version="1.0.1 (0767f8302a, 2020-10-17)">
  <defs
     id="defs12875" />
  <sodipodi:namedview
     id="base"
     pagecolor="#ffffff"
     bordercolor="#666666"
     borderopacity="1.0"
     inkscape:pageopacity="0.0"
     inkscape:pageshadow="2"
     inkscape:zoom="5"
     inkscape:cx="55.976514"
     inkscape:cy="38.8"
     inkscape:document-units="px"
     inkscape:current-layer="layer1"
     inkscape:document-rotation="0"
     showgrid="false"
     inkscape:window-width="1366"
     inkscape:window-height="681"
     inkscape:window-x="0"
     inkscape:window-y="57"
     inkscape:window-maximized="0">
    <inkscape:grid
       type="xygrid"
       id="grid13445" />
  </sodipodi:namedview>
  <metadata
     id="metadata12878">
    <rdf:RDF>
      <cc:Work
         rdf:about="">
        <dc:format>image/svg+xml</dc:format>
        <dc:type
           rdf:resource="http://purl.org/dc/dcmitype/StillImage" />
        <dc:title></dc:title>
      </cc:Work>
    </rdf:RDF>
  </metadata>
  <g
     inkscape:label="Layer 1"
     inkscape:groupmode="layer"
     id="layer1">
    <path
       d="m 2.4520976,13.832542 c 0.8794115,-0.632457 0,-1.267252 0,-2.525191 0,0.634776 0.590144,1.257939 0.590144,1.892734 0,0.632457 -0.590144,0.632457 -0.590144,0.632457 z m 0,-2.836386 c -0.300875,0.945971 -0.8803331,1.569134 -0.8803331,2.203929 0,1.25794 1.7597446,1.25794 1.7597446,0 0,-0.634795 -0.590144,-1.257958 -0.8794115,-2.203929"
       style="fill:#000080;fill-opacity:1;fill-rule:nonzero;stroke:none;stroke-width:0.191084"
       id="path2655" />
    <path
       d="m 5.1308659,13.832542 c 0.888808,-0.632457 0,-1.267252 0,-2.525191 0,0.634776 0.5995405,1.257939 0.5995405,1.892734 0,0.632457 -0.5995405,0.632457 -0.5995405,0.632457 z m 0,-2.836386 c -0.290004,0.945971 -0.8803318,1.569134 -0.8803318,2.203929 0,1.25794 1.7691398,1.25794 1.7691398,0 0,-0.634795 -0.5879316,-1.257958 -0.888808,-2.203929"
       style="fill:#000080;fill-opacity:1;fill-rule:nonzero;stroke:none;stroke-width:0.191084"
       id="path2657" />
    <path
       d="m 7.829718,13.832542 c 0.8803318,-0.632457 0,-1.267252 0,-2.525191 0,0.634776 0.5794567,1.257939 0.5794567,1.892734 0,0.632457 -0.5794567,0.632457 -0.5794567,0.632457 z m 0,-2.836386 c -0.3008751,0.945971 -0.8794114,1.569134 -0.8794114,2.203929 0,1.25794 1.7597432,1.25794 1.7597432,0 0,-0.634795 -0.5910643,-1.257958 -0.8803318,-2.203929"
       style="fill:#000080;fill-opacity:1;fill-rule:nonzero;stroke:none;stroke-width:0.191084"
       id="path2659" />
    <path
       d="m 10.508486,13.832542 c 0.888808,-0.632457 0,-1.267252 0,-2.525191 0,0.634776 0.590144,1.257939 0.590144,1.892734 0,0.632457 -0.590144,0.632457 -0.590144,0.632457 z m 0,-2.836386 c -0.289267,0.945971 -0.8794112,1.569134 -0.8794112,2.203929 0,1.25794 1.7682192,1.25794 1.7682192,0 0,-0.634795 -0.587931,-1.257958 -0.888808,-2.203929"
       style="fill:#000080;fill-opacity:1;fill-rule:nonzero;stroke:none;stroke-width:0.191084"
       id="path2661" />
    <path
       d="m 13.197389,13.832542 c 0.879412,-0.632457 0,-1.267252 0,-2.525191 0,0.634776 0.589407,1.257939 0.589407,1.892734 0,0.632457 -0.589407,0.632457 -0.589407,0.632457 z m 0,-2.836386 c -0.290005,0.945971 -0.880149,1.569134 -0.880149,2.203929 0,1.25794 1.759561,1.25794 1.759561,0 0,-0.634795 -0.579273,-1.257958 -0.879412,-2.203929"
       style="fill:#000080;fill-opacity:1;fill-rule:nonzero;stroke:none;stroke-width:0.191084"
       id="path2663" />
    <path
       d="m 11.578041,8.1024772 c 0,-1.8269203 -1.9296202,-3.3442112 -4.4283786,-3.5687043 0.200091,-0.021685 0.4101327,-0.033294 0.6210961,-0.033294 2.8082945,0 5.0861415,1.6124939 5.0861415,3.6136104 z M 7.7707585,4.0499473 c -3.5202244,0 -6.3681329,2.0204579 -6.3681329,4.5146746 H 14.14663 c 0,-2.4942167 -2.858593,-4.5146746 -6.3758715,-4.5146746"
       style="fill:#000080;fill-opacity:1;fill-rule:nonzero;stroke:none;stroke-width:0.191084"
       id="path2665" />
    <path
       d="m 14.877171,9.7591043 c 0,0.3328757 -0.249656,0.6022557 -0.559191,0.6022557 H 1.3322437 c -0.3087986,0 -0.55937417,-0.26938 -0.55937417,-0.6022557 0,-0.3328754 0.25057557,-0.6015017 0.55937417,-0.6015017 H 14.31798 c 0.309535,0 0.559191,0.2686263 0.559191,0.6015017"
       style="fill:#000080;fill-opacity:1;fill-rule:nonzero;stroke:none;stroke-width:0.191084"
       id="path2667" />
    <path
       d="m 7.7707585,3.4360586 c 0.3791805,0 0.7592828,0.021685 1.1183795,0.064268 V 0.93262664 H 6.7609001 V 3.491033 C 7.0899663,3.447677 7.4302698,3.436054 7.7707585,3.436054"
       style="fill:#000080;fill-opacity:1;fill-rule:nonzero;stroke:none;stroke-width:0.191084"
       id="path2669" />
  </g>
</svg>
