<?xml version="1.0" encoding="UTF-8" standalone="no"?>
<svg
   xmlns:dc="http://purl.org/dc/elements/1.1/"
   xmlns:cc="http://creativecommons.org/ns#"
   xmlns:rdf="http://www.w3.org/1999/02/22-rdf-syntax-ns#"
   xmlns:svg="http://www.w3.org/2000/svg"
   xmlns="http://www.w3.org/2000/svg"
   xmlns:sodipodi="http://sodipodi.sourceforge.net/DTD/sodipodi-0.dtd"
   xmlns:inkscape="http://www.inkscape.org/namespaces/inkscape"
   width="16.0px"
   height="16.0px"
   viewBox="0 0 16.0 16.0"
   version="1.1"
   id="SVGRoot"
   sodipodi:docname="toilet-alt.svg"
   inkscape:version="1.0.1 (0767f8302a, 2020-10-17)">
  <defs
     id="defs5859" />
  <sodipodi:namedview
     id="base"
     pagecolor="#ffffff"
     bordercolor="#666666"
     borderopacity="1.0"
     inkscape:pageopacity="0.0"
     inkscape:pageshadow="2"
     inkscape:zoom="5"
     inkscape:cx="62.394862"
     inkscape:cy="38.8"
     inkscape:document-units="px"
     inkscape:current-layer="layer1"
     inkscape:document-rotation="0"
     showgrid="false"
     inkscape:window-width="1366"
     inkscape:window-height="681"
     inkscape:window-x="0"
     inkscape:window-y="57"
     inkscape:window-maximized="0">
    <inkscape:grid
       type="xygrid"
       id="grid6429" />
  </sodipodi:namedview>
  <metadata
     id="metadata5862">
    <rdf:RDF>
      <cc:Work
         rdf:about="">
        <dc:format>image/svg+xml</dc:format>
        <dc:type
           rdf:resource="http://purl.org/dc/dcmitype/StillImage" />
        <dc:title></dc:title>
      </cc:Work>
    </rdf:RDF>
  </metadata>
  <g
     inkscape:label="Layer 1"
     inkscape:groupmode="layer"
     id="layer1">
    <path
       d="m 12.137118,9.420263 c 0,1.131139 -0.968154,2.043939 -2.1728939,2.043939 H 5.8740603 c -0.7295872,0 -1.3764772,-0.334425 -1.7637786,-0.85728 0.3990023,0.308814 0.9156018,0.501544 1.4849528,0.501544 h 4.2722138 c 1.2471777,0 2.2581677,-0.912613 2.2696697,-2.0379576 z M 3.2829277,8.872545 v 0.6748337 c 0,1.2472253 1.0651294,2.2562963 2.3882605,2.2562963 H 10.092135 5.6711882 c 0.8707825,1.25302 1.2255619,1.699233 1.2797008,2.586423 h 2.8406057 v -1.678671 c 0,-0.212544 0.182049,-0.384897 0.4091163,-0.384897 0.224686,0 0.408123,0.172353 0.408123,0.384897 v 1.678671 h 1.441721 l 0.377188,-4.107507 c 0.08526,-0.228434 0.139408,-0.4759348 0.139408,-0.7352123 V 8.872545 H 3.2829233"
       style="fill:#000080;fill-opacity:1;fill-rule:nonzero;stroke:none;stroke-width:0.192539"
       id="path2479" />
    <path
       d="M 9.1136682,8.2943572 8.8758928,8.5841058 H 3.5191161 L 3.2829277,8.2943572 3.5191161,8.0051708 h 5.3567767 l 0.2377754,0.2891864"
       style="fill:#000080;fill-opacity:1;fill-rule:nonzero;stroke:none;stroke-width:0.192539"
       id="path2481" />
    <path
       d="m 12.050455,8.1021897 c -0.591163,-0.00575 -1.19383,-0.020371 -1.795706,-0.097019 0.557851,-0.0701 1.129381,-0.091229 1.698932,-0.095715 0,-0.2592788 0.01068,-0.5221075 0.02083,-0.7813863 l 0.03253,-0.4409775 0.04344,-0.4409776 0.05335,0.4409776 0.03331,0.4409775 c 0.0094,0.2891878 0.02182,0.5834229 0.02182,0.8770958 v 0.097019 z M 11.157262,1.931301 c -0.914013,0 -1.5494023,0.080938 -1.5494023,0.7856848 l -0.3214631,5.86712 H 12.567057 V 2.6197805 c 0,-0.7045563 -0.505694,-0.6884795 -1.409795,-0.6884795"
       style="fill:#000080;fill-opacity:1;fill-rule:nonzero;stroke:none;stroke-width:0.192539"
       id="path2483" />
  </g>
</svg>
