<?xml version="1.0" encoding="UTF-8" standalone="no"?>
<svg
   xmlns:dc="http://purl.org/dc/elements/1.1/"
   xmlns:cc="http://creativecommons.org/ns#"
   xmlns:rdf="http://www.w3.org/1999/02/22-rdf-syntax-ns#"
   xmlns:svg="http://www.w3.org/2000/svg"
   xmlns="http://www.w3.org/2000/svg"
   xmlns:sodipodi="http://sodipodi.sourceforge.net/DTD/sodipodi-0.dtd"
   xmlns:inkscape="http://www.inkscape.org/namespaces/inkscape"
   width="16.0px"
   height="16.0px"
   viewBox="0 0 16.0 16.0"
   version="1.1"
   id="SVGRoot"
   sodipodi:docname="tool-alt.svg"
   inkscape:version="1.0.1 (0767f8302a, 2020-10-17)">
  <defs
     id="defs9628" />
  <sodipodi:namedview
     id="base"
     pagecolor="#ffffff"
     bordercolor="#666666"
     borderopacity="1.0"
     inkscape:pageopacity="0.0"
     inkscape:pageshadow="2"
     inkscape:zoom="5"
     inkscape:cx="50.2"
     inkscape:cy="38.8"
     inkscape:document-units="px"
     inkscape:current-layer="layer1"
     inkscape:document-rotation="0"
     showgrid="false"
     inkscape:window-width="1366"
     inkscape:window-height="681"
     inkscape:window-x="0"
     inkscape:window-y="57"
     inkscape:window-maximized="0">
    <inkscape:grid
       type="xygrid"
       id="grid10198" />
  </sodipodi:namedview>
  <metadata
     id="metadata9631">
    <rdf:RDF>
      <cc:Work
         rdf:about="">
        <dc:format>image/svg+xml</dc:format>
        <dc:type
           rdf:resource="http://purl.org/dc/dcmitype/StillImage" />
        <dc:title></dc:title>
      </cc:Work>
    </rdf:RDF>
  </metadata>
  <g
     inkscape:label="Layer 1"
     inkscape:groupmode="layer"
     id="layer1">
    <path
       d="m 12.877296,14.159204 0.120495,-0.385357 -0.334553,-0.481646 -0.447156,-0.107927 -0.119572,0.385357 0.327357,0.481645 z m -0.799122,0.225924 C 11.580405,13.655852 8.3625554,8.9242372 7.3742157,7.457397 6.2277696,6.8909054 4.8800337,7.7156819 4.218123,6.7521934 4.0549146,6.493907 3.891694,6.2589047 3.891694,6.2589047 L 5.4588288,5.4881921 4.8038831,4.5130615 3.2286219,5.283971 2.901265,4.8021276 4.8983744,3.817921 4.7349222,3.5728557 6.1643807,2.8753459 13.507626,13.689001 c 0.497769,0.726908 -0.931458,1.422049 -1.429459,0.696127"
       style="fill:#000080;fill-opacity:1;fill-rule:nonzero;stroke:none;stroke-width:0.214033"
       id="path2541" />
    <path
       d="m 5.3262614,7.5321789 1.4176179,2.0871988 0.2256674,0.2042211 0.4290467,0.054059 0.106095,-0.032365 0.095195,-0.042428 0.1450993,-0.1294436 V 9.1276488 L 6.6612216,7.5321596 c -0.4652649,-0.020718 -0.9312263,0.043212 -1.3349672,0"
       style="fill:#000080;fill-opacity:1;fill-rule:nonzero;stroke:none;stroke-width:0.214033"
       id="path2543" />
    <path
       d="M 4.0920557,5.9915438 5.2946853,5.2415492 5.3770992,5.358562 4.1744696,6.1201972 4.0920557,5.9915527"
       style="fill:#000080;fill-opacity:1;fill-rule:nonzero;stroke:none;stroke-width:0.214033"
       id="path2545" />
    <path
       d="M 3.9288403,5.7555545 5.1314717,4.9949049 5.2129627,5.1235494 4.0103314,5.873544 3.9288403,5.7555545"
       style="fill:#000080;fill-opacity:1;fill-rule:nonzero;stroke:none;stroke-width:0.214033"
       id="path2547" />
    <path
       d="M 3.7646986,5.5089102 4.9680248,4.7597058 5.0497422,4.876911 3.8471125,5.6269056 3.7646986,5.5089161"
       style="fill:#000080;fill-opacity:1;fill-rule:nonzero;stroke:none;stroke-width:0.214033"
       id="path2549" />
    <path
       d="M 3.5940551,5.2622673 4.8038831,4.5130615 4.8856005,4.6326344 3.682041,5.391705 3.5940551,5.2622614"
       style="fill:#000080;fill-opacity:1;fill-rule:nonzero;stroke:none;stroke-width:0.214033"
       id="path2551" />
    <path
       d="M 4.375068,1.6458757 C 3.9478793,1.8593711 3.3737264,2.1367966 3.0907142,2.2755086 2.3788868,2.6300838 2.2528195,3.0154401 2.6690968,3.6152774 L 3.1968143,4.3960532 4.2000139,3.9041467 3.8345807,3.3686346 3.9532128,2.98308 4.4066371,3.0910064 5.8370254,2.3897481 C 5.7109581,2.2070339 5.5530832,1.9712429 5.5031682,1.9025772 5.2573022,1.537939 4.8038779,1.4363212 4.3750628,1.6458698"
       style="fill:#000080;fill-opacity:1;fill-rule:nonzero;stroke:none;stroke-width:0.214033"
       id="path2553" />
  </g>
</svg>
