<?xml version="1.0" encoding="UTF-8" standalone="no"?>
<svg
   xmlns:dc="http://purl.org/dc/elements/1.1/"
   xmlns:cc="http://creativecommons.org/ns#"
   xmlns:rdf="http://www.w3.org/1999/02/22-rdf-syntax-ns#"
   xmlns:svg="http://www.w3.org/2000/svg"
   xmlns="http://www.w3.org/2000/svg"
   xmlns:sodipodi="http://sodipodi.sourceforge.net/DTD/sodipodi-0.dtd"
   xmlns:inkscape="http://www.inkscape.org/namespaces/inkscape"
   width="84.653519"
   height="130.01738"
   viewBox="0 0 84.653519 130.01738"
   version="1.1"
   id="SVGRoot"
   sodipodi:docname="1.svg"
   inkscape:version="1.0.1 (0767f8302a, 2020-10-17)">
  <defs
     id="defs15354">
    <clipPath
       clipPathUnits="userSpaceOnUse"
       id="clipPath11667">
      <path
         d="m 369.27,3732.49 v 1.17 c 0.531,0 0.808,-0.01 0.808,-0.01 l -0.808,-1.16"
         id="path11665" />
    </clipPath>
    <linearGradient
       x1="0"
       y1="0"
       x2="1"
       y2="0"
       gradientUnits="userSpaceOnUse"
       gradientTransform="matrix(-4.27099,359.113,359.113,4.27099,286.274,3581.24)"
       spreadMethod="pad"
       id="linearGradient11675">
      <stop
         style="stop-opacity:1;stop-color:#ffffff"
         offset="0"
         id="stop11669" />
      <stop
         style="stop-opacity:1;stop-color:#5c5e5f"
         offset="0.950549"
         id="stop11671" />
      <stop
         style="stop-opacity:1;stop-color:#5c5e5f"
         offset="1"
         id="stop11673" />
    </linearGradient>
    <clipPath
       clipPathUnits="userSpaceOnUse"
       id="clipPath11685">
      <path
         d="m 201.691,3491.91 v 251.28 c 0,0 66.344,-9.58 89.872,-9.58 0.917,0 1.773,0.01 2.558,0.04 6.899,0.3 17.641,0.4 28.891,0.4 20.101,0 41.84,-0.32 46.258,-0.39 v -1.17 l -27.653,-39.7 H 226.891 v -164.7 l -25.2,-36.18"
         id="path11683" />
    </clipPath>
    <linearGradient
       x1="0"
       y1="0"
       x2="1"
       y2="0"
       gradientUnits="userSpaceOnUse"
       gradientTransform="matrix(-4.27099,359.113,359.113,4.27099,286.274,3581.24)"
       spreadMethod="pad"
       id="linearGradient11693">
      <stop
         style="stop-opacity:1;stop-color:#87c8ef"
         offset="0"
         id="stop11687" />
      <stop
         style="stop-opacity:1;stop-color:#2f485e"
         offset="0.950549"
         id="stop11689" />
      <stop
         style="stop-opacity:1;stop-color:#2f485e"
         offset="1"
         id="stop11691" />
    </linearGradient>
    <clipPath
       clipPathUnits="userSpaceOnUse"
       id="clipPath11703">
      <path
         d="m 226.891,3528.09 v 164.7 h 114.726 l -2.066,-2.97 H 230.039 v -157.21 l -3.148,-4.52"
         id="path11701" />
    </clipPath>
    <linearGradient
       x1="0"
       y1="0"
       x2="1"
       y2="0"
       gradientUnits="userSpaceOnUse"
       gradientTransform="matrix(-4.27099,359.113,359.113,4.27099,286.274,3581.24)"
       spreadMethod="pad"
       id="linearGradient11711">
      <stop
         style="stop-opacity:1;stop-color:#6faee2"
         offset="0"
         id="stop11705" />
      <stop
         style="stop-opacity:1;stop-color:#26405e"
         offset="0.950549"
         id="stop11707" />
      <stop
         style="stop-opacity:1;stop-color:#26405e"
         offset="1"
         id="stop11709" />
    </linearGradient>
    <clipPath
       clipPathUnits="userSpaceOnUse"
       id="clipPath11721">
      <path
         d="m 230.039,3532.61 v 157.21 h 109.512 l -50.02,-71.81 v 71.81 h -2.519 v -75.43 l -56.973,-81.78"
         id="path11719" />
    </clipPath>
    <linearGradient
       x1="0"
       y1="0"
       x2="1"
       y2="0"
       gradientUnits="userSpaceOnUse"
       gradientTransform="matrix(-4.27099,359.113,359.113,4.27099,286.274,3581.24)"
       spreadMethod="pad"
       id="linearGradient11729">
      <stop
         style="stop-opacity:1;stop-color:#b1e3f8"
         offset="0"
         id="stop11723" />
      <stop
         style="stop-opacity:1;stop-color:#3c5162"
         offset="0.950549"
         id="stop11725" />
      <stop
         style="stop-opacity:1;stop-color:#3c5162"
         offset="1"
         id="stop11727" />
    </linearGradient>
    <clipPath
       clipPathUnits="userSpaceOnUse"
       id="clipPath11739">
      <path
         d="m 287.012,3614.39 v 75.43 h 2.519 v -71.81 l -2.519,-3.62"
         id="path11737" />
    </clipPath>
    <linearGradient
       x1="0"
       y1="0"
       x2="1"
       y2="0"
       gradientUnits="userSpaceOnUse"
       gradientTransform="matrix(-4.27099,359.113,359.113,4.27099,286.274,3581.24)"
       spreadMethod="pad"
       id="linearGradient11747">
      <stop
         style="stop-opacity:1;stop-color:#85c0eb"
         offset="0"
         id="stop11741" />
      <stop
         style="stop-opacity:1;stop-color:#2c4662"
         offset="0.950549"
         id="stop11743" />
      <stop
         style="stop-opacity:1;stop-color:#2c4662"
         offset="1"
         id="stop11745" />
    </linearGradient>
  </defs>
  <sodipodi:namedview
     id="base"
     pagecolor="#ffffff"
     bordercolor="#666666"
     borderopacity="1.0"
     inkscape:pageopacity="0.0"
     inkscape:pageshadow="2"
     inkscape:zoom="1"
     inkscape:cx="-107.43554"
     inkscape:cy="96.24642"
     inkscape:document-units="px"
     inkscape:current-layer="layer1"
     inkscape:document-rotation="0"
     showgrid="false"
     inkscape:window-width="1366"
     inkscape:window-height="685"
     inkscape:window-x="0"
     inkscape:window-y="57"
     inkscape:window-maximized="1" />
  <metadata
     id="metadata15357">
    <rdf:RDF>
      <cc:Work
         rdf:about="">
        <dc:format>image/svg+xml</dc:format>
        <dc:type
           rdf:resource="http://purl.org/dc/dcmitype/StillImage" />
        <dc:title />
      </cc:Work>
    </rdf:RDF>
  </metadata>
  <g
     inkscape:label="Layer 1"
     inkscape:groupmode="layer"
     id="layer1"
     transform="translate(-34.935537,-17.75358)">
    <g
       id="g43857">
      <path
         d="m 65.240257,49.963174 c -2.0484,-0.309333 -2.880266,-0.625333 -4.1932,-1.389333 -1.381333,-0.802667 -4.888533,-3.528 -4.828666,-2.86 0.05773,0.676 0.267733,1.336 0.8052,2.012 1.440133,1.822666 0.06347,1.858666 0.06347,1.858666 0,0 -2.759866,-0.572 -3.005733,-0.193333 -0.249466,0.373333 -0.164533,4.057333 0.549467,4.784 0.71,0.728 4.564133,0.896 5.658933,1.146667 1.408267,0.329333 4.463067,0.468 4.8432,0.62 0.557333,0.214666 0.107333,-5.978667 0.107333,-5.978667"
         style="fill:#d93e21;fill-opacity:1;fill-rule:nonzero;stroke:none;stroke-width:0.133333"
         id="path11647" />
      <path
         d="M 52.548524,144.58451 H 74.952657 V 86.660508 H 52.548524 Z"
         style="fill:#87c8ef;fill-opacity:1;fill-rule:nonzero;stroke:none;stroke-width:0.133333"
         id="path11649" />
      <path
         d="M 72.324657,128.30051 H 55.968924 v -10.164 l 0.419733,-0.60267 v 10.39467 h 7.5964 0.335867 7.583866 V 96.572508 h -0.914533 l 0.275467,-0.396 h 1.058933 v 32.124002"
         style="fill:#6faee2;fill-opacity:1;fill-rule:nonzero;stroke:none;stroke-width:0.133333"
         id="path11651" />
      <path
         d="M 56.388657,127.92851 H 71.90479 V 96.572238 H 56.388657 Z"
         style="fill:#b1e3f8;fill-opacity:1;fill-rule:nonzero;stroke:none;stroke-width:0.133333"
         id="path11653" />
      <path
         d="m 62.448524,113.44451 c 0,0.588 -0.4916,1.056 -1.0916,1.056 -0.6,0 -1.092267,-0.468 -1.092267,-1.056 0,-0.588 0.492267,-1.068 1.092267,-1.068 0.6,0 1.0916,0.48 1.0916,1.068"
         style="fill:#87c8ef;fill-opacity:1;fill-rule:nonzero;stroke:none;stroke-width:0.133333"
         id="path11655" />
      <path
         d="m 67.488124,113.43917 c 0,0.588 -0.485333,1.06534 -1.086933,1.06534 -0.601067,0 -1.087467,-0.47734 -1.087467,-1.06534 0,-0.588 0.4864,-1.064 1.087467,-1.064 0.6016,0 1.086933,0.476 1.086933,1.064"
         style="fill:#87c8ef;fill-opacity:1;fill-rule:nonzero;stroke:none;stroke-width:0.133333"
         id="path11657" />
      <path
         d="m 64.320924,127.92851 h -0.335867 v -21.29867 l 0.335867,-0.48267 v 21.78134"
         style="fill:#85c0eb;fill-opacity:1;fill-rule:nonzero;stroke:none;stroke-width:0.133333"
         id="path11659" />
      <g
         id="g11661"
         transform="matrix(0.13333333,0,0,-0.13333333,25.716791,588.54849)">
        <g
           id="g11663"
           clip-path="url(#clipPath11667)">
          <path
             d="m 369.27,3732.49 v 1.17 c 0.531,0 0.808,-0.01 0.808,-0.01 l -0.808,-1.16"
             style="fill:url(#linearGradient11675);fill-opacity:1;fill-rule:nonzero;stroke:none"
             id="path11677" />
        </g>
      </g>
      <g
         id="g11679"
         transform="matrix(0.13333333,0,0,-0.13333333,25.716791,588.54849)">
        <g
           id="g11681"
           clip-path="url(#clipPath11685)">
          <path
             d="m 201.691,3491.91 v 251.28 c 0,0 66.344,-9.58 89.872,-9.58 0.917,0 1.773,0.01 2.558,0.04 6.899,0.3 17.641,0.4 28.891,0.4 20.101,0 41.84,-0.32 46.258,-0.39 v -1.17 l -27.653,-39.7 H 226.891 v -164.7 l -25.2,-36.18"
             style="fill:url(#linearGradient11693);fill-opacity:1;fill-rule:nonzero;stroke:none"
             id="path11695" />
        </g>
      </g>
      <g
         id="g11697"
         transform="matrix(0.13333333,0,0,-0.13333333,25.716791,588.54849)">
        <g
           id="g11699"
           clip-path="url(#clipPath11703)">
          <path
             d="m 226.891,3528.09 v 164.7 h 114.726 l -2.066,-2.97 H 230.039 v -157.21 l -3.148,-4.52"
             style="fill:url(#linearGradient11711);fill-opacity:1;fill-rule:nonzero;stroke:none"
             id="path11713" />
        </g>
      </g>
      <g
         id="g11715"
         transform="matrix(0.13333333,0,0,-0.13333333,25.716791,588.54849)">
        <g
           id="g11717"
           clip-path="url(#clipPath11721)">
          <path
             d="m 230.039,3532.61 v 157.21 h 109.512 l -50.02,-71.81 v 71.81 h -2.519 v -75.43 l -56.973,-81.78"
             style="fill:url(#linearGradient11729);fill-opacity:1;fill-rule:nonzero;stroke:none"
             id="path11731" />
        </g>
      </g>
      <g
         id="g11733"
         transform="matrix(0.13333333,0,0,-0.13333333,25.716791,588.54849)">
        <g
           id="g11735"
           clip-path="url(#clipPath11739)">
          <path
             d="m 287.012,3614.39 v 75.43 h 2.519 v -71.81 l -2.519,-3.62"
             style="fill:url(#linearGradient11747);fill-opacity:1;fill-rule:nonzero;stroke:none"
             id="path11749" />
        </g>
      </g>
      <path
         d="m 34.984497,73.509838 c -0.02812,0.33867 -0.04896,0.68134 -0.04896,1.02267 0,9.91866 12.486454,17.95866 27.891654,17.95866 15.405733,0 27.894799,-8.04 27.894799,-17.95866 0,-0.34133 -0.01827,-0.684 -0.04893,-1.02267 -7.8396,0.788 -17.452667,1.25334 -27.845866,1.25334 -10.3916,0 -20.001601,-0.46534 -27.842694,-1.25334"
         style="fill:#b1e3f8;fill-opacity:1;fill-rule:nonzero;stroke:none;stroke-width:0.133333"
         id="path11751" />
      <path
         d="m 40.237057,73.964508 c -1.819227,-0.13467 -3.583813,-0.28533 -5.25256,-0.45467 -0.02812,0.33867 -0.04896,0.68134 -0.04896,1.02267 0,9.728 12.014054,17.644 27.007787,17.944 -10.423866,-2.58934 -20.1364,-8.73334 -21.706267,-18.512"
         style="fill:#87c8ef;fill-opacity:1;fill-rule:nonzero;stroke:none;stroke-width:0.133333"
         id="path11753" />
      <path
         d="m 85.279323,40.779174 c -3.133866,-1.281333 -8.982266,9.066667 -10.507333,9.321333 -2.358266,0.392 -10.325999,-1.132 -12.263066,-1.081333 -1.940533,0.048 -0.528533,9.722667 -0.528533,9.722667 0,0 7.993199,-1.068 13.132266,-1.101334 5.1416,-0.03333 17.318666,-5.786666 18.509866,-8.628 1.187467,-2.841333 -8.3432,-8.233333 -8.3432,-8.233333"
         style="fill:#212554;fill-opacity:1;fill-rule:nonzero;stroke:none;stroke-width:0.133333"
         id="path11755" />
      <path
         d="m 117.39852,134.89251 c 0.16774,1.62 0.99227,6.29733 0.42187,8.50933 -0.1948,0.76667 -2.1176,0.36533 -3.32547,0.62267 -0.49946,0.108 -2.2604,-0.0133 -3.15106,0.29066 -3.24214,1.108 -8.3192,0.328 -8.91774,-0.02 -0.60253,-0.35866 -0.76453,-3.048 0.9964,-4.24666 1.38547,-0.94 5.70414,-1.31467 6.20267,-2.35467 0.49787,-1.03867 1.3552,-3.60267 1.3552,-3.60267 l 6.41813,0.80134"
         style="fill:#252222;fill-opacity:1;fill-rule:nonzero;stroke:none;stroke-width:0.133333"
         id="path11757" />
      <path
         d="m 89.242257,88.553838 c 0,0 2.4772,7.63733 5.869333,16.406672 0.933333,2.40933 3.237466,11.67733 4.7208,12.948 1.488,1.27333 6.598,20.86133 6.598,20.86133 0,0 12.23373,3.82 13.08333,2.33467 0.85094,-1.48534 -5.7032,-25.072 -9.73653,-28.68 -2.9672,-12.304 -8.00253,-23.313342 -9.48587,-30.232002 -0.692264,-3.224 -11.049063,6.36133 -11.049063,6.36133"
         style="fill:#212554;fill-opacity:1;fill-rule:nonzero;stroke:none;stroke-width:0.133333"
         id="path11759" />
      <path
         d="m 91.056923,97.997838 c 3.3948,5.090672 6.2276,17.082672 7.501067,18.496002 1.2744,1.41467 1.2744,1.344 2.12547,3.18667 0.84586,1.83733 5.74693,19.08933 5.74693,19.08933 0,0 2.826,1.48267 5.44573,1.69467 1.11,0.0893 -17.50253,-46.745342 -15.44533,-43.316002 -2.545733,-4.24267 -5.373867,0.84933 -5.373867,0.84933"
         style="fill:#2b398a;fill-opacity:1;fill-rule:nonzero;stroke:none;stroke-width:0.133333"
         id="path11761" />
      <path
         d="m 84.350123,136.83517 c 0.0464,1.956 0.499467,7.288 -0.3016,9.92134 -0.275466,0.91733 -2.768666,-0.23867 -4.100533,-0.08 -0.549466,0.0747 -1.940533,0.536 -2.934266,0.8 -3.6048,0.94266 -8.9704,-0.636 -9.572933,-1.13334 -0.601067,-0.50666 -0.512534,-2.31066 1.489066,-3.536 1.568133,-0.96133 6.208267,-0.896 6.838533,-2.08 0.623467,-1.18133 1.7968,-5.58133 1.7968,-5.58133 l 6.784933,1.68933"
         style="fill:#252222;fill-opacity:1;fill-rule:nonzero;stroke:none;stroke-width:0.133333"
         id="path11763" />
      <path
         d="m 87.326657,70.751178 c -1.769734,5.41733 -0.185867,6.79599 -1,11.85866 0,0 -3.2396,28.010672 -5.313467,33.264002 -2.104666,5.324 -7.6324,25.352 -7.6324,25.352 0,0 8.674533,4.72667 10.990133,4.72667 2.316667,-10e-4 8.0428,-28.48934 8.4188,-30.364 2.557733,-12.78667 6.3468,-18.505342 9.011997,-25.810672 2.61814,-7.164 3.35,-10.22133 0.9864,-15.428 -2.32133,-5.11733 -15.461463,-3.59866 -15.461463,-3.59866"
         style="fill:#212554;fill-opacity:1;fill-rule:nonzero;stroke:none;stroke-width:0.133333"
         id="path11765" />
      <path
         d="m 84.684523,74.860508 c 0.0844,2.74266 0.792667,8.25866 0.5692,10.06666 -0.225466,1.81467 -4.163999,20.705342 -4.307733,23.376002 -0.4656,8.53734 -7.911466,32.504 -7.911466,32.504 0,0 3.8276,3.184 4.5016,2.41067 0.669733,-0.77467 6.264533,-26.66667 8.063999,-33.34933 1.762534,-6.56934 3.657334,-20.896002 4.801067,-23.656002 1.134933,-2.73734 -0.7084,-12.36933 -1.6084,-13.828 -0.892133,-1.45067 -4.108267,2.476 -4.108267,2.476"
         style="fill:#2b398a;fill-opacity:1;fill-rule:nonzero;stroke:none;stroke-width:0.133333"
         id="path11767" />
      <path
         d="m 83.50319,29.992508 c 0.6016,1.386667 1.495333,2.58 3.106267,4.502667 3.188,3.811999 3.219333,4.610666 3.219333,4.610666 l -7.748,6.422667 c 0,0 -3.3088,-6.908 -5.221333,-7.493334 -1.919733,-0.577333 6.643733,-8.042666 6.643733,-8.042666"
         style="fill:#d1a18a;fill-opacity:1;fill-rule:nonzero;stroke:none;stroke-width:0.133333"
         id="path11769" />
      <path
         d="m 70.419857,34.612508 c 0.183333,-0.832 -0.24,-3.046667 -0.201467,-3.613333 l -0.01933,-0.04933 c -1.107733,-1.12 -2.249466,-3.268 -1.9036,-5.741333 0.02027,-0.172 0.7364,-0.278667 0.993733,-0.601333 1.247334,-4.086667 11.373467,-7.906667 14.078133,-2.230667 5.0864,10.652 -4.699466,15.62 -7.062533,16.686666 -0.428666,0.194667 -1.432266,0.256 -2.4796,-1.78 -0.756266,-0.749333 -1.220933,-1.262666 -1.730266,-1.986666 -0.7604,0.06 -1.409334,-0.105333 -1.595867,-0.498667 l -0.0792,-0.185333"
         style="fill:#d1a18a;fill-opacity:1;fill-rule:nonzero;stroke:none;stroke-width:0.133333"
         id="path11771" />
      <path
         d="m 80.235057,18.936508 c -1.362,-0.488 -2.5156,-2.148 -5.724533,-0.404 -2.757334,1.494667 -6.1224,2.874667 -6.564533,5.714667 -0.413067,2.657333 -0.645334,3.558666 -0.645334,3.558666 0,0 -1.1104,0.925334 0.753067,0.86 0.772933,-0.02933 3.355733,-2.432 4.785466,-1.561333 1.2036,0.729333 2.8724,0.908 2.8724,0.908 0,0 3.093734,0.372 3.5224,1.274667 0.1464,0.302666 1.704667,2.237333 2.590133,2.694666 1.777067,0.905334 4.6692,0.553334 4.6692,0.553334 0,0 -0.9468,-2.049334 -1.310933,-6.618667 -0.431733,-5.408 -2.952533,-6.266667 -4.947333,-6.98"
         style="fill:#2a1412;fill-opacity:1;fill-rule:nonzero;stroke:none;stroke-width:0.133333"
         id="path11773" />
      <path
         d="m 77.05999,28.852508 c -0.797333,-2.533333 1.996934,-1.698667 2.183867,-0.942667 0.208933,0.845334 1.350533,2.889334 0.142667,3.841334 -1.19,0.941333 -2.326534,-2.898667 -2.326534,-2.898667"
         style="fill:#d1a18a;fill-opacity:1;fill-rule:nonzero;stroke:none;stroke-width:0.133333"
         id="path11775" />
      <path
         d="m 77.438124,51.697841 c 0.464666,-3.582667 1.738,-4.954667 2.405733,-6.754667 0.511467,-1.382666 0.01307,-2.782666 3.060933,-7.052 1.5656,-2.198666 2.426,-3.351999 2.426,-3.351999 2.867733,2.006666 5.614667,3.390666 7.103733,5.129333 3.1724,3.694666 4.375467,7.609333 5.018667,15.513333 0.569866,7.074667 3.78907,13.163997 6.04533,19.382667 2.04174,5.628 -10.244263,5.45066 -12.304663,5.69333 -1.285334,0.332 -6.362534,-1.66 -6.728667,-2.116 -2.85,-3.59866 -7.764533,-16.736 -7.027066,-26.443997"
         style="fill:#212554;fill-opacity:1;fill-rule:nonzero;stroke:none;stroke-width:0.133333"
         id="path11777" />
      <path
         d="m 86.22519,32.547175 2.964533,1.858666 c 0,0 -3.019333,4.252 -3.061466,5.030667 -2.183334,0.578666 -3.580267,1.522666 -3.580267,1.522666 l 0.911467,1.9 c 0,0 -5.550933,4.472 -5.8172,6.417333 0.180267,-2.785333 2.2964,-6.821333 3.509467,-8.569333 1.213999,-1.748 5.073466,-8.159999 5.073466,-8.159999"
         style="fill:#2b398a;fill-opacity:1;fill-rule:nonzero;stroke:none;stroke-width:0.133333"
         id="path11779" />
      <path
         d="m 65.975591,67.827178 c 0.1772,0.72933 -1.8776,1.85333 -4.584267,2.50533 -2.71,0.65733 -5.048533,0.59867 -5.2256,-0.13333 -0.1776,-0.72934 1.876533,-1.85067 4.584933,-2.50534 2.709334,-0.65733 5.047867,-0.59866 5.224934,0.13334"
         style="fill:#100f0d;fill-opacity:1;fill-rule:nonzero;stroke:none;stroke-width:0.133333"
         id="path11781" />
      <path
         d="m 65.609991,68.321838 c -0.02547,-0.16933 -0.05413,-0.34533 -0.09733,-0.52 -0.444266,-1.84133 -2.940666,-2.816 -4.188533,-2.51333 l -2.181867,0.52533 c -1.246266,0.30134 -3.0224,2.31067 -2.576,4.15334 0.04373,0.17866 0.09787,0.352 0.158934,0.52 1.0848,0.0427 2.731733,-0.15467 4.5364,-0.59067 1.8328,-0.444 3.406266,-1.02933 4.3484,-1.57467"
         style="fill:#100f0d;fill-opacity:1;fill-rule:nonzero;stroke:none;stroke-width:0.133333"
         id="path11783" />
      <path
         d="m 65.448524,68.099178 c 0.04373,-0.14934 0.03853,-0.18667 -0.0025,-0.36267 -0.446934,-1.84 -2.942267,-2.816 -4.192267,-2.51333 l -0.469733,0.11466 c -1.304134,0.904 -2.019334,2.19334 -1.726534,3.408 0.130134,0.536 0.29,1.12667 0.731734,1.488 0.460933,-0.028 0.9536,-0.15866 1.3828,-0.26266 1.8312,-0.44267 3.480266,-1.28134 4.276533,-1.872"
         style="fill:#222326;fill-opacity:1;fill-rule:nonzero;stroke:none;stroke-width:0.133333"
         id="path11785" />
      <path
         d="m 60.609457,64.153838 c 0.07093,0.324 -0.149466,0.64267 -0.49,0.72267 -0.3396,0.0827 -0.6912,-0.096 -0.788666,-0.41333 l -5.7552,-21.43867 c -0.333733,-1.08 -0.0744,-2.162667 0.610533,-2.329334 0.680134,-0.166666 1.442667,0.670667 1.676533,1.776 l 4.7468,21.682664"
         style="fill:#bb633d;fill-opacity:1;fill-rule:nonzero;stroke:none;stroke-width:0.133333"
         id="path11787" />
      <path
         d="m 61.402791,65.331178 c 0.156133,0.63866 -0.336534,0.86533 -0.9756,1.02266 -0.638,0.152 -1.1812,0.176 -1.334934,-0.46266 l -0.255733,-1.05467 c -0.1552,-0.64 0.2376,-1.28133 0.8756,-1.436 0.640667,-0.15333 1.285333,0.23733 1.4364,0.876 l 0.254267,1.05467"
         style="fill:#100f0d;fill-opacity:1;fill-rule:nonzero;stroke:none;stroke-width:0.133333"
         id="path11789" />
      <path
         d="m 64.914657,57.228507 c -0.854666,-0.574666 -5.929066,-4.052 -6.535866,-3.888 -0.608934,0.161334 -0.246934,0.88 0.192133,1.689334 0.4396,0.808 0.0896,0.592 0.0896,0.592 0,0 -1.2312,0.562666 -2.5708,0.0053 -0.760933,-0.317333 -1.6516,1.270667 -0.257867,1.574667 -1.055199,-0.304 -1.414533,1.265333 -0.233866,1.553333 -0.8624,-0.12 -1.1468,1.210667 0.210533,1.418667 -0.541733,0.14267 -0.733333,0.72133 -0.03547,1.156 0.4364,0.26667 1.951067,1.17733 4.676,0.872 2.721867,-0.30267 4.634934,-0.392 4.634934,-0.392 l -0.169334,-4.581334"
         style="fill:#f46e16;fill-opacity:1;fill-rule:nonzero;stroke:none;stroke-width:0.133333"
         id="path11791" />
      <path
         d="m 54.946524,54.477841 c -0.753733,-0.398667 -1.075066,-1.134667 -0.726666,-1.48 0.3464,-0.342667 1.213066,-0.630667 2.325599,-0.293334 1.116667,0.333334 1.137467,0.794667 1.088534,1.013334 -0.07133,0.314666 -1.093734,0.338666 -1.3344,0.398666 -0.249467,0.05867 -1.353067,0.361334 -1.353067,0.361334"
         style="fill:#f46e16;fill-opacity:1;fill-rule:nonzero;stroke:none;stroke-width:0.133333"
         id="path11793" />
      <path
         d="m 54.370924,53.291174 c -0.809866,-0.492 -0.9448,-1.578667 -0.7916,-1.830667 0.1552,-0.252 1.274934,-0.956 2.1432,-0.742666 0.877067,0.22 1.963067,1.046666 2.173467,1.382666 0.208266,0.341334 0.185866,0.761334 -0.362,0.808 -0.551067,0.04533 -2.1948,-0.068 -2.1948,-0.068 l -0.968267,0.450667"
         style="fill:#f46e16;fill-opacity:1;fill-rule:nonzero;stroke:none;stroke-width:0.133333"
         id="path11795" />
      <path
         d="m 53.968391,51.523174 c 0.186933,0.752 -0.6876,-0.696 -0.3568,-1.232 0.323467,-0.54 1.2464,-0.996 1.583866,-1.02 0.340667,-0.028 1.752,0.48 2.122934,0.686667 0.444266,0.246666 0.4796,0.96 0.0192,0.961333 -0.460934,-0.0093 -2.135867,0.016 -2.135867,0.016 l -1.233333,0.588"
         style="fill:#f46e16;fill-opacity:1;fill-rule:nonzero;stroke:none;stroke-width:0.133333"
         id="path11797" />
      <path
         d="m 54.286524,50.009841 c -0.549466,-0.612 -1.050933,-1.008 -0.991066,-1.482667 0.0568,-0.468 0.842666,-1.237333 1.478666,-0.990666 0.6328,0.250666 1.9156,1.257333 2.116133,1.609333 0.202,0.352 -0.190666,0.621333 -0.6396,0.673333 -0.443733,0.05067 -1.964133,0.190667 -1.964133,0.190667"
         style="fill:#f46e16;fill-opacity:1;fill-rule:nonzero;stroke:none;stroke-width:0.133333"
         id="path11799" />
      <path
         d="m 89.515723,39.804508 c -3.3844,-0.141334 -8.984933,9.607999 -10.748933,11.227999 -1.7636,1.621334 -13.793199,3.785334 -15.601066,4.489334 -1.8088,0.704 0.678133,9.150667 0.678133,9.150667 0,0 12.5808,-1.99067 18.0448,-4.788 4.576533,-2.340001 11.513066,-9.896001 11.819333,-12.961334 0.635867,-6.356 -4.192267,-7.118666 -4.192267,-7.118666"
         style="fill:#2b398a;fill-opacity:1;fill-rule:nonzero;stroke:none;stroke-width:0.133333"
         id="path11801" />
    </g>
  </g>
</svg>
