<?xml version="1.0" encoding="UTF-8" standalone="no"?>
<svg
   xmlns:dc="http://purl.org/dc/elements/1.1/"
   xmlns:cc="http://creativecommons.org/ns#"
   xmlns:rdf="http://www.w3.org/1999/02/22-rdf-syntax-ns#"
   xmlns:svg="http://www.w3.org/2000/svg"
   xmlns="http://www.w3.org/2000/svg"
   xmlns:sodipodi="http://sodipodi.sourceforge.net/DTD/sodipodi-0.dtd"
   xmlns:inkscape="http://www.inkscape.org/namespaces/inkscape"
   width="61.178589"
   height="131.37575"
   viewBox="0 0 61.178589 131.37575"
   version="1.1"
   id="SVGRoot"
   sodipodi:docname="3.svg"
   inkscape:version="1.0.1 (0767f8302a, 2020-10-17)">
  <defs
     id="defs17081">
    <clipPath
       clipPathUnits="userSpaceOnUse"
       id="clipPath6465">
      <path
         d="m 2114.56,4127.97 c 0.17,1.05 0.35,2.08 0.55,3.11 0.13,-0.78 0.22,-1.5 0.25,-2.15 -0.22,-0.28 -0.49,-0.6 -0.8,-0.96 m -62.15,2.41 c 0.47,3.39 0.78,6.99 0.98,10.59 0.06,0 0.13,0 0.19,0 -0.21,-3.53 -0.57,-7.11 -1.17,-10.59 m 57.68,16.81 c -5.7,3.19 -13.82,7.62 -22.13,11.79 l 19.03,-2.69 c -0.08,-0.81 1.38,-4.52 3.1,-9.1"
         id="path6463" />
    </clipPath>
    <linearGradient
       x1="0"
       y1="0"
       x2="1"
       y2="0"
       gradientUnits="userSpaceOnUse"
       gradientTransform="matrix(152.685,105.374,105.374,-152.685,2031.96,4108.62)"
       spreadMethod="pad"
       id="linearGradient6473">
      <stop
         style="stop-opacity:1;stop-color:#ffffff"
         offset="0"
         id="stop6467" />
      <stop
         style="stop-opacity:1;stop-color:#c4bdb4"
         offset="0.516483"
         id="stop6469" />
      <stop
         style="stop-opacity:1;stop-color:#c4bdb4"
         offset="1"
         id="stop6471" />
    </linearGradient>
    <clipPath
       clipPathUnits="userSpaceOnUse"
       id="clipPath6483">
      <path
         d="m 2053.58,4140.97 c -0.06,0 -0.13,0 -0.19,0 0.83,14.69 -0.13,29.42 -0.04,30.53 l 2.22,-0.87 c -0.95,-0.24 -1.54,-0.77 -1.68,-1.65 -0.67,-4.27 0.41,-15.82 -0.31,-28.01"
         id="path6481" />
    </clipPath>
    <linearGradient
       x1="0"
       y1="0"
       x2="1"
       y2="0"
       gradientUnits="userSpaceOnUse"
       gradientTransform="matrix(152.685,105.374,105.374,-152.685,2031.96,4108.62)"
       spreadMethod="pad"
       id="linearGradient6491">
      <stop
         style="stop-opacity:1;stop-color:#100f0d"
         offset="0"
         id="stop6485" />
      <stop
         style="stop-opacity:1;stop-color:#100f0d"
         offset="0.516483"
         id="stop6487" />
      <stop
         style="stop-opacity:1;stop-color:#100f0d"
         offset="1"
         id="stop6489" />
    </linearGradient>
    <clipPath
       clipPathUnits="userSpaceOnUse"
       id="clipPath6501">
      <path
         d="m 2078.05,4093.05 c -13.38,5.87 -26.77,16.03 -30.55,21.01 2.46,3.55 3.99,9.52 4.91,16.32 0.6,3.48 0.96,7.06 1.17,10.59 0.72,12.19 -0.36,23.74 0.31,28.01 0.14,0.88 0.73,1.41 1.68,1.65 l 28.11,-11.01 h 0.18 0.18 v -0.09 l 3.92,-0.55 c 8.31,-4.17 16.43,-8.6 22.13,-11.79 1.96,-5.23 4.26,-11.6 5.02,-16.11 -0.2,-1.03 -0.38,-2.06 -0.55,-3.11 -5.22,-6.09 -21.84,-22.87 -36.51,-34.92"
         id="path6499" />
    </clipPath>
    <linearGradient
       x1="0"
       y1="0"
       x2="1"
       y2="0"
       gradientUnits="userSpaceOnUse"
       gradientTransform="matrix(152.685,105.374,105.374,-152.685,2031.96,4108.62)"
       spreadMethod="pad"
       id="linearGradient6509">
      <stop
         style="stop-opacity:1;stop-color:#d1a18a"
         offset="0"
         id="stop6503" />
      <stop
         style="stop-opacity:1;stop-color:#a07762"
         offset="0.516483"
         id="stop6505" />
      <stop
         style="stop-opacity:1;stop-color:#a07762"
         offset="1"
         id="stop6507" />
    </linearGradient>
    <clipPath
       clipPathUnits="userSpaceOnUse"
       id="clipPath6537">
      <path
         d="m 2003.22,3978.36 -1.98,38.79 8.07,0.25 c -4.37,-2.01 -7.01,-5.36 -6.54,-8.98 l 1.97,-29.4 -1.52,-0.66 m 64.9,28.36 -0.34,4.35 4.02,-2.74 -3.68,-1.61"
         id="path6535" />
    </clipPath>
    <linearGradient
       x1="0"
       y1="0"
       x2="1"
       y2="0"
       gradientUnits="userSpaceOnUse"
       gradientTransform="matrix(-5.38857,38.046,38.046,5.38857,2038.69,3985.08)"
       spreadMethod="pad"
       id="linearGradient6545">
      <stop
         style="stop-opacity:1;stop-color:#212554"
         offset="0"
         id="stop6539" />
      <stop
         style="stop-opacity:1;stop-color:#16182b"
         offset="0.67033"
         id="stop6541" />
      <stop
         style="stop-opacity:1;stop-color:#16182b"
         offset="1"
         id="stop6543" />
    </linearGradient>
    <clipPath
       clipPathUnits="userSpaceOnUse"
       id="clipPath6555">
      <path
         d="m 2004.74,3979.02 -1.97,29.4 c -0.47,3.62 2.17,6.97 6.54,8.98 l 47.01,1.46 11.46,-7.79 0.34,-4.35 -63.38,-27.7"
         id="path6553" />
    </clipPath>
    <linearGradient
       x1="0"
       y1="0"
       x2="1"
       y2="0"
       gradientUnits="userSpaceOnUse"
       gradientTransform="matrix(-5.38857,38.046,38.046,5.38857,2038.69,3985.08)"
       spreadMethod="pad"
       id="linearGradient6563">
      <stop
         style="stop-opacity:1;stop-color:#2b398a"
         offset="0"
         id="stop6557" />
      <stop
         style="stop-opacity:1;stop-color:#1b2244"
         offset="0.67033"
         id="stop6559" />
      <stop
         style="stop-opacity:1;stop-color:#1b2244"
         offset="1"
         id="stop6561" />
    </linearGradient>
  </defs>
  <sodipodi:namedview
     id="base"
     pagecolor="#ffffff"
     bordercolor="#666666"
     borderopacity="1.0"
     inkscape:pageopacity="0.0"
     inkscape:pageshadow="2"
     inkscape:zoom="0.35"
     inkscape:cx="343.04718"
     inkscape:cy="539.22826"
     inkscape:document-units="px"
     inkscape:current-layer="layer1"
     inkscape:document-rotation="0"
     showgrid="false"
     inkscape:window-width="1366"
     inkscape:window-height="681"
     inkscape:window-x="0"
     inkscape:window-y="57"
     inkscape:window-maximized="0" />
  <metadata
     id="metadata17084">
    <rdf:RDF>
      <cc:Work
         rdf:about="">
        <dc:format>image/svg+xml</dc:format>
        <dc:type
           rdf:resource="http://purl.org/dc/dcmitype/StillImage" />
        <dc:title></dc:title>
      </cc:Work>
    </rdf:RDF>
  </metadata>
  <g
     inkscape:label="Layer 1"
     inkscape:groupmode="layer"
     id="layer1"
     transform="translate(-56.952823,-20.771739)">
    <g
       id="g16883"
       transform="matrix(1.3333333,0,0,-1.3333333,-185.73518,589.28764)">
      <path
         d="m 218.792,408.586 c 1.662,-0.609 2.031,-4.93 2.474,-7.147 0.442,-2.215 1.306,-8.59 1.526,-9.921 0.223,-1.33 3.202,-11.279 2.537,-11.5 -0.665,-0.222 -4.433,-2.07 -5.097,-2.734 -0.664,-0.664 -2.919,9.518 -3.435,18.061 -0.164,2.691 0.674,8.93 0.776,9.916 0.331,3.214 1.219,3.325 1.219,3.325"
         style="fill:#212554;fill-opacity:1;fill-rule:nonzero;stroke:none;stroke-width:0.1"
         id="path6447" />
      <path
         d="m 203.049,420.678 c -0.648,-2.232 1.422,-5.472 1.395,-5.643 -0.027,-0.18 -0.162,-0.558 -0.486,-0.675 -0.18,-0.063 1.674,-0.45 1.98,-0.153 0.306,0.297 0.279,5.022 0.135,5.265 -0.162,0.243 -3.024,1.206 -3.024,1.206"
         style="fill:#100f0d;fill-opacity:1;fill-rule:nonzero;stroke:none;stroke-width:0.1"
         id="path6449" />
      <path
         d="m 203.724,411.741 c 0,0.72 1.107,1.107 3.159,0.999 2.043,-0.108 5.868,-0.333 6.039,-1.602 0.162,-1.278 0,-3.717 -1.611,-3.663 -1.602,0.054 -6.705,1.332 -7.092,2.493 -0.387,1.17 -0.495,1.773 -0.495,1.773"
         style="fill:#212554;fill-opacity:1;fill-rule:nonzero;stroke:none;stroke-width:0.1"
         id="path6451" />
      <path
         d="m 219.105,331.172 c 0.056,-0.664 0.111,-1.717 -0.389,-2.049 -0.497,-0.332 -2.269,-1.219 -4.403,-0.415 -1.761,0.662 -1.773,1.163 -3.019,1.856 -0.997,0.552 -1.634,0.109 -1.8,1.051 -0.167,0.943 -0.084,1.275 -0.084,1.275 l 5.928,-0.886 3.767,-0.832"
         style="fill:#201e1d;fill-opacity:1;fill-rule:nonzero;stroke:none;stroke-width:0.1"
         id="path6453" />
      <path
         d="m 209.41,332.89 c 0.055,0.664 -0.153,2.008 0.61,6.648 0.095,0.577 4.697,0.768 4.697,0.768 -0.194,-2.372 0.189,-5.327 3.114,-7.526 2.389,-1.798 1.063,-2.688 -0.997,-2.992 -1.496,-0.223 -3.709,-0.24 -5.209,1.607 -0.074,0.091 -2.327,0.151 -2.215,1.495"
         style="fill:#100f0d;fill-opacity:1;fill-rule:nonzero;stroke:none;stroke-width:0.1"
         id="path6455" />
      <path
         d="m 211.797,414.27 c -0.261,-0.909 -0.558,-2.169 -0.36,-3.123 0.09,-0.423 0.54,-0.63 0.675,-0.99 0.441,-1.161 -1.683,-2.736 -2.394,-2.682 -0.702,0.054 -5.922,3.285 -5.922,3.285 0,0 0.855,0.441 1.161,1.215 0.666,1.692 0.324,4.239 0.432,4.923 0.162,1.026 6.408,-2.628 6.408,-2.628"
         style="fill:#d1a18a;fill-opacity:1;fill-rule:nonzero;stroke:none;stroke-width:0.1"
         id="path6457" />
      <g
         id="g6459"
         transform="scale(0.1)">
        <g
           id="g6461"
           clip-path="url(#clipPath6465)">
          <path
             d="m 2114.56,4127.97 c 0.17,1.05 0.35,2.08 0.55,3.11 0.13,-0.78 0.22,-1.5 0.25,-2.15 -0.22,-0.28 -0.49,-0.6 -0.8,-0.96 m -62.15,2.41 c 0.47,3.39 0.78,6.99 0.98,10.59 0.06,0 0.13,0 0.19,0 -0.21,-3.53 -0.57,-7.11 -1.17,-10.59 m 57.68,16.81 c -5.7,3.19 -13.82,7.62 -22.13,11.79 l 19.03,-2.69 c -0.08,-0.81 1.38,-4.52 3.1,-9.1"
             style="fill:url(#linearGradient6473);fill-opacity:1;fill-rule:nonzero;stroke:none"
             id="path6475" />
        </g>
      </g>
      <g
         id="g6477"
         transform="scale(0.1)">
        <g
           id="g6479"
           clip-path="url(#clipPath6483)">
          <path
             d="m 2053.58,4140.97 c -0.06,0 -0.13,0 -0.19,0 0.83,14.69 -0.13,29.42 -0.04,30.53 l 2.22,-0.87 c -0.95,-0.24 -1.54,-0.77 -1.68,-1.65 -0.67,-4.27 0.41,-15.82 -0.31,-28.01"
             style="fill:url(#linearGradient6491);fill-opacity:1;fill-rule:nonzero;stroke:none"
             id="path6493" />
        </g>
      </g>
      <g
         id="g6495"
         transform="scale(0.1)">
        <g
           id="g6497"
           clip-path="url(#clipPath6501)">
          <path
             d="m 2078.05,4093.05 c -13.38,5.87 -26.77,16.03 -30.55,21.01 2.46,3.55 3.99,9.52 4.91,16.32 0.6,3.48 0.96,7.06 1.17,10.59 0.72,12.19 -0.36,23.74 0.31,28.01 0.14,0.88 0.73,1.41 1.68,1.65 l 28.11,-11.01 h 0.18 0.18 v -0.09 l 3.92,-0.55 c 8.31,-4.17 16.43,-8.6 22.13,-11.79 1.96,-5.23 4.26,-11.6 5.02,-16.11 -0.2,-1.03 -0.38,-2.06 -0.55,-3.11 -5.22,-6.09 -21.84,-22.87 -36.51,-34.92"
             style="fill:url(#linearGradient6509);fill-opacity:1;fill-rule:nonzero;stroke:none"
             id="path6511" />
        </g>
      </g>
      <path
         d="m 215.061,387.182 c 1.144,-2.995 1.552,-4.868 1.552,-9.861 0,-4.991 -0.332,-14.642 -0.677,-18.385 -0.125,-1.379 -1.142,-23.118 -1.142,-24.803 0,-1.496 -5.577,-1.104 -6.492,-0.356 -0.912,0.749 -0.111,17.45 -0.111,19.944 0,2.498 -0.222,20.718 -0.222,22.714 0,1.997 0.632,10.408 0.632,10.408 l 6.46,0.339"
         style="fill:#212554;fill-opacity:1;fill-rule:nonzero;stroke:none;stroke-width:0.1"
         id="path6513" />
      <path
         d="m 211.94,410.701 c -0.316,-0.399 -0.609,-1.837 -2.429,-1.893 -0.958,-0.03 -1.043,-1.506 -1.043,-1.506 l 1.588,-20.865 5.535,0.069 0.227,22.772 -3.878,1.423"
         style="fill:#b1e3f8;fill-opacity:1;fill-rule:nonzero;stroke:none;stroke-width:0.1"
         id="path6515" />
      <path
         d="m 204.669,411.534 c 0.324,-0.684 3.897,-3.249 5.508,-2.556 0.108,0.045 0.504,-22.374 0.504,-22.374 h -8.388 l 0.135,23.904 c 0,0 1.989,0.738 2.241,1.026"
         style="fill:#87c8ef;fill-opacity:1;fill-rule:nonzero;stroke:none;stroke-width:0.1"
         id="path6517" />
      <path
         d="m 193.261,330.508 c -0.111,-1.108 0.236,-1.873 0.83,-2.188 0.942,-0.499 3.121,-0.73 4.322,0 1.53,0.929 2.604,1.689 3.268,1.689 0.666,0 1.939,0.555 1.939,0.555 0,0 0.333,2.52 0,2.52 -0.331,0 -10.359,-2.576 -10.359,-2.576"
         style="fill:#201e1d;fill-opacity:1;fill-rule:nonzero;stroke:none;stroke-width:0.1"
         id="path6519" />
      <path
         d="m 203.169,337.027 c 0.189,-1.361 1.054,-4.024 0.295,-5.098 0,0 -0.887,-0.813 -1.92,-0.887 -0.924,-0.064 -1.31,-0.687 -1.94,-1.061 -2.244,-1.329 -3.459,-0.884 -4.765,-0.637 -1.547,0.294 -2.465,0.954 -0.461,2.29 2.659,1.772 3.453,3.321 3.971,4.876 0.521,1.563 4.82,0.517 4.82,0.517"
         style="fill:#100f0d;fill-opacity:1;fill-rule:nonzero;stroke:none;stroke-width:0.1"
         id="path6521" />
      <path
         d="m 213.84,410.121 c -0.711,-1.575 -1.854,-4.086 -3.663,-4.581 -1.188,0.027 -3.375,2.682 -4.131,3.438 -0.738,0.738 -2.511,2.142 -2.511,2.142 -1.071,-0.18 -5.346,-2.439 -6.795,-2.439 0.45,-1.332 1.629,-6.795 1.845,-10.341 0.225,-3.546 1.503,-8.109 0.297,-11.97 -2.07,-6.651 -1.458,-29.475 -1.917,-31.464 -1.629,-7.056 -2.07,-22.014 -2.07,-22.014 0,0 3.771,-0.225 5.319,-0.225 1.548,0 3.213,0.333 3.879,1.224 0.666,0.882 1.404,9.432 1.656,11.853 0.45,4.212 0.558,7.2 1.116,12.303 0.45,4.176 1.917,15.768 2.808,19.755 0,0 5.301,4.716 5.463,5.913 0.297,2.214 -0.558,28.026 -1.296,26.406"
         style="fill:#212554;fill-opacity:1;fill-rule:nonzero;stroke:none;stroke-width:0.1"
         id="path6523" />
      <path
         d="m 217.204,387.995 c 0.157,3.493 1.114,9.523 0.922,10.674 -0.222,1.329 1.33,5.651 0.666,9.917 -0.444,0.147 -5.134,1.717 -5.799,1.939 0,0 -0.526,-3.435 -2.816,-4.986 -0.112,-0.076 0.438,-22.537 -0.508,-27.737 0.886,-0.665 1.292,-1.588 1.513,-3.14 0.222,-1.551 0.557,-15.661 0.776,-17.323 0.169,-1.261 0.147,-5.935 0.519,-7.903 0.516,-2.732 0.94,-10.064 -0.684,-12.501 -0.788,-1.181 0.665,-1.44 0.665,-1.44 0,0 0.719,-1.275 -2.19,-2.055 -0.008,-0.55 7.457,-0.294 7.379,0.558 -0.11,1.219 -0.259,3.878 -0.259,5.652 0,1.771 -0.181,9.072 0.111,10.82 0.296,1.773 0.296,4.879 0.296,5.689 0,3.987 -0.068,22.494 -0.14,24.464 -0.124,3.396 -0.217,6.31 -0.451,7.372"
         style="fill:#2b398a;fill-opacity:1;fill-rule:nonzero;stroke:none;stroke-width:0.1"
         id="path6525" />
      <path
         d="m 208.265,369.972 c -1.257,-4.802 -4.358,-20.389 -4.507,-22.161 -0.146,-1.773 -1.671,-8.067 -1.846,-8.57 -0.258,-0.737 -0.294,-1.107 -1.771,-1.771 -1.026,-0.462 2.51,-0.333 1.771,-1.22 -0.737,-0.886 -1.232,-0.769 -2.511,-1.514 -0.443,-0.258 0.997,-0.775 2.289,-0.221 0.409,0.175 -2.806,-1.219 -3.804,-1.514 -0.206,-0.062 5.836,-0.664 6.316,1.071 0.505,1.824 1.108,8.624 1.774,13.887 0.503,3.987 2.373,22.332 2.289,22.013"
         style="fill:#2b398a;fill-opacity:1;fill-rule:nonzero;stroke:none;stroke-width:0.1"
         id="path6527" />
      <path
         d="m 207.081,397.269 c 0.072,-0.567 -0.018,-1.017 -0.918,-1.053 l -4.356,-0.54 c -0.9,-0.045 -1.17,0.306 -1.242,0.873 l -0.288,4.293 c -0.072,0.558 0.594,1.053 1.494,1.089 l 3.249,0.153 c 0.9,0.036 1.683,-0.387 1.755,-0.945 l 0.306,-3.87"
         style="fill:#2b398a;fill-opacity:1;fill-rule:nonzero;stroke:none;stroke-width:0.1"
         id="path6529" />
      <g
         id="g6531"
         transform="scale(0.1)">
        <g
           id="g6533"
           clip-path="url(#clipPath6537)">
          <path
             d="m 2003.22,3978.36 -1.98,38.79 8.07,0.25 c -4.37,-2.01 -7.01,-5.36 -6.54,-8.98 l 1.97,-29.4 -1.52,-0.66 m 64.9,28.36 -0.34,4.35 4.02,-2.74 -3.68,-1.61"
             style="fill:url(#linearGradient6545);fill-opacity:1;fill-rule:nonzero;stroke:none"
             id="path6547" />
        </g>
      </g>
      <g
         id="g6549"
         transform="scale(0.1)">
        <g
           id="g6551"
           clip-path="url(#clipPath6555)">
          <path
             d="m 2004.74,3979.02 -1.97,29.4 c -0.47,3.62 2.17,6.97 6.54,8.98 l 47.01,1.46 11.46,-7.79 0.34,-4.35 -63.38,-27.7"
             style="fill:url(#linearGradient6563);fill-opacity:1;fill-rule:nonzero;stroke:none"
             id="path6565" />
        </g>
      </g>
      <path
         d="m 199.742,402.437 c -0.204,-0.673 -0.102,-2.208 0.223,-2.217 0.328,-0.007 3.407,0.526 3.639,0.01 0.823,0.852 3.024,0.868 3.576,0.603 0,0 -0.256,1.701 -0.701,2.049 -0.443,0.35 -6.737,-0.445 -6.737,-0.445"
         style="fill:#2b398a;fill-opacity:1;fill-rule:nonzero;stroke:none;stroke-width:0.1"
         id="path6567" />
      <path
         d="m 218.458,397.007 c -0.04,-0.559 -0.695,-0.962 -1.462,-0.9 l -2.838,0.125 c -0.771,0.061 -1.315,0.329 -1.28,0.893 l 0.284,4.275 c 0.039,0.563 0.694,0.966 1.462,0.902 l 2.78,-0.227 c 0.769,-0.064 1.36,-0.568 1.322,-1.13 l -0.268,-3.938"
         style="fill:#212554;fill-opacity:1;fill-rule:nonzero;stroke:none;stroke-width:0.1"
         id="path6569" />
      <path
         d="m 212.999,403.034 c -0.293,-0.64 -0.608,-1.964 -0.332,-2.009 0.275,-0.045 3.102,-0.074 3.202,-0.605 0.853,0.74 2.723,0.503 3.142,0.176 0,0 0.092,1.704 -0.219,2.097 -0.313,0.393 -5.793,0.341 -5.793,0.341"
         style="fill:#212554;fill-opacity:1;fill-rule:nonzero;stroke:none;stroke-width:0.1"
         id="path6571" />
      <path
         d="m 205.795,419.406 c -0.058,2.553 -0.284,5.221 3.638,5.365 4.895,0.179 4.46,-2.732 4.645,-5.841 0.177,-3.108 -1.193,-6.697 -3.321,-6.699 -3.508,-10e-4 -4.62,1.91 -4.996,4.093 -0.531,0.237 -0.797,1.116 -1.019,1.861 -0.281,0.954 0.145,1.715 1.053,1.221"
         style="fill:#d1a18a;fill-opacity:1;fill-rule:nonzero;stroke:none;stroke-width:0.1"
         id="path6573" />
      <path
         d="m 207.591,420.327 c -0.183,-3.196 1.518,-7.663 3.303,-8.009 1.177,-0.085 1.682,0.538 2.435,1.694 0.758,1.081 1.101,6.351 0.401,8.695 -0.513,1.154 -0.533,1.977 -1.437,2.099 -3.291,-0.021 -4.551,-1.843 -4.702,-4.479"
         style="fill:#e4b9a6;fill-opacity:1;fill-rule:nonzero;stroke:none;stroke-width:0.1"
         id="path6575" />
      <path
         d="m 203.654,422.723 c 0.401,0.791 1.244,1.784 1.845,2.061 0.301,0.63 2.235,0.817 4.324,1.537 0,0 -1.728,-0.853 -1.755,-1.344 l 0.015,0.004 c -0.002,0.91 3.084,1.595 2.934,1.359 -0.86,-1.342 -0.021,-0.335 0.184,-0.923 l -0.311,0.299 c -0.079,0.583 0.712,0.022 1.169,0.139 -0.437,-1.021 0.436,-0.072 1.037,-0.936 0.755,-0.724 1.148,-1.987 0.357,-2.568 -1.824,-1.336 -3.655,0.097 -4.827,0.042 -1.063,-0.046 -1.671,-1.354 -1.893,-1.747 -0.3,-0.529 -0.599,-2.573 -0.599,-2.573 l -0.333,0.188 -0.285,0.807 -2.173,-0.225 c 0,0 -0.493,2.29 0.311,3.88"
         style="fill:#100f0d;fill-opacity:1;fill-rule:nonzero;stroke:none;stroke-width:0.1"
         id="path6577" />
      <path
         d="m 202.829,419.727 c -0.097,0.853 0.165,4.193 1.176,4.978 1.094,0.849 3.606,1.6 4.143,1.639 0.538,0.039 1.059,-4.727 0.567,-4.719 -0.493,0.007 -5.886,-1.898 -5.886,-1.898"
         style="fill:#212554;fill-opacity:1;fill-rule:nonzero;stroke:none;stroke-width:0.1"
         id="path6579" />
      <path
         d="m 206.669,421.188 c 0.229,-0.181 0.9,-1.252 1.289,-1.392 0.25,-0.091 2.385,0.758 4.762,1.09 1.222,0.171 2.579,-0.454 3.324,-0.141 0.072,0.029 0.119,0.141 0.023,0.33 0,0 -1.617,1.386 -1.859,1.396 -6.1,0.263 -7.539,-1.283 -7.539,-1.283"
         style="fill:#2b398a;fill-opacity:1;fill-rule:nonzero;stroke:none;stroke-width:0.1"
         id="path6583" />
      <path
         d="m 203.86,412.214 -2.437,-3.323 4.045,-0.664 -0.664,-1.579 5.373,-1.109 c 0,0 -3.256,3.036 -4.516,4.054 -1.26,1.021 -1.801,2.621 -1.801,2.621"
         style="fill:#2b398a;fill-opacity:1;fill-rule:nonzero;stroke:none;stroke-width:0.1"
         id="path6585" />
      <path
         d="m 212.309,411.854 2.965,-1.717 -1.937,-1.729 0.358,-0.93 -3.546,-2.05 c 0,0 1.303,2.188 2.189,3.767 0.78,1.39 -0.029,2.659 -0.029,2.659"
         style="fill:#212554;fill-opacity:1;fill-rule:nonzero;stroke:none;stroke-width:0.1"
         id="path6587" />
      <path
         d="m 198.691,367.848 -2.854,1.412 -10.858,1.108 -1.385,-0.766 1.828,-1.255 12.743,-0.998 0.526,0.499"
         style="fill:#201e1d;fill-opacity:1;fill-rule:nonzero;stroke:none;stroke-width:0.1"
         id="path6589" />
      <path
         d="m 191.043,368.564 c -0.034,-0.215 -0.198,-0.367 -0.364,-0.339 l -0.979,0.159 c -0.168,0.028 -0.274,0.223 -0.239,0.436 l 0.835,5.139 c 0.035,0.214 0.199,0.366 0.365,0.338 l 0.979,-0.159 c 0.168,-0.027 0.276,-0.224 0.241,-0.437 l -0.838,-5.137"
         style="fill:#201e1d;fill-opacity:1;fill-rule:nonzero;stroke:none;stroke-width:0.1"
         id="path6591" />
      <path
         d="m 191.239,374.607 -1.052,-0.5 c 0,0 -0.195,-0.803 -0.029,-0.857 0.167,-0.056 1.357,0.221 1.357,0.221 l -0.276,1.136"
         style="fill:#100f0d;fill-opacity:1;fill-rule:nonzero;stroke:none;stroke-width:0.1"
         id="path6593" />
      <path
         d="m 190.654,380.707 c -0.28,-1.52 -0.094,-2.451 -0.706,-3.227 -0.616,-0.779 -1.273,-2.419 -0.984,-3.415 0.144,-0.499 0.917,-1.835 1.651,-2.401 1.19,-0.922 2.683,0.42 2.726,0.767 0.076,0.615 -0.673,0.365 -0.998,0.615 -0.457,0.351 -0.757,1.404 -0.269,1.785 0.489,0.383 0.875,-2.477 2.073,-1.65 0.424,0.293 -0.726,2.667 -0.192,3.303 0.537,0.635 1.039,1.936 0.77,2.458 -0.273,0.52 -4.071,1.765 -4.071,1.765"
         style="fill:#d93e21;fill-opacity:1;fill-rule:nonzero;stroke:none;stroke-width:0.1"
         id="path6595" />
      <path
         d="m 196.743,408.678 c -1.275,-0.48 -2.844,-4.396 -3.141,-7.794 0,0 -1.439,-9.698 -1.957,-11.855 -0.665,-2.771 -2.992,-9.639 -2.327,-11.633 2.826,0.331 5.319,-2.328 5.319,-2.328 0,0 3.433,9.704 3.656,11.302 0.332,2.382 1.076,4.75 0.886,7.386 -0.295,4.137 -1.649,15.219 -2.436,14.922"
         style="fill:#2b398a;fill-opacity:1;fill-rule:nonzero;stroke:none;stroke-width:0.1"
         id="path6597" />
      <path
         d="m 198.325,365.353 c -0.029,-0.242 -0.258,-0.417 -0.515,-0.387 l -14.337,1.661 c -0.256,0.031 -0.439,0.252 -0.411,0.495 l 0.348,2.208 c 0.028,0.245 0.257,0.418 0.513,0.387 l 14.339,-1.661 c 0.254,-0.029 0.439,-0.25 0.412,-0.495 l -0.349,-2.208"
         style="fill:#100f0d;fill-opacity:1;fill-rule:nonzero;stroke:none;stroke-width:0.1"
         id="path6599" />
      <path
         d="m 195.814,355.195 c -0.027,-0.243 -0.263,-0.415 -0.525,-0.385 l -3.305,0.384 -0.186,0.467 -4.536,0.564 -0.292,-0.45 -3.366,0.39 c -0.262,0.03 -0.451,0.253 -0.423,0.495 l 0.261,10.529 c 0.027,0.243 0.262,0.416 0.524,0.386 L 197.547,366 c 0.262,-0.03 0.452,-0.252 0.424,-0.495 l -2.157,-10.31"
         style="fill:#100f0d;fill-opacity:1;fill-rule:nonzero;stroke:none;stroke-width:0.1"
         id="path6601" />
      <path
         d="m 192.828,363.423 -4.856,0.564 c -0.262,0.031 -0.497,-0.142 -0.526,-0.384 l -1.474,-7.713 1.094,-0.127 1.309,6.851 c 0.017,0.157 0.169,0.268 0.337,0.249 l 3.136,-0.363 c 0.17,-0.021 0.291,-0.163 0.274,-0.32 l -0.293,-6.969 1.092,-0.126 0.329,7.844 c 0.029,0.242 -0.16,0.466 -0.422,0.494"
         style="fill:#201e1d;fill-opacity:1;fill-rule:nonzero;stroke:none;stroke-width:0.1"
         id="path6603" />
      <path
         d="m 199.189,364.471 c -0.028,-0.242 -0.259,-0.416 -0.515,-0.385 l -16.242,1.882 c -0.257,0.03 -0.442,0.251 -0.413,0.494 l 0.187,1.613 c 0.027,0.245 0.258,0.418 0.514,0.388 l 16.242,-1.884 c 0.256,-0.029 0.442,-0.25 0.413,-0.493 l -0.186,-1.615"
         style="fill:#201e1d;fill-opacity:1;fill-rule:nonzero;stroke:none;stroke-width:0.1"
         id="path6605" />
      <path
         d="m 182.13,367.54 0.05,0.434 c 0.038,0.321 0.261,0.559 0.503,0.53 l 16.327,-1.892 c 0.24,-0.028 0.404,-0.311 0.368,-0.632 l -0.05,-0.434 -17.198,1.994"
         style="fill:#100f0d;fill-opacity:1;fill-rule:nonzero;stroke:none;stroke-width:0.1"
         id="path6607" />
      <path
         d="m 190.993,367.038 c 0.789,-0.102 1.51,0.456 1.61,1.245 0.037,0.27 -0.012,0.528 -0.113,0.758 l -2.44,0.314 c -0.158,-0.199 -0.269,-0.439 -0.303,-0.706 -0.101,-0.79 0.456,-1.511 1.246,-1.611"
         style="fill:#201e1d;fill-opacity:1;fill-rule:nonzero;stroke:none;stroke-width:0.1"
         id="path6609" />
      <path
         d="m 192.127,368.166 c -0.038,-0.241 -0.223,-0.412 -0.412,-0.381 l -1.105,0.178 c -0.187,0.031 -0.309,0.251 -0.268,0.494 l 0.942,5.797 c 0.041,0.24 0.225,0.412 0.412,0.381 l 1.105,-0.18 c 0.189,-0.031 0.31,-0.251 0.271,-0.493 l -0.945,-5.796"
         style="fill:#100f0d;fill-opacity:1;fill-rule:nonzero;stroke:none;stroke-width:0.1"
         id="path6611" />
      <path
         d="m 220.43,371.244 c -0.098,-0.137 -0.369,-0.522 -0.499,-1.209 -0.114,-0.608 -0.706,-0.949 -1.369,-0.905 -0.612,0.043 -1.359,0.315 -1.337,0.515 0.027,0.228 0.8,0.14 1.023,0.373 0.326,0.341 0.007,1.009 0.007,1.009 l -0.819,1.477 c 0,0 0.568,0.412 1.091,0.344 0.319,-0.042 1.075,0.327 1.136,0.458 0.061,0.133 0.767,-2.062 0.767,-2.062"
         style="fill:#8190b1;fill-opacity:1;fill-rule:nonzero;stroke:none;stroke-width:0.1"
         id="path6613" />
      <path
         d="m 217.673,372.217 c -0.357,-0.042 -0.871,-1.396 -0.831,-1.624 0.679,0.245 2.054,0.856 2.054,0.856 l -1.223,0.768"
         style="fill:#8190b1;fill-opacity:1;fill-rule:nonzero;stroke:none;stroke-width:0.1"
         id="path6615" />
      <path
         d="m 217.588,372.23 c -0.311,-0.156 -0.741,-1.338 -0.74,-1.5 0.317,0.115 0.852,0.387 1.242,0.557 0,0 0.509,-0.833 0.22,-1.136 -0.196,-0.206 -1.033,-0.285 -1.085,-0.483 -0.033,-0.122 0.594,-0.383 1.137,-0.418 0.586,-0.041 1.084,0.368 1.224,0.899 0.269,1.019 0.553,1.422 0.85,1.667 0,0 -0.795,1.565 -0.85,1.448 -0.055,-0.118 -0.87,-0.446 -1.153,-0.41 -0.464,0.06 -0.997,-0.35 -0.997,-0.35 l 0.152,-0.274"
         style="fill:#b5c0d2;fill-opacity:1;fill-rule:nonzero;stroke:none;stroke-width:0.1"
         id="path6617" />
      <path
         d="m 220.324,372.266 c -0.191,-0.2 -0.605,-0.6 -0.605,-0.6 l -0.694,-0.133 c -0.053,0.064 -0.242,0.517 -0.472,0.909 l 0.695,0.133 0.637,0.552 0.439,-0.861"
         style="fill:#8190b1;fill-opacity:1;fill-rule:nonzero;stroke:none;stroke-width:0.1"
         id="path6619" />
      <path
         d="m 226.096,379.56 c 0.151,0.158 0.398,0.164 0.554,0.015 0.157,-0.149 0.163,-0.397 0.015,-0.554 -0.149,-0.156 -0.397,-0.162 -0.554,-0.014 -0.157,0.149 -0.163,0.397 -0.015,0.553 z m -5.764,-8.453 7.371,7.347 c 0.421,0.442 0.101,1.476 -0.341,1.895 -0.441,0.42 -1.238,0.449 -1.658,0.008 l -6.402,-7.127 1.03,-2.123"
         style="fill:#731518;fill-opacity:1;fill-rule:nonzero;stroke:none;stroke-width:0.1"
         id="path6621" />
      <path
         d="m 226.096,379.56 c 0.151,0.158 0.398,0.164 0.554,0.015 0.157,-0.149 0.163,-0.397 0.015,-0.554 -0.149,-0.156 -0.397,-0.162 -0.554,-0.014 -0.157,0.149 -0.163,0.397 -0.015,0.553 z m -5.961,-8.058 7.23,7.196 c 0.262,0.277 -0.049,1.048 -0.325,1.31 -0.277,0.263 -0.898,0.408 -1.16,0.133 l -6.49,-7.02 0.745,-1.619"
         style="fill:#b11d23;fill-opacity:1;fill-rule:nonzero;stroke:none;stroke-width:0.1"
         id="path6623" />
      <path
         d="m 225.251,378.12 c -0.506,0.735 -0.834,1.559 -0.893,2.087 0,0 -2.496,-0.647 -3.431,-1.996 -0.077,-0.114 0.259,-0.399 0.031,-1.431 -0.453,-1.108 -0.869,-2.054 -0.445,-2.184 0.405,-0.125 0.871,1.111 1.158,0.988 0,0 0.284,-0.356 0.345,-0.558 0.093,-0.3 0.285,-0.844 0.317,-1.134 0.051,-0.49 -0.141,-0.74 -0.078,-0.91 0.103,-0.273 0.71,-0.074 0.824,0.014 0.287,0.355 0.411,0.725 0.411,0.725 l 0.758,0.104 c 0,0 1.324,0.721 1.476,0.968 0.153,0.245 0.522,1.609 -0.473,3.327"
         style="fill:#f46e16;fill-opacity:1;fill-rule:nonzero;stroke:none;stroke-width:0.1"
         id="path6625" />
    </g>
  </g>
</svg>
