<?xml version="1.0" encoding="UTF-8" standalone="no"?>
<svg
   xmlns:dc="http://purl.org/dc/elements/1.1/"
   xmlns:cc="http://creativecommons.org/ns#"
   xmlns:rdf="http://www.w3.org/1999/02/22-rdf-syntax-ns#"
   xmlns:svg="http://www.w3.org/2000/svg"
   xmlns="http://www.w3.org/2000/svg"
   xmlns:sodipodi="http://sodipodi.sourceforge.net/DTD/sodipodi-0.dtd"
   xmlns:inkscape="http://www.inkscape.org/namespaces/inkscape"
   width="129.85825"
   height="135.15643"
   viewBox="0 0 129.85825 135.15643"
   version="1.1"
   id="SVGRoot"
   sodipodi:docname="4.svg"
   inkscape:version="1.0.1 (0767f8302a, 2020-10-17)">
  <defs
     id="defs17978" />
  <sodipodi:namedview
     id="base"
     pagecolor="#ffffff"
     bordercolor="#666666"
     borderopacity="1.0"
     inkscape:pageopacity="0.0"
     inkscape:pageshadow="2"
     inkscape:zoom="0.35"
     inkscape:cx="375.77236"
     inkscape:cy="537.59539"
     inkscape:document-units="px"
     inkscape:current-layer="layer1"
     inkscape:document-rotation="0"
     showgrid="false"
     inkscape:window-width="1366"
     inkscape:window-height="681"
     inkscape:window-x="0"
     inkscape:window-y="57"
     inkscape:window-maximized="0" />
  <metadata
     id="metadata17981">
    <rdf:RDF>
      <cc:Work
         rdf:about="">
        <dc:format>image/svg+xml</dc:format>
        <dc:type
           rdf:resource="http://purl.org/dc/dcmitype/StillImage" />
        <dc:title></dc:title>
      </cc:Work>
    </rdf:RDF>
  </metadata>
  <g
     inkscape:label="Layer 1"
     inkscape:groupmode="layer"
     id="layer1"
     transform="translate(-24.227639,-22.404607)">
    <g
       id="g17912"
       transform="matrix(1.3333333,0,0,-1.3333333,-315.22978,589.17624)">
      <path
         d="m 293.995,396.381 c 1.074,-0.772 1.435,-0.572 2.211,-0.641 0.774,-0.068 1.115,-0.039 1.771,-0.349 0.658,-0.308 3.035,-1.58 2.71,-1.862 -0.325,-0.282 -0.703,-0.3 -1.228,-0.129 -0.519,0.174 -1.139,0.541 -1.139,0.541 0,0 1.944,-1.039 1.89,-1.322 -0.054,-0.283 -3.278,-2.028 -3.927,-2.044 -0.65,-0.016 -1.692,0.54 -2.306,0.911 -0.619,0.37 -1.494,0.889 -1.852,1.039 -0.353,0.15 1.87,3.856 1.87,3.856"
         style="fill:#d93e21;fill-opacity:1;fill-rule:nonzero;stroke:none;stroke-width:0.1"
         id="path11449" />
      <path
         d="m 287.63,400.232 c 0,0 -1.908,3.28 -3.758,7.065 -0.925,2.946 -2.194,4.478 -2.955,4.829 0,0 -2.248,-5.267 -2.009,-7.268 0.419,-3.535 5,-9.984 5.805,-10.237 0.199,-0.063 7.181,-4.151 7.181,-4.151 0,0 3.217,4.859 3.31,5.384 -0.764,0.349 -7.574,4.378 -7.574,4.378"
         style="fill:#2b398a;fill-opacity:1;fill-rule:nonzero;stroke:none;stroke-width:0.1"
         id="path11451" />
      <path
         d="m 266.03,341.234 c -0.345,-1.63 -0.471,-4.004 0.277,-4.152 2.705,-0.533 2.045,0.629 4.054,-0.399 1.507,-0.781 5.431,-0.885 6.008,-0.414 0.505,0.412 0.91,2.355 -1.285,2.663 -2.192,0.31 -3.391,2.21 -4.109,3.393 -0.718,1.182 -2.136,1.573 -2.136,1.573 l -2.306,-0.393 -0.503,-2.271"
         style="fill:#100f0d;fill-opacity:1;fill-rule:nonzero;stroke:none;stroke-width:0.1"
         id="path11453" />
      <path
         d="m 268.386,339.72 c 1.31,4.567 4.128,25.324 6.325,42.323 l -5.385,-4.459 c -0.699,-7.288 -2.801,-16.027 -3.713,-22.285 -1.068,-7.325 -0.896,-11.836 -0.801,-15.516 0,0 1.964,-0.831 3.574,-0.063"
         style="fill:#212554;fill-opacity:1;fill-rule:nonzero;stroke:none;stroke-width:0.1"
         id="path11455" />
      <path
         d="m 255.725,342.721 5.583,0.226 c 0,0 0.114,-4.042 3.757,-5.318 1.214,-0.423 1.371,-2.16 -0.22,-2.807 -1.589,-0.649 -5.096,-0.37 -6.525,1.089 -1.426,1.46 -1.538,0.235 -2.644,0.898 -1.105,0.663 -0.387,3.154 -0.267,4.682 l 0.316,1.23"
         style="fill:#100f0d;fill-opacity:1;fill-rule:nonzero;stroke:none;stroke-width:0.1"
         id="path11457" />
      <path
         d="m 266.213,358.568 c 0.673,1.383 3.405,9.508 4.028,11.821 3.478,12.901 5.444,12.189 6.154,18.806 0.258,2.363 0.007,9.04 -0.171,10.771 -0.038,0.364 -2.503,-3.25 -3.701,-3.113 l -4.738,-22.766 c -2.645,-12.139 -8.045,-28.158 -7.763,-35.982 0.896,-0.101 2.366,-0.237 3.486,-0.084 0,0 1.2,17.453 2.705,20.547"
         style="fill:#2b398a;fill-opacity:1;fill-rule:nonzero;stroke:none;stroke-width:0.1"
         id="path11459" />
      <path
         d="m 277.002,413.197 -0.531,1.801 c 0,0 -6.637,-2.096 -8.531,-7.525 -1.638,-4.697 -4.266,-12.694 -5.073,-16.922 -1.035,-1.964 -2.416,-5.047 -2.386,-8.832 0.036,-4.54 -1.943,-16.84 -3.252,-21.032 -4.353,-13.883 -2.002,-22.08 -2.002,-22.08 0,0 0.647,-0.892 4.917,-0.304 0,0 3.472,16.718 3.839,19.256 0.126,0.871 6.321,25.595 8.446,30.05 1.024,2.145 2.624,7.424 2.449,9.16 -0.019,0.194 0.938,13.178 1.177,13.269 1.262,0.501 0.947,3.159 0.947,3.159"
         style="fill:#212554;fill-opacity:1;fill-rule:nonzero;stroke:none;stroke-width:0.1"
         id="path11461" />
      <path
         d="m 281.01,408.869 c 0,0 -1.074,1.322 -2.578,2.917 -1.504,1.593 -0.943,1.474 -0.943,1.474 l -3.451,-2.187 c 0,0 3.786,-12.621 0.84,-12.117 0,0 -0.795,-8.626 -2.056,-15.105 -0.054,-0.27 -1.652,-19.939 -2.235,-23.77 -1.766,-11.611 -2.777,-20.95 -2.777,-20.95 0,0 1.66,0.032 5.372,0.703 -0.696,1.72 -0.098,12.531 0.53,17.855 0.222,1.891 0.97,4.611 1.003,5.018 0.381,4.429 2.364,19.547 3.014,21.284 7.067,18.847 3.616,23.461 3.281,24.878"
         style="fill:#2b398a;fill-opacity:1;fill-rule:nonzero;stroke:none;stroke-width:0.1"
         id="path11463" />
      <path
         d="m 321.264,337.675 c 0,-2.277 -8.328,-4.124 -18.597,-4.124 -10.27,0 -18.595,1.847 -18.595,4.124 0,2.278 8.325,4.124 18.595,4.124 10.269,0 18.597,-1.846 18.597,-4.124"
         style="fill:#d1a18a;fill-opacity:1;fill-rule:nonzero;stroke:none;stroke-width:0.1"
         id="path11465" />
      <path
         d="m 320.085,337.39 c 0,-2.076 -7.798,-3.76 -17.418,-3.76 -9.618,0 -17.417,1.684 -17.417,3.76 0,2.077 7.799,3.76 17.417,3.76 9.62,0 17.418,-1.683 17.418,-3.76"
         style="fill:#61201b;fill-opacity:1;fill-rule:nonzero;stroke:none;stroke-width:0.1"
         id="path11467" />
      <path
         d="m 317.629,335.467 c -1.962,1.536 -7.919,2.654 -14.962,2.654 -7.043,0 -13,-1.118 -14.961,-2.654 3.039,-1.101 8.6,-1.837 14.961,-1.837 6.361,0 11.924,0.735 14.962,1.837"
         style="fill:#291313;fill-opacity:1;fill-rule:nonzero;stroke:none;stroke-width:0.1"
         id="path11469" />
      <path
         d="m 318.22,355.677 c -1.063,-0.787 -1.428,-0.593 -2.203,-0.672 -0.773,-0.079 -1.112,-0.056 -1.767,-0.374 -0.654,-0.319 -3.01,-1.627 -2.682,-1.902 0.332,-0.279 0.709,-0.29 1.231,-0.111 0.517,0.18 1.13,0.558 1.13,0.558 0,0 -1.928,-1.067 -1.868,-1.352 0.057,-0.279 2.905,-1.72 3.556,-1.727 0.649,-0.008 1.378,1.33 1.986,1.71 0.612,0.38 1.744,0.514 2.101,0.668 0.349,0.155 -1.484,3.202 -1.484,3.202"
         style="fill:#d93e21;fill-opacity:1;fill-rule:nonzero;stroke:none;stroke-width:0.1"
         id="path11471" />
      <path
         d="m 331.067,341.083 c 0.141,-1.75 1.191,-5.021 0,-4.913 -1.194,0.109 -1.673,0.054 -3.345,-0.111 -1.668,-0.163 -6.524,-0.664 -6.41,0.588 0.115,1.253 0.896,1.692 1.766,1.733 2.102,0.102 4.087,3.34 4.838,3.038 1.013,-0.408 3.151,-0.335 3.151,-0.335"
         style="fill:#100f0d;fill-opacity:1;fill-rule:nonzero;stroke:none;stroke-width:0.1"
         id="path11473" />
      <path
         d="m 336.995,354.144 c -2.006,-0.029 -10.549,5.819 -14.26,3.636 -2.002,-1.178 -1.55,-5.459 0.28,-10.192 1.285,-3.326 2.785,-9.753 3.66,-9.971 1.487,-0.372 6.776,1.61 7.408,1.974 0.637,0.364 -3.459,10.724 -4,11.089 -0.54,0.363 5.901,-6.025 8.519,-4.859 l -1.607,8.323"
         style="fill:#212554;fill-opacity:1;fill-rule:nonzero;stroke:none;stroke-width:0.1"
         id="path11475" />
      <path
         d="m 331.841,370.283 c -0.623,-0.524 -0.889,-2.384 -2.011,-4.144 -1.437,-2.258 -3.288,-4.394 -5.491,-6.245 -1.964,-1.655 -8.39,-4.775 -8.39,-4.775 l 3.028,-4.629 c 0,0 7.13,3.795 8.329,4.459 4.712,2.61 8.107,9.997 8.107,9.997 l -3.572,5.337"
         style="fill:#8190b1;fill-opacity:1;fill-rule:nonzero;stroke:none;stroke-width:0.1"
         id="path11477" />
      <path
         d="m 331.26,366.182 c -2.312,1.768 -4.206,2.566 -4.206,2.566 l 2.524,5.114 c 0,0 3.8,-2.291 5.007,-2.546 0.692,-0.145 -3.325,-5.134 -3.325,-5.134"
         style="fill:#d1a18a;fill-opacity:1;fill-rule:nonzero;stroke:none;stroke-width:0.1"
         id="path11479" />
      <path
         d="m 328.485,378.764 c -0.508,0.787 -1.523,0.895 -2.188,1.093 -2.898,1.14 -6.683,-1.877 -6.646,-4.545 0.022,-1.523 1.062,-2.767 2.147,-4.474 0.043,-0.435 0.476,-1.569 0.455,-2.212 0.117,-0.407 0.685,-0.132 1.247,-0.003 0.887,-0.994 1.719,-1.621 2.398,-1.577 0.666,0.04 2.961,1.538 3.149,1.624 0,0 4.338,2.532 -0.562,10.094"
         style="fill:#d1a18a;fill-opacity:1;fill-rule:nonzero;stroke:none;stroke-width:0.1"
         id="path11481" />
      <path
         d="m 325.704,380.682 c -0.938,0.499 -1.584,-0.178 -3.508,-1.364 -1.859,-1.155 -2.092,-0.388 -2.543,-2.482 -0.226,-1.074 0.652,-2.529 0.652,-2.529 0,0 0.629,0.586 1.15,0.729 0.521,0.143 0.003,-0.086 1.105,-0.608 0.928,-0.439 1.374,-0.93 1.374,-0.93 0,0 3.493,0.997 3.909,0.355 0.269,-0.414 2.938,-0.822 4.072,-1.023 0,0 -0.335,1.939 -1.416,4.215 -1.458,3.057 -4.579,3.518 -4.795,3.637"
         style="fill:#2a1412;fill-opacity:1;fill-rule:nonzero;stroke:none;stroke-width:0.1"
         id="path11483" />
      <path
         d="m 326.338,373.829 c 0.13,0.489 0.217,1.264 0.831,1.161 0.903,-0.151 1.941,-1.279 1.55,-2.321 -0.391,-1.042 -2.381,1.16 -2.381,1.16"
         style="fill:#d1a18a;fill-opacity:1;fill-rule:nonzero;stroke:none;stroke-width:0.1"
         id="path11485" />
      <path
         d="m 331.514,370.011 c 0.582,1.899 1.178,2.398 1.178,2.398 2.27,-0.757 8.835,-1.64 13.055,-16.29 0,0 -6.983,-7.314 -8.414,-7.314 -1.231,2.099 -7.491,11.364 -7.67,16.999 -0.029,0.928 1.532,3.169 1.851,4.207"
         style="fill:#b5c0d2;fill-opacity:1;fill-rule:nonzero;stroke:none;stroke-width:0.1"
         id="path11487" />
      <path
         d="m 346.378,343.857 c 1.348,1.258 1.96,1.741 3.457,1.585 1.498,-0.158 1.641,-1.012 1.641,-2.272 0,-1.259 0.574,-3.059 0.505,-4.544 -0.05,-1.066 -0.752,-3.177 -4.195,-2.705 -2.247,0.314 0.3,2.155 0.599,3.413 0.303,1.261 -2.007,4.523 -2.007,4.523"
         style="fill:#211e1e;fill-opacity:1;fill-rule:nonzero;stroke:none;stroke-width:0.1"
         id="path11489" />
      <path
         d="m 338.96,366.586 c 0,0.2 1.632,1.271 1.707,1.17 6.022,-8.513 9.775,-17.372 7.969,-21.431 -1.496,-3.371 -12.222,-5.678 -13.023,-6.116 -0.184,-0.1 12.066,6.002 12.764,4.767 0.848,-1.501 1.819,-6.635 0.384,-7.486 -3.527,-2.098 -12.824,-1.045 -14.532,-1.026 -2.826,0.028 -4.871,0.362 -4.871,1.817 -0.005,5.882 10.184,11.859 10.184,11.859 l -6.971,10.758 c 0,0 6.38,-2.59 6.389,5.688"
         style="fill:#2b398a;fill-opacity:1;fill-rule:nonzero;stroke:none;stroke-width:0.1"
         id="path11491" />
      <path
         d="m 347.618,336.445 c -5.865,-0.932 -13.867,-1.024 -18.291,-0.975 -2.827,0.034 -6.02,3.016 -4.419,4.924 3.281,3.912 9.844,8.835 9.844,8.835 l -4.794,13.566 c 0,0 6.31,-2.313 8.709,0.905 0.614,-1.25 3.658,-8.918 4.416,-10.873 0.291,-0.755 2.524,-4.166 -2.776,-6.754 -3.287,-1.604 -8.203,-4.165 -7.952,-5.302 0.393,-1.761 14.353,-1.703 17.04,-0.251 0.872,-2.348 -1.199,-3.985 -1.777,-4.075"
         style="fill:#212554;fill-opacity:1;fill-rule:nonzero;stroke:none;stroke-width:0.1"
         id="path11493" />
      <path
         d="m 341.787,364.271 c -0.345,1.709 -4.013,5.708 -5.739,6.387 -2.618,1.038 -4.56,0.141 -4.908,-3.273 -0.348,-3.41 1.199,-6.839 1.199,-6.839 l 2.12,0.63 c 0,0 -2.936,5.137 -2.019,7.321 0.711,1.692 4.156,3.582 7.648,-4.114 0.987,-2.178 1.699,-0.112 1.699,-0.112"
         style="fill:#2b398a;fill-opacity:1;fill-rule:nonzero;stroke:none;stroke-width:0.1"
         id="path11495" />
      <path
         d="m 329.65,378.454 c 1.007,0.085 1.953,-0.36 1.593,-0.817 -0.36,-0.458 -2.533,-1.368 -4.266,-2.201 -1.734,-0.831 -5.523,-3.832 -6.007,-4.358 -0.484,-0.526 -1.02,-0.78 -1.713,-0.809 -0.693,-0.031 -2.738,0.052 -2.333,0.891 0.409,0.837 1.61,2.279 2.335,3.067 0.725,0.788 7.54,3.919 8.487,3.957 0.945,0.041 1.904,0.27 1.904,0.27"
         style="fill:#f46e16;fill-opacity:1;fill-rule:nonzero;stroke:none;stroke-width:0.1"
         id="path11497" />
      <path
         d="m 331.083,378.152 -0.073,-0.241 c -0.36,-0.458 -2.533,-1.371 -4.264,-2.201 -1.736,-0.831 -5.524,-3.833 -6.008,-4.358 -0.483,-0.525 -1.02,-0.781 -1.713,-0.809 -0.5,-0.022 -1.695,0.017 -2.178,0.354 0.102,-0.593 1.768,-0.657 2.379,-0.632 0.692,0.031 1.231,0.285 1.713,0.811 0.484,0.526 4.273,3.528 6.007,4.36 1.733,0.831 3.905,1.743 4.265,2.2 0.147,0.186 0.075,0.369 -0.128,0.516"
         style="fill:#d93e21;fill-opacity:1;fill-rule:nonzero;stroke:none;stroke-width:0.1"
         id="path11499" />
      <path
         d="m 330.347,377.914 c -0.256,0.457 -1.457,2.123 -1.83,2.471 -1.542,1.439 -3.909,1.558 -6.202,0.688 -3.101,-1.177 -4.759,-4.384 -3.702,-7.164 0.079,-0.212 0.438,-1.052 0.544,-1.245 0.765,-0.219 2.229,0.154 2.88,0.586 1.058,0.7 2.573,1.975 3.807,2.602 1.615,0.821 2.533,1.465 4.503,2.062"
         style="fill:#d93e21;fill-opacity:1;fill-rule:nonzero;stroke:none;stroke-width:0.1"
         id="path11501" />
      <path
         d="m 324.339,380.949 c 0.758,0.285 1.524,0.463 2.263,0.523 -1.301,0.35 -2.809,0.204 -4.289,-0.356 -3.099,-1.178 -4.758,-4.384 -3.702,-7.166 0.079,-0.209 0.439,-1.051 0.544,-1.243 0.476,-0.138 1.111,-0.053 1.763,0.14 -0.146,0.328 -0.335,0.781 -0.392,0.928 -1.055,2.78 0.716,5.996 3.813,7.174"
         style="fill:#f46e16;fill-opacity:1;fill-rule:nonzero;stroke:none;stroke-width:0.1"
         id="path11503" />
      <path
         d="m 298.887,392.211 c -0.377,-0.002 -0.778,-0.062 -1.214,-0.197 -5.6,-1.739 -10.927,-5.148 -15.137,-12.309 -1.54,-2.63 -2.323,-5.394 -2.323,-8.055 0.015,-4.92 2.621,-9.529 8.31,-12.494 4.434,-2.301 9.118,-3.375 13.146,-4.074 1.548,-0.273 2.99,-0.483 4.291,-0.689 1.14,4.148 1.5,9.105 1.499,13.428 0.004,5.032 -0.487,9.268 -0.71,10.308 -0.858,4.107 -1.937,7.727 -3.281,10.248 -1.354,2.537 -2.867,3.834 -4.559,3.834 z m 12.909,-57.981 0.291,0.584 c 0.953,2.008 3.638,4.206 5.613,6.719 0.698,0.894 1.033,1.818 1.034,2.777 0.028,2.254 -0.757,5.155 -7.244,7.379 -0.71,0.353 -3.005,0.727 -4.466,0.986 -1.482,-4.555 -4.139,-8.3 -8.653,-8.908 -2.082,-0.278 -3.939,-0.38 -5.613,-0.38 -4.614,0.002 -7.841,0.771 -10.584,0.763 -2.39,-0.014 -4.422,-0.51 -7.079,-2.585 -0.33,-0.259 -0.805,-0.201 -1.065,0.126 -0.258,0.33 -0.199,0.806 0.13,1.065 2.852,2.26 5.388,2.92 8.014,2.908 3.017,-0.007 6.14,-0.767 10.584,-0.763 1.614,0 3.4,0.097 5.412,0.367 3.61,0.474 5.899,3.428 7.341,7.662 -1.238,0.199 -2.624,0.408 -4.102,0.66 -4.089,0.711 -8.933,1.811 -13.583,4.222 -6.113,3.152 -9.138,8.358 -9.125,13.838 0,2.958 0.865,5.986 2.53,8.821 4.373,7.48 10.109,11.181 15.995,12.991 0.565,0.173 1.118,0.264 1.661,0.264 2.563,-0.013 4.479,-1.916 5.917,-4.638 1.459,-2.748 2.55,-6.469 3.428,-10.647 0.261,-1.258 0.736,-5.468 0.74,-10.62 -0.002,-4.358 -0.347,-9.35 -1.513,-13.68 1.428,-0.261 3.769,-0.657 4.684,-1.086 6.564,-2.58 8.079,-5.545 8.107,-8.745 10e-4,-1.327 -0.484,-2.601 -1.358,-3.71 -1.918,-2.442 -4.375,-4.22 -5.274,-6.117 0,0 -1.832,-0.347 -1.822,-0.253"
         style="fill:#5a80c9;fill-opacity:1;fill-rule:nonzero;stroke:none;stroke-width:0.1"
         id="path11505" />
      <path
         d="m 277.676,393.454 c 1.808,-1.39 6.184,-5.847 6.879,-5.986 0.695,-0.139 2.226,-1.946 2.505,-2.366 0.276,-0.416 0.834,-1.436 0.556,-1.993 -0.28,-0.558 -0.379,-1.445 -0.926,-1.345 -0.383,0.07 -0.189,1.391 -0.189,1.391 0,0 0.073,-0.905 -0.728,-1.112 -0.318,-0.083 -1.172,-0.493 -1.172,-0.493 0,0 0.003,-0.578 -1.121,-0.056 -0.588,0.271 -1.882,2.279 -2.301,2.975 -0.415,0.695 -4.149,3.385 -5.679,4.637 -1.528,1.253 2.176,4.348 2.176,4.348"
         style="fill:#f46e16;fill-opacity:1;fill-rule:nonzero;stroke:none;stroke-width:0.1"
         id="path11507" />
      <path
         d="m 275.385,410.755 c 0.834,-0.837 1.297,-2.249 1.325,-5.046 0.029,-2.797 0.61,-6.584 0.946,-7.678 0.446,-1.45 7.196,-10.561 7.196,-10.561 l -4.987,-4.101 c 0,0 -6.443,6.152 -8.14,12.306 0,0 -3.824,12.393 -0.104,15.195 2.242,1.69 3.764,-0.115 3.764,-0.115"
         style="fill:#212554;fill-opacity:1;fill-rule:nonzero;stroke:none;stroke-width:0.1"
         id="path11509" />
      <path
         d="m 296.009,390.554 c 0.504,-0.084 1.352,-0.152 1.426,0.153 0.075,0.304 -0.21,1.053 -0.761,1.555 -0.548,0.503 -0.92,0.807 -1.198,0.443 -0.28,-0.369 0.589,-1.191 0.638,-1.344 0.047,-0.152 -0.105,-0.807 -0.105,-0.807"
         style="fill:#f46e16;fill-opacity:1;fill-rule:nonzero;stroke:none;stroke-width:0.1"
         id="path11511" />
      <path
         d="m 297.195,390.576 c 0.535,-0.283 1.063,-0.02 1.148,0.146 0.09,0.168 0.222,1.032 -0.182,1.438 -0.406,0.408 -0.995,0.842 -1.248,0.847 -0.256,0.004 -0.479,-0.148 -0.326,-0.464 0.155,-0.317 0.538,-1.288 0.538,-1.288 l 0.07,-0.679"
         style="fill:#f46e16;fill-opacity:1;fill-rule:nonzero;stroke:none;stroke-width:0.1"
         id="path11513" />
      <path
         d="m 298.296,390.936 c -0.474,-0.145 0.725,-0.171 0.912,0.187 0.189,0.356 0.018,1.032 -0.08,1.224 -0.095,0.194 -0.837,0.802 -1.071,0.939 -0.282,0.162 -0.684,-0.053 -0.534,-0.304 0.156,-0.252 0.69,-1.179 0.69,-1.179 l 0.083,-0.867"
         style="fill:#f46e16;fill-opacity:1;fill-rule:nonzero;stroke:none;stroke-width:0.1"
         id="path11515" />
      <path
         d="m 299.101,391.543 c 0.316,-0.105 0.461,-0.251 0.702,-0.064 0.239,0.187 0.403,0.868 0.061,1.138 -0.347,0.265 -0.962,0.705 -1.22,0.699 -0.261,-0.004 -0.279,-0.308 -0.162,-0.57 0.12,-0.262 0.619,-1.203 0.619,-1.203"
         style="fill:#f46e16;fill-opacity:1;fill-rule:nonzero;stroke:none;stroke-width:0.1"
         id="path11517" />
      <path
         d="m 322.168,349.381 c -0.655,0.055 -3.706,0.882 -3.995,0.603 -0.289,-0.279 0.136,-0.568 0.632,-0.884 0.496,-0.317 0.235,-0.304 0.235,-0.304 0,0 -0.998,-0.422 -2.316,-1.466 -0.666,-0.529 -0.793,-1.446 0.361,-0.75 -0.475,-0.509 -0.619,-1.318 0.352,-0.941 -0.384,-0.478 -0.265,-1.033 0.558,-0.726 -0.258,-0.249 -0.186,-0.632 0.338,-0.657 0.327,-0.015 1.455,-0.053 2.883,0.96 1.426,1.015 2.467,1.657 2.467,1.657 l -1.515,2.508"
         style="fill:#f46e16;fill-opacity:1;fill-rule:nonzero;stroke:none;stroke-width:0.1"
         id="path11519" />
      <path
         d="m 321.216,345.216 c -1.428,-1.013 -2.556,-0.975 -2.883,-0.96 -0.524,0.025 -0.596,0.408 -0.338,0.657 -0.64,-0.238 -0.849,0.046 -0.732,0.405 1.898,0.406 4.132,1.707 5.576,2.953 l 0.844,-1.398 c 0,0 -1.041,-0.642 -2.467,-1.657"
         style="fill:#d93e21;fill-opacity:1;fill-rule:nonzero;stroke:none;stroke-width:0.1"
         id="path11521" />
      <path
         d="m 337.236,367.487 c 1.431,-1.85 0.303,-4.194 0.303,-4.194 -0.93,-3.47 -2.215,-7.045 -4.089,-9.352 -2.19,-2.695 -9.088,-8.752 -9.088,-8.752 l -3.06,4.432 c 0,0 6.973,6.185 7.688,7.095 0.812,1.032 2.478,8.318 2.819,9.845 0.748,3.361 3.192,3.816 5.427,0.926"
         style="fill:#b5c0d2;fill-opacity:1;fill-rule:nonzero;stroke:none;stroke-width:0.1"
         id="path11523" />
      <path
         d="m 315.617,350.097 c -0.494,-0.021 -1.367,-0.354 -1.479,-0.061 -0.111,0.291 0.08,1.072 0.565,1.635 0.482,0.567 0.815,0.917 1.136,0.587 0.322,-0.331 -0.44,-1.253 -0.467,-1.41 -0.029,-0.159 0.245,-0.751 0.245,-0.751"
         style="fill:#f46e16;fill-opacity:1;fill-rule:nonzero;stroke:none;stroke-width:0.1"
         id="path11525" />
      <path
         d="m 314.393,349.935 c -0.496,-0.346 -1.167,-0.146 -1.274,0.01 -0.108,0.154 -0.231,0.991 0.12,1.444 0.352,0.455 0.885,0.957 1.136,0.994 0.252,0.035 0.492,-0.088 0.378,-0.421 -0.114,-0.334 -0.375,-1.345 -0.375,-1.345 l 0.015,-0.682"
         style="fill:#f46e16;fill-opacity:1;fill-rule:nonzero;stroke:none;stroke-width:0.1"
         id="path11527" />
      <path
         d="m 313.255,350.156 c 0.489,-0.086 -0.583,-0.222 -0.811,0.109 -0.234,0.33 -0.261,0.985 -0.188,1.19 0.073,0.206 0.733,0.899 0.949,1.063 0.259,0.196 0.685,0.032 0.566,-0.236 -0.123,-0.269 -0.541,-1.253 -0.541,-1.253 l 0.025,-0.873"
         style="fill:#f46e16;fill-opacity:1;fill-rule:nonzero;stroke:none;stroke-width:0.1"
         id="path11529" />
      <path
         d="m 312.453,350.733 c -0.501,-0.164 -0.859,-0.354 -1.12,-0.197 -0.262,0.153 -0.507,0.812 -0.199,1.12 0.309,0.306 1.228,0.794 1.486,0.821 0.258,0.026 0.314,-0.272 0.228,-0.548 -0.085,-0.273 -0.395,-1.196 -0.395,-1.196"
         style="fill:#f46e16;fill-opacity:1;fill-rule:nonzero;stroke:none;stroke-width:0.1"
         id="path11531" />
      <path
         d="m 281.292,411.618 c 0.561,-1.01 1.29,-3.591 1.29,-3.591 l -0.955,0.168 0.169,-0.729 -0.901,-2.282 c 0,0 0.621,3.404 -0.053,4.863 -0.402,0.869 0.45,1.571 0.45,1.571"
         style="fill:#212554;fill-opacity:1;fill-rule:nonzero;stroke:none;stroke-width:0.1"
         id="path11533" />
      <path
         d="m 280.842,418.909 c -0.391,-1.103 -0.784,-2.019 -3.701,-4.038 -1.462,-1.012 -0.429,-2.084 -0.429,-2.084 l 3.739,-3.862 c 0,0 1.38,2.075 3.59,2.186 1.341,0.07 -3.199,7.798 -3.199,7.798"
         style="fill:#d1a18a;fill-opacity:1;fill-rule:nonzero;stroke:none;stroke-width:0.1"
         id="path11535" />
      <path
         d="m 282.499,419.329 c 1.701,2.798 4.77,4.369 7.089,2.251 2.537,-2.307 2.537,-3.461 0.721,-6.193 -0.375,-0.565 -1.407,-1.13 -1.858,-1.687 -0.36,-1.009 -0.635,-2.191 -0.863,-2.253 -0.158,-0.045 -0.509,0.089 -0.829,0.236 -1.345,-1.319 -2.409,-1.679 -3.217,-1.144 -0.892,0.593 -3.046,2.599 -3.036,4.672 0.004,1.132 1.082,2.624 1.993,4.118"
         style="fill:#d1a18a;fill-opacity:1;fill-rule:nonzero;stroke:none;stroke-width:0.1"
         id="path11537" />
      <path
         d="m 292.472,418.048 c -0.262,-1.585 -0.912,-1.978 -1.69,-1.956 -1.844,0.054 -1.892,1.562 -2.579,1.476 -0.643,-0.078 -1.486,0.502 -1.952,0.469 -0.465,-0.033 -1.483,-0.371 -1.483,-0.371 l -1.064,0.14 -0.648,0.672 -1.04,-1.368 -3.81,-1.118 c 0,0 1.3,1.931 1.686,3.785 0.263,1.271 0.745,1.713 1.163,2.303 0.523,0.745 0.661,0.574 1.205,1.234 0.595,0.718 2.284,0.967 2.9,0.795 0.607,-0.173 0.991,-0.254 1.173,-0.545 0.184,-0.298 0.571,0.286 1.439,0.004 0.871,-0.277 0.925,-0.148 2.017,-0.811 1.091,-0.661 1.67,-2.163 2.258,-3.138 0.389,-0.644 0.425,-1.571 0.425,-1.571"
         style="fill:#2a1412;fill-opacity:1;fill-rule:nonzero;stroke:none;stroke-width:0.1"
         id="path11539" />
      <path
         d="m 284.087,418.497 c 0.093,0.79 -0.678,1.304 -1.2,0.95 -0.525,-0.363 -1.508,-2.277 -0.741,-3.083 0.766,-0.796 1.941,2.133 1.941,2.133"
         style="fill:#d1a18a;fill-opacity:1;fill-rule:nonzero;stroke:none;stroke-width:0.1"
         id="path11541" />
      <path
         d="m 279.759,406.78 1.136,-1.596 c 0,0 -0.661,3.488 -1.567,5.927 -0.314,0.846 -1.009,5.33 -1.009,5.33 l -2.526,-1.402 0.431,-4.051 1.926,-0.604 -0.449,-1.066 c 0,0 1.217,-1.318 2.058,-2.538"
         style="fill:#212554;fill-opacity:1;fill-rule:nonzero;stroke:none;stroke-width:0.1"
         id="path11543" />
      <path
         d="m 282.115,422.671 c -0.949,0.247 -1.926,-0.023 -1.657,-0.519 0.269,-0.497 2.196,-1.726 3.718,-2.808 1.522,-1.08 4.653,-4.574 5.028,-5.156 0.376,-0.581 0.848,-0.913 1.506,-1.055 0.66,-0.142 2.629,-0.399 2.379,0.47 -0.253,0.868 -1.166,2.443 -1.729,3.317 -0.565,0.873 -6.569,4.986 -7.467,5.181 -0.898,0.191 -1.778,0.57 -1.778,0.57"
         style="fill:#f46e16;fill-opacity:1;fill-rule:nonzero;stroke:none;stroke-width:0.1"
         id="path11545" />
      <path
         d="m 280.488,422.144 c 0.269,-0.496 2.195,-1.726 3.718,-2.806 1.522,-1.08 4.652,-4.573 5.03,-5.155 0.375,-0.584 0.846,-0.915 1.504,-1.056 0.582,-0.127 2.182,-0.34 2.378,0.211 -0.515,-0.243 -1.667,-0.084 -2.14,0.019 -0.658,0.142 -1.13,0.473 -1.506,1.057 -0.377,0.582 -3.508,4.075 -5.028,5.156 -1.522,1.08 -3.449,2.309 -3.719,2.805 l -0.03,0.242 c -0.218,-0.106 -0.317,-0.269 -0.207,-0.473"
         style="fill:#d93e21;fill-opacity:1;fill-rule:nonzero;stroke:none;stroke-width:0.1"
         id="path11547" />
      <path
         d="m 285.33,419.556 c 1.076,-0.802 2.315,-2.27 3.211,-3.115 0.552,-0.52 1.89,-1.118 2.659,-1.032 0.133,0.167 0.614,0.911 0.725,1.099 1.467,2.488 0.408,5.828 -2.363,7.463 -2.051,1.208 -4.335,1.484 -6.045,0.361 -0.415,-0.272 -1.839,-1.668 -2.157,-2.061 1.785,-0.898 2.557,-1.664 3.97,-2.715"
         style="fill:#d93e21;fill-opacity:1;fill-rule:nonzero;stroke:none;stroke-width:0.1"
         id="path11549" />
      <path
         d="m 290.074,416.695 c -0.076,-0.131 -0.336,-0.532 -0.53,-0.822 0.592,-0.292 1.186,-0.477 1.666,-0.426 0.131,0.168 0.614,0.913 0.725,1.102 1.464,2.486 0.407,5.826 -2.365,7.461 -1.325,0.779 -2.744,1.168 -4.043,1.047 0.697,-0.179 1.397,-0.474 2.075,-0.872 2.773,-1.636 3.938,-5.002 2.472,-7.49"
         style="fill:#f46e16;fill-opacity:1;fill-rule:nonzero;stroke:none;stroke-width:0.1"
         id="path11551" />
      <path
         d="m 303.768,330.032 c -0.122,-2.583 -7.07,-4.354 -15.519,-3.953 -8.448,0.4 -15.197,2.819 -15.075,5.404 0.123,2.584 7.073,4.353 15.52,3.953 8.447,-0.401 15.197,-2.82 15.074,-5.404"
         style="fill:#291313;fill-opacity:1;fill-rule:nonzero;stroke:none;stroke-width:0.1"
         id="path11553" />
      <path
         d="m 304.136,328.091 c -4.627,-2.665 -15.683,-3.184 -24.076,-1.292 -4.472,1.005 -7.435,3.506 -8.214,5.033 -0.273,-0.409 -0.184,-1.838 -0.141,-2.262 0.178,-1.761 3.068,-3.567 8.228,-4.729 8.392,-1.891 19.448,-1.373 24.078,1.293 0.941,0.543 1.522,1.121 1.774,1.708 0.221,0.522 0.244,2.191 -0.03,2.714 -0.309,-0.456 -0.88,-2.04 -1.619,-2.465"
         style="fill:#4e3635;fill-opacity:1;fill-rule:nonzero;stroke:none;stroke-width:0.1"
         id="path11555" />
      <path
         d="m 300.909,329.763 c -0.289,-0.15 -0.987,-0.193 -1.549,-0.092 -0.561,0.099 -0.777,0.301 -0.486,0.451 l 3.349,1.714 c 0.454,-0.29 0.788,-0.591 0.995,-0.89 z m -1.992,-1.023 -2.549,-1.307 c -0.967,-0.089 -1.995,-0.143 -3.061,-0.166 l 3.592,1.84 c 0.288,0.15 0.974,0.189 1.532,0.089 0.562,-0.101 0.781,-0.305 0.486,-0.456 z m -9.199,-1.42 4.454,2.282 c 0.29,0.147 0.961,0.189 1.507,0.089 0.55,-0.098 0.758,-0.299 0.469,-0.449 l -3.879,-1.985 c -0.837,0 -1.689,0.023 -2.551,0.063 z m -3.14,0.241 4.931,2.524 c 0.285,0.146 0.947,0.187 1.479,0.091 0.536,-0.096 0.739,-0.293 0.452,-0.441 l -4.617,-2.364 c -0.747,0.047 -1.498,0.111 -2.245,0.19 z m -2.797,0.374 5.125,2.624 c 0.283,0.143 0.931,0.184 1.452,0.091 0.525,-0.094 0.72,-0.29 0.434,-0.435 l -5.006,-2.565 c -0.677,0.081 -1.347,0.178 -2.005,0.285 z m -1.447,0.259 c -0.365,0.073 -0.715,0.148 -1.058,0.227 l 5.083,2.6 c 0.279,0.143 0.918,0.184 1.425,0.092 0.514,-0.092 0.703,-0.283 0.421,-0.427 l -5.134,-2.629 c -0.248,0.044 -0.493,0.09 -0.737,0.137 z m -3.279,0.816 4.816,2.464 c 0.275,0.141 0.905,0.182 1.4,0.093 0.501,-0.092 0.684,-0.28 0.403,-0.423 l -5.032,-2.574 c -0.567,0.14 -1.096,0.287 -1.587,0.44 z m -1.921,0.705 4.302,2.201 c 0.272,0.139 0.886,0.181 1.374,0.093 0.489,-0.088 0.668,-0.273 0.391,-0.415 l -4.702,-2.404 c -0.5,0.169 -0.957,0.347 -1.365,0.525 z m -1.546,0.864 3.462,1.771 c 0.271,0.138 0.873,0.179 1.352,0.093 0.479,-0.086 0.648,-0.27 0.376,-0.409 l -4.108,-2.099 c -0.424,0.21 -0.787,0.426 -1.082,0.644 z m -0.926,1.143 2.056,1.051 c 0.267,0.137 0.861,0.179 1.328,0.094 0.469,-0.084 0.634,-0.265 0.364,-0.402 l -3.155,-1.61 c -0.317,0.287 -0.517,0.58 -0.593,0.867 z m 3.872,1.977 1.838,0.941 c 0.87,0.116 1.807,0.203 2.798,0.258 l -2.933,-1.499 c -0.269,-0.137 -0.868,-0.181 -1.339,-0.097 -0.469,0.083 -0.633,0.262 -0.364,0.397 z m 7.974,1.265 -3.881,-1.985 c -0.272,-0.139 -0.883,-0.183 -1.365,-0.096 -0.478,0.084 -0.648,0.267 -0.379,0.402 l 3.242,1.657 c 0.772,0.028 1.569,0.033 2.383,0.022 z m 0.855,-0.018 c 0.717,-0.02 1.445,-0.059 2.178,-0.109 l -4.474,-2.287 c -0.274,-0.142 -0.897,-0.183 -1.389,-0.096 -0.488,0.086 -0.663,0.269 -0.388,0.41 z m 5.002,-0.38 -4.802,-2.455 c -0.276,-0.143 -0.911,-0.185 -1.414,-0.095 -0.5,0.088 -0.682,0.273 -0.404,0.414 l 4.586,2.347 c 0.676,-0.056 1.357,-0.127 2.034,-0.211 z m 1.896,-0.269 c 0.256,-0.04 0.507,-0.082 0.754,-0.128 l -4.899,-2.507 c -0.282,-0.143 -0.927,-0.187 -1.444,-0.095 -0.51,0.089 -0.699,0.279 -0.42,0.422 l 4.849,2.481 c 0.389,-0.052 0.777,-0.109 1.16,-0.173 z m 1.447,-0.257 c 0.627,-0.122 1.225,-0.254 1.788,-0.395 l -4.775,-2.442 c -0.281,-0.145 -0.942,-0.188 -1.467,-0.094 -0.523,0.093 -0.716,0.284 -0.435,0.429 z m 4.057,-1.065 -4.376,-2.241 c -0.288,-0.147 -0.957,-0.189 -1.493,-0.094 -0.535,0.096 -0.737,0.292 -0.451,0.437 l 4.69,2.401 c 0.588,-0.16 1.13,-0.326 1.63,-0.503 z m 1.99,-0.858 -3.634,-1.864 c -0.292,-0.148 -0.974,-0.19 -1.526,-0.093 -0.546,0.098 -0.754,0.297 -0.467,0.443 l 4.215,2.159 c 0.533,-0.208 1.007,-0.424 1.412,-0.645 z m -6.181,3.19 c -8.337,1.425 -17.944,0.626 -21.991,-1.694 -4.053,-2.324 -1.433,-5.542 6.35,-7.294 8.392,-1.89 19.448,-1.373 24.078,1.294 4.624,2.665 0.552,6.158 -8.437,7.694"
         style="fill:#6a4542;fill-opacity:1;fill-rule:nonzero;stroke:none;stroke-width:0.1"
         id="path11557" />
    </g>
  </g>
</svg>
