<?xml version="1.0" encoding="UTF-8" standalone="no"?>
<svg
   xmlns:dc="http://purl.org/dc/elements/1.1/"
   xmlns:cc="http://creativecommons.org/ns#"
   xmlns:rdf="http://www.w3.org/1999/02/22-rdf-syntax-ns#"
   xmlns:svg="http://www.w3.org/2000/svg"
   xmlns="http://www.w3.org/2000/svg"
   xmlns:xlink="http://www.w3.org/1999/xlink"
   xmlns:sodipodi="http://sodipodi.sourceforge.net/DTD/sodipodi-0.dtd"
   xmlns:inkscape="http://www.inkscape.org/namespaces/inkscape"
   width="117.19656"
   height="79.346222"
   viewBox="0 0 117.19656 79.346222"
   version="1.1"
   id="SVGRoot"
   sodipodi:docname="9.svg"
   inkscape:version="1.0.1 (0767f8302a, 2020-10-17)">
  <defs
     id="defs25636">
    <clipPath
       clipPathUnits="userSpaceOnUse"
       id="clipPath8867">
      <path
         d="m 435.328,1218.15 c 0,0 -2.844,2.58 -7.59,7.37 2.825,-2.44 5.676,-4.76 8.555,-6.95 l -0.965,-0.42"
         id="path8865" />
    </clipPath>
    <linearGradient
       x1="0"
       y1="0"
       x2="1"
       y2="0"
       gradientUnits="userSpaceOnUse"
       gradientTransform="matrix(-3.95985,332.952,332.952,3.95985,617.734,1302.15)"
       spreadMethod="pad"
       id="linearGradient8875">
      <stop
         style="stop-opacity:1;stop-color:#8190b1"
         offset="0"
         id="stop8869" />
      <stop
         style="stop-opacity:1;stop-color:#303440"
         offset="0.950549"
         id="stop8871" />
      <stop
         style="stop-opacity:1;stop-color:#303440"
         offset="1"
         id="stop8873" />
    </linearGradient>
    <clipPath
       clipPathUnits="userSpaceOnUse"
       id="clipPath8885">
      <path
         d="m 362.172,1312.48 c -17.438,31.81 -30.867,69.12 -29.981,107.81 v 0 c 0,-32.46 11.5,-71.44 29.981,-107.81 m 518.812,98.62 c 0.192,3.12 0.297,6.18 0.297,9.19 h -549.09 c 35.637,3.6 -2.16,21.78 38.7,24.75 67.019,4.87 147.004,7.09 223.007,7.91 4.497,-2.88 10.133,-4.67 14.411,-4.67 0.597,0 1.218,0.04 1.863,0.12 0.098,-0.41 0.195,-0.81 0.297,-1.2 3.91,0.76 8.601,3.04 12.465,5.99 16.007,0.11 31.742,0.15 47.023,0.15 111.008,0 198.363,-2.36 198.363,-2.36 l 32.219,-31.41 -19.555,-8.47"
         id="path8883" />
    </clipPath>
    <linearGradient
       x1="0"
       y1="0"
       x2="1"
       y2="0"
       gradientUnits="userSpaceOnUse"
       gradientTransform="matrix(-3.95985,332.952,332.952,3.95985,617.734,1302.15)"
       spreadMethod="pad"
       id="linearGradient8893">
      <stop
         style="stop-opacity:1;stop-color:#ffffff"
         offset="0"
         id="stop8887" />
      <stop
         style="stop-opacity:1;stop-color:#5c5e5f"
         offset="0.950549"
         id="stop8889" />
      <stop
         style="stop-opacity:1;stop-color:#5c5e5f"
         offset="1"
         id="stop8891" />
    </linearGradient>
    <clipPath
       clipPathUnits="userSpaceOnUse"
       id="clipPath8903">
      <path
         d="m 608.309,1448.28 c -4.278,0 -9.914,1.79 -14.411,4.67 5.137,0.05 10.274,0.1 15.372,0.14 0.269,-1.7 0.57,-3.28 0.902,-4.69 -0.645,-0.08 -1.266,-0.12 -1.863,-0.12"
         id="path8901" />
    </clipPath>
    <clipPath
       clipPathUnits="userSpaceOnUse"
       id="clipPath8921">
      <path
         d="m 610.469,1447.2 c -0.102,0.39 -0.199,0.79 -0.297,1.2 -0.332,1.41 -0.633,2.99 -0.902,4.69 4.574,0.04 9.128,0.08 13.664,0.1 -3.864,-2.95 -8.555,-5.23 -12.465,-5.99"
         id="path8919" />
    </clipPath>
    <linearGradient
       x1="0"
       y1="0"
       x2="1"
       y2="0"
       gradientUnits="userSpaceOnUse"
       gradientTransform="matrix(-3.95985,332.952,332.952,3.95985,617.734,1302.15)"
       spreadMethod="pad"
       id="linearGradient8929">
      <stop
         style="stop-opacity:1;stop-color:#b5c0d2"
         offset="0"
         id="stop8923" />
      <stop
         style="stop-opacity:1;stop-color:#40454e"
         offset="0.950549"
         id="stop8925" />
      <stop
         style="stop-opacity:1;stop-color:#40454e"
         offset="1"
         id="stop8927" />
    </linearGradient>
    <clipPath
       clipPathUnits="userSpaceOnUse"
       id="clipPath8939">
      <path
         d="m 436.293,1218.57 c -2.879,2.19 -5.73,4.51 -8.555,6.95 -13.64,13.77 -42.968,45.74 -65.566,86.96 -18.481,36.37 -29.981,75.35 -29.981,107.81 v 0 h 549.09 c 0,-3.01 -0.105,-6.07 -0.297,-9.19 L 436.293,1218.57"
         id="path8937" />
    </clipPath>
    <linearGradient
       inkscape:collect="always"
       xlink:href="#linearGradient8875"
       id="linearGradient26404"
       gradientUnits="userSpaceOnUse"
       gradientTransform="matrix(-3.95985,332.952,332.952,3.95985,617.734,1302.15)"
       x1="0"
       y1="0"
       x2="1"
       y2="0"
       spreadMethod="pad" />
    <linearGradient
       inkscape:collect="always"
       xlink:href="#linearGradient8875"
       id="linearGradient26406"
       gradientUnits="userSpaceOnUse"
       gradientTransform="matrix(-3.95985,332.952,332.952,3.95985,617.734,1302.15)"
       x1="0"
       y1="0"
       x2="1"
       y2="0"
       spreadMethod="pad" />
    <linearGradient
       inkscape:collect="always"
       xlink:href="#linearGradient8929"
       id="linearGradient26408"
       gradientUnits="userSpaceOnUse"
       gradientTransform="matrix(-3.95985,332.952,332.952,3.95985,617.734,1302.15)"
       x1="0"
       y1="0"
       x2="1"
       y2="0"
       spreadMethod="pad" />
    <linearGradient
       inkscape:collect="always"
       xlink:href="#linearGradient8929"
       id="linearGradient26410"
       gradientUnits="userSpaceOnUse"
       gradientTransform="matrix(-3.95985,332.952,332.952,3.95985,617.734,1302.15)"
       x1="0"
       y1="0"
       x2="1"
       y2="0"
       spreadMethod="pad" />
  </defs>
  <sodipodi:namedview
     id="base"
     pagecolor="#ffffff"
     bordercolor="#666666"
     borderopacity="1.0"
     inkscape:pageopacity="0.0"
     inkscape:pageshadow="2"
     inkscape:zoom="1"
     inkscape:cx="218.59828"
     inkscape:cy="194.65378"
     inkscape:document-units="px"
     inkscape:current-layer="layer1"
     inkscape:document-rotation="0"
     showgrid="false"
     inkscape:window-width="1366"
     inkscape:window-height="681"
     inkscape:window-x="0"
     inkscape:window-y="57"
     inkscape:window-maximized="0" />
  <metadata
     id="metadata25639">
    <rdf:RDF>
      <cc:Work
         rdf:about="">
        <dc:format>image/svg+xml</dc:format>
        <dc:type
           rdf:resource="http://purl.org/dc/dcmitype/StillImage" />
        <dc:title></dc:title>
      </cc:Work>
    </rdf:RDF>
  </metadata>
  <g
     inkscape:label="Layer 1"
     inkscape:groupmode="layer"
     id="layer1"
     transform="translate(-181.40172,-274.6126)">
    <g
       id="g19183"
       transform="matrix(1.3333333,0,0,-1.3333333,176.47895,494.44792)">
      <path
         d="m 63.0539,146.457 c 0,-0.837 -1.3769,-1.629 -2.223,-1.629 -0.8368,0 -2.1957,0.684 -2.1957,1.53 l 0.675,6.975 c 0,0.837 0.6839,1.521 1.5207,1.521 0.8461,0 1.53,-0.684 1.53,-1.521 l 0.693,-6.876"
         style="fill:#8190b1;fill-opacity:1;fill-rule:nonzero;stroke:none;stroke-width:0.1"
         id="path8819" />
      <path
         d="m 63.0539,146.457 -0.693,6.876 c 0,0.837 -0.6839,1.521 -1.53,1.521 l -0.0629,-0.009 c -0.1442,-1.152 -0.0989,-1.467 -0.0989,-2.907 0,-2.457 0,-5.796 0.3778,-7.218 0.8281,0.162 2.007,0.999 2.007,1.737"
         style="fill:#b5c0d2;fill-opacity:1;fill-rule:nonzero;stroke:none;stroke-width:0.1"
         id="path8821" />
      <path
         d="m 69.5641,146.923 c -0.9,1.278 -1.3938,2.617 -1.0446,4.01 h -1.5121 c 0.3496,-1.393 -0.7551,-3.604 -1.3941,-4.01 h 3.9508"
         style="fill:#8190b1;fill-opacity:1;fill-rule:nonzero;stroke:none;stroke-width:0.1"
         id="path8823" />
      <path
         d="m 69.907,150.462 c -0.0269,-0.134 -0.9574,-0.051 -2.0789,0.185 -1.1195,0.235 -2.0051,0.535 -1.9758,0.67 0.0282,0.135 0.9582,0.053 2.079,-0.185 1.1199,-0.233 2.0042,-0.535 1.9757,-0.67"
         style="fill:#b5c0d2;fill-opacity:1;fill-rule:nonzero;stroke:none;stroke-width:0.1"
         id="path8825" />
      <path
         d="m 69.5625,150.535 c 0.0406,0.189 0.227,0.312 0.418,0.272 0.1894,-0.041 0.3117,-0.227 0.2707,-0.417 -0.0387,-0.19 -0.2274,-0.31 -0.4168,-0.272 -0.1899,0.04 -0.311,0.228 -0.2719,0.417"
         style="fill:#b5c0d2;fill-opacity:1;fill-rule:nonzero;stroke:none;stroke-width:0.1"
         id="path8827" />
      <path
         d="m 65.609,151.369 c 0.041,0.189 0.2285,0.31 0.4183,0.272 0.1883,-0.041 0.311,-0.227 0.2719,-0.419 -0.041,-0.189 -0.2277,-0.311 -0.4179,-0.271 -0.1903,0.039 -0.3114,0.226 -0.2723,0.418"
         style="fill:#b5c0d2;fill-opacity:1;fill-rule:nonzero;stroke:none;stroke-width:0.1"
         id="path8829" />
      <path
         d="m 69.3188,151.513 c 0.0441,-0.108 -0.6551,-0.507 -1.5665,-0.889 -0.9101,-0.383 -1.6843,-0.603 -1.732,-0.495 -0.0453,0.11 0.6555,0.507 1.5664,0.89 0.9094,0.382 1.6867,0.604 1.7321,0.494"
         style="fill:#b5c0d2;fill-opacity:1;fill-rule:nonzero;stroke:none;stroke-width:0.1"
         id="path8831" />
      <path
         d="m 69.0383,151.395 c -0.0656,0.154 0.007,0.334 0.1625,0.398 0.1551,0.067 0.3324,-0.007 0.3972,-0.161 0.0665,-0.155 -0.0074,-0.333 -0.1628,-0.398 -0.1543,-0.066 -0.3321,0.008 -0.3969,0.161"
         style="fill:#b5c0d2;fill-opacity:1;fill-rule:nonzero;stroke:none;stroke-width:0.1"
         id="path8833" />
      <path
         d="m 65.8297,150.016 c -0.0887,0.205 0.0101,0.445 0.2152,0.53 0.2067,0.088 0.4453,-0.008 0.5332,-0.215 0.0864,-0.207 -0.0101,-0.447 -0.2172,-0.534 -0.2078,-0.087 -0.4468,0.011 -0.5312,0.219"
         style="fill:#b5c0d2;fill-opacity:1;fill-rule:nonzero;stroke:none;stroke-width:0.1"
         id="path8835" />
      <path
         d="m 56.4309,146.923 c -0.9004,1.278 -1.3942,2.617 -1.0454,4.01 h -1.5121 c 0.3496,-1.393 -0.7539,-3.604 -1.3929,-4.01 h 3.9504"
         style="fill:#8190b1;fill-opacity:1;fill-rule:nonzero;stroke:none;stroke-width:0.1"
         id="path8837" />
      <path
         d="m 56.7742,150.462 c -0.0281,-0.134 -0.9582,-0.051 -2.0789,0.185 -1.1199,0.235 -2.0051,0.535 -1.9765,0.67 0.0277,0.135 0.9582,0.053 2.0796,-0.185 1.1192,-0.233 2.0043,-0.535 1.9758,-0.67"
         style="fill:#b5c0d2;fill-opacity:1;fill-rule:nonzero;stroke:none;stroke-width:0.1"
         id="path8839" />
      <path
         d="m 56.4293,150.535 c 0.0398,0.189 0.2273,0.312 0.4168,0.272 0.1914,-0.041 0.3133,-0.227 0.2711,-0.417 -0.0387,-0.19 -0.225,-0.31 -0.4164,-0.272 -0.1903,0.04 -0.3102,0.228 -0.2715,0.417"
         style="fill:#b5c0d2;fill-opacity:1;fill-rule:nonzero;stroke:none;stroke-width:0.1"
         id="path8841" />
      <path
         d="m 52.4758,151.369 c 0.041,0.189 0.2277,0.31 0.418,0.272 0.1898,-0.041 0.3105,-0.227 0.2718,-0.419 -0.0406,-0.189 -0.2269,-0.311 -0.4179,-0.271 -0.1907,0.039 -0.3122,0.226 -0.2719,0.418"
         style="fill:#b5c0d2;fill-opacity:1;fill-rule:nonzero;stroke:none;stroke-width:0.1"
         id="path8843" />
      <path
         d="m 56.1852,151.513 c 0.0457,-0.108 -0.6559,-0.507 -1.5645,-0.889 -0.9113,-0.383 -1.6867,-0.603 -1.7328,-0.495 -0.0457,0.11 0.6543,0.507 1.5652,0.89 0.909,0.382 1.6864,0.604 1.7321,0.494"
         style="fill:#b5c0d2;fill-opacity:1;fill-rule:nonzero;stroke:none;stroke-width:0.1"
         id="path8845" />
      <path
         d="m 55.9055,151.395 c -0.066,0.154 0.0066,0.334 0.1613,0.398 0.1555,0.067 0.3336,-0.007 0.398,-0.161 0.0668,-0.155 -0.0078,-0.333 -0.1617,-0.398 -0.1551,-0.066 -0.3328,0.008 -0.3976,0.161"
         style="fill:#b5c0d2;fill-opacity:1;fill-rule:nonzero;stroke:none;stroke-width:0.1"
         id="path8847" />
      <path
         d="m 52.6965,150.016 c -0.0875,0.205 0.0113,0.445 0.2172,0.53 0.2051,0.088 0.4426,-0.008 0.5304,-0.215 0.0872,-0.207 -0.0093,-0.447 -0.2171,-0.534 -0.2071,-0.087 -0.4454,0.011 -0.5305,0.219"
         style="fill:#b5c0d2;fill-opacity:1;fill-rule:nonzero;stroke:none;stroke-width:0.1"
         id="path8849" />
      <path
         d="m 79.5016,124.786 c 1.4847,0.298 5.0531,-0.991 3.9746,-4.682 -1.1696,-4.005 -4.6328,-5.31 -2.2668,-5.685 1.6351,-0.261 -2.1543,-0.669 -2.1543,-0.669 0,0 -0.4594,0.292 -0.1863,1.561 0.4195,1.951 1.5667,3.512 0.9664,4.533 -0.9918,1.685 -2.909,1.276 -2.909,2.268 0,0.989 2.5754,2.674 2.5754,2.674"
         style="fill:#8190b1;fill-opacity:1;fill-rule:nonzero;stroke:none;stroke-width:0.1"
         id="path8851" />
      <path
         d="m 79.5016,113.454 c 0,0.964 0.7804,1.744 1.7461,1.744 0.9636,0 1.7468,-0.78 1.7468,-1.744 0,-0.967 -0.7832,-1.747 -1.7468,-1.747 -0.9657,0 -1.7461,0.78 -1.7461,1.747"
         style="fill:#8190b1;fill-opacity:1;fill-rule:nonzero;stroke:none;stroke-width:0.1"
         id="path8853" />
      <path
         d="m 43.0469,124.785 c -1.4848,0.297 -5.0489,-0.99 -3.9688,-4.68 1.1699,-4.005 4.6258,-5.31 2.268,-5.688 -1.6383,-0.261 2.1508,-0.666 2.1508,-0.666 0,0 0.459,0.288 0.189,1.557 -0.423,1.953 -1.566,3.519 -0.9718,4.536 0.9898,1.683 2.907,1.278 2.907,2.268 0,0.99 -2.5742,2.673 -2.5742,2.673"
         style="fill:#8190b1;fill-opacity:1;fill-rule:nonzero;stroke:none;stroke-width:0.1"
         id="path8855" />
      <path
         d="m 43.0492,113.454 c 0,0.964 -0.7816,1.744 -1.7461,1.744 -0.964,0 -1.7461,-0.78 -1.7461,-1.744 0,-0.967 0.7821,-1.747 1.7461,-1.747 0.9645,0 1.7461,0.78 1.7461,1.747"
         style="fill:#8190b1;fill-opacity:1;fill-rule:nonzero;stroke:none;stroke-width:0.1"
         id="path8857" />
      <path
         d="m 33.2191,142.029 c 0,-8.865 8.577,-22.59 16.5239,-22.59 h 21.8519 c 7.9563,0 16.5332,13.725 16.5332,22.59 h -54.909"
         style="fill:#b5c0d2;fill-opacity:1;fill-rule:nonzero;stroke:none;stroke-width:0.1"
         id="path8859" />
      <g
         id="g8861"
         transform="scale(0.1)">
        <g
           id="g8863"
           clip-path="url(#clipPath8867)">
          <path
             d="m 435.328,1218.15 c 0,0 -2.844,2.58 -7.59,7.37 2.825,-2.44 5.676,-4.76 8.555,-6.95 l -0.965,-0.42"
             style="fill:url(#linearGradient26404);fill-opacity:1;fill-rule:nonzero;stroke:none"
             id="path8877" />
        </g>
      </g>
      <g
         id="g8879"
         transform="scale(0.1)">
        <g
           id="g8881"
           clip-path="url(#clipPath8885)">
          <path
             d="m 362.172,1312.48 c -17.438,31.81 -30.867,69.12 -29.981,107.81 v 0 c 0,-32.46 11.5,-71.44 29.981,-107.81 m 518.812,98.62 c 0.192,3.12 0.297,6.18 0.297,9.19 h -549.09 c 35.637,3.6 -2.16,21.78 38.7,24.75 67.019,4.87 147.004,7.09 223.007,7.91 4.497,-2.88 10.133,-4.67 14.411,-4.67 0.597,0 1.218,0.04 1.863,0.12 0.098,-0.41 0.195,-0.81 0.297,-1.2 3.91,0.76 8.601,3.04 12.465,5.99 16.007,0.11 31.742,0.15 47.023,0.15 111.008,0 198.363,-2.36 198.363,-2.36 l 32.219,-31.41 -19.555,-8.47"
             style="fill:url(#linearGradient8893);fill-opacity:1;fill-rule:nonzero;stroke:none"
             id="path8895" />
        </g>
      </g>
      <g
         id="g8897"
         transform="scale(0.1)">
        <g
           id="g8899"
           clip-path="url(#clipPath8903)">
          <path
             d="m 608.309,1448.28 c -4.278,0 -9.914,1.79 -14.411,4.67 5.137,0.05 10.274,0.1 15.372,0.14 0.269,-1.7 0.57,-3.28 0.902,-4.69 -0.645,-0.08 -1.266,-0.12 -1.863,-0.12"
             style="fill:url(#linearGradient26406);fill-opacity:1;fill-rule:nonzero;stroke:none"
             id="path8913" />
        </g>
      </g>
      <g
         id="g8915"
         transform="scale(0.1)">
        <g
           id="g8917"
           clip-path="url(#clipPath8921)">
          <path
             d="m 610.469,1447.2 c -0.102,0.39 -0.199,0.79 -0.297,1.2 -0.332,1.41 -0.633,2.99 -0.902,4.69 4.574,0.04 9.128,0.08 13.664,0.1 -3.864,-2.95 -8.555,-5.23 -12.465,-5.99"
             style="fill:url(#linearGradient26408);fill-opacity:1;fill-rule:nonzero;stroke:none"
             id="path8931" />
        </g>
      </g>
      <g
         id="g8933"
         transform="scale(0.1)">
        <g
           id="g8935"
           clip-path="url(#clipPath8939)">
          <path
             d="m 436.293,1218.57 c -2.879,2.19 -5.73,4.51 -8.555,6.95 -13.64,13.77 -42.968,45.74 -65.566,86.96 -18.481,36.37 -29.981,75.35 -29.981,107.81 v 0 h 549.09 c 0,-3.01 -0.105,-6.07 -0.297,-9.19 L 436.293,1218.57"
             style="fill:url(#linearGradient26410);fill-opacity:1;fill-rule:nonzero;stroke:none"
             id="path8949" />
        </g>
      </g>
      <path
         d="m 56.1074,115.023 c -1.8168,-0.329 -3.1566,-0.944 -3.3777,-1.296 l -0.0582,-0.102 c -0.0082,-0.059 0.0433,-0.232 0.4539,-0.455 0.3898,-0.206 1.0316,-0.36 1.7398,-0.356 1.6637,0.01 3.534,0.747 4.2993,2.624 -1.1063,-0.096 -2.1446,-0.235 -3.0571,-0.415 z M 50.15,107.455 c -4.3551,1.354 -7.7992,1.839 -10.5602,1.839 -5.3089,-0.012 -8.0972,-1.739 -10.2851,-2.837 l -0.7207,1.433 c 2.0898,1.053 5.3422,3.02 11.0058,3.009 2.9508,0 6.5579,-0.521 11.0352,-1.913 4.3137,-1.34 8.5391,-1.927 12.2105,-1.927 3.5422,-0.002 6.5743,0.554 8.6391,1.463 2.0961,0.923 3.059,2.094 3.0422,3.254 v 0.077 c 0.027,0.97 -1.1961,2.016 -3.5301,2.713 -2.2773,0.692 -5.3695,1.019 -8.3699,1.018 -0.5801,0 -1.1574,-0.013 -1.725,-0.037 -0.0516,-0.183 -0.1059,-0.354 -0.1629,-0.514 -1.0375,-2.792 -3.7172,-3.834 -5.8637,-3.823 -0.925,0.001 -1.7812,0.176 -2.4812,0.538 -0.6793,0.343 -1.311,0.978 -1.3172,1.877 0.0187,0.883 0.6359,1.448 1.2984,1.837 0.6914,0.403 1.575,0.706 2.6211,0.958 1.3262,0.317 2.9114,0.54 4.6117,0.662 0.4993,2.817 0.6657,7.888 0.654,12.533 0,4.88 -0.1481,9.373 -0.1481,10.8 h 1.6047 c -0.0023,-1.361 0.1477,-5.899 0.1477,-10.8 -0.0118,-4.536 -0.1098,-9.317 -0.6204,-12.449 0.4567,0.014 0.9172,0.021 1.3809,0.022 3.1172,-0.002 6.318,-0.327 8.8348,-1.088 2.4609,-0.755 4.5297,-1.961 4.6675,-4.196 l 0.002,-0.128 c -0.0164,-2.123 -1.6691,-3.713 -4.0023,-4.726 -2.3633,-1.031 -5.5743,-1.591 -9.2833,-1.595 -3.8421,0.002 -8.216,0.612 -12.6855,2"
         style="fill:#b1e3f8;fill-opacity:1;fill-rule:nonzero;stroke:none;stroke-width:0.1"
         id="path8951" />
      <path
         d="m 64.1605,139.135 c 0,-0.191 -0.1554,-0.347 -0.3484,-0.347 H 58.234 c -0.1926,0 -0.3492,0.156 -0.3492,0.347 v 1.627 c 0,0.194 0.1566,0.349 0.3492,0.349 h 5.5781 c 0.193,0 0.3484,-0.155 0.3484,-0.349 v -1.627"
         style="fill:#ffffff;fill-opacity:1;fill-rule:nonzero;stroke:none;stroke-width:0.1"
         id="path8953" />
      <path
         d="m 53.643,109.049 c -4.6301,0 -11.0223,1.063 -19.993,3.683 l 0.352,1.206 c 8.9019,-2.603 15.2027,-3.635 19.641,-3.635 5.7922,0.021 8.3101,1.692 9.664,3.864 1.3664,2.198 1.5059,5.124 1.9805,7.681 0.8293,4.356 1.4434,13.707 1.9082,19.287 l 1.2516,-0.104 c -0.4664,-5.577 -1.0723,-14.901 -1.9262,-19.416 -0.4707,-2.416 -0.5645,-5.517 -2.1438,-8.106 -1.5824,-2.595 -4.6972,-4.46 -10.6355,-4.46 H 53.643"
         style="fill:#b11d23;fill-opacity:1;fill-rule:nonzero;stroke:none;stroke-width:0.1"
         id="path8955" />
      <path
         d="m 68.6723,137.708 c 0,-0.138 -0.1125,-0.251 -0.252,-0.251 h -1.6769 c -0.1395,0 -0.2528,0.113 -0.2528,0.251 v 2.853 c 0,0.141 0.1133,0.253 0.2528,0.253 h 1.6769 c 0.1395,0 0.252,-0.112 0.252,-0.253 v -2.853"
         style="fill:#100f0d;fill-opacity:1;fill-rule:nonzero;stroke:none;stroke-width:0.1"
         id="path8957" />
      <path
         d="m 69.0934,138.235 c 0,-0.192 -0.1563,-0.349 -0.3489,-0.349 h -2.325 c -0.1925,0 -0.348,0.157 -0.348,0.349 v 3.951 c 0,0.192 0.1555,0.35 0.348,0.35 h 2.325 c 0.1926,0 0.3489,-0.158 0.3489,-0.35 v -3.951"
         style="fill:#ffffff;fill-opacity:1;fill-rule:nonzero;stroke:none;stroke-width:0.1"
         id="path8959" />
      <path
         d="m 33.009,113.506 c 3.4789,2.309 8.2504,1.893 12.314,2.147 4.1313,0.285 7.1915,0.97 8.1118,5.079 0.3558,1.612 0.4539,4.228 0.4515,7.114 0,2.813 -0.0851,5.897 -0.0851,8.659 0,1.709 0.0332,3.296 0.1437,4.63 h 0.002 l 1.2488,-0.103 c -0.1059,-1.275 -0.1414,-2.834 -0.1414,-4.527 0,-2.736 0.0875,-5.821 0.0875,-8.659 0,-2.921 -0.0875,-5.562 -0.4809,-7.383 -1.0535,-4.896 -5.1406,-5.868 -9.2644,-6.062 -4.1871,-0.225 -8.7735,0.057 -11.686,-1.938 l -0.7015,1.043"
         style="fill:#4053ad;fill-opacity:1;fill-rule:nonzero;stroke:none;stroke-width:0.1"
         id="path8961" />
      <path
         d="m 55.5688,137.737 c 0,-0.14 -0.1133,-0.251 -0.2512,-0.251 h -1.6785 c -0.1395,0 -0.2512,0.111 -0.2512,0.251 v 2.854 c 0,0.14 0.1117,0.251 0.2512,0.251 h 1.6785 c 0.1379,0 0.2512,-0.111 0.2512,-0.251 v -2.854"
         style="fill:#100f0d;fill-opacity:1;fill-rule:nonzero;stroke:none;stroke-width:0.1"
         id="path8963" />
      <path
         d="m 55.9879,138.235 c 0,-0.192 -0.1555,-0.349 -0.3484,-0.349 h -2.3243 c -0.1937,0 -0.3488,0.157 -0.3488,0.349 v 3.951 c 0,0.192 0.1551,0.35 0.3488,0.35 h 2.3243 c 0.1929,0 0.3484,-0.158 0.3484,-0.35 v -3.951"
         style="fill:#ffffff;fill-opacity:1;fill-rule:nonzero;stroke:none;stroke-width:0.1"
         id="path8965" />
      <path
         d="m 91.5895,143.216 c 0,-2.133 -1.6071,-2.08 -3.5883,-2.08 H 33.3457 c -1.982,0 -3.5875,-0.053 -3.5875,2.08 0,2.136 1.6055,3.866 3.5875,3.866 h 54.6555 c 1.9812,0 3.5883,-1.73 3.5883,-3.866"
         style="fill:#b5c0d2;fill-opacity:1;fill-rule:nonzero;stroke:none;stroke-width:0.1"
         id="path8967" />
      <path
         d="m 50.0383,146.528 c 0.6183,0.026 1.2105,-0.218 1.8222,0.051 1.7375,0.765 2.786,1.177 2.8567,1.332 0.634,1.38 -2.1785,0.02 -1.8563,1.302 0.3653,0.588 0.7528,1.641 0.9063,1.796 0.4074,0.412 2.0105,0.483 2.0105,0.853 0,0.959 -2.4101,0.593 -3.4847,-0.215 -1.7895,-1.344 -3.5739,-2.542 -3.5739,-2.542 l 1.3192,-2.577"
         style="fill:#f46e16;fill-opacity:1;fill-rule:nonzero;stroke:none;stroke-width:0.1"
         id="path8969" />
      <path
         d="m 31.4734,151.484 c 2.0969,-1.126 6.1129,-5.409 9.3532,-6.23 0.9679,-0.246 8.6281,4.439 8.6281,4.439 l 1.3445,-5.537 c 0,0 -7.682,-5.436 -9.448,-5.69 -2.8262,-0.406 -14.2188,4.326 -14.2188,4.326 l 4.341,8.692"
         style="fill:#212554;fill-opacity:1;fill-rule:nonzero;stroke:none;stroke-width:0.1"
         id="path8971" />
      <path
         d="m 34.2914,156.384 c -0.5723,-1.048 -1.3566,-1.922 -2.7562,-3.315 -2.7711,-2.766 -2.8551,-3.388 -2.8551,-3.388 l 4.491,-4.551 c 0,0 3.823,4.171 5.3676,4.496 1.5468,0.316 -4.2473,6.758 -4.2473,6.758"
         style="fill:#d1a18a;fill-opacity:1;fill-rule:nonzero;stroke:none;stroke-width:0.1"
         id="path8973" />
      <path
         d="m 44.2273,151.828 c -0.0871,0.666 0.402,2.371 0.4145,2.82 l 0.0199,0.037 c 0.9461,0.803 1.9961,2.405 1.9008,4.37 -0.0062,0.138 -0.5574,0.268 -0.7371,0.54 -0.6906,3.296 -8.0641,6.552 -10.5899,2.29 -4.7449,-7.996 2.2801,-12.129 4.0579,-13.133 0.3214,-0.18 1.1054,-0.301 2.0703,1.224 0.6484,0.53 1.0508,0.901 1.5,1.436 0.5937,-0.104 1.116,-0.021 1.2867,0.275 l 0.0769,0.141"
         style="fill:#d1a18a;fill-opacity:1;fill-rule:nonzero;stroke:none;stroke-width:0.1"
         id="path8975" />
      <path
         d="m 38.0813,163.996 c 1.1027,0.285 2.8753,1.239 4.0769,0.737 2.2809,-0.95 4.6016,-2.688 4.7473,-4.948 0.1316,-2.116 1.6996,-2.376 1.6996,-2.376 0,0 -0.6426,-1.269 -2.0977,-1.084 -0.6043,0.078 -3.0676,1.427 -4.2531,0.844 -0.9906,-0.485 -2.3129,-0.51 -2.3129,-0.51 0,0 -1.8512,0.649 -2.2523,-0.029 -0.1368,-0.226 -1.4942,-1.635 -2.2227,-1.929 -1.4559,-0.585 -3.7027,-0.103 -3.7027,-0.103 0,0 1.2699,0.838 1.8793,4.4 0.723,4.21 2.8222,4.579 4.4383,4.998"
         style="fill:#2a1412;fill-opacity:1;fill-rule:nonzero;stroke:none;stroke-width:0.1"
         id="path8977" />
      <path
         d="m 39.5793,156.935 c 1.141,1.755 -1.1559,1.714 -1.4566,1.179 -0.3391,-0.595 -1.6372,-1.909 -0.9211,-2.883 0.7023,-0.971 2.3777,1.704 2.3777,1.704"
         style="fill:#d1a18a;fill-opacity:1;fill-rule:nonzero;stroke:none;stroke-width:0.1"
         id="path8979" />
      <path
         d="m 49.5016,156.694 c 1.2601,-0.594 1.0121,-1.357 -0.295,-1.764 -0.7339,-0.226 -1.875,0.027 -2.7703,0.623 -1.4015,0.936 -1.9562,1.617 -1.9562,1.617 l 5.0215,-0.476"
         style="fill:#100f0d;fill-opacity:1;fill-rule:nonzero;stroke:none;stroke-width:0.1"
         id="path8981" />
      <path
         d="m 33.782,157.353 c 0.9364,0.017 6.6543,1.177 6.6543,1.177 0,0 2.8481,-2.771 4.3485,-2.94 1.5011,-0.171 3.7582,1.726 5.5742,0.401 -2.1047,1.886 -2.9027,2.227 -2.9027,2.227 0,0 0.0957,2.596 -2.5122,4.905 -1.1195,0.993 -3.391,1.783 -4.4367,1.62 -1.0511,-0.165 -3.5969,-0.161 -4.9902,-2.388 -1.3957,-2.232 -1.7352,-5.002 -1.7352,-5.002"
         style="fill:#211e1e;fill-opacity:1;fill-rule:nonzero;stroke:none;stroke-width:0.1"
         id="path8983" />
      <path
         d="m 34.8254,162.278 c -1.3941,-2.232 -1.9918,-5.106 -1.9918,-5.106 0.7879,0.013 5.8766,0.978 7.1852,1.242 -0.4227,2.03 -0.3063,4.879 0.7453,6.299 -0.0922,0 -0.1942,0.002 -0.2723,-0.009 -1.0516,-0.164 -4.2727,-0.196 -5.6664,-2.426"
         style="fill:#100f0d;fill-opacity:1;fill-rule:nonzero;stroke:none;stroke-width:0.1"
         id="path8985" />
      <path
         d="m 28.343,124.364 c 1.3429,-3.299 6.7105,-9.679 6.282,-13.251 -0.1969,-1.65 -1.7699,-2.932 -2.5023,-2.809 -0.7336,0.122 -5.5567,12.945 -5.5567,12.945 l 1.777,3.115"
         style="fill:#212554;fill-opacity:1;fill-rule:nonzero;stroke:none;stroke-width:0.1"
         id="path8987" />
      <path
         d="m 10.7195,120.21 c -1.09841,0.55 -3.75387,2.933 -5.40348,1.375 -1.64805,-1.558 -1.83243,-3.664 -1.46485,-4.306 0.36563,-0.64 5.31094,0.916 5.31094,0.916 l 1.55739,2.015"
         style="fill:#100f0d;fill-opacity:1;fill-rule:nonzero;stroke:none;stroke-width:0.1"
         id="path8989" />
      <path
         d="m 6.32383,117.677 c 0.12265,1.099 1.09805,4.274 3.78517,3.908 2.6883,-0.366 11.2355,-3.908 11.2355,-3.908 0,0 0.243,-4.762 -0.6101,-4.762 -0.8551,0 -14.41057,4.762 -14.41057,4.762"
         style="fill:#2b398a;fill-opacity:1;fill-rule:nonzero;stroke:none;stroke-width:0.1"
         id="path8991" />
      <path
         d="m 27.1098,128.455 0.7925,2.609 c 3.0297,4.704 7.8961,9.207 8.045,13.68 0.1113,3.278 -5.1868,8.905 -5.1868,8.905 -1.7742,-0.353 -7.366,-1.657 -12.1359,-9.263 -6.1605,-9.437 -8.74374,-16.741 -6.6144,-21.301 1.7285,-3.707 7.6777,-7.315 8.7253,-7.975 -0.4371,0.222 -3.2089,1.793 -4.2941,2.001 -1.3844,0.267 -5.0383,1.358 -10.33281,2.713 -1.84492,0.475 -2.55898,-7.962 -0.67851,-9.026 4.62892,-2.617 15.97422,-4.757 18.21012,-4.732 3.7098,0.037 7.4914,-1.707 7.2289,5.627 -0.2586,7.335 -3.7593,16.762 -3.7593,16.762"
         style="fill:#212554;fill-opacity:1;fill-rule:nonzero;stroke:none;stroke-width:0.1"
         id="path8995" />
      <path
         d="m 5.63438,108.421 c 9.23162,-1.9 17.51332,-3.097 21.23162,-3.053 3.7094,0.036 8.2488,0.487 6.857,6.449 -1.9984,8.547 -5.7488,13.919 -5.7488,13.919 l 5.1653,13.057 c 0,0 -1.3852,0.812 -4.4055,2.524 -0.807,-1.561 -7.511,-10.095 -8.0149,-12.107 -0.2406,-0.984 3.8954,-6.638 5.2664,-9.825 1.9,-4.413 4.729,-8.561 1.0985,-9.159 -5.5098,-0.903 -19.13439,2.736 -22.65353,4.546 -0.70391,-0.804 0.45742,-6.194 1.20391,-6.351"
         style="fill:#2b398a;fill-opacity:1;fill-rule:nonzero;stroke:none;stroke-width:0.1"
         id="path8997" />
      <path
         d="m 50.9906,135.8 c 0.0657,0.105 0.4239,0.402 0.2867,0.753 -0.1136,0.3 0.2915,0.695 1.1536,0.985 0.6097,0.206 1.3828,0.504 1.7562,0.541 0.1309,0.013 0.1742,-0.119 0.1961,-0.142 0.0934,-0.103 -0.9121,-0.397 -1.091,-0.601 -0.2625,-0.295 0.5437,-0.427 0.5437,-0.427 l 1.9047,-0.16 -0.0613,-0.294 c 0,0 -0.2863,-0.315 -1.1574,-0.544 -0.5106,-0.136 -1.4258,-0.687 -1.4453,-0.784 -0.0141,-0.101 -2.086,0.673 -2.086,0.673"
         style="fill:#100f0d;fill-opacity:1;fill-rule:nonzero;stroke:none;stroke-width:0.1"
         id="path8999" />
      <path
         d="m 55.1648,136.764 c 0.5379,0.206 0.4157,1.083 0.2079,1.158 -0.8622,-0.456 -2.4961,-1.407 -2.4961,-1.407 l 2.2882,0.249"
         style="fill:#100f0d;fill-opacity:1;fill-rule:nonzero;stroke:none;stroke-width:0.1"
         id="path9001" />
      <path
         d="m 55.3027,136.8 c 0.3922,0.239 0.2598,0.993 0.15,1.062 -0.4058,-0.216 -1.0386,-0.61 -1.5125,-0.879 0,0 -1.1808,0.112 -0.9453,0.379 0.1598,0.181 1.2867,0.627 1.2449,0.732 -0.023,0.067 -1.0304,-0.148 -1.773,-0.397 -0.7777,-0.261 -1.2223,-0.649 -1.1645,-0.933 0.1207,-0.566 -0.0668,-0.878 -0.3468,-1.128 l 1.9293,-0.343 c 0.0168,0.088 1.0449,0.651 1.5058,0.772 0.7754,0.203 1.35,0.684 1.35,0.684 l -0.4379,0.051"
         style="fill:#211e1e;fill-opacity:1;fill-rule:nonzero;stroke:none;stroke-width:0.1"
         id="path9003" />
      <path
         d="m 51.3145,135.471 c 0.164,0.181 0.5324,0.56 0.5324,0.56 0,0 0.7902,0.39 0.8937,0.386 0.1051,-0.006 0.6317,-0.128 1.2071,-0.207 0.1046,-0.014 -0.8836,-0.337 -0.9528,-0.4 l -0.6234,-0.581 -1.057,0.242"
         style="fill:#100f0d;fill-opacity:1;fill-rule:nonzero;stroke:none;stroke-width:0.1"
         id="path9005" />
      <path
         d="m 53.1566,135.525 -2.1218,0.478 -6.893,-6.66 c -0.4121,-0.456 0.1973,-1.225 0.8754,-1.482 0.725,-0.277 1.8789,-0.098 2.3344,0.433 l 5.9418,6.864 -0.1368,0.367"
         style="fill:#731518;fill-opacity:1;fill-rule:nonzero;stroke:none;stroke-width:0.1"
         id="path9007" />
      <path
         d="m 51.2445,135.953 -6.7203,-6.358 c -0.2625,-0.289 0.3149,-0.843 0.7496,-1.002 0.4543,-0.16 1.3762,-0.128 1.6571,0.198 l 6.1664,6.75 -1.8528,0.412"
         style="fill:#b11d23;fill-opacity:1;fill-rule:nonzero;stroke:none;stroke-width:0.1"
         id="path9009" />
      <path
         d="m 45.9512,134.636 c 0.7519,0.214 4.1351,1.849 4.5176,1.599 0.391,-0.246 -0.0458,-0.664 -0.5625,-1.139 -0.5184,-0.468 -0.2145,-0.394 -0.2145,-0.394 0,0 1.2363,-0.241 2.9535,-1.109 0.8699,-0.439 1.1867,-1.44 -0.2801,-0.926 0.6504,-0.46 0.9641,-1.336 -0.2328,-1.139 0.5379,-0.45 0.4981,-1.096 -0.509,-0.944 0.3418,-0.222 0.3329,-0.663 -0.2718,-0.814 -0.3743,-0.095 -1.6754,-0.397 -3.5196,0.409 -1.8422,0.809 -3.1683,1.289 -3.1683,1.289 l 1.2875,3.168"
         style="fill:#f46e16;fill-opacity:1;fill-rule:nonzero;stroke:none;stroke-width:0.1"
         id="path9011" />
      <path
         d="m 47.832,130.179 c 1.8442,-0.806 3.1453,-0.504 3.5196,-0.409 0.6047,0.151 0.6136,0.592 0.2718,0.814 0.7848,-0.12 0.9766,0.247 0.7727,0.626 -2.2766,0.016 -5.1051,0.958 -7.0156,2.024 l -0.7168,-1.766 c 0,0 1.3261,-0.48 3.1683,-1.289"
         style="fill:#d93e21;fill-opacity:1;fill-rule:nonzero;stroke:none;stroke-width:0.1"
         id="path9013" />
      <path
         d="m 24.6328,148.601 c -0.6859,-1.544 0.9844,-5.05 0.9844,-5.05 1.3922,-2.785 4.875,-6.825 7.6566,-9.384 2.7805,-2.557 11.3313,-5.289 11.3313,-5.289 l 2.1508,5.927 c 0,0 -8.0137,4.468 -9.0071,5.463 -1.2785,1.279 -4.5586,7.813 -5.8992,9.264 -3.2441,3.504 -6.3558,1.01 -7.2168,-0.931"
         style="fill:#2b398a;fill-opacity:1;fill-rule:nonzero;stroke:none;stroke-width:0.1"
         id="path9015" />
    </g>
  </g>
</svg>
