<?xml version="1.0" encoding="UTF-8" standalone="no"?>
<svg
   xmlns:dc="http://purl.org/dc/elements/1.1/"
   xmlns:cc="http://creativecommons.org/ns#"
   xmlns:rdf="http://www.w3.org/1999/02/22-rdf-syntax-ns#"
   xmlns:svg="http://www.w3.org/2000/svg"
   xmlns="http://www.w3.org/2000/svg"
   xmlns:sodipodi="http://sodipodi.sourceforge.net/DTD/sodipodi-0.dtd"
   xmlns:inkscape="http://www.inkscape.org/namespaces/inkscape"
   width="16.0px"
   height="16.0px"
   viewBox="0 0 16.0 16.0"
   version="1.1"
   id="SVGRoot"
   sodipodi:docname="bath_tab.svg"
   inkscape:version="1.0.1 (0767f8302a, 2020-10-17)">
  <defs
     id="defs4627" />
  <sodipodi:namedview
     id="base"
     pagecolor="#ffffff"
     bordercolor="#666666"
     borderopacity="1.0"
     inkscape:pageopacity="0.0"
     inkscape:pageshadow="2"
     inkscape:zoom="5"
     inkscape:cx="50.2"
     inkscape:cy="38.8"
     inkscape:document-units="px"
     inkscape:current-layer="layer1"
     inkscape:document-rotation="0"
     showgrid="false"
     inkscape:window-width="1366"
     inkscape:window-height="681"
     inkscape:window-x="0"
     inkscape:window-y="57"
     inkscape:window-maximized="0">
    <inkscape:grid
       type="xygrid"
       id="grid5197" />
  </sodipodi:namedview>
  <metadata
     id="metadata4630">
    <rdf:RDF>
      <cc:Work
         rdf:about="">
        <dc:format>image/svg+xml</dc:format>
        <dc:type
           rdf:resource="http://purl.org/dc/dcmitype/StillImage" />
        <dc:title></dc:title>
      </cc:Work>
    </rdf:RDF>
  </metadata>
  <g
     inkscape:label="Layer 1"
     inkscape:groupmode="layer"
     id="layer1">
    <path
       d="m 14.650345,7.6957406 c -2.228629,0 -4.573459,0.062175 -6.7057192,-0.6956456 C 6.3812181,6.4446891 4.7263076,6.3207126 3.0764493,6.2839789 V 2.3394988 c 0,-0.2802858 0.2230495,-0.5089147 0.4971847,-0.5089147 h 0.8280167 c 0.2939683,0 0.4971832,0.1561185 0.4971832,0.3019056 V 2.4958095 C 4.3855577,2.5629635 4.0004597,2.8694608 4.0004597,3.2379464 h 2.2228276 c 0,-0.3684856 -0.385286,-0.6749829 -0.8976262,-0.7421369 V 2.1324897 c 0,-0.4155507 -0.4056819,-0.7367803 -0.9240104,-0.7367803 H 3.573634 c -0.5065413,0 -0.9240104,0.4199516 -0.9240104,0.9437894 V 6.2788132 C 2.3352579,6.2736475 2.01584,6.2674774 1.700913,6.2674774 c -0.4569529,0 -0.4569529,0.7228128 0,0.7272137 2.0706956,0.015684 4.1423287,0.026216 6.1164691,0.7272137 2.1622003,0.7675821 4.5736469,0.7002373 6.8329629,0.7002373 0.456766,0 0.456766,-0.7264489 0,-0.7264489"
       style="fill:#000080;fill-opacity:1;fill-rule:nonzero;stroke:none;stroke-width:0.18921"
       id="path2467" />
    <path
       d="m 3.8118404,3.7774735 c 0.8478511,0 1.7016906,0 2.5540341,0 0.2586023,0 0.2586023,-0.410385 0,-0.410385 -0.8523435,0 -1.706183,0 -2.5540341,0 -0.2580423,0 -0.2580423,0.410385 0,0.410385"
       style="fill:#000080;fill-opacity:1;fill-rule:nonzero;stroke:none;stroke-width:0.18921"
       id="path2469" />
    <path
       d="M 11.512302,12.117951 H 4.8782514 c -0.8420508,0 -1.6942062,-0.773514 -2.0297172,-1.640583 0.4210254,0.664459 1.1315297,1.183898 1.8375416,1.183898 h 6.7809432 c 1.106641,0 2.005765,-0.898255 2.005765,-2.0037129 v 0.4618519 c 0,1.105457 -0.877792,1.998546 -1.960482,1.998546 z m 2.385811,1.151565 c -0.233154,0 -0.421026,0.197253 -0.421026,0.436406 l 0.02564,0.155544 -0.01965,-0.01492 -0.02059,-0.01205 -0.0051,-0.0098 -0.08627,-0.09337 -0.04529,-0.233796 0.01459,-0.05682 0.02564,-0.05166 0.0247,-0.03577 0.06081,-0.07921 0.01534,-0.02028 0.0058,-0.01047 0.0044,-0.0044 -0.0146,0.02544 v -0.0053 h 0.0045 l 0.03575,-0.04171 0.07167,-0.07787 0.141091,-0.155353 0.142587,-0.155544 0.07148,-0.07845 0.04547,-0.05147 0.04603,-0.07251 0.141651,-0.295975 0.04547,-0.327351 c 0.01011,-0.207011 -0.04024,-0.409621 -0.127248,-0.597116 0.133044,-0.290044 0.203963,-0.611273 0.203963,-0.948381 V 8.7233633 C 5.9805886,8.6919531 9.4167173,7.4409001 2.000495,7.3534666 l 0.1068422,2.6830954 c 0,0.481939 0.182631,0.990856 0.4824011,1.431852 -0.070915,0.171233 -0.1126523,0.347441 -0.1023513,0.534361 l 0.045288,0.327352 0.1433367,0.295974 0.045288,0.07251 0.040236,0.05147 0.071673,0.07845 0.1416512,0.155545 0.1476396,0.155353 0.070915,0.07787 0.035928,0.04171 0.00435,0.0053 -0.015353,-0.02544 v 0.0044 l 0.011087,0.01048 0.014595,0.02028 0.061371,0.07921 0.025641,0.03577 0.024883,0.05166 0.015339,0.05682 -0.046032,0.233794 -0.085707,0.09337 -0.010105,0.0098 -0.015339,0.01205 -0.020588,0.01492 0.024883,-0.155544 c 0,-0.239152 -0.1871234,-0.436405 -0.4253297,-0.436405 -0.2339035,0 -0.4268258,0.197253 -0.4268258,0.436405 0,0.243743 0.1929223,0.435831 0.4268258,0.435831 h 0.2937817 l 0.182819,-0.03673 0.040039,-0.01033 0.021332,-0.0046 0.024883,-0.01047 0.197976,-0.104461 0.1674755,-0.186927 0.060628,-0.11881 0.035745,-0.13527 0.015339,-0.140434 -0.0094,-0.144258 -0.035928,-0.161475 -0.035745,-0.09872 -0.1878658,-0.410193 -0.086268,-0.192086 -0.015339,-0.03061 c 0.3450527,0.22863 0.7265958,0.363129 1.1066414,0.363129 h 7.5017374 c 0.416534,0 0.807621,-0.119572 1.142382,-0.327351 l -0.08627,0.18692 -0.182631,0.410194 -0.03593,0.09872 -0.03499,0.161475 -0.01025,0.144258 0.01534,0.140435 0.03593,0.135269 0.05539,0.118811 0.172526,0.18692 0.193111,0.104462 0.03069,0.01047 0.01965,0.0046 0.04098,0.01033 0.177581,0.03673 h 0.293782 c 0.239142,0 0.427013,-0.192086 0.427013,-0.43583 0,-0.239153 -0.187871,-0.436404 -0.427013,-0.436404"
       style="fill:#000080;fill-opacity:1;fill-rule:nonzero;stroke:none;stroke-width:0.18921"
       id="path2471" />
  </g>
</svg>
