<?xml version="1.0" encoding="UTF-8" standalone="no"?>
<svg
   xmlns:dc="http://purl.org/dc/elements/1.1/"
   xmlns:cc="http://creativecommons.org/ns#"
   xmlns:rdf="http://www.w3.org/1999/02/22-rdf-syntax-ns#"
   xmlns:svg="http://www.w3.org/2000/svg"
   xmlns="http://www.w3.org/2000/svg"
   xmlns:sodipodi="http://sodipodi.sourceforge.net/DTD/sodipodi-0.dtd"
   xmlns:inkscape="http://www.inkscape.org/namespaces/inkscape"
   width="16.0px"
   height="16.0px"
   viewBox="0 0 16.0 16.0"
   version="1.1"
   id="SVGRoot"
   sodipodi:docname="meter.svg"
   inkscape:version="1.0.1 (0767f8302a, 2020-10-17)">
  <defs
     id="defs10305" />
  <sodipodi:namedview
     id="base"
     pagecolor="#ffffff"
     bordercolor="#666666"
     borderopacity="1.0"
     inkscape:pageopacity="0.0"
     inkscape:pageshadow="2"
     inkscape:zoom="5"
     inkscape:cx="50.2"
     inkscape:cy="38.8"
     inkscape:document-units="px"
     inkscape:current-layer="layer1"
     inkscape:document-rotation="0"
     showgrid="false"
     inkscape:window-width="1366"
     inkscape:window-height="681"
     inkscape:window-x="0"
     inkscape:window-y="57"
     inkscape:window-maximized="0">
    <inkscape:grid
       type="xygrid"
       id="grid10875" />
  </sodipodi:namedview>
  <metadata
     id="metadata10308">
    <rdf:RDF>
      <cc:Work
         rdf:about="">
        <dc:format>image/svg+xml</dc:format>
        <dc:type
           rdf:resource="http://purl.org/dc/dcmitype/StillImage" />
        <dc:title></dc:title>
      </cc:Work>
    </rdf:RDF>
  </metadata>
  <g
     inkscape:label="Layer 1"
     inkscape:groupmode="layer"
     id="layer1">
    <path
       d="m 7.9843247,2.8686623 c -1.5911996,0 -2.8854756,1.347199 -2.8854756,3.0027475 0,1.6553661 1.294276,3.0040271 2.8854756,3.0040271 1.5913747,0 2.8863523,-1.348661 2.8863523,-3.0040271 0,-1.6555485 -1.2949776,-3.0027475 -2.8863523,-3.0027475 z m 0,6.4228989 c -1.8106879,0 -3.2772179,-1.5364459 -3.2772179,-3.4201514 0,-1.8824259 1.46653,-3.4144877 3.2772179,-3.4144877 1.8108617,0 3.2868733,1.5320618 3.2868733,3.4144877 0,1.8837055 -1.4760116,3.4201514 -3.2868733,3.4201514"
       style="fill:#000080;fill-opacity:1;fill-rule:nonzero;stroke:none;stroke-width:0.179096"
       id="path2567" />
    <path
       d="m 7.9843247,2.2950745 c -1.8963751,0 -3.4396385,1.6054969 -3.4396385,3.5763353 0,1.9730318 1.5432634,3.5785273 3.4396385,3.5785273 1.8965502,0 3.4398133,-1.6054955 3.4398133,-3.5785273 0,-1.9708384 -1.5432631,-3.5763353 -3.4398133,-3.5763353 z m 0,7.3618294 c -2.0006757,0 -3.6385827,-1.694823 -3.6385827,-3.7854941 0,-2.0800752 1.637907,-3.7854928 3.6385827,-3.7854928 2.0098059,0 3.6387563,1.7054176 3.6387563,3.7854928 0,2.0906711 -1.6289504,3.7854941 -3.6387563,3.7854941"
       style="fill:#000080;fill-opacity:1;fill-rule:nonzero;stroke:none;stroke-width:0.179096"
       id="path2569" />
    <path
       d="m 8.1270783,3.6130467 c 0,0.2367418 -0.067256,0.4351226 -0.1427536,0.4351226 -0.075328,0 -0.1418779,-0.1983808 -0.1418779,-0.4351226 0,-0.239116 0.066544,-0.4259886 0.1418779,-0.4259886 0.075499,0 0.1427536,0.1868726 0.1427536,0.4259886"
       style="fill:#000080;fill-opacity:1;fill-rule:nonzero;stroke:none;stroke-width:0.179096"
       id="path2571" />
    <path
       d="M 9.5941364,4.3749689 C 9.4317145,4.5441214 9.2601637,4.6334476 9.2039743,4.5642156 9.1470831,4.5134285 9.2327755,4.3358763 9.3939621,4.1681842 9.5570859,3.9983001 9.7279349,3.9091575 9.7848274,3.9590267 c 0.057063,0.058459 -0.029499,0.2482501 -0.190691,0.4159422"
       style="fill:#000080;fill-opacity:1;fill-rule:nonzero;stroke:none;stroke-width:0.179096"
       id="path2573" />
    <path
       d="m 10.11757,5.9905123 c -0.228442,0 -0.4080708,-0.079832 -0.4080708,-0.1583759 0,-0.078544 0.1796288,-0.1391954 0.4080708,-0.1391954 0.229672,0 0.419836,0.060651 0.419836,0.1391954 0,0.078544 -0.190164,0.1583759 -0.419836,0.1583759"
       style="fill:#000080;fill-opacity:1;fill-rule:nonzero;stroke:none;stroke-width:0.179096"
       id="path2575" />
    <path
       d="M 8.5660548,3.3847087 8.4232999,3.483173 8.3170634,3.3346614 8.4693002,3.2347449 8.5660548,3.3847183"
       style="fill:#000080;fill-opacity:1;fill-rule:nonzero;stroke:none;stroke-width:0.179096"
       id="path2577" />
    <path
       d="M 9.002923,3.5438148 8.8417311,3.6130426 8.7664029,3.4438887 8.9275948,3.3739211 9.002923,3.5438051"
       style="fill:#000080;fill-opacity:1;fill-rule:nonzero;stroke:none;stroke-width:0.179096"
       id="path2579" />
    <path
       d="M 9.3939621,3.7807388 9.2224113,3.8198258 9.1950192,3.6415379 9.3562111,3.6022591 9.3939674,3.7807292"
       style="fill:#000080;fill-opacity:1;fill-rule:nonzero;stroke:none;stroke-width:0.179096"
       id="path2581" />
    <path
       d="m 10.031883,4.4741592 -0.1715522,-0.029959 0.028801,-0.1782866 0.1722532,0.030689 -0.0295,0.1775563"
       style="fill:#000080;fill-opacity:1;fill-rule:nonzero;stroke:none;stroke-width:0.179096"
       id="path2583" />
    <path
       d="m 10.243117,4.9008781 -0.163298,-0.060651 0.0583,-0.1676907 0.161194,0.059363 -0.05619,0.1689717"
       style="fill:#000080;fill-opacity:1;fill-rule:nonzero;stroke:none;stroke-width:0.179096"
       id="path2585" />
    <path
       d="m 10.366558,5.3562772 -0.142755,-0.090052 0.08586,-0.1583759 0.150832,0.099917 -0.09394,0.1485116"
       style="fill:#000080;fill-opacity:1;fill-rule:nonzero;stroke:none;stroke-width:0.179096"
       id="path2587" />
    <path
       d="M 6.365733,4.3457406 C 6.5269249,4.5134327 6.7086608,4.6033068 6.7546651,4.5527073 6.8134922,4.494248 6.7271018,4.3051876 6.5646772,4.1374955 6.4034854,3.9698034 6.2319332,3.8804772 6.1736368,3.9398462 6.1174435,3.9983055 6.203136,4.1767703 6.365733,4.3457406"
       style="fill:#000080;fill-opacity:1;fill-rule:nonzero;stroke:none;stroke-width:0.179096"
       id="path2589" />
    <path
       d="m 5.8408941,5.9605538 c 0.2277402,0 0.4184312,-0.058459 0.4184312,-0.1391954 0,-0.089149 -0.190691,-0.1569141 -0.4184312,-0.1569141 -0.227565,0 -0.418256,0.067775 -0.418256,0.1569141 0,0.080736 0.190691,0.1391954 0.418256,0.1391954"
       style="fill:#000080;fill-opacity:1;fill-rule:nonzero;stroke:none;stroke-width:0.179096"
       id="path2591" />
    <path
       d="M 7.3945165,3.3646144 7.5372714,3.4630787 7.6414008,3.3154795 7.4995243,3.2062468 7.3945257,3.3646226"
       style="fill:#000080;fill-opacity:1;fill-rule:nonzero;stroke:none;stroke-width:0.179096"
       id="path2593" />
    <path
       d="m 6.9659002,3.5237205 0.1508329,0.067775 0.076909,-0.1676921 -0.162597,-0.06905 -0.065148,0.1689717"
       style="fill:#000080;fill-opacity:1;fill-rule:nonzero;stroke:none;stroke-width:0.179096"
       id="path2595" />
    <path
       d="M 6.5646772,3.7606459 6.7270978,3.8006506 6.7648538,3.6214503 6.5940036,3.5830896 6.5646756,3.760646"
       style="fill:#000080;fill-opacity:1;fill-rule:nonzero;stroke:none;stroke-width:0.179096"
       id="path2597" />
    <path
       d="M 5.9369416,4.4549788 6.1084937,4.4250164 6.0686307,4.245816 5.897957,4.2765045 5.936938,4.4549747"
       style="fill:#000080;fill-opacity:1;fill-rule:nonzero;stroke:none;stroke-width:0.179096"
       id="path2599" />
    <path
       d="m 5.7174533,4.8816976 0.1715521,-0.060651 -0.066544,-0.1792004 -0.163299,0.069967 0.0583,0.1698841"
       style="fill:#000080;fill-opacity:1;fill-rule:nonzero;stroke:none;stroke-width:0.179096"
       id="path2601" />
    <path
       d="M 5.5838299,5.346961 5.7367686,5.2470403 5.650207,5.0985287 5.4979702,5.1885806 5.5838342,5.3469565"
       style="fill:#000080;fill-opacity:1;fill-rule:nonzero;stroke:none;stroke-width:0.179096"
       id="path2603" />
    <path
       d="M 7.327265,5.692941 7.6984633,5.6337556 7.2689699,4.087444 Z"
       style="fill:#000080;fill-opacity:1;fill-rule:nonzero;stroke:none;stroke-width:0.179096"
       id="path2605" />
    <path
       d="M 8.1846727,8.4580329 V 6.0496978 C 8.946735,6.1103491 9.6613866,6.4672839 10.175867,7.0700986 9.7848274,7.8530262 9.0317203,8.3794848 8.1846727,8.4580329 Z M 7.9843247,5.8321364 c -0.9806722,0 -1.8484389,0.4758578 -2.429292,1.2094656 0.4196612,0.9504374 1.3525724,1.6255898 2.429292,1.6255898 1.0768947,0 2.0098059,-0.6751524 2.4294653,-1.6255898 C 9.8329387,6.3079942 8.9651707,5.8321364 7.9843247,5.8321364"
       style="fill:#000080;fill-opacity:1;fill-rule:nonzero;stroke:none;stroke-width:0.179096"
       id="path2607" />
    <path
       d="M 1.787216,14.266427 H 0.81198799 V 10.986202 H 1.787216 v 3.280225"
       style="fill:#000080;fill-opacity:1;fill-rule:nonzero;stroke:none;stroke-width:0.179096"
       id="path2609" />
    <path
       d="m 15.148583,14.266427 h -0.972595 v -3.280225 h 0.972595 v 3.280225"
       style="fill:#000080;fill-opacity:1;fill-rule:nonzero;stroke:none;stroke-width:0.179096"
       id="path2611" />
    <path
       d="M 13.405147,12.482461 H 2.5636762 V 12.145799 H 13.405147 Z M 9.2889596,11.559789 v -1.524756 h -2.609096 v 1.524756 H 2.2023114 v 2.032217 H 13.766512 V 11.559789 H 9.2889596"
       style="fill:#000080;fill-opacity:1;fill-rule:nonzero;stroke:none;stroke-width:0.179096"
       id="path2613" />
  </g>
</svg>
