<?xml version="1.0" encoding="UTF-8" standalone="no"?>
<svg
   xmlns:dc="http://purl.org/dc/elements/1.1/"
   xmlns:cc="http://creativecommons.org/ns#"
   xmlns:rdf="http://www.w3.org/1999/02/22-rdf-syntax-ns#"
   xmlns:svg="http://www.w3.org/2000/svg"
   xmlns="http://www.w3.org/2000/svg"
   xmlns:sodipodi="http://sodipodi.sourceforge.net/DTD/sodipodi-0.dtd"
   xmlns:inkscape="http://www.inkscape.org/namespaces/inkscape"
   width="16.0px"
   height="16.0px"
   viewBox="0 0 16.0 16.0"
   version="1.1"
   id="SVGRoot"
   sodipodi:docname="tap.svg"
   inkscape:version="1.0.1 (0767f8302a, 2020-10-17)">
  <defs
     id="defs4011" />
  <sodipodi:namedview
     id="base"
     pagecolor="#ffffff"
     bordercolor="#666666"
     borderopacity="1.0"
     inkscape:pageopacity="0.0"
     inkscape:pageshadow="2"
     inkscape:zoom="4"
     inkscape:cx="88.832567"
     inkscape:cy="52.5"
     inkscape:document-units="px"
     inkscape:current-layer="layer1"
     inkscape:document-rotation="0"
     showgrid="false"
     inkscape:window-width="1366"
     inkscape:window-height="681"
     inkscape:window-x="0"
     inkscape:window-y="57"
     inkscape:window-maximized="0"
     showguides="true">
    <inkscape:grid
       type="xygrid"
       id="grid4581" />
  </sodipodi:namedview>
  <metadata
     id="metadata4014">
    <rdf:RDF>
      <cc:Work
         rdf:about="">
        <dc:format>image/svg+xml</dc:format>
        <dc:type
           rdf:resource="http://purl.org/dc/dcmitype/StillImage" />
        <dc:title></dc:title>
      </cc:Work>
    </rdf:RDF>
  </metadata>
  <g
     inkscape:label="Layer 1"
     inkscape:groupmode="layer"
     id="layer1">
    <path
       d="m 14.673594,3.345604 c -0.374567,0 -4.126976,-0.3006281 -4.126976,-0.6672773 l 0.01775,-0.038764 c 0.745308,0.3006281 3.622404,0.5253425 3.942192,0.5253425 0.375393,0 0.678231,-0.2957825 0.678231,-0.668086 L 15.077306,2.1467244 c 0.163098,0.120731 0.269763,0.3115307 0.269763,0.5316023 0,0.3666492 -0.302838,0.6672773 -0.673477,0.6672773 z m -10.0934426,0 c -0.2462809,0 -0.4586585,-0.1310278 -0.5765479,-0.3226347 l 0.4093974,0.1419305 c 0.2349726,0 1.7998642,-0.1199284 2.9432656,-0.2957825 0.3084597,-0.010293 0.612062,-0.043414 0.9084083,-0.1261823 l 0.499835,-0.081972 v 0.00621 c 0,0.3714948 -3.8024116,0.6783828 -4.1843584,0.6783828 z M 14.825529,1.8666901 c -0.386764,0 -3.633733,0.2523735 -4.8280072,0.6034775 -0.01054,-0.2414724 -0.201857,-0.4330747 -0.436849,-0.4330747 -0.235779,0 -0.427156,0.1916023 -0.438442,0.4330747 C 7.9287633,2.1190636 4.6875387,1.8666901 4.2951115,1.8666901 c -0.4715776,0 -0.8583615,0.3834074 -0.8583615,0.855044 0,0.4708309 0.3867839,0.8485841 0.8583615,0.8485841 0.3859777,0 3.6272023,-0.2515664 4.8271193,-0.596209 v 1.0117185 c -0.599163,0.011962 -1.075578,0.4330748 -1.120787,0.964677 0.521624,-0.1310278 1.048106,-0.2081589 1.559229,-0.2081589 0.5555452,0 1.0820272,0.093686 1.5649112,0.252375 C 11.107804,4.4417177 10.614441,3.9977404 10.002381,3.9858277 V 2.9741092 c 1.195864,0.3446426 4.436384,0.596209 4.823148,0.596209 0.476271,0 0.858279,-0.3777532 0.858279,-0.8485841 0,-0.4716366 -0.382008,-0.855044 -0.858279,-0.855044"
       style="fill:#000080;fill-opacity:1;fill-rule:nonzero;stroke:none;stroke-width:0.204293"
       id="path2461" />
    <path
       d="m 9.3749598,10.290549 c -1.300856,0 -2.898842,-0.3832053 -3.5262634,-1.2105901 0.7727615,0.5251408 2.0074062,0.7775148 3.0611554,0.7775148 1.6650242,0 3.0167522,-0.6236673 3.0167522,-1.9929513 0,-0.5259482 -0.201878,-1.0133343 -0.54426,-1.4141057 0.616919,0.4558899 1.009368,1.1120633 1.009368,1.8471804 0,1.3690816 -1.351728,1.9929519 -3.0167522,1.9929519 z M 12.784139,6.6539316 C 12.106672,5.7776881 10.917238,5.19662 9.5606728,5.19662 c -1.6149594,0 -3.5779214,0.8225391 -4.4136694,1.9889139 l -0.2971513,0.021397 c -1.8951602,0 -3.4422955,1.5283799 -3.4422955,3.4014034 v 0.947314 h 2.2988941 v -0.947314 c 0,-0.6246783 0.51598,-1.1340713 1.1434014,-1.1340713 l 0.3706384,0.022 c 0.8744868,0.9315663 2.7696469,1.3692863 4.3401823,1.3692863 1.3234692,0 2.4894632,-0.306889 3.1733992,-0.9638703 l 1.917817,0.1041823 V 6.5230916 l -1.86775,0.1308308"
       style="fill:#000080;fill-opacity:1;fill-rule:nonzero;stroke:none;stroke-width:0.204293"
       id="path2463" />
    <path
       d="m 3.5603029,13.696798 -0.4319924,0.0054 -0.4376558,-0.01655 -0.4312063,-0.04321 -0.4376573,-0.08137 0.4376573,-0.07733 0.4312063,-0.04402 0.4376558,-0.01575 0.3084395,0.0047 0.028279,-0.377755 0.09527,-0.509595 0.096076,0.509595 0.037953,0.510199 0.00574,0.131029 z M 1.0038212,12.009927 v 2.196466 H 4.1433003 V 12.009927 H 1.0038212"
       style="fill:#000080;fill-opacity:1;fill-rule:nonzero;stroke:none;stroke-width:0.204293"
       id="path2465" />
  </g>
</svg>
