<?xml version="1.0" encoding="UTF-8" standalone="no"?>
<svg
   xmlns:dc="http://purl.org/dc/elements/1.1/"
   xmlns:cc="http://creativecommons.org/ns#"
   xmlns:rdf="http://www.w3.org/1999/02/22-rdf-syntax-ns#"
   xmlns:svg="http://www.w3.org/2000/svg"
   xmlns="http://www.w3.org/2000/svg"
   xmlns:sodipodi="http://sodipodi.sourceforge.net/DTD/sodipodi-0.dtd"
   xmlns:inkscape="http://www.inkscape.org/namespaces/inkscape"
   width="16.0px"
   height="16.0px"
   viewBox="0 0 16.0 16.0"
   version="1.1"
   id="SVGRoot"
   sodipodi:docname="toilet.svg"
   inkscape:version="1.0.1 (0767f8302a, 2020-10-17)">
  <defs
     id="defs5243" />
  <sodipodi:namedview
     id="base"
     pagecolor="#ffffff"
     bordercolor="#666666"
     borderopacity="1.0"
     inkscape:pageopacity="0.0"
     inkscape:pageshadow="2"
     inkscape:zoom="5"
     inkscape:cx="50.2"
     inkscape:cy="38.8"
     inkscape:document-units="px"
     inkscape:current-layer="layer1"
     inkscape:document-rotation="0"
     showgrid="false"
     inkscape:window-width="1366"
     inkscape:window-height="681"
     inkscape:window-x="0"
     inkscape:window-y="57"
     inkscape:window-maximized="0">
    <inkscape:grid
       type="xygrid"
       id="grid5813" />
  </sodipodi:namedview>
  <metadata
     id="metadata5246">
    <rdf:RDF>
      <cc:Work
         rdf:about="">
        <dc:format>image/svg+xml</dc:format>
        <dc:type
           rdf:resource="http://purl.org/dc/dcmitype/StillImage" />
        <dc:title></dc:title>
      </cc:Work>
    </rdf:RDF>
  </metadata>
  <g
     inkscape:label="Layer 1"
     inkscape:groupmode="layer"
     id="layer1">
    <path
       d="m 8.8172186,11.679659 c -0.5785506,0.2019 -0.013965,3.152384 -0.013965,3.152384 H 8.312262 c 0,0 -0.5670245,-3.001817 0.024388,-3.209062 1.0207766,-0.362393 2.090099,-1.278396 2.163914,-2.3243569 h 0.491656 c 0,1.0659979 -1.1169799,2.0083359 -2.1749968,2.3810349 z M 3.4417968,9.0034036 c 0,1.2845034 1.3696787,2.4331324 2.60791,2.8581194 0.7343836,0.242932 0,3.349327 0,3.349327 h 3.3926125 c 0,0 -0.7099996,-3.106395 0,-3.349327 1.2615067,-0.445788 2.6090197,-1.573616 2.6090197,-2.8581194 H 3.4417968"
       style="fill:#000080;fill-opacity:1;fill-rule:nonzero;stroke:none;stroke-width:0.205672"
       id="path2473" />
    <path
       d="m 12.375194,8.3921619 c 0,0.2020931 -0.192406,0.3683105 -0.419172,0.3683105 h -8.41913 c -0.2405092,0 -0.4329155,-0.1662174 -0.4329155,-0.3683105 0,-0.1967489 0.1924063,-0.3622019 0.4329155,-0.3622019 h 8.41913 c 0.226766,0 0.419172,0.165453 0.419172,0.3622019"
       style="fill:#000080;fill-opacity:1;fill-rule:nonzero;stroke:none;stroke-width:0.205672"
       id="path2475" />
    <path
       d="M 10.451126,7.2225405 10.139462,6.9578544 10.451126,6.6948857 10.751485,6.9578544 Z M 9.8379951,2.6409999 9.5376355,2.3824194 9.8379951,2.118496 10.139462,2.3824194 Z m -4.2575559,0 L 5.2818539,2.3824194 5.5804392,2.118496 5.8819056,2.3824194 Z M 4.9681946,7.2225405 4.6669492,6.9578544 4.9681946,6.6948857 5.2818539,6.9578544 Z M 8.4552371,1.0309328 H 7.0370118 c -1.5516678,0 -2.826253,1.0927158 -2.826253,2.433133 V 7.6885571 H 11.269297 V 3.4640658 c 0,-1.3404172 -1.261506,-2.433133 -2.8140599,-2.433133"
       style="fill:#000080;fill-opacity:1;fill-rule:nonzero;stroke:none;stroke-width:0.205672"
       id="path2477" />
  </g>
</svg>
